<?xml version="1.0" encoding="UTF-8" standalone="no"?><!DOCTYPE svg PUBLIC "-//W3C//DTD SVG 1.1//EN" "http://www.w3.org/Graphics/SVG/1.1/DTD/svg11.dtd"><svg width="100%" height="100%" viewBox="0 0 120 120" version="1.1" xmlns="http://www.w3.org/2000/svg" xmlns:xlink="http://www.w3.org/1999/xlink" xml:space="preserve" xmlns:serif="http://www.serif.com/" style="fill-rule:evenodd;clip-rule:evenodd;stroke-linecap:round;stroke-linejoin:round;stroke-miterlimit:1.5;"><path d="M60,24c7.534,-0 13.682,0.825 17.832,3.995c4.151,3.17 6.952,9.397 6.952,16.321l0,32.34c0,5.729 -1.754,10.384 -4.836,13.601c-3.081,3.218 -8.784,5.743 -19.948,5.743c-11.164,0 -17.146,-2.766 -19.948,-5.743c-2.803,-2.977 -4.836,-7.872 -4.836,-13.601l-0,-32.34c-0,-6.924 2.801,-13.151 6.952,-16.321c4.15,-3.17 10.298,-3.995 17.832,-3.995" style="fill:#fff;stroke:#000;stroke-width:2px;"/><path d="M60,27.995c6.364,-0 8.609,0.291 12.09,1.813c1.3,0.569 2.839,1.584 4.231,3.023c2.383,2.462 4.337,6.053 3.929,9.974c-0.901,8.674 -2.54,28.65 -3.324,33.549c-0.894,5.583 -7.306,13.601 -16.926,13.601c-9.62,0 -15.706,-7.681 -16.926,-13.601c-1.219,-5.92 -2.423,-24.875 -3.324,-33.549c-0.408,-3.921 1.546,-7.512 3.929,-9.974c1.392,-1.439 2.931,-2.454 4.231,-3.023c3.481,-1.522 5.726,-1.813 12.09,-1.813" style="fill:#4eb84b;stroke:#000;stroke-width:2px;"/><circle cx="60" cy="73.029" r="9.974" style="fill:#fff;stroke:#000;stroke-width:2px;"/></svg>