<?xml version="1.0" encoding="UTF-8" standalone="no"?><!DOCTYPE svg PUBLIC "-//W3C//DTD SVG 1.1//EN" "http://www.w3.org/Graphics/SVG/1.1/DTD/svg11.dtd"><svg width="100%" height="100%" viewBox="0 0 120 120" version="1.1" xmlns="http://www.w3.org/2000/svg" xmlns:xlink="http://www.w3.org/1999/xlink" xml:space="preserve" xmlns:serif="http://www.serif.com/" style="fill-rule:evenodd;clip-rule:evenodd;stroke-linecap:round;stroke-linejoin:round;stroke-miterlimit:1.5;"><g><clipPath id="_clip1"><rect x="20.089" y="32.313" width="50.655" height="55.232"/></clipPath><g clip-path="url(#_clip1)"><path d="M96.007,40.156l0.04,39.156l-59.746,-0l-8.47,4.131l-3.851,0.027l0.015,-43.314c-0,-3.323 2.873,-6.02 6.412,-6.02l59.188,-0c3.538,-0 6.412,2.697 6.412,6.02Z" style="fill:#4eb84b;stroke:#000;stroke-width:2px;"/></g><clipPath id="_clip2"><rect x="49.283" y="32.313" width="50.655" height="55.232"/></clipPath><g clip-path="url(#_clip2)"><path d="M24.02,40.156l-0.04,39.156l59.745,-0l8.471,4.131l3.851,0.027l-0.015,-43.314c-0,-3.323 -2.873,-6.02 -6.412,-6.02l-59.188,-0c-3.539,-0 -6.412,2.697 -6.412,6.02Z" style="fill:#4eb84b;stroke:#000;stroke-width:2px;"/></g><path d="M47.44,40.303c9.254,-0 16.767,7.513 16.767,16.767c0,9.254 -7.513,16.767 -16.767,16.767c-9.254,0 -16.768,-7.513 -16.768,-16.767c0,-9.254 7.514,-16.767 16.768,-16.767Zm0.012,6.138c-5.865,0 -10.627,4.762 -10.627,10.627c0,5.865 4.762,10.627 10.627,10.627c5.866,0 10.627,-4.762 10.627,-10.627c0,-5.865 -4.761,-10.627 -10.627,-10.627Z" style="fill:#fff;stroke:#000;stroke-width:2px;"/><path d="M72.813,44.769l15.317,-0" style="fill:none;stroke:#000;stroke-width:2px;"/><path d="M72.813,50.895l15.317,0" style="fill:none;stroke:#000;stroke-width:2px;"/><path d="M72.813,57.013l15.317,-0" style="fill:none;stroke:#000;stroke-width:2px;"/><path d="M72.813,63.139l15.317,0" style="fill:none;stroke:#000;stroke-width:2px;"/><path d="M72.813,69.288l15.317,0" style="fill:none;stroke:#000;stroke-width:2px;"/></g></svg>