<?xml version="1.0" encoding="UTF-8" standalone="no"?><!DOCTYPE svg PUBLIC "-//W3C//DTD SVG 1.1//EN" "http://www.w3.org/Graphics/SVG/1.1/DTD/svg11.dtd"><svg width="100%" height="100%" viewBox="0 0 120 120" version="1.1" xmlns="http://www.w3.org/2000/svg" xmlns:xlink="http://www.w3.org/1999/xlink" xml:space="preserve" xmlns:serif="http://www.serif.com/" style="fill-rule:evenodd;clip-rule:evenodd;stroke-linecap:round;stroke-linejoin:round;stroke-miterlimit:1.5;"><g><rect x="52.45" y="23.912" width="15.063" height="69.763" style="fill:#4eb84b;stroke:#000;stroke-width:2px;"/><path d="M52.638,34.281l14.786,-0" style="fill:none;stroke:#000;stroke-width:2px;"/><path d="M52.647,38.201l14.767,-0" style="fill:none;stroke:#000;stroke-width:2px;"/><rect x="55.773" y="81.345" width="11.746" height="12.364" style="fill:#fff;stroke:#000;stroke-width:2px;"/><path d="M52.66,76.234l14.752,-0" style="fill:none;stroke:#000;stroke-width:2px;"/><path d="M52.479,87.411l14.821,-0" style="fill:none;stroke:#000;stroke-width:2px;"/><path d="M52.597,93.695l1.812,-0c-0,-0 -0.199,2.285 1.613,2.283c1.811,-0.002 4.095,-0 4.095,-0" style="fill:none;stroke:#000;stroke-width:2px;"/><path d="M67.493,93.695l-1.812,-0c0,-0 0.199,2.285 -1.612,2.283c-1.812,-0.002 -4.096,-0 -4.096,-0" style="fill:none;stroke:#000;stroke-width:2px;"/><circle cx="60.117" cy="66.34" r="3.777" style="fill:#fff;stroke:#000;stroke-width:2px;"/><path d="M64.266,41.348l0.05,0.007" style="fill:none;stroke:#000;stroke-width:2px;"/><path d="M64.266,44.575l0.05,0.007" style="fill:none;stroke:#000;stroke-width:2px;"/><path d="M64.266,47.817l0.05,0.007" style="fill:none;stroke:#000;stroke-width:2px;"/><path d="M64.266,51.044l0.05,0.007" style="fill:none;stroke:#000;stroke-width:2px;"/><g><path d="M59.682,84.546l0.001,0" style="fill:none;stroke:#000;stroke-width:2px;"/><path d="M63.775,84.546l-0.001,0" style="fill:none;stroke:#000;stroke-width:2px;"/></g><rect x="52.45" y="23.912" width="15.063" height="5.948" style="fill:#fff;"/><g><path d="M59.682,90.885l0.001,-0" style="fill:none;stroke:#000;stroke-width:2px;"/><path d="M63.775,90.885l-0.001,-0" style="fill:none;stroke:#000;stroke-width:2px;"/></g><path d="M52.672,29.86l14.668,-0" style="fill:none;stroke:#000;stroke-width:2px;"/><g><path d="M57.038,27.091l0.002,0" style="fill:none;stroke:#000;stroke-width:2px;"/><path d="M62.937,27.091l-0.002,0" style="fill:none;stroke:#000;stroke-width:2px;"/></g><rect x="52.45" y="23.912" width="15.063" height="69.763" style="fill:none;stroke:#000;stroke-width:2px;"/></g></svg>