<?xml version="1.0" encoding="UTF-8" standalone="no"?><!DOCTYPE svg PUBLIC "-//W3C//DTD SVG 1.1//EN" "http://www.w3.org/Graphics/SVG/1.1/DTD/svg11.dtd"><svg width="100%" height="100%" viewBox="0 0 120 120" version="1.1" xmlns="http://www.w3.org/2000/svg" xmlns:xlink="http://www.w3.org/1999/xlink" xml:space="preserve" xmlns:serif="http://www.serif.com/" style="fill-rule:evenodd;clip-rule:evenodd;stroke-linecap:round;stroke-linejoin:round;stroke-miterlimit:1.5;"><g><path d="M82.708,28.375c0,-2.415 -1.96,-4.375 -4.374,-4.375l-36.519,0c-2.415,0 -4.375,1.96 -4.375,4.375l-0,63.25c-0,2.415 1.96,4.375 4.375,4.375l36.519,-0c2.414,-0 4.374,-1.96 4.374,-4.375l0,-63.25Z" style="fill:#4eb84b;stroke:#000;stroke-width:2px;"/><ellipse cx="60.191" cy="46.433" rx="15.905" ry="15.901" style="fill:#fff;stroke:#000;stroke-width:2px;"/><ellipse cx="52.907" cy="46.423" rx="2.038" ry="2.006" style="fill:#fff;stroke:#000;stroke-width:2px;"/><ellipse cx="67.438" cy="46.423" rx="2.038" ry="2.006" style="fill:#fff;stroke:#000;stroke-width:2px;"/><path d="M78.872,83.986c-0,-0.565 -0.459,-1.025 -1.025,-1.025l-2.051,0c-0.565,0 -1.025,0.46 -1.025,1.025l0,2.176c0,0.566 0.46,1.025 1.025,1.025l2.051,0c0.566,0 1.025,-0.459 1.025,-1.025l-0,-2.176Z" style="fill:#fff;stroke:#000;stroke-width:2px;"/><path d="M78.872,76.161c-0,-0.566 -0.459,-1.025 -1.025,-1.025l-2.051,-0c-0.565,-0 -1.025,0.459 -1.025,1.025l0,2.176c0,0.565 0.46,1.025 1.025,1.025l2.051,-0c0.566,-0 1.025,-0.46 1.025,-1.025l-0,-2.176Z" style="fill:#fff;stroke:#000;stroke-width:2px;"/><path d="M73.323,55.2l0,-6.381l2.481,-0" style="fill:#fff;stroke:#000;stroke-width:2px;"/><path d="M73.323,37.44l0,6.654l2.481,-0" style="fill:#fff;stroke:#000;stroke-width:2px;"/><path d="M47.076,55.2l-0,-6.381l-2.52,-0" style="fill:#fff;stroke:#000;stroke-width:2px;"/><path d="M47.076,37.44l-0,6.654l-2.52,-0" style="fill:#fff;stroke:#000;stroke-width:2px;"/><rect x="58.784" y="30.588" width="2.754" height="4.155" style="fill:#fff;stroke:#000;stroke-width:2px;"/><rect x="58.671" y="58.025" width="2.754" height="4.155" style="fill:#fff;stroke:#000;stroke-width:2px;"/></g></svg>