<?xml version="1.0" encoding="UTF-8" standalone="no"?><!DOCTYPE svg PUBLIC "-//W3C//DTD SVG 1.1//EN" "http://www.w3.org/Graphics/SVG/1.1/DTD/svg11.dtd"><svg width="100%" height="100%" viewBox="0 0 120 120" version="1.1" xmlns="http://www.w3.org/2000/svg" xmlns:xlink="http://www.w3.org/1999/xlink" xml:space="preserve" xmlns:serif="http://www.serif.com/" style="fill-rule:evenodd;clip-rule:evenodd;stroke-linecap:round;stroke-linejoin:round;stroke-miterlimit:1.5;"><g><path d="M13.231,73.262c-0,-0 -0.333,-0.802 -0.398,-1.458c-0.064,-0.656 -0.08,-2.124 0.031,-2.496c0.11,-0.372 1.093,-1.584 1.651,-2.113c0.557,-0.529 7.506,-4.27 9.242,-4.705c1.735,-0.435 9.849,-1.442 9.849,-1.442c-0,0 12.847,-6.454 19.348,-7.93c2.281,-0.517 7.186,-0.819 12.623,-0.67c7.674,0.211 16.399,1.102 20.241,1.664c1.194,0.175 1.4,0.56 1.918,1.019c-0,0 4.836,1.135 9.577,2.503c4.741,1.368 6.607,2.15 6.607,2.15c-0,0 2.464,0.218 2.603,0.419c0,-0 -0.361,1.034 -0.357,1.378c0.004,0.343 0.82,2.232 0.82,2.712c0,0.481 -0.437,4.07 -0.437,4.07c-0,-0 1.469,3.603 1.442,4.355c-0.027,0.753 -0.27,1.167 -0.899,1.973c0,-0 0.589,0.253 0.494,0.42c-0.095,0.166 -0.059,0.433 -0.886,0.591c0,0 -0.14,0.41 -0.412,0.413c-0.271,0.004 -2.141,0.287 -3.585,0.624c-1.444,0.337 -3.834,0.856 -6.397,1.419c-2.562,0.563 -12.191,0.903 -17.312,0.983c-5.121,0.079 -12.288,-0.137 -20.668,-0.162c-8.38,-0.024 -17.977,0.314 -22.231,0.314c-4.254,0 -15.931,0.111 -18.78,-0.255c-2.849,-0.365 -5.024,-1.365 -5.296,-1.775c-0.085,-0.129 0.157,-0.411 0.319,-0.961c0.352,-1.193 0.893,-3.04 0.893,-3.04Z" style="fill:#4eb84b;"/><path d="M43.217,63.261l-1.484,-1.864c0,0 13.248,-4.858 14.052,-4.974c0.386,-0.056 6.773,-0.329 13.466,-0.111c7.225,0.235 15.413,1.299 15.665,1.376c0.486,0.149 2.683,2.743 2.496,3.149c-0.187,0.407 -10.624,1.813 -11.675,1.987c-1.05,0.174 -32.52,0.437 -32.52,0.437Z" style="fill:#fff;stroke:#000;stroke-width:2px;"/><path d="M14.401,67.306l2.751,-0.237c-0,0 -1.814,1.377 -2.172,1.936c-0.357,0.558 -0.447,2.106 -0.223,2.852c0.225,0.747 0.706,2.57 1.451,2.522c-0,0 -0.166,-3.738 0.066,-4.583c0.232,-0.844 0.932,-1.479 1.728,-2.143c0.795,-0.665 5.372,-3.538 5.372,-3.538c0,-0 -0.502,-0.003 -0.803,0.057c0,0 -3.268,1.658 -3.38,1.772l-1.501,0.337l-2.35,0.372l-0.939,0.653Z" style="fill:#fff;"/><path d="M105.729,64.427c-0,0 0.072,0.078 0.071,0.293c-0,0.216 -0.22,2.782 -0.448,3.553c-0.228,0.77 -0.848,2.206 -1.104,2.434c-0.256,0.229 -0.815,0.169 -0.885,0.115c-0.07,-0.053 -0.204,0.065 0.151,-1.659c0.355,-1.723 0.531,-3.203 0.513,-3.572c-0.018,-0.369 -0.253,-0.725 -0.993,-1.542c-0.739,-0.818 -0.92,-1.194 -2.179,-1.177c-1.26,0.017 -5.99,0.083 -5.99,0.083c-0,-0 0.897,-0.478 1.546,-0.623c0.649,-0.146 5.923,-0.182 6.127,-0.179c0.205,0.002 0.49,0.023 1.711,0.992c1.222,0.969 1.48,1.282 1.48,1.282Z" style="fill:#fff;"/><path d="M13.231,73.262c-0,-0 -0.333,-0.802 -0.398,-1.458c-0.064,-0.656 -0.08,-2.124 0.031,-2.496c0.11,-0.372 1.093,-1.584 1.651,-2.113c0.557,-0.529 7.506,-4.27 9.242,-4.705c1.735,-0.435 9.849,-1.442 9.849,-1.442c-0,0 12.847,-6.454 19.348,-7.93c2.281,-0.517 7.186,-0.819 12.623,-0.67c7.674,0.211 16.399,1.102 20.241,1.664c1.194,0.175 1.4,0.56 1.918,1.019c-0,0 4.836,1.135 9.577,2.503c4.741,1.368 6.607,2.15 6.607,2.15c-0,0 2.464,0.218 2.603,0.419c0,-0 -0.361,1.034 -0.357,1.378c0.004,0.343 0.82,2.232 0.82,2.712c0,0.481 -0.437,4.07 -0.437,4.07c-0,-0 1.469,3.603 1.442,4.355c-0.027,0.753 -0.27,1.167 -0.899,1.973c0,-0 0.589,0.253 0.494,0.42c-0.095,0.166 -0.059,0.433 -0.886,0.591c0,0 -0.14,0.41 -0.412,0.413c-0.271,0.004 -2.141,0.287 -3.585,0.624c-1.444,0.337 -3.834,0.856 -6.397,1.419c-2.562,0.563 -12.191,0.903 -17.312,0.983c-5.121,0.079 -12.288,-0.137 -20.668,-0.162c-8.38,-0.024 -17.977,0.314 -22.231,0.314c-4.254,0 -15.931,0.111 -18.78,-0.255c-2.849,-0.365 -5.024,-1.365 -5.296,-1.775c-0.085,-0.129 0.157,-0.411 0.319,-0.961c0.352,-1.193 0.893,-3.04 0.893,-3.04Z" style="fill:none;stroke:#000;stroke-width:2px;"/><circle cx="27.419" cy="76.113" r="8.019" style="fill:#fff;stroke:#000;stroke-width:2px;"/><circle cx="88.287" cy="76.113" r="8.019" style="fill:#fff;stroke:#000;stroke-width:2px;"/></g></svg>