<?xml version="1.0" encoding="utf-8"?>
<!-- Generator: Adobe Illustrator 25.4.1, SVG Export Plug-In . SVG Version: 6.00 Build 0)  -->
<svg version="1.1" id="Ebene_1" xmlns="http://www.w3.org/2000/svg" xmlns:xlink="http://www.w3.org/1999/xlink" x="0px" y="0px"
	 viewBox="0 0 140 140" style="enable-background:new 0 0 140 140;" xml:space="preserve">
<style type="text/css">
	.st0{fill:none;}
	.st1{fill:#FFFFFF;}
	.st2{fill:#000133;}
	.st3{fill:#0FDD42;}
</style>
<rect class="st0" width="140" height="140"/>
<g>
	<path class="st0" d="M105.261,31H35.469c-0.535,0-0.969,0.435-0.969,0.969V78.25l71.722,0.25v19.97
		c0,0.023-0.006,0.045-0.006,0.068c0.002-0.024,0.014-0.044,0.014-0.069v-66.5C106.23,31.435,105.795,31,105.261,31z"/>
	<path class="st1" d="M103.155,97.135c0.672,0,1.217-0.545,1.217-1.217v-12.69c0-0.672-0.545-1.217-1.217-1.217H76.587
		c-0.672,0-1.217,0.545-1.217,1.217v12.69c0,0.672,0.545,1.217,1.217,1.217H103.155z M96.788,84.642c0-0.296,0.24-0.536,0.536-0.536
		h3.995c0.296,0,0.536,0.24,0.536,0.536v9.177c0,0.296-0.24,0.536-0.536,0.536h-3.995c-0.296,0-0.536-0.24-0.536-0.536V84.642z"/>
	<path class="st2" d="M97.324,94.355h3.995c0.296,0,0.536-0.24,0.536-0.536v-9.177c0-0.296-0.24-0.536-0.536-0.536h-3.995
		c-0.296,0-0.536,0.24-0.536,0.536v9.177C96.788,94.115,97.028,94.355,97.324,94.355z"/>
	<g>
		<path class="st0" d="M46.946,104.44h-3.94c-0.379,0-0.687,0.308-0.687,0.687v3.439c0,0.379,0.308,0.687,0.687,0.687h3.94
			c0.379,0,0.687-0.308,0.687-0.687v-3.439C47.633,104.748,47.325,104.44,46.946,104.44z"/>
		<path class="st0" d="M103.155,82.011H76.587c-0.672,0-1.217,0.545-1.217,1.217v12.69c0,0.672,0.545,1.217,1.217,1.217h26.568
			c0.672,0,1.217-0.545,1.217-1.217v-12.69C104.372,82.556,103.827,82.011,103.155,82.011z"/>
		<path class="st0" d="M53.168,104.44h-3.94c-0.379,0-0.687,0.308-0.687,0.687v3.439c0,0.379,0.308,0.687,0.687,0.687h3.94
			c0.379,0,0.687-0.308,0.687-0.687v-3.439C53.855,104.748,53.547,104.44,53.168,104.44z"/>
		<path class="st0" d="M105.261,31H35.469c-0.535,0-0.969,0.435-0.969,0.969V78.25l71.722,0.25l0.008-46.531
			C106.23,31.435,105.795,31,105.261,31z"/>
		<path class="st2" d="M105.261,28H35.469c-2.188,0-3.969,1.781-3.969,3.969v66.5c0,2.188,1.781,3.969,3.969,3.969h5.005v6.606
			c0,0.804,0.652,1.456,1.456,1.456h12.879c0.804,0,1.456-0.652,1.456-1.456v-6.606h48.996c2.188,0,3.969-1.78,3.969-3.969v-66.5
			C109.23,29.781,107.45,28,105.261,28z M47.633,108.566c0,0.379-0.308,0.687-0.687,0.687h-3.94c-0.379,0-0.687-0.308-0.687-0.687
			v-3.439c0-0.379,0.308-0.687,0.687-0.687h3.94c0.379,0,0.687,0.308,0.687,0.687V108.566z M53.855,108.566
			c0,0.379-0.308,0.687-0.687,0.687h-3.94c-0.379,0-0.687-0.308-0.687-0.687v-3.439c0-0.379,0.308-0.687,0.687-0.687h3.94
			c0.379,0,0.687,0.308,0.687,0.687V108.566z M104.372,95.918c0,0.672-0.545,1.217-1.217,1.217H76.587
			c-0.672,0-1.217-0.545-1.217-1.217v-12.69c0-0.672,0.545-1.217,1.217-1.217h26.568c0.672,0,1.217,0.545,1.217,1.217V95.918z
			 M106.222,78.5L34.5,78.25V31.969c0-0.535,0.435-0.969,0.969-0.969h69.792c0.534,0,0.969,0.435,0.969,0.969L106.222,78.5z"/>
	</g>
	<path class="st3" d="M43.006,109.253h3.94c0.379,0,0.687-0.308,0.687-0.687v-3.439c0-0.379-0.308-0.687-0.687-0.687h-3.94
		c-0.379,0-0.687,0.308-0.687,0.687v3.439C42.319,108.945,42.627,109.253,43.006,109.253z"/>
	<path class="st3" d="M49.228,109.253h3.94c0.379,0,0.687-0.308,0.687-0.687v-3.439c0-0.379-0.308-0.687-0.687-0.687h-3.94
		c-0.379,0-0.687,0.308-0.687,0.687v3.439C48.541,108.945,48.849,109.253,49.228,109.253z"/>
</g>
</svg>
