<?xml version="1.0" encoding="UTF-8" standalone="no"?><!DOCTYPE svg PUBLIC "-//W3C//DTD SVG 1.1//EN" "http://www.w3.org/Graphics/SVG/1.1/DTD/svg11.dtd"><svg width="100%" height="100%" viewBox="0 0 800 500" version="1.1" xmlns="http://www.w3.org/2000/svg" xmlns:xlink="http://www.w3.org/1999/xlink" xml:space="preserve" xmlns:serif="http://www.serif.com/" style="fill-rule:evenodd;clip-rule:evenodd;stroke-linecap:round;stroke-linejoin:round;stroke-miterlimit:1.5;"><g><g><path d="M728.194,395.176c0.004,-1.811 1.098,-2.46 1.183,-5.383c0.085,-2.923 0.05,-9.447 -2.272,-12.997c-2.323,-3.551 -5.073,-6.753 -7.543,-8.044c-2.471,-1.292 -10.693,-2.944 -18.323,-4.413c-7.629,-1.468 -17.928,-2.209 -17.928,-2.209c0,0 -8.831,-6.159 -16.785,-10.732c-7.954,-4.574 -12.962,-8.244 -26.66,-8.921c-13.699,-0.676 -39.547,0.046 -50.238,0.6c-10.691,0.554 -14.198,2.574 -14.608,2.856c-0.41,0.281 -1.077,2.049 1.208,3.852c-0,-0 -9.46,8.221 -11.884,10.626c-2.424,2.405 -8.397,8.808 -8.401,11.138c-0.003,2.33 0.973,6.889 -2.886,9.186c0,0 -0.695,2.139 -0.474,4.845c0.222,2.705 0.709,4.944 0.709,4.944c0,0 -1.229,0.528 -0.755,1.925c0.474,1.397 1.888,4.203 6.532,7.313c4.645,3.11 33.725,3.785 38.456,3.896c4.73,0.111 71.771,0.086 83.128,0.5c11.357,0.414 31.727,-0.175 37.161,-0.499c5.434,-0.325 10.797,-1.663 12.29,-2.615l0.098,-1.153c0,-0 -2.013,-2.905 -2.008,-4.715Z" style="fill:none;"/><path d="M728.194,395.176c0.004,-1.811 1.098,-2.46 1.183,-5.383c0.085,-2.923 0.05,-9.447 -2.272,-12.997c-2.323,-3.551 -5.073,-6.753 -7.543,-8.044c-2.471,-1.292 -10.693,-2.944 -18.323,-4.413c-7.629,-1.468 -17.928,-2.209 -17.928,-2.209c0,0 -8.831,-6.159 -16.785,-10.732c-7.954,-4.574 -12.962,-8.244 -26.66,-8.921c-13.699,-0.676 -39.547,0.046 -50.238,0.6c-10.691,0.554 -14.198,2.574 -14.608,2.856c-0.41,0.281 -1.077,2.049 1.208,3.852c-0,-0 -9.46,8.221 -11.884,10.626c-2.424,2.405 -8.397,8.808 -8.401,11.138c-0.003,2.33 0.973,6.889 -2.886,9.186c0,0 -0.695,2.139 -0.474,4.845c0.222,2.705 0.709,4.944 0.709,4.944c0,0 -1.229,0.528 -0.755,1.925c0.474,1.397 1.888,4.203 6.532,7.313c4.645,3.11 33.725,3.785 38.456,3.896c4.73,0.111 71.771,0.086 83.128,0.5c11.357,0.414 31.727,-0.175 37.161,-0.499c5.434,-0.325 10.797,-1.663 12.29,-2.615l0.098,-1.153c0,-0 -2.013,-2.905 -2.008,-4.715Z" style="fill:none;stroke:#000;stroke-width:4px;"/><path d="M674.495,365.143c0,0 -15.361,-11.699 -25.979,-14.352c-10.618,-2.652 -48.497,-1.096 -54.364,-0.767c0,-0 -11.114,11.348 -10.246,12.762c0.869,1.414 90.589,2.357 90.589,2.357Z" style="fill:#fff;stroke:#000;stroke-width:4px;"/><circle cx="699.445" cy="395.624" r="16.579" style="fill:#fff;stroke:#000;stroke-width:4px;"/><circle cx="577.258" cy="395.624" r="16.579" style="fill:#fff;stroke:#000;stroke-width:4px;"/></g><g><g><path d="M648.545,397.549l2.471,0c2.121,0 3.844,-1.722 3.844,-3.844l-0,-7.87c-0,-2.122 -1.723,-3.844 -3.844,-3.844l-2.471,-0c-2.121,-0 -3.844,1.722 -3.844,3.844l0,7.87c0,2.122 1.723,3.844 3.844,3.844Z" style="fill:#4eb848;fill-opacity:0.56;"/><path d="M662.09,397.549l2.471,0c2.121,0 3.844,-1.722 3.844,-3.844l-0,-7.87c-0,-2.122 -1.723,-3.844 -3.844,-3.844l-2.471,-0c-2.121,-0 -3.844,1.722 -3.844,3.844l0,7.87c0,2.122 1.723,3.844 3.844,3.844Z" style="fill:#4eb848;fill-opacity:0.56;"/></g><path d="M635.001,397.812l2.47,0c2.122,0 3.844,-1.722 3.844,-3.844l0,-8.396c0,-2.122 -1.722,-3.844 -3.844,-3.844l-2.47,-0c-2.122,-0 -3.844,1.722 -3.844,3.844l-0,8.396c-0,2.122 1.722,3.844 3.844,3.844Z" style="fill:#4eb848;"/><path d="M621.456,397.812l2.47,0c2.122,0 3.845,-1.722 3.845,-3.844l-0,-8.396c-0,-2.122 -1.723,-3.844 -3.845,-3.844l-2.47,-0c-2.122,-0 -3.844,1.722 -3.844,3.844l0,8.396c0,2.122 1.722,3.844 3.844,3.844Z" style="fill:#4eb848;"/><path d="M607.911,397.812l2.471,0c2.121,0 3.844,-1.722 3.844,-3.844l-0,-8.396c-0,-2.122 -1.723,-3.844 -3.844,-3.844l-2.471,-0c-2.121,-0 -3.844,1.722 -3.844,3.844l0,8.396c0,2.122 1.723,3.844 3.844,3.844Z" style="fill:#4eb848;"/></g></g><g><g><path d="M166.245,425.782l-0,6.421l8.966,0l8.385,-6.421" style="fill:#fff;stroke:#000;stroke-width:4px;"/><path d="M234.653,425.782l0,6.421l-8.965,0l-8.385,-6.421" style="fill:#fff;stroke:#000;stroke-width:4px;"/><path d="M174.163,425.759l52.5,-0" style="fill:none;stroke:#000;stroke-width:4px;"/><path d="M234.663,425.759l-0,-88.55c-0,-4.674 -5.246,-10 -10,-10l-48.428,-0c-4.752,-0 -10,5.242 -10,9.994l-0,88.556" style="fill:none;stroke:#000;stroke-width:4px;"/><path d="M209.221,344.725c-0,-2.08 -1.689,-3.769 -3.77,-3.769l-10.292,-0c-2.08,-0 -3.769,1.689 -3.769,3.769c-0,2.08 1.689,3.769 3.769,3.769l10.292,0c2.081,0 3.77,-1.689 3.77,-3.769Z" style="fill:#fff;stroke:#000;stroke-width:4px;"/></g><g><path d="M225.663,409.176l-0,4.066c-0,2.189 -1.778,3.967 -3.967,3.967l-42.494,-0c-2.19,-0 -3.967,-1.778 -3.967,-3.967l-0,-4.066c-0,-2.19 1.777,-3.967 3.967,-3.967l42.494,-0c2.189,-0 3.967,1.777 3.967,3.967Z" style="fill:#4eb848;"/><path d="M225.663,393.176l-0,4.066c-0,2.189 -1.778,3.967 -3.967,3.967l-42.494,-0c-2.19,-0 -3.967,-1.778 -3.967,-3.967l-0,-4.066c-0,-2.19 1.777,-3.967 3.967,-3.967l42.494,-0c2.189,-0 3.967,1.777 3.967,3.967Z" style="fill:#4eb848;"/><path d="M225.663,377.176l-0,4.066c-0,2.189 -1.778,3.967 -3.967,3.967l-42.494,-0c-2.19,-0 -3.967,-1.778 -3.967,-3.967l-0,-4.066c-0,-2.19 1.777,-3.967 3.967,-3.967l42.494,-0c2.189,-0 3.967,1.777 3.967,3.967Z" style="fill:#4eb848;"/><path d="M225.663,361.176l-0,4.066c-0,2.189 -1.778,3.967 -3.967,3.967l-42.494,-0c-2.19,-0 -3.967,-1.778 -3.967,-3.967l-0,-4.066c-0,-2.19 1.777,-3.967 3.967,-3.967l42.494,-0c2.189,-0 3.967,1.777 3.967,3.967Z" style="fill:#4eb848;fill-opacity:0.48;"/></g></g><g><path d="M491.702,217.412l0,32.979c0,9.101 -7.389,16.49 -16.489,16.49l-150.021,-0c-9.101,-0 -16.49,-7.389 -16.49,-16.49l0,-32.979c0,-9.101 7.389,-16.489 16.49,-16.489l150.021,-0c9.1,-0 16.489,7.388 16.489,16.489Z" style="fill:none;stroke:#000034;stroke-width:4px;"/><g><g><path d="M411.225,214.6l-8.185,16.37l8.185,-0l-15.347,28.647l3.069,-20.462l-10.231,0l10.232,-24.555l12.277,-0Z" style="fill:#4eb848;"/><g><path d="M438.267,222.379c2.241,2.113 3.38,4.924 3.416,8.436l-7.433,-0c-0.038,-1.544 -0.513,-2.799 -1.427,-3.765c-0.915,-0.965 -2.123,-1.447 -3.621,-1.447c-1.848,-0 -3.242,0.672 -4.183,2.019c-0.942,1.347 -1.414,3.53 -1.414,6.553l0,0.822c0,3.06 0.468,5.258 1.399,6.595c0.933,1.338 2.35,2.005 4.252,2.005c1.464,0 2.652,-0.4 3.567,-1.206c0.914,-0.805 1.389,-1.875 1.427,-3.21l7.433,0c-0.019,2.012 -0.567,3.853 -1.646,5.528c-1.08,1.672 -2.556,2.972 -4.431,3.894c-1.873,0.924 -3.944,1.385 -6.212,1.385c-4.243,0 -7.589,-1.347 -10.041,-4.046c-2.451,-2.697 -3.674,-6.423 -3.674,-11.178l0,-0.521c0,-4.57 1.214,-8.22 3.647,-10.945c2.432,-2.724 5.771,-4.088 10.012,-4.088c3.714,-0 6.69,1.057 8.929,3.169Z" style="fill:#000034;"/><path d="M467.565,222.379c2.239,2.113 3.378,4.924 3.416,8.436l-7.436,-0c-0.035,-1.544 -0.512,-2.799 -1.425,-3.765c-0.916,-0.965 -2.124,-1.447 -3.622,-1.447c-1.848,-0 -3.242,0.672 -4.183,2.019c-0.942,1.347 -1.412,3.53 -1.412,6.553l0,0.822c0,3.06 0.466,5.258 1.399,6.595c0.933,1.338 2.348,2.005 4.25,2.005c1.464,0 2.652,-0.4 3.568,-1.206c0.913,-0.805 1.39,-1.875 1.425,-3.21l7.436,0c-0.02,2.012 -0.567,3.853 -1.647,5.528c-1.079,1.672 -2.557,2.972 -4.43,3.894c-1.877,0.924 -3.947,1.385 -6.214,1.385c-4.243,0 -7.589,-1.347 -10.039,-4.046c-2.452,-2.697 -3.676,-6.423 -3.676,-11.178l0,-0.521c0,-4.57 1.215,-8.22 3.647,-10.945c2.433,-2.724 5.771,-4.088 10.014,-4.088c3.712,-0 6.688,1.057 8.929,3.169Z" style="fill:#000034;"/><path d="M377.164,219.761l8.284,-0l-10.013,29.68l-7.57,-0l-10.014,-29.68l8.285,-0l5.514,19.997l5.514,-19.997Z" style="fill:#000034;"/><path d="M333.561,245.985c-2.733,-2.67 -4.1,-6.227 -4.1,-10.672l-0,-0.768c-0,-2.981 0.575,-5.646 1.728,-7.996c1.151,-2.35 2.783,-4.159 4.897,-5.432c2.111,-1.27 4.52,-1.907 7.227,-1.907c4.061,-0 7.257,1.282 9.588,3.841c2.332,2.561 3.497,6.192 3.497,10.89l0,3.238l-18.9,-0c0.255,1.938 1.028,3.493 2.318,4.663c1.289,1.171 2.922,1.755 4.897,1.755c3.053,0 5.44,-1.106 7.158,-3.319l3.896,4.363c-1.189,1.681 -2.797,2.994 -4.827,3.936c-2.03,0.941 -4.281,1.411 -6.748,1.411c-4.353,0 -7.897,-1.335 -10.631,-4.003Zm3.937,-14.729l12.596,-0c0,-0 -0.725,-5.687 -6.781,-5.726c-6.057,-0.039 -5.815,5.726 -5.815,5.726Z" style="fill:#000034;"/></g></g></g></g><g><path d="M399.543,438.733c-0.035,30.038 5.495,40.279 27.552,40c10.097,-0.128 37.048,2.022 49.107,-4.063c12.28,-6.197 -19.429,-10.825 -15,-17.467c5.376,-8.061 19.771,-5.731 50,-30c27.741,-22.27 45.579,-55.062 60,-55" style="fill:none;stroke:#4eb848;stroke-width:4px;"/><path d="M403.816,438.585l-4.023,15.148l-4.698,-15.156" style="fill:none;stroke:#4eb848;stroke-width:4px;"/><g><path d="M399.502,438.733c-17.55,-0 -23.758,-4.314 -27.934,-11.538c-4.175,-7.223 -5.501,-30.643 -3.668,-50.186c1.834,-19.544 10.9,-24.806 30.634,-24.806c0.048,0 0.585,0 0.66,0c6.579,0 0.56,0 -0.949,0c-1.898,0.001 -0.358,0.001 0.721,0.001c0.415,-0 -3.392,-0 -0.144,-0c0.095,-0 0.412,-0 0.474,-0c19.734,-0 30.015,5.261 31.848,24.805c1.834,19.543 0.507,42.963 -3.668,50.186c-4.175,7.224 -10.383,11.538 -27.933,11.538" style="fill:#4eb848;stroke:#000;stroke-width:4px;"/></g><path d="M409.638,377.233c1.833,2.416 -0,10.5 -0,10.5l-22,-0c-0,-0 -1.834,-8.084 -0,-10.5c1.833,-2.417 7.333,-3.5 11,-3.5c3.666,-0 9.166,1.083 11,3.5Z" style="fill:#fff;stroke:#fff;stroke-width:4px;"/><path d="M398.586,364.733c7.257,-0 18.055,0.523 20.48,11c2.598,11.225 -4.94,39.562 -10.24,48" style="fill:none;stroke:#000;stroke-width:4px;"/><path d="M398.603,364.733c-7.256,-0 -18.054,0.523 -20.479,11c-2.598,11.225 4.939,39.562 10.24,48" style="fill:none;stroke:#000;stroke-width:4px;"/></g><g><path d="M399.885,284.203l-4.615,9.23l4.615,-9.23l4.615,9.23l-4.615,-9.23l0,53l4.615,-9.229l-4.615,9.229l-4.615,-9.229l4.615,9.229l0,-53Z" style="fill:none;stroke:#4eb848;stroke-width:4px;"/><path d="M399.998,120.203l0,65l-5.176,-10.352l5.176,10.352l5.176,-10.352l-5.176,10.352l0,-65Z" style="fill:none;stroke:#000;stroke-width:4px;"/><path d="M587.509,191.203l-80.849,21.664l8.661,-7.68l-8.661,7.68l11.34,2.32l-11.34,-2.32l80.849,-21.664Z" style="fill:none;stroke:#000;stroke-width:4px;"/><path d="M194.34,185.4l102.509,27.467l-8.66,-7.68l8.66,7.68l-11.34,2.32l11.34,-2.32l-102.509,-27.467Z" style="fill:none;stroke:#000;stroke-width:4px;"/><path d="M249.958,334.203l55.66,-55.66l-10.981,3.66l10.981,-3.66l-3.66,10.981l3.66,-10.981l-55.66,55.66Z" style="fill:none;stroke:#000;stroke-width:4px;"/><path d="M558.66,342.203l-63.66,-63.66l10.981,3.66l-10.981,-3.66l3.66,10.981l-3.66,-10.981l63.66,63.66Z" style="fill:none;stroke:#000;stroke-width:4px;"/></g><g><g><path d="M434.994,55.203l-0,50l-70,0l-0,-50l35,-33l35,33Z" style="fill:none;stroke:#000;stroke-width:4px;"/><rect x="413.994" y="86.203" width="11" height="19" style="fill:none;stroke:#000;stroke-width:4px;"/></g><rect x="374.994" y="64.203" width="28" height="10" style="fill:#4eb848;stroke:#4eb848;stroke-width:4px;"/><rect x="413.994" y="64.203" width="11" height="10" style="fill:#4eb848;stroke:#4eb848;stroke-width:4px;"/><rect x="374.994" y="86.203" width="11" height="10" style="fill:#4eb848;stroke:#4eb848;stroke-width:4px;"/></g><g><path d="M157.984,132.203l21.172,0.007l0.046,76.59l-21.202,-0.006l-8.83,0.024l-29.921,0.019l-0.047,-76.59l29.922,-0.019l8.86,-0.025Z" style="fill:none;stroke:#000;stroke-width:4px;"/><path d="M156.202,160.187l-28.012,0.017l0.013,20.999l28.012,-0.017l-0.013,-20.999Z" style="fill:#4eb848;stroke:#4eb848;stroke-width:4px;"/><path d="M179.157,151.179l-30.051,0.018" style="fill:none;stroke:#000;stroke-width:4px;"/><path d="M179.18,189.595l-30.05,0.018" style="fill:none;stroke:#000;stroke-width:4px;"/><path d="M119.224,151.215l30.051,-0.018" style="fill:none;stroke:#000;stroke-width:4px;"/><path d="M119.247,189.631l30.051,-0.018" style="fill:none;stroke:#000;stroke-width:4px;"/><path d="M168.838,158.994c2.456,-0.002 4.451,1.994 4.452,4.454c0.002,2.459 -1.991,4.457 -4.447,4.459c-2.455,0.001 -4.45,-1.994 -4.452,-4.454c-0.001,-2.46 1.991,-4.458 4.447,-4.459Z" style="fill:#fff;stroke:#000;stroke-width:4px;"/><path d="M165.067,182.46c-0.782,-0.803 -1.264,-1.9 -1.264,-3.108c-0.002,-2.46 1.991,-4.458 4.446,-4.459c2.456,-0.002 4.451,1.994 4.452,4.454c0.001,1.193 -0.467,2.277 -1.23,3.078l-6.404,0.035Z" style="fill:#fff;stroke:#000;stroke-width:4px;"/></g><g><path d="M623.798,202.203l20,0" style="fill:none;stroke:#fff;stroke-width:4px;"/><path d="M663.798,202.203l20,0" style="fill:none;stroke:#fff;stroke-width:4px;"/><path d="M605.122,177.331l97.593,-0" style="fill:none;stroke:#4eb848;stroke-width:4px;"/><path d="M684.717,157.496l1.033,42.707l18.048,0l0,4l-20,0c-1.086,0 -1.973,-0.866 -1.999,-1.951l-1.188,-49.091l1.143,-0.028c0.094,0.66 0.301,1.315 0.628,1.939c0.552,1.054 1.373,1.875 2.335,2.424Z" style="fill:#4eb848;"/><path d="M663.561,153.113l0.237,49.09l-20,0l0.713,-49.09" style="fill:none;stroke:#4eb848;stroke-width:4px;"/><path d="M625.461,153.113l-1.663,49.09l-20,0" style="fill:none;stroke:#4eb848;stroke-width:4px;"/><path d="M682.403,155.113l-74.096,-0l-2.4,45.09l95.802,0l-1.249,-28.676c0.28,0.138 0.574,0.257 0.881,0.353c1.057,0.33 2.138,0.352 3.144,0.118l1.311,30.118c0.024,0.545 -0.176,1.077 -0.553,1.471c-0.377,0.394 -0.899,0.616 -1.445,0.616l-100,0c-0.549,0 -1.073,-0.225 -1.451,-0.623c-0.378,-0.399 -0.575,-0.935 -0.546,-1.483l2.613,-49.091c0.056,-1.062 0.934,-1.893 1.997,-1.893l75.401,-0c-0.26,1.299 -0.094,2.694 0.57,3.959c0.007,0.014 0.014,0.027 0.021,0.041Z"/></g><g><path d="M705.811,157.561l-2.682,8.591" style="fill:none;stroke:#ffd25a;stroke-width:4px;"/><path d="M693.994,135.015l-8.591,-2.682" style="fill:none;stroke:#ffd25a;stroke-width:4px;"/><path d="M736.949,148.426l-8.591,-2.682" style="fill:none;stroke:#ffd25a;stroke-width:4px;"/><path d="M719.222,114.606c-0.894,2.864 -2.682,8.591 -2.682,8.591" style="fill:none;stroke:#ffd25a;stroke-width:4px;"/><path d="M695.668,148.109l-7.972,4.178" style="fill:none;stroke:#ffd25a;stroke-width:4px;"/><path d="M702.641,124.096c-0,-0 -2.786,-5.315 -4.178,-7.972" style="fill:none;stroke:#ffd25a;stroke-width:4px;"/><path d="M723.65,164.178l-4.178,-7.971" style="fill:none;stroke:#ffd25a;stroke-width:4px;"/><path d="M734.953,127.517l-7.971,4.178" style="fill:none;stroke:#ffd25a;stroke-width:4px;"/><path d="M714.492,129.757c5.863,1.83 9.137,8.076 7.306,13.939c-1.83,5.863 -8.076,9.136 -13.939,7.306c-5.863,-1.831 -9.136,-8.076 -7.306,-13.939c1.831,-5.863 8.076,-9.137 13.939,-7.306Z" style="fill:#ffd25a;"/><path d="M714.492,129.757c5.863,1.83 9.137,8.076 7.306,13.939c-1.83,5.863 -8.076,9.136 -13.939,7.306c-5.863,-1.831 -9.136,-8.076 -7.306,-13.939c1.831,-5.863 8.076,-9.137 13.939,-7.306Z" style="fill:none;stroke:#fff;stroke-width:4px;"/><path d="M714.492,129.757c5.863,1.83 9.137,8.076 7.306,13.939c-1.83,5.863 -8.076,9.136 -13.939,7.306c-5.863,-1.831 -9.136,-8.076 -7.306,-13.939c1.831,-5.863 8.076,-9.137 13.939,-7.306Z" style="fill:none;stroke:#ffd25a;stroke-width:4px;"/></g></svg>