<?xml version="1.0" encoding="utf-8"?>
<!-- Generator: Adobe Illustrator 24.0.3, SVG Export Plug-In . SVG Version: 6.00 Build 0)  -->
<svg version="1.1" id="Ebene_1" xmlns="http://www.w3.org/2000/svg" xmlns:xlink="http://www.w3.org/1999/xlink" x="0px" y="0px"
	 width="900px" height="580px" viewBox="0 0 900 580" style="enable-background:new 0 0 900 580;" xml:space="preserve">
<style type="text/css">
	.st0{fill:none;stroke:#FF6666;stroke-width:3;stroke-miterlimit:10;}
	.st1{fill:#FF6666;}
	.st2{fill:none;}
	.st3{fill:none;stroke:#AAAAAA;stroke-width:2;stroke-miterlimit:10;}
	.st4{fill:#AAAAAA;}
	.st5{fill:none;stroke:#0FDD42;stroke-width:2;stroke-linecap:round;stroke-miterlimit:10;}
	.st6{fill:none;stroke:#0FDD42;stroke-width:2;stroke-linecap:round;stroke-miterlimit:10;stroke-dasharray:0.5055,6.0661;}
	.st7{fill:#0FDD42;}
	.st8{fill:none;stroke:#AAAAAA;stroke-width:2;stroke-linecap:round;stroke-miterlimit:10;}
	.st9{fill:none;stroke:#AAAAAA;stroke-width:2;stroke-linecap:round;stroke-miterlimit:10;stroke-dasharray:0.4985,5.9816;}
	.st10{fill:#FFFFFF;}
	.st11{fill:#000066;}
	.st12{fill:#006600;}
	.st13{fill:#00E207;}
	.st14{fill:#000066;stroke:#FFFFFF;stroke-miterlimit:10;}
	.st15{fill:#FFFF00;}
	.st16{fill:#FFE000;}
	.st17{fill:none;stroke:#FFFFFF;stroke-linecap:round;stroke-miterlimit:10;}
	.st18{enable-background:new    ;}
	.st19{fill:none;stroke:#AAAAAA;stroke-width:2;stroke-linecap:round;stroke-miterlimit:10;stroke-dasharray:0.5,6;}
	.st20{fill:#FFFFFF;stroke:#AAAAAA;stroke-width:2;stroke-miterlimit:10;}
	.st21{fill:none;stroke:#00E207;stroke-width:6;stroke-linecap:round;stroke-miterlimit:10;}
	.st22{fill:#666666;}
</style>
<g>
	<g id="Ebene_1_2_">
		<g id="Ebene_1_1_">
		</g>
		<path class="st0" d="M461.4,421.3v29.1c0,9-7.3,16.3-16.3,16.3l0,0c-9,0-16.3-7.3-16.3-16.3v-40.2l-1.1,28.3"/>
		<path class="st1" d="M441.7,400.2H455l10.3,22.8l-5.5,3l-8.8-12.3c-4.3,6.8-9.3,6.1-9.3,6.1L441.7,400.2L441.7,400.2z"/>
		<g>
			<line class="st2" x1="227.1" y1="416.7" x2="370.4" y2="416.7"/>
			<g>
				<line class="st3" x1="227.1" y1="416.7" x2="368.1" y2="416.7"/>
				<g>
					<polygon class="st4" points="364,420.2 367.5,416.7 364,413.3 367,413.3 370.4,416.7 367,420.2 					"/>
				</g>
			</g>
		</g>
		<g>
			<line class="st2" x1="145.2" y1="354.1" x2="145.2" y2="231.3"/>
			<g>
				<line class="st3" x1="145.2" y1="351.8" x2="145.2" y2="231.3"/>
				<g>
					<polygon class="st4" points="148.7,347.7 145.2,351.2 141.7,347.7 141.7,350.7 145.2,354.1 148.7,350.7 					"/>
				</g>
			</g>
		</g>
		<g>
			<g>
				<line class="st5" x1="437" y1="372.3" x2="437" y2="372"/>
				<line class="st6" x1="437" y1="365.8" x2="437" y2="214.2"/>
				<line class="st5" x1="437" y1="211.1" x2="437" y2="210.8"/>
				<g>
					<polygon class="st7" points="440.5,368.2 437,371.7 433.5,368.2 433.5,371.2 437,374.6 440.5,371.2 					"/>
				</g>
			</g>
		</g>
		<g>
			<g>
				<line class="st8" x1="380.1" y1="167.9" x2="379.8" y2="167.9"/>
				<line class="st9" x1="373.7" y1="167.9" x2="210.9" y2="167.9"/>
				<line class="st8" x1="207.8" y1="167.9" x2="207.6" y2="167.9"/>
				<g>
					<polygon class="st4" points="376,164.5 379.5,167.9 376,171.4 378.9,171.4 382.4,167.9 378.9,164.5 					"/>
				</g>
			</g>
		</g>
		<g>
			<line class="st2" x1="493.3" y1="416.7" x2="626.4" y2="416.7"/>
			<g>
				<line class="st3" x1="493.3" y1="416.7" x2="624.1" y2="416.7"/>
				<g>
					<polygon class="st4" points="620,420.2 623.4,416.7 620,413.3 622.9,413.3 626.4,416.7 622.9,420.2 					"/>
				</g>
			</g>
		</g>
		<path class="st7" d="M852.6,435c0,0-1.1,0.2,0,2.2s1.6,2.7-0.2,4.1c-1.8,1.4-10.1,2.9-11.7,4.5H670.6c0,0-1.6-3.3-3.7-4.1
			c-2.1-0.8-4.5-5.3-4.9-6.1c-0.4-0.8-4.4-9.2-4.4-13.9c0-0.2,3-7,3-10.1s1.1-8.8,1.6-9.8c0.5-1-2.3-2-0.7-2.9
			c1.6-1,32.4-14.7,50.8-16.8c18.4-2.2,56.6-6.3,92.5,23.1c0,0,32.7,0.2,47.9,15.5c2.3,2.2,1.2,4.5,0.7,6.1c-0.5,1.6-0.4,6.2,0,6.8
			C853.8,434,852.6,435,852.6,435z"/>
		<path class="st1" d="M673.4,402.7l-11.6,0.1c-0.5,1.9-1.1,5.6-1.2,8.1C667.6,409.1,673.4,402.7,673.4,402.7z"/>
		<path class="st1" d="M847.7,421.4c2.3,0,3.2-1.5,3.5-2.3c-5.1-4.5-11.8-7.5-18.4-9.6C834.8,412,842.8,421.4,847.7,421.4z"/>
		<g>
			<polygon class="st2" points="734.3,385.3 734.3,380.5 734.3,380.5 			"/>
			<path class="st10" d="M734.3,387.8c-8.6,0-16.2,0.9-21.1,1.5c-6.4,0.7-14.7,3.1-22.7,5.9c10.8,5.1,33.4,5.8,33.4,5.8l68.2,3.9
				C775.2,393.4,756.2,387.8,734.3,387.8L734.3,387.8l0-2.5c0,0,0,0,0,0L734.3,387.8z"/>
			<path class="st7" d="M734.3,380.5L734.3,380.5L734.3,380.5z"/>
		</g>
		<ellipse class="st11" cx="689.1" cy="437.2" rx="16.2" ry="16.5"/>
		<path class="st12" d="M791.4,406.9l-10.3-0.9c0,0-1.7-0.9-1.7-1.6s1.7-4.4,1.7-4.4s5.3-1,6.5,1.2c1.2,2.3,2.4,3.7,2.9,3.7
			C791,405,791.4,406.9,791.4,406.9z"/>
		<ellipse class="st11" cx="822.3" cy="437.2" rx="16.2" ry="16.5"/>
		<ellipse class="st10" cx="822.3" cy="437.2" rx="10" ry="10.2"/>
		<ellipse class="st10" cx="689.2" cy="437.2" rx="10" ry="10.2"/>
		<polygon class="st13" points="141.7,453.7 141.7,429.1 172.4,380 203.1,429.1 203.1,453.7 		"/>
		<polygon class="st1" points="123.2,380 172.4,380 141.7,429.1 92.5,429.1 		"/>
		<rect x="92.5" y="429.1" class="st13" width="49.1" height="24.6"/>
		<path class="st11" d="M438.5,453.7h-26.6V380h26.6c5.7,0,10.2,4.6,10.2,10.2v53.2C448.8,449.1,444.2,453.7,438.5,453.7z"/>
		<polygon class="st14" points="154,150.6 203.1,150.6 172.4,199.8 123.2,199.8 		"/>
		<polygon class="st15" points="104.8,105.6 107.9,125.3 116.8,107.5 113.7,127.2 127.7,113 118.6,130.7 136.3,121.6 122.2,135.7 
			141.9,132.5 124,141.5 143.8,144.5 124,147.6 141.9,156.5 122.2,153.3 136.3,167.4 118.6,158.3 127.7,176 113.7,161.9 
			116.8,181.6 107.9,163.7 104.8,183.5 101.8,163.7 92.8,181.6 96,161.9 81.9,176 91,158.3 73.3,167.4 87.5,153.3 67.8,156.5 
			85.6,147.6 65.9,144.5 85.6,141.5 67.8,132.5 87.5,135.7 73.3,121.6 91,130.7 81.9,113 96,127.2 92.8,107.5 101.8,125.3 		"/>
		<circle class="st16" cx="104.8" cy="144.5" r="18.4"/>
		<line class="st17" x1="131.3" y1="187.5" x2="180.4" y2="187.5"/>
		<line class="st17" x1="138.6" y1="175.2" x2="187.7" y2="175.2"/>
		<line class="st17" x1="145.5" y1="162.9" x2="194.6" y2="162.9"/>
		<g class="st18">
			<path class="st4" d="M251.2,145.3v4.1h-2.4v-11.6h4.5c0.9,0,1.6,0.2,2.3,0.5s1.2,0.8,1.5,1.4c0.4,0.6,0.5,1.3,0.5,2
				c0,1.1-0.4,2-1.2,2.7c-0.8,0.7-1.9,1-3.2,1H251.2z M251.2,143.4h2.1c0.6,0,1.1-0.1,1.5-0.4c0.3-0.3,0.5-0.7,0.5-1.3
				c0-0.6-0.2-1-0.5-1.4c-0.3-0.4-0.8-0.5-1.4-0.5h-2.2V143.4z"/>
			<path class="st4" d="M264.1,143c-0.3,0-0.6-0.1-0.8-0.1c-0.9,0-1.4,0.3-1.7,0.9v5.7h-2.3v-8.7h2.2l0.1,1c0.5-0.8,1.1-1.2,1.9-1.2
				c0.3,0,0.5,0,0.7,0.1L264.1,143z"/>
			<path class="st4" d="M264.6,145c0-0.9,0.2-1.6,0.5-2.3c0.3-0.7,0.8-1.2,1.4-1.6c0.6-0.4,1.3-0.6,2.2-0.6c1.2,0,2.1,0.4,2.9,1.1
				c0.7,0.7,1.2,1.7,1.2,2.9l0,0.6c0,1.3-0.4,2.4-1.1,3.2c-0.7,0.8-1.7,1.2-3,1.2s-2.2-0.4-3-1.2c-0.7-0.8-1.1-1.9-1.1-3.3V145z
				 M266.9,145.2c0,0.8,0.2,1.5,0.5,1.9c0.3,0.4,0.8,0.7,1.3,0.7c0.6,0,1-0.2,1.3-0.6c0.3-0.4,0.5-1.1,0.5-2.1
				c0-0.8-0.2-1.4-0.5-1.9c-0.3-0.4-0.8-0.7-1.3-0.7c-0.6,0-1,0.2-1.3,0.7C267,143.6,266.9,144.3,266.9,145.2z"/>
			<path class="st4" d="M273.8,145.1c0-1.3,0.3-2.4,0.9-3.2c0.6-0.8,1.4-1.2,2.5-1.2c0.8,0,1.5,0.3,2.1,0.9v-4.4h2.3v12.3h-2.1
				l-0.1-0.9c-0.6,0.7-1.3,1.1-2.2,1.1c-1,0-1.8-0.4-2.5-1.2S273.8,146.5,273.8,145.1z M276.1,145.2c0,0.8,0.1,1.4,0.4,1.9
				c0.3,0.4,0.7,0.7,1.2,0.7c0.7,0,1.2-0.3,1.5-0.9v-3.4c-0.3-0.6-0.8-0.9-1.5-0.9C276.7,142.5,276.1,143.4,276.1,145.2z"/>
			<path class="st4" d="M288.6,148.6c-0.6,0.7-1.4,1-2.4,1c-0.9,0-1.6-0.3-2.1-0.8c-0.5-0.5-0.7-1.3-0.7-2.3v-5.7h2.3v5.6
				c0,0.9,0.4,1.4,1.2,1.4c0.8,0,1.3-0.3,1.6-0.8v-6.1h2.3v8.7h-2.2L288.6,148.6z"/>
			<path class="st4" d="M295.7,146l-0.8,0.8v2.6h-2.3v-12.3h2.3v6.8l0.4-0.6l2.2-2.6h2.8l-3.1,3.6l3.4,5h-2.7L295.7,146z"/>
			<path class="st4" d="M304.1,138.7v2.1h1.5v1.7h-1.5v4.3c0,0.3,0.1,0.5,0.2,0.7c0.1,0.1,0.4,0.2,0.7,0.2c0.3,0,0.5,0,0.7-0.1v1.8
				c-0.5,0.1-0.9,0.2-1.4,0.2c-1.6,0-2.4-0.8-2.5-2.5v-4.7h-1.3v-1.7h1.3v-2.1H304.1z"/>
			<path class="st4" d="M306.9,138.6c0-0.3,0.1-0.6,0.3-0.9s0.5-0.3,0.9-0.3c0.4,0,0.7,0.1,0.9,0.3c0.2,0.2,0.4,0.5,0.4,0.9
				c0,0.4-0.1,0.6-0.4,0.9c-0.2,0.2-0.6,0.3-0.9,0.3c-0.4,0-0.7-0.1-0.9-0.3C307,139.2,306.9,138.9,306.9,138.6z M309.3,149.4H307
				v-8.7h2.3V149.4z"/>
			<path class="st4" d="M310.9,145c0-0.9,0.2-1.6,0.5-2.3c0.3-0.7,0.8-1.2,1.4-1.6c0.6-0.4,1.3-0.6,2.2-0.6c1.2,0,2.1,0.4,2.9,1.1
				c0.7,0.7,1.2,1.7,1.2,2.9l0,0.6c0,1.3-0.4,2.4-1.1,3.2c-0.7,0.8-1.7,1.2-3,1.2s-2.2-0.4-3-1.2c-0.7-0.8-1.1-1.9-1.1-3.3V145z
				 M313.2,145.2c0,0.8,0.2,1.5,0.5,1.9c0.3,0.4,0.8,0.7,1.3,0.7c0.6,0,1-0.2,1.3-0.6c0.3-0.4,0.5-1.1,0.5-2.1
				c0-0.8-0.2-1.4-0.5-1.9c-0.3-0.4-0.8-0.7-1.3-0.7c-0.6,0-1,0.2-1.3,0.7C313.3,143.6,313.2,144.3,313.2,145.2z"/>
			<path class="st4" d="M322.6,140.8l0.1,1c0.6-0.8,1.4-1.2,2.5-1.2c0.9,0,1.6,0.3,2,0.8c0.4,0.5,0.7,1.3,0.7,2.4v5.6h-2.3v-5.5
				c0-0.5-0.1-0.8-0.3-1.1c-0.2-0.2-0.6-0.3-1.1-0.3c-0.7,0-1.1,0.3-1.5,0.8v6.1h-2.3v-8.7H322.6z"/>
		</g>
		<g class="st18">
			<path class="st7" d="M462.3,298.6h-1.9v4.3H458v-11.6h4.3c1.4,0,2.4,0.3,3.2,0.9c0.7,0.6,1.1,1.5,1.1,2.6c0,0.8-0.2,1.5-0.5,2
				c-0.3,0.5-0.9,1-1.6,1.3l2.5,4.8v0.1h-2.6L462.3,298.6z M460.4,296.6h1.9c0.6,0,1.1-0.2,1.4-0.5c0.3-0.3,0.5-0.7,0.5-1.3
				c0-0.5-0.2-1-0.5-1.3c-0.3-0.3-0.8-0.5-1.4-0.5h-1.9V296.6z"/>
			<path class="st7" d="M472.3,303c-1.3,0-2.3-0.4-3.1-1.2c-0.8-0.8-1.2-1.8-1.2-3.1v-0.2c0-0.9,0.2-1.6,0.5-2.3
				c0.3-0.7,0.8-1.2,1.4-1.6c0.6-0.4,1.3-0.6,2.1-0.6c1.2,0,2.1,0.4,2.8,1.1c0.7,0.7,1,1.8,1,3.2v0.9h-5.5c0.1,0.6,0.3,1,0.7,1.4
				c0.4,0.3,0.9,0.5,1.4,0.5c0.9,0,1.6-0.3,2.1-1l1.1,1.3c-0.3,0.5-0.8,0.9-1.4,1.1C473.7,302.9,473,303,472.3,303z M472,295.9
				c-0.5,0-0.8,0.2-1.1,0.5c-0.3,0.3-0.5,0.8-0.5,1.3h3.2v-0.2c0-0.5-0.1-0.9-0.4-1.2C472.9,296,472.5,295.9,472,295.9z"/>
			<path class="st7" d="M476.8,298.5c0-1.3,0.3-2.4,0.9-3.2s1.5-1.2,2.6-1.2c0.9,0,1.7,0.3,2.2,1l0.1-0.8h2.1v8.4
				c0,0.8-0.2,1.4-0.5,2c-0.3,0.6-0.8,1-1.5,1.3c-0.6,0.3-1.4,0.4-2.2,0.4c-0.6,0-1.3-0.1-1.9-0.4c-0.6-0.3-1.1-0.6-1.4-1l1-1.4
				c0.6,0.6,1.3,1,2.1,1c0.6,0,1.1-0.2,1.4-0.5c0.3-0.3,0.5-0.8,0.5-1.4v-0.5c-0.5,0.6-1.2,0.9-2.1,0.9c-1,0-1.9-0.4-2.5-1.2
				C477.2,301,476.8,299.9,476.8,298.5L476.8,298.5z M479.1,298.6c0,0.8,0.2,1.4,0.5,1.9c0.3,0.4,0.7,0.7,1.3,0.7
				c0.7,0,1.2-0.3,1.5-0.8v-3.7c-0.3-0.5-0.8-0.8-1.5-0.8c-0.6,0-1,0.2-1.3,0.7C479.3,297,479.1,297.7,479.1,298.6z"/>
			<path class="st7" d="M490.5,303c-1.3,0-2.3-0.4-3.1-1.2c-0.8-0.8-1.2-1.8-1.2-3.1v-0.2c0-0.9,0.2-1.6,0.5-2.3
				c0.3-0.7,0.8-1.2,1.4-1.6s1.3-0.6,2.1-0.6c1.2,0,2.1,0.4,2.8,1.1s1,1.8,1,3.2v0.9h-5.5c0.1,0.6,0.3,1,0.7,1.4s0.9,0.5,1.4,0.5
				c0.9,0,1.6-0.3,2.1-1l1.1,1.3c-0.3,0.5-0.8,0.9-1.4,1.1C491.9,302.9,491.2,303,490.5,303z M490.2,295.9c-0.5,0-0.8,0.2-1.1,0.5
				c-0.3,0.3-0.5,0.8-0.5,1.3h3.2v-0.2c0-0.5-0.1-0.9-0.4-1.2C491.1,296,490.7,295.9,490.2,295.9z"/>
			<path class="st7" d="M497.8,302.8h-2.3v-12.3h2.3V302.8z"/>
			<path class="st7" d="M504.9,302c-0.6,0.7-1.4,1-2.4,1c-0.9,0-1.6-0.3-2.1-0.8c-0.5-0.5-0.7-1.3-0.7-2.3v-5.7h2.3v5.6
				c0,0.9,0.4,1.4,1.2,1.4c0.8,0,1.3-0.3,1.6-0.8v-6.1h2.3v8.7H505L504.9,302z"/>
			<path class="st7" d="M511,294.2l0.1,1c0.6-0.8,1.4-1.2,2.5-1.2c0.9,0,1.6,0.3,2,0.8s0.7,1.3,0.7,2.4v5.6H514v-5.5
				c0-0.5-0.1-0.8-0.3-1.1c-0.2-0.2-0.6-0.3-1.1-0.3c-0.6,0-1.1,0.3-1.5,0.8v6.1h-2.3v-8.7H511z"/>
			<path class="st7" d="M517.7,298.5c0-1.3,0.3-2.4,0.9-3.2s1.5-1.2,2.6-1.2c0.9,0,1.7,0.3,2.2,1l0.1-0.8h2.1v8.4
				c0,0.8-0.2,1.4-0.5,2s-0.8,1-1.5,1.3c-0.6,0.3-1.4,0.4-2.2,0.4c-0.6,0-1.3-0.1-1.9-0.4c-0.6-0.3-1.1-0.6-1.4-1l1-1.4
				c0.6,0.6,1.3,1,2.1,1c0.6,0,1.1-0.2,1.4-0.5c0.3-0.3,0.5-0.8,0.5-1.4v-0.5c-0.5,0.6-1.2,0.9-2.1,0.9c-1,0-1.9-0.4-2.5-1.2
				C518,301,517.7,299.9,517.7,298.5L517.7,298.5z M520,298.6c0,0.8,0.2,1.4,0.5,1.9c0.3,0.4,0.7,0.7,1.3,0.7c0.7,0,1.2-0.3,1.5-0.8
				v-3.7c-0.3-0.5-0.8-0.8-1.5-0.8c-0.6,0-1,0.2-1.3,0.7C520.2,297,520,297.7,520,298.6z"/>
		</g>
		<g class="st18">
			<path class="st4" d="M253.6,301.8l-4.3-8.1l1.9-1.9l5.4,11.1l-1.8,1.8l-11.1-5.4l1.9-1.9L253.6,301.8z"/>
			<path class="st4" d="M262.7,297c-0.9,0.9-1.9,1.4-3,1.4c-1.1,0-2.1-0.4-3-1.4l-0.2-0.2c-0.6-0.6-1-1.3-1.3-2
				c-0.2-0.7-0.3-1.4-0.1-2.1c0.2-0.7,0.5-1.3,1.1-1.9c0.8-0.8,1.8-1.2,2.8-1.2c1,0,2,0.6,3,1.5l0.7,0.7l-3.9,3.9
				c0.5,0.3,0.9,0.5,1.4,0.5c0.5,0,1-0.2,1.4-0.6c0.6-0.6,0.9-1.3,0.8-2.2l1.7,0.1c0.1,0.6,0,1.2-0.2,1.8
				C263.6,295.9,263.3,296.5,262.7,297z M257.5,292.1c-0.3,0.3-0.5,0.7-0.5,1.1c0,0.4,0.2,0.9,0.6,1.3l2.3-2.3l-0.1-0.1
				c-0.4-0.4-0.7-0.5-1.1-0.5C258.2,291.6,257.9,291.8,257.5,292.1z"/>
			<path class="st4" d="M264.9,285.4c-0.3,0.2-0.5,0.4-0.6,0.5c-0.6,0.6-0.8,1.2-0.6,1.8l4,4l-1.6,1.6l-6.1-6.1l1.5-1.5l0.8,0.7
				c-0.2-0.9-0.1-1.6,0.5-2.2c0.2-0.2,0.4-0.3,0.6-0.4L264.9,285.4z"/>
			<path class="st4" d="M272.8,280.7c1,1,1.5,2,1.7,2.9c0.1,1-0.2,1.8-0.9,2.6c-0.7,0.7-1.4,0.9-2.4,0.8l0.6,0.7l-1.5,1.5l-8.7-8.7
				l1.6-1.6l3.1,3.1c-0.1-0.8,0.2-1.5,0.8-2.1c0.7-0.7,1.6-1.1,2.6-0.9C270.7,279,271.7,279.6,272.8,280.7L272.8,280.7z
				 M271.1,282.2c-0.6-0.6-1.2-1-1.7-1.1c-0.5-0.1-0.9,0.1-1.3,0.4c-0.5,0.5-0.7,1.1-0.4,1.7l2.4,2.4c0.6,0.2,1.2,0.1,1.7-0.4
				c0.5-0.5,0.6-1.1,0.3-1.8C271.9,283.1,271.6,282.7,271.1,282.2z"/>
			<path class="st4" d="M275.7,274.6c-0.3,0.2-0.5,0.4-0.6,0.5c-0.6,0.6-0.8,1.2-0.6,1.8l4,4l-1.6,1.6l-6.1-6.1l1.5-1.5l0.8,0.7
				c-0.2-0.9-0.1-1.6,0.5-2.2c0.2-0.2,0.4-0.3,0.6-0.4L275.7,274.6z"/>
			<path class="st4" d="M284.4,275.1c-0.2-0.1-0.5-0.2-0.7-0.4c0,0.8-0.2,1.6-0.9,2.2c-0.6,0.6-1.3,0.9-2,1c-0.7,0-1.4-0.2-1.9-0.7
				c-0.6-0.6-0.9-1.4-0.8-2.2c0.1-0.8,0.7-1.7,1.6-2.6l0.8-0.8l-0.4-0.4c-0.3-0.3-0.6-0.4-0.9-0.5c-0.3,0-0.6,0.1-0.9,0.4
				c-0.3,0.3-0.4,0.6-0.4,0.8c0,0.3,0.1,0.5,0.3,0.8l-1.6,1.6c-0.4-0.4-0.6-0.8-0.7-1.3c-0.1-0.5,0-1.1,0.2-1.6
				c0.2-0.6,0.6-1.1,1.1-1.6c0.8-0.8,1.5-1.2,2.4-1.2c0.8-0.1,1.6,0.2,2.3,0.9l2.7,2.7c0.6,0.6,1.1,0.9,1.6,1.1l0.1,0.1L284.4,275.1
				z M281.9,275.3c0.2-0.2,0.4-0.5,0.5-0.8c0.1-0.3,0.1-0.6,0-0.9l-1.1-1.1l-0.6,0.6c-0.8,0.8-1,1.5-0.5,2.2l0.1,0.1
				c0.2,0.2,0.4,0.3,0.7,0.3C281.4,275.7,281.7,275.5,281.9,275.3z"/>
			<path class="st4" d="M290.1,268.1c0.1,0.9-0.2,1.7-0.9,2.4c-0.7,0.7-1.3,1-2.1,0.9c-0.7,0-1.5-0.4-2.2-1.1l-4-4l1.6-1.6l4,4
				c0.6,0.6,1.2,0.7,1.8,0.1c0.6-0.6,0.7-1.1,0.6-1.7l-4.3-4.3l1.6-1.6l6.1,6.1l-1.5,1.5L290.1,268.1z"/>
			<path class="st4" d="M294.9,262.2c0.3-0.3,0.5-0.6,0.5-1c0-0.4-0.1-0.7-0.4-1l1.5-1.5c0.4,0.4,0.7,0.9,0.8,1.5
				c0.1,0.6,0.1,1.1-0.1,1.7c-0.2,0.6-0.5,1.1-1,1.6c-0.9,0.9-1.8,1.3-2.9,1.2c-1.1-0.1-2.1-0.6-3.1-1.5l-0.1-0.1
				c-0.9-0.9-1.4-1.9-1.5-3c-0.1-1.1,0.3-2,1.2-2.9c0.8-0.8,1.6-1.2,2.5-1.2c0.9,0,1.7,0.3,2.4,1l-1.5,1.5c-0.3-0.3-0.7-0.5-1.1-0.5
				c-0.4,0-0.7,0.1-1,0.4c-0.4,0.4-0.5,0.8-0.4,1.3c0.1,0.5,0.4,1,1.1,1.6l0.2,0.2c0.6,0.6,1.2,1,1.6,1.1
				C294.1,262.7,294.5,262.6,294.9,262.2z"/>
			<path class="st4" d="M295.8,252.8c-0.1-1,0.2-1.8,0.9-2.4c1.3-1.3,2.8-1.2,4.3,0.3l3.9,3.9l-1.6,1.6l-3.9-3.9
				c-0.4-0.4-0.7-0.5-1-0.6c-0.3,0-0.7,0.1-1,0.5c-0.5,0.5-0.6,1-0.5,1.6l4.4,4.4l-1.6,1.6l-8.7-8.7l1.6-1.6L295.8,252.8z"/>
		</g>
		<g>
			<g>
				<line class="st19" x1="209.5" y1="382.7" x2="388.4" y2="203.7"/>
				<g>
					<polygon class="st4" points="388,209 388,204.1 383.1,204.1 385.2,202 390.1,202 390.1,206.9 					"/>
				</g>
			</g>
		</g>
		<g class="st18">
			<path class="st4" d="M582.2,249.4l3.6,3.6l-1.4,1.4l-5.3-5.3l8.2-8.2l1.7,1.7L582.2,249.4z"/>
			<path class="st4" d="M588.9,258.8c0.1-0.2,0.2-0.5,0.4-0.7c-0.8,0-1.6-0.2-2.2-0.9c-0.6-0.6-0.9-1.3-1-2c0-0.7,0.2-1.4,0.7-1.9
				c0.6-0.6,1.4-0.9,2.2-0.8c0.8,0.1,1.7,0.7,2.6,1.6l0.8,0.8l0.4-0.4c0.3-0.3,0.4-0.6,0.5-0.9c0-0.3-0.1-0.6-0.4-0.9
				c-0.3-0.3-0.6-0.4-0.8-0.4c-0.3,0-0.5,0.1-0.8,0.3l-1.6-1.6c0.4-0.4,0.8-0.6,1.3-0.7c0.5-0.1,1.1,0,1.6,0.2
				c0.6,0.2,1.1,0.6,1.6,1.1c0.8,0.8,1.2,1.5,1.2,2.4c0.1,0.8-0.2,1.6-0.9,2.3l-2.7,2.7c-0.6,0.6-0.9,1.1-1.1,1.6l-0.1,0.1
				L588.9,258.8z M588.7,256.3c0.2,0.2,0.5,0.4,0.8,0.5c0.3,0.1,0.6,0.1,0.9,0l1.1-1.1l-0.6-0.6c-0.8-0.8-1.5-1-2.2-0.5l-0.1,0.1
				c-0.2,0.2-0.3,0.4-0.3,0.7C588.3,255.8,588.4,256.1,588.7,256.3z"/>
			<path class="st4" d="M594.4,258.1c1-1,1.9-1.5,2.9-1.6c1-0.1,1.9,0.2,2.6,0.9c0.6,0.6,0.9,1.3,0.8,2.1l3.1-3.1l1.6,1.6l-8.7,8.7
				l-1.5-1.5l0.6-0.7c-0.9,0.1-1.7-0.2-2.3-0.8c-0.7-0.7-1-1.6-0.9-2.6C592.8,260.1,593.4,259.1,594.4,258.1z M595.9,259.8
				c-0.6,0.6-0.9,1.1-1,1.6c-0.1,0.5,0,0.9,0.4,1.3c0.5,0.5,1.1,0.6,1.7,0.4l2.4-2.4c0.2-0.6,0.1-1.2-0.4-1.7
				C598.2,258.3,597.2,258.6,595.9,259.8z"/>
			<path class="st4" d="M600.8,270.9c-0.9-0.9-1.4-1.9-1.4-3c0-1.1,0.4-2.1,1.4-3l0.2-0.2c0.6-0.6,1.3-1,2-1.3
				c0.7-0.2,1.4-0.3,2.1-0.1c0.7,0.2,1.3,0.5,1.9,1.1c0.8,0.8,1.2,1.8,1.2,2.8c0,1-0.6,2-1.5,3l-0.7,0.7l-3.9-3.9
				c-0.3,0.5-0.5,0.9-0.5,1.4c0,0.5,0.2,1,0.6,1.4c0.6,0.6,1.3,0.9,2.2,0.8l-0.1,1.7c-0.6,0.1-1.2,0-1.8-0.2
				S601.3,271.4,600.8,270.9z M605.6,265.7c-0.3-0.3-0.7-0.5-1.1-0.5c-0.4,0-0.9,0.2-1.3,0.6l2.3,2.3l0.1-0.1
				c0.4-0.4,0.5-0.7,0.5-1.1C606.1,266.4,606,266,605.6,265.7z"/>
			<path class="st4" d="M609.3,275.9c0.2-0.2,0.3-0.5,0.2-0.8c-0.1-0.3-0.3-0.7-0.6-1.3c-1.2-1.8-1.3-3.1-0.3-4
				c0.5-0.5,1.2-0.8,2-0.7c0.8,0.1,1.6,0.5,2.3,1.2c0.8,0.8,1.2,1.6,1.3,2.4c0.1,0.8-0.1,1.5-0.7,2.1l-1.6-1.6
				c0.2-0.2,0.4-0.5,0.4-0.8c0-0.3-0.2-0.6-0.5-0.9c-0.3-0.3-0.6-0.4-0.8-0.5c-0.3,0-0.5,0.1-0.7,0.2c-0.2,0.2-0.2,0.4-0.2,0.7
				c0.1,0.3,0.3,0.7,0.6,1.2c0.3,0.5,0.6,0.9,0.8,1.3c0.5,1.2,0.4,2.2-0.4,2.9c-0.6,0.6-1.2,0.8-2.1,0.6c-0.8-0.1-1.6-0.6-2.4-1.3
				c-0.5-0.5-0.9-1.1-1.1-1.6c-0.2-0.6-0.3-1.1-0.2-1.7c0.1-0.5,0.3-1,0.7-1.4l1.5,1.5c-0.3,0.3-0.4,0.6-0.3,1c0,0.4,0.2,0.7,0.6,1
				c0.3,0.3,0.6,0.5,0.9,0.5C608.9,276.1,609.2,276.1,609.3,275.9z"/>
			<path class="st4" d="M619.9,274.5l-1.5,1.5l1,1l-1.2,1.2l-1-1l-3.1,3.1c-0.2,0.2-0.3,0.4-0.4,0.6c0,0.2,0.1,0.4,0.4,0.6
				c0.2,0.2,0.4,0.3,0.5,0.4l-1.2,1.2c-0.4-0.2-0.8-0.5-1.1-0.8c-1.1-1.1-1.2-2.3,0-3.5l3.3-3.3l-0.9-0.9l1.2-1.2l0.9,0.9l1.5-1.5
				L619.9,274.5z"/>
			<path class="st4" d="M617.8,287.7c0.1-0.2,0.2-0.5,0.4-0.7c-0.8,0-1.6-0.2-2.2-0.9c-0.6-0.6-0.9-1.3-1-2s0.2-1.4,0.7-1.9
				c0.6-0.6,1.4-0.9,2.2-0.8s1.7,0.7,2.6,1.6l0.8,0.8l0.3-0.4c0.3-0.3,0.4-0.6,0.5-0.9c0-0.3-0.1-0.6-0.4-0.9
				c-0.3-0.3-0.6-0.4-0.8-0.4c-0.3,0-0.5,0.1-0.8,0.3l-1.6-1.6c0.4-0.4,0.8-0.6,1.3-0.7c0.5-0.1,1.1,0,1.6,0.2s1.1,0.6,1.6,1.1
				c0.8,0.8,1.2,1.5,1.2,2.4c0.1,0.8-0.2,1.6-0.9,2.3l-2.7,2.7c-0.6,0.6-0.9,1.1-1.1,1.6l-0.1,0.1L617.8,287.7z M617.5,285.2
				c0.2,0.2,0.5,0.4,0.8,0.5c0.3,0.1,0.6,0.1,0.9,0l1.1-1.1l-0.6-0.6c-0.8-0.8-1.5-1-2.2-0.5l-0.1,0.1c-0.2,0.2-0.3,0.4-0.3,0.7
				C617.2,284.7,617.3,284.9,617.5,285.2z"/>
			<path class="st4" d="M628,285.7l-0.7,0.8c1-0.1,1.8,0.2,2.6,0.9c0.6,0.6,0.9,1.3,0.9,2c-0.1,0.7-0.5,1.4-1.2,2.2l-4,4l-1.6-1.6
				l3.9-3.9c0.3-0.3,0.5-0.7,0.5-1c0-0.3-0.2-0.6-0.5-1c-0.5-0.5-1-0.6-1.6-0.4l-4.3,4.3l-1.6-1.6l6.1-6.1L628,285.7z"/>
			<path class="st4" d="M629.8,293.5c1-1,1.9-1.5,2.9-1.6c1-0.1,1.9,0.2,2.6,0.9c0.6,0.6,0.9,1.3,0.8,2.1l3.1-3.1l1.6,1.6l-8.7,8.7
				l-1.5-1.5l0.6-0.7c-0.9,0.1-1.7-0.2-2.3-0.8c-0.7-0.7-1-1.6-0.9-2.6C628.2,295.5,628.7,294.5,629.8,293.5z M631.3,295.2
				c-0.6,0.6-0.9,1.1-1,1.6c-0.1,0.5,0,0.9,0.4,1.3c0.5,0.5,1.1,0.6,1.7,0.4l2.4-2.4c0.2-0.6,0.1-1.2-0.4-1.7
				C633.6,293.7,632.6,293.9,631.3,295.2z"/>
		</g>
		<g>
			<g>
				<line class="st19" x1="501.2" y1="203.7" x2="667.4" y2="369.9"/>
				<g>
					<polygon class="st4" points="501.6,209 501.6,204.1 506.5,204.1 504.4,202 499.5,202 499.5,206.9 					"/>
				</g>
			</g>
		</g>
		<path class="st20" d="M452.9,197.9h-32.8c-11.3,0-20.5-9.2-20.5-20.5v-32.8c0-11.3,9.2-20.5,20.5-20.5h32.8
			c11.3,0,20.5,9.2,20.5,20.5v32.8C473.4,188.7,464.2,197.9,452.9,197.9z"/>
		<path class="st7" d="M435.4,137.2h13l-8.7,17.3h8.7l-16.3,30.4l3.3-21.7h-10.8L435.4,137.2z"/>
		<line class="st21" x1="430.4" y1="404.5" x2="430.4" y2="429.1"/>
	</g>
	<g id="Hotspot_PV">
		<rect x="64.5" y="109.7" class="st2" width="143.1" height="121.6"/>
	</g>
	<g id="Beschriftung_PV">
		<path class="st22" d="M235.3,98H55.1c-6.8,0-12.3-5.5-12.3-12.3V55c0-6.8,5.5-12.3,12.3-12.3h180.2c6.8,0,12.3,5.5,12.3,12.3v30.7
			C247.6,92.5,242.1,98,235.3,98z"/>
		<g class="st18">
			<path class="st10" d="M66.4,62.2v4.1H64V54.6h4.5c0.9,0,1.6,0.2,2.3,0.5c0.7,0.3,1.2,0.8,1.5,1.4c0.4,0.6,0.5,1.3,0.5,2
				c0,1.1-0.4,2-1.2,2.7c-0.8,0.7-1.9,1-3.2,1H66.4z M66.4,60.2h2.1c0.6,0,1.1-0.1,1.5-0.4c0.3-0.3,0.5-0.7,0.5-1.3
				c0-0.6-0.2-1-0.5-1.4c-0.3-0.4-0.8-0.5-1.4-0.5h-2.2V60.2z"/>
			<path class="st10" d="M76.7,58.6c0.6-0.7,1.4-1.1,2.3-1.1c1.9,0,2.8,1.1,2.9,3.3v5.5h-2.3v-5.5c0-0.5-0.1-0.9-0.3-1.1
				c-0.2-0.2-0.6-0.4-1.1-0.4c-0.7,0-1.2,0.3-1.5,0.8v6.2h-2.3V54h2.3V58.6z"/>
			<path class="st10" d="M83.3,61.9c0-0.9,0.2-1.6,0.5-2.3c0.3-0.7,0.8-1.2,1.4-1.6c0.6-0.4,1.3-0.6,2.2-0.6c1.2,0,2.1,0.4,2.9,1.1
				c0.7,0.7,1.2,1.7,1.2,2.9l0,0.6c0,1.3-0.4,2.4-1.1,3.2c-0.7,0.8-1.7,1.2-3,1.2s-2.2-0.4-3-1.2s-1.1-1.9-1.1-3.3V61.9z M85.6,62
				c0,0.8,0.2,1.5,0.5,1.9c0.3,0.4,0.8,0.7,1.3,0.7c0.6,0,1-0.2,1.3-0.6c0.3-0.4,0.5-1.1,0.5-2.1c0-0.8-0.2-1.4-0.5-1.9
				c-0.3-0.4-0.8-0.7-1.3-0.7c-0.6,0-1,0.2-1.3,0.7C85.7,60.4,85.6,61.1,85.6,62z"/>
			<path class="st10" d="M95.6,55.5v2.1h1.5v1.7h-1.5v4.3c0,0.3,0.1,0.5,0.2,0.7c0.1,0.1,0.4,0.2,0.7,0.2c0.3,0,0.5,0,0.7-0.1v1.8
				c-0.5,0.1-0.9,0.2-1.4,0.2c-1.6,0-2.4-0.8-2.5-2.5v-4.7h-1.3v-1.7h1.3v-2.1H95.6z"/>
			<path class="st10" d="M97.8,61.9c0-0.9,0.2-1.6,0.5-2.3c0.3-0.7,0.8-1.2,1.4-1.6c0.6-0.4,1.3-0.6,2.2-0.6c1.2,0,2.1,0.4,2.9,1.1
				c0.7,0.7,1.2,1.7,1.2,2.9l0,0.6c0,1.3-0.4,2.4-1.1,3.2c-0.7,0.8-1.7,1.2-3,1.2s-2.2-0.4-3-1.2s-1.1-1.9-1.1-3.3V61.9z M100.1,62
				c0,0.8,0.2,1.5,0.5,1.9c0.3,0.4,0.8,0.7,1.3,0.7c0.6,0,1-0.2,1.3-0.6c0.3-0.4,0.5-1.1,0.5-2.1c0-0.8-0.2-1.4-0.5-1.9
				c-0.3-0.4-0.8-0.7-1.3-0.7c-0.6,0-1,0.2-1.3,0.7C100.3,60.4,100.1,61.1,100.1,62z"/>
			<path class="st10" d="M110.6,63.4l1.6-5.8h2.4l-2.9,8.7h-2.2l-2.9-8.7h2.4L110.6,63.4z"/>
			<path class="st10" d="M115.1,61.9c0-0.9,0.2-1.6,0.5-2.3c0.3-0.7,0.8-1.2,1.4-1.6c0.6-0.4,1.3-0.6,2.2-0.6c1.2,0,2.1,0.4,2.9,1.1
				c0.7,0.7,1.2,1.7,1.2,2.9l0,0.6c0,1.3-0.4,2.4-1.1,3.2c-0.7,0.8-1.7,1.2-3,1.2s-2.2-0.4-3-1.2s-1.1-1.9-1.1-3.3V61.9z M117.4,62
				c0,0.8,0.2,1.5,0.5,1.9c0.3,0.4,0.8,0.7,1.3,0.7c0.6,0,1-0.2,1.3-0.6c0.3-0.4,0.5-1.1,0.5-2.1c0-0.8-0.2-1.4-0.5-1.9
				c-0.3-0.4-0.8-0.7-1.3-0.7c-0.6,0-1,0.2-1.3,0.7C117.6,60.4,117.4,61.1,117.4,62z"/>
			<path class="st10" d="M127.2,66.3h-2.3V54h2.3V66.3z"/>
			<path class="st10" d="M131.8,55.5v2.1h1.5v1.7h-1.5v4.3c0,0.3,0.1,0.5,0.2,0.7c0.1,0.1,0.4,0.2,0.7,0.2c0.3,0,0.5,0,0.7-0.1v1.8
				c-0.5,0.1-0.9,0.2-1.4,0.2c-1.6,0-2.4-0.8-2.5-2.5v-4.7h-1.3v-1.7h1.3v-2.1H131.8z"/>
			<path class="st10" d="M139.6,66.3c-0.1-0.2-0.2-0.5-0.2-0.8c-0.6,0.6-1.3,0.9-2.2,0.9c-0.8,0-1.6-0.2-2.1-0.7
				c-0.6-0.5-0.8-1.1-0.8-1.9c0-0.9,0.3-1.6,1-2.1c0.7-0.5,1.7-0.7,2.9-0.7h1.1v-0.5c0-0.4-0.1-0.7-0.3-1c-0.2-0.2-0.5-0.4-1-0.4
				c-0.4,0-0.7,0.1-0.9,0.3c-0.2,0.2-0.3,0.4-0.3,0.8h-2.3c0-0.5,0.2-1,0.5-1.4c0.3-0.4,0.7-0.8,1.3-1c0.6-0.2,1.2-0.4,1.9-0.4
				c1.1,0,1.9,0.3,2.5,0.8c0.6,0.5,0.9,1.3,0.9,2.3v3.8c0,0.8,0.1,1.4,0.3,1.9v0.1H139.6z M137.7,64.7c0.3,0,0.7-0.1,0.9-0.2
				c0.3-0.2,0.5-0.4,0.6-0.6v-1.5h-0.9c-1.2,0-1.8,0.4-1.8,1.2l0,0.1c0,0.3,0.1,0.5,0.3,0.7C137.1,64.6,137.4,64.7,137.7,64.7z"/>
			<path class="st10" d="M143.4,55.4c0-0.3,0.1-0.6,0.3-0.9s0.5-0.3,0.9-0.3c0.4,0,0.7,0.1,0.9,0.3c0.2,0.2,0.4,0.5,0.4,0.9
				c0,0.4-0.1,0.6-0.4,0.9c-0.2,0.2-0.6,0.3-0.9,0.3c-0.4,0-0.7-0.1-0.9-0.3C143.5,56,143.4,55.7,143.4,55.4z M145.8,66.3h-2.3v-8.7
				h2.3V66.3z"/>
			<path class="st10" d="M150.9,62.8l-0.8,0.8v2.6h-2.3V54h2.3v6.8l0.4-0.6l2.2-2.6h2.8l-3.1,3.6l3.4,5h-2.7L150.9,62.8z"/>
			<path class="st10" d="M161,62.2h-4.5v-1.9h4.5V62.2z"/>
			<path class="st10" d="M169.6,63.9h-4.2l-0.8,2.4H162l4.3-11.6h2.2l4.4,11.6h-2.6L169.6,63.9z M166,61.9h2.9l-1.5-4.4L166,61.9z"
				/>
			<path class="st10" d="M175.6,57.6l0.1,1c0.6-0.8,1.4-1.2,2.5-1.2c0.9,0,1.6,0.3,2,0.8c0.4,0.5,0.7,1.3,0.7,2.4v5.6h-2.3v-5.5
				c0-0.5-0.1-0.8-0.3-1.1c-0.2-0.2-0.6-0.3-1.1-0.3c-0.7,0-1.1,0.3-1.5,0.8v6.1h-2.3v-8.7H175.6z"/>
			<path class="st10" d="M185.1,66.3h-2.3V54h2.3V66.3z"/>
			<path class="st10" d="M192,66.3c-0.1-0.2-0.2-0.5-0.2-0.8c-0.6,0.6-1.3,0.9-2.2,0.9c-0.8,0-1.6-0.2-2.1-0.7
				c-0.6-0.5-0.8-1.1-0.8-1.9c0-0.9,0.3-1.6,1-2.1c0.7-0.5,1.7-0.7,2.9-0.7h1.1v-0.5c0-0.4-0.1-0.7-0.3-1c-0.2-0.2-0.5-0.4-1-0.4
				c-0.4,0-0.7,0.1-0.9,0.3c-0.2,0.2-0.3,0.4-0.3,0.8h-2.3c0-0.5,0.2-1,0.5-1.4c0.3-0.4,0.7-0.8,1.3-1c0.6-0.2,1.2-0.4,1.9-0.4
				c1.1,0,1.9,0.3,2.5,0.8c0.6,0.5,0.9,1.3,0.9,2.3v3.8c0,0.8,0.1,1.4,0.3,1.9v0.1H192z M190.1,64.7c0.3,0,0.7-0.1,0.9-0.2
				c0.3-0.2,0.5-0.4,0.6-0.6v-1.5h-0.9c-1.2,0-1.8,0.4-1.8,1.2l0,0.1c0,0.3,0.1,0.5,0.3,0.7C189.5,64.6,189.7,64.7,190.1,64.7z"/>
			<path class="st10" d="M195.4,61.9c0-1.3,0.3-2.4,0.9-3.2c0.6-0.8,1.5-1.2,2.6-1.2c0.9,0,1.7,0.3,2.2,1l0.1-0.8h2.1V66
				c0,0.8-0.2,1.4-0.5,2c-0.3,0.6-0.8,1-1.5,1.3s-1.4,0.4-2.2,0.4c-0.6,0-1.3-0.1-1.9-0.4c-0.6-0.3-1.1-0.6-1.4-1l1-1.4
				c0.6,0.6,1.3,1,2.1,1c0.6,0,1.1-0.2,1.4-0.5c0.3-0.3,0.5-0.8,0.5-1.4v-0.5c-0.5,0.6-1.2,0.9-2.1,0.9c-1,0-1.9-0.4-2.5-1.2
				C195.8,64.4,195.4,63.3,195.4,61.9L195.4,61.9z M197.8,62c0,0.8,0.2,1.4,0.5,1.9c0.3,0.4,0.7,0.7,1.3,0.7c0.7,0,1.2-0.3,1.5-0.8
				v-3.7c-0.3-0.5-0.8-0.8-1.5-0.8c-0.6,0-1,0.2-1.3,0.7C197.9,60.5,197.8,61.1,197.8,62z"/>
			<path class="st10" d="M209.1,66.4c-1.3,0-2.3-0.4-3.1-1.2c-0.8-0.8-1.2-1.8-1.2-3.1v-0.2c0-0.9,0.2-1.6,0.5-2.3
				c0.3-0.7,0.8-1.2,1.4-1.6s1.3-0.6,2.1-0.6c1.2,0,2.1,0.4,2.8,1.1c0.7,0.7,1,1.8,1,3.2v0.9h-5.5c0.1,0.6,0.3,1,0.7,1.4
				c0.4,0.3,0.9,0.5,1.4,0.5c0.9,0,1.6-0.3,2.1-1l1.1,1.3c-0.3,0.5-0.8,0.9-1.4,1.1S209.8,66.4,209.1,66.4z M208.8,59.3
				c-0.5,0-0.8,0.2-1.1,0.5c-0.3,0.3-0.5,0.8-0.5,1.3h3.2v-0.2c0-0.5-0.1-0.9-0.4-1.2C209.7,59.5,209.3,59.3,208.8,59.3z"/>
			<path class="st10" d="M218.8,67.3h-1.7l4.3-12.6h1.7L218.8,67.3z"/>
		</g>
		<g class="st18">
			<path class="st10" d="M98.8,82.6l1.6-8.3h2.4l-2.6,11.6h-2.4l-1.9-7.8L94,85.9h-2.4L89,74.3h2.4l1.6,8.3l1.9-8.3h2L98.8,82.6z"/>
			<path class="st10" d="M107.6,86.1c-1.3,0-2.3-0.4-3.1-1.2c-0.8-0.8-1.2-1.8-1.2-3.1v-0.2c0-0.9,0.2-1.6,0.5-2.3
				c0.3-0.7,0.8-1.2,1.4-1.6c0.6-0.4,1.3-0.6,2.1-0.6c1.2,0,2.1,0.4,2.8,1.1c0.7,0.7,1,1.8,1,3.2v0.9h-5.5c0.1,0.6,0.3,1,0.7,1.4
				c0.4,0.3,0.9,0.5,1.4,0.5c0.9,0,1.6-0.3,2.1-1l1.1,1.3c-0.3,0.5-0.8,0.9-1.4,1.1S108.4,86.1,107.6,86.1z M107.4,79
				c-0.5,0-0.8,0.2-1.1,0.5c-0.3,0.3-0.5,0.8-0.5,1.3h3.2v-0.2c0-0.5-0.1-0.9-0.4-1.2C108.2,79.1,107.9,79,107.4,79z"/>
			<path class="st10" d="M116.1,84.2c0.4,0,0.8-0.1,1-0.4c0.3-0.2,0.4-0.5,0.4-0.9h2.2c0,0.6-0.2,1.1-0.5,1.6
				c-0.3,0.5-0.7,0.9-1.3,1.1c-0.5,0.3-1.2,0.4-1.8,0.4c-1.2,0-2.2-0.4-2.9-1.2c-0.7-0.8-1.1-1.9-1.1-3.3v-0.2
				c0-1.3,0.4-2.4,1.1-3.2c0.7-0.8,1.7-1.2,2.9-1.2c1.1,0,2,0.3,2.6,0.9c0.7,0.6,1,1.4,1,2.5h-2.2c0-0.4-0.1-0.8-0.4-1.1
				c-0.3-0.3-0.6-0.4-1.1-0.4c-0.5,0-0.9,0.2-1.2,0.6c-0.3,0.4-0.4,1-0.4,1.9v0.2c0,0.9,0.1,1.5,0.4,1.9S115.6,84.2,116.1,84.2z"/>
			<path class="st10" d="M123.3,78.2c0.6-0.7,1.4-1.1,2.3-1.1c1.9,0,2.8,1.1,2.9,3.3v5.5h-2.3v-5.5c0-0.5-0.1-0.9-0.3-1.1
				c-0.2-0.2-0.6-0.4-1.1-0.4c-0.7,0-1.2,0.3-1.5,0.8v6.2H121V73.6h2.3V78.2z"/>
			<path class="st10" d="M134.9,83.5c0-0.3-0.1-0.5-0.4-0.7c-0.3-0.2-0.7-0.3-1.3-0.4c-2.1-0.4-3.1-1.3-3.1-2.6c0-0.8,0.3-1.4,1-1.9
				c0.6-0.5,1.5-0.8,2.5-0.8c1.1,0,2,0.3,2.6,0.8c0.7,0.5,1,1.2,1,2h-2.3c0-0.3-0.1-0.6-0.3-0.8c-0.2-0.2-0.5-0.3-1-0.3
				c-0.4,0-0.7,0.1-0.9,0.3c-0.2,0.2-0.3,0.4-0.3,0.7c0,0.3,0.1,0.5,0.4,0.6c0.2,0.2,0.7,0.3,1.2,0.4c0.6,0.1,1.1,0.2,1.5,0.4
				c1.2,0.4,1.8,1.2,1.8,2.3c0,0.8-0.3,1.4-1,1.9c-0.7,0.5-1.6,0.7-2.6,0.7c-0.7,0-1.4-0.1-1.9-0.4c-0.6-0.3-1-0.6-1.3-1.1
				s-0.5-0.9-0.5-1.5h2.2c0,0.4,0.2,0.7,0.5,0.9c0.3,0.2,0.7,0.3,1.1,0.3c0.4,0,0.8-0.1,1-0.3C134.8,84,134.9,83.8,134.9,83.5z"/>
			<path class="st10" d="M142.6,86.1c-1.3,0-2.3-0.4-3.1-1.2c-0.8-0.8-1.2-1.8-1.2-3.1v-0.2c0-0.9,0.2-1.6,0.5-2.3s0.8-1.2,1.4-1.6
				c0.6-0.4,1.3-0.6,2.1-0.6c1.2,0,2.1,0.4,2.8,1.1c0.7,0.7,1,1.8,1,3.2v0.9h-5.5c0.1,0.6,0.3,1,0.7,1.4c0.4,0.3,0.9,0.5,1.4,0.5
				c0.9,0,1.6-0.3,2.1-1l1.1,1.3c-0.3,0.5-0.8,0.9-1.4,1.1S143.4,86.1,142.6,86.1z M142.4,79c-0.5,0-0.8,0.2-1.1,0.5
				c-0.3,0.3-0.5,0.8-0.5,1.3h3.2v-0.2c0-0.5-0.1-0.9-0.4-1.2C143.2,79.1,142.9,79,142.4,79z"/>
			<path class="st10" d="M149.9,85.9h-2.3V73.6h2.3V85.9z"/>
			<path class="st10" d="M156.7,79.4c-0.3,0-0.6-0.1-0.8-0.1c-0.9,0-1.4,0.3-1.7,0.9v5.7h-2.3v-8.7h2.2l0.1,1
				c0.5-0.8,1.1-1.2,1.9-1.2c0.3,0,0.5,0,0.7,0.1L156.7,79.4z"/>
			<path class="st10" d="M157.8,75c0-0.3,0.1-0.6,0.3-0.9c0.2-0.2,0.5-0.3,0.9-0.3c0.4,0,0.7,0.1,0.9,0.3c0.2,0.2,0.4,0.5,0.4,0.9
				c0,0.4-0.1,0.6-0.4,0.9c-0.2,0.2-0.6,0.3-0.9,0.3c-0.4,0-0.7-0.1-0.9-0.3C157.9,75.7,157.8,75.4,157.8,75z M160.3,85.9h-2.3v-8.7
				h2.3V85.9z"/>
			<path class="st10" d="M165.8,84.2c0.4,0,0.8-0.1,1-0.4c0.3-0.2,0.4-0.5,0.4-0.9h2.2c0,0.6-0.2,1.1-0.5,1.6
				c-0.3,0.5-0.7,0.9-1.3,1.1c-0.5,0.3-1.2,0.4-1.8,0.4c-1.2,0-2.2-0.4-2.9-1.2c-0.7-0.8-1.1-1.9-1.1-3.3v-0.2
				c0-1.3,0.4-2.4,1.1-3.2c0.7-0.8,1.7-1.2,2.9-1.2c1.1,0,2,0.3,2.6,0.9c0.7,0.6,1,1.4,1,2.5h-2.2c0-0.4-0.1-0.8-0.4-1.1
				c-0.3-0.3-0.6-0.4-1.1-0.4c-0.5,0-0.9,0.2-1.2,0.6c-0.3,0.4-0.4,1-0.4,1.9v0.2c0,0.9,0.1,1.5,0.4,1.9S165.2,84.2,165.8,84.2z"/>
			<path class="st10" d="M173,78.2c0.6-0.7,1.4-1.1,2.3-1.1c1.9,0,2.8,1.1,2.9,3.3v5.5h-2.3v-5.5c0-0.5-0.1-0.9-0.3-1.1
				c-0.2-0.2-0.6-0.4-1.1-0.4c-0.7,0-1.2,0.3-1.5,0.8v6.2h-2.3V73.6h2.3V78.2z"/>
			<path class="st10" d="M182.6,75.1v2.1h1.5V79h-1.5v4.3c0,0.3,0.1,0.5,0.2,0.7c0.1,0.1,0.4,0.2,0.7,0.2c0.3,0,0.5,0,0.7-0.1v1.8
				c-0.5,0.1-0.9,0.2-1.4,0.2c-1.6,0-2.4-0.8-2.5-2.5V79h-1.3v-1.7h1.3v-2.1H182.6z"/>
			<path class="st10" d="M189.4,86.1c-1.3,0-2.3-0.4-3.1-1.2c-0.8-0.8-1.2-1.8-1.2-3.1v-0.2c0-0.9,0.2-1.6,0.5-2.3s0.8-1.2,1.4-1.6
				c0.6-0.4,1.3-0.6,2.1-0.6c1.2,0,2.1,0.4,2.8,1.1c0.7,0.7,1,1.8,1,3.2v0.9h-5.5c0.1,0.6,0.3,1,0.7,1.4c0.4,0.3,0.9,0.5,1.4,0.5
				c0.9,0,1.6-0.3,2.1-1l1.1,1.3c-0.3,0.5-0.8,0.9-1.4,1.1S190.1,86.1,189.4,86.1z M189.1,79c-0.5,0-0.8,0.2-1.1,0.5
				c-0.3,0.3-0.5,0.8-0.5,1.3h3.2v-0.2c0-0.5-0.1-0.9-0.4-1.2C190,79.1,189.6,79,189.1,79z"/>
			<path class="st10" d="M199.1,79.4c-0.3,0-0.6-0.1-0.8-0.1c-0.9,0-1.4,0.3-1.7,0.9v5.7h-2.3v-8.7h2.2l0.1,1
				c0.5-0.8,1.1-1.2,1.9-1.2c0.3,0,0.5,0,0.7,0.1L199.1,79.4z"/>
		</g>
		<polygon class="st22" points="145.2,106.7 155.5,96.5 135,96.5 		"/>
	</g>
	<g id="Hotspot_evcc">
		<rect x="382.4" y="113.9" class="st2" width="109.3" height="92.8"/>
	</g>
	<g id="Beschriftung_evcc">
		<path class="st22" d="M527.1,98H346.9c-6.8,0-12.3-5.5-12.3-12.3V55c0-6.8,5.5-12.3,12.3-12.3h180.2c6.8,0,12.3,5.5,12.3,12.3
			v30.7C539.4,92.5,533.9,98,527.1,98z"/>
		<g class="st18">
			<path class="st10" d="M424.5,74.4c-1.3,0-2.3-0.4-3.1-1.2c-0.8-0.8-1.2-1.8-1.2-3.1v-0.2c0-0.9,0.2-1.6,0.5-2.3
				c0.3-0.7,0.8-1.2,1.4-1.6s1.3-0.6,2.1-0.6c1.2,0,2.1,0.4,2.8,1.1c0.7,0.7,1,1.8,1,3.2v0.9h-5.5c0.1,0.6,0.3,1,0.7,1.4
				c0.4,0.3,0.9,0.5,1.4,0.5c0.9,0,1.6-0.3,2.1-1l1.1,1.3c-0.3,0.5-0.8,0.9-1.4,1.1C425.9,74.3,425.2,74.4,424.5,74.4z M424.3,67.3
				c-0.5,0-0.8,0.2-1.1,0.5c-0.3,0.3-0.5,0.8-0.5,1.3h3.2v-0.2c0-0.5-0.1-0.9-0.4-1.2C425.1,67.4,424.8,67.3,424.3,67.3z"/>
			<path class="st10" d="M432.5,71.4l1.6-5.8h2.4l-2.9,8.7h-2.2l-2.9-8.7h2.4L432.5,71.4z"/>
			<path class="st10" d="M441.1,72.6c0.4,0,0.8-0.1,1-0.4c0.3-0.2,0.4-0.5,0.4-0.9h2.2c0,0.6-0.2,1.1-0.5,1.6
				c-0.3,0.5-0.7,0.9-1.3,1.1c-0.5,0.3-1.2,0.4-1.8,0.4c-1.2,0-2.2-0.4-2.9-1.2c-0.7-0.8-1.1-1.9-1.1-3.3v-0.2
				c0-1.3,0.4-2.4,1.1-3.2c0.7-0.8,1.7-1.2,2.9-1.2c1.1,0,2,0.3,2.6,0.9c0.7,0.6,1,1.4,1,2.5h-2.2c0-0.4-0.1-0.8-0.4-1.1
				c-0.3-0.3-0.6-0.4-1.1-0.4c-0.5,0-0.9,0.2-1.2,0.6c-0.3,0.4-0.4,1-0.4,1.9V70c0,0.9,0.1,1.5,0.4,1.9
				C440.1,72.4,440.5,72.6,441.1,72.6z"/>
			<path class="st10" d="M449.6,72.6c0.4,0,0.8-0.1,1-0.4c0.3-0.2,0.4-0.5,0.4-0.9h2.2c0,0.6-0.2,1.1-0.5,1.6
				c-0.3,0.5-0.7,0.9-1.3,1.1c-0.5,0.3-1.2,0.4-1.8,0.4c-1.2,0-2.2-0.4-2.9-1.2c-0.7-0.8-1.1-1.9-1.1-3.3v-0.2
				c0-1.3,0.4-2.4,1.1-3.2c0.7-0.8,1.7-1.2,2.9-1.2c1.1,0,2,0.3,2.6,0.9c0.7,0.6,1,1.4,1,2.5h-2.2c0-0.4-0.1-0.8-0.4-1.1
				c-0.3-0.3-0.6-0.4-1.1-0.4c-0.5,0-0.9,0.2-1.2,0.6c-0.3,0.4-0.4,1-0.4,1.9V70c0,0.9,0.1,1.5,0.4,1.9
				C448.6,72.4,449.1,72.6,449.6,72.6z"/>
		</g>
		<polygon class="st22" points="437,106.7 447.2,96.5 426.8,96.5 		"/>
	</g>
	<g id="Hotspot_Netzanschluß">
		<rect x="89.1" y="364.7" class="st2" width="122.9" height="107.6"/>
	</g>
	<g id="Beschriftung_Netzanschluß">
		<path class="st22" d="M55.1,487.4h180.2c6.8,0,12.3,5.5,12.3,12.3v30.7c0,6.8-5.5,12.3-12.3,12.3H55.1c-6.8,0-12.3-5.5-12.3-12.3
			v-30.7C42.8,493,48.4,487.4,55.1,487.4z"/>
		<g class="st18">
			<path class="st10" d="M103.7,519h-2.4l-4.7-7.7v7.7h-2.4v-11.6h2.4l4.7,7.7v-7.7h2.4V519z"/>
			<path class="st10" d="M109.6,519.1c-1.3,0-2.3-0.4-3.1-1.2c-0.8-0.8-1.2-1.8-1.2-3.1v-0.2c0-0.9,0.2-1.6,0.5-2.3
				c0.3-0.7,0.8-1.2,1.4-1.6c0.6-0.4,1.3-0.6,2.1-0.6c1.2,0,2.1,0.4,2.8,1.1s1,1.8,1,3.2v0.9h-5.5c0.1,0.6,0.3,1,0.7,1.4
				c0.4,0.3,0.9,0.5,1.4,0.5c0.9,0,1.6-0.3,2.1-1l1.1,1.3c-0.3,0.5-0.8,0.9-1.4,1.1C111,519,110.4,519.1,109.6,519.1z M109.4,512
				c-0.5,0-0.8,0.2-1.1,0.5c-0.3,0.3-0.5,0.8-0.5,1.3h3.2v-0.2c0-0.5-0.1-0.9-0.4-1.2C110.2,512.2,109.9,512,109.4,512z"/>
			<path class="st10" d="M117.3,508.2v2.1h1.5v1.7h-1.5v4.3c0,0.3,0.1,0.5,0.2,0.7c0.1,0.1,0.4,0.2,0.7,0.2c0.3,0,0.5,0,0.7-0.1v1.8
				c-0.5,0.1-0.9,0.2-1.4,0.2c-1.6,0-2.4-0.8-2.5-2.5V512h-1.3v-1.7h1.3v-2.1H117.3z"/>
			<path class="st10" d="M122.7,517.1h4.2v1.9h-7.2v-1.4l4.1-5.4h-4v-1.9h6.9v1.4L122.7,517.1z"/>
			<path class="st10" d="M133.4,519c-0.1-0.2-0.2-0.5-0.2-0.8c-0.6,0.6-1.3,0.9-2.2,0.9c-0.8,0-1.6-0.2-2.1-0.7
				c-0.6-0.5-0.8-1.1-0.8-1.9c0-0.9,0.3-1.6,1-2.1c0.7-0.5,1.7-0.7,2.9-0.7h1.1v-0.5c0-0.4-0.1-0.7-0.3-1c-0.2-0.2-0.5-0.4-1-0.4
				c-0.4,0-0.7,0.1-0.9,0.3c-0.2,0.2-0.3,0.4-0.3,0.8h-2.3c0-0.5,0.2-1,0.5-1.4c0.3-0.4,0.7-0.8,1.3-1c0.6-0.2,1.2-0.4,1.9-0.4
				c1.1,0,1.9,0.3,2.5,0.8c0.6,0.5,0.9,1.3,0.9,2.3v3.8c0,0.8,0.1,1.4,0.3,1.9v0.1H133.4z M131.5,517.4c0.3,0,0.7-0.1,0.9-0.2
				c0.3-0.2,0.5-0.4,0.6-0.6V515h-0.9c-1.2,0-1.8,0.4-1.8,1.2l0,0.1c0,0.3,0.1,0.5,0.3,0.7C130.9,517.3,131.1,517.4,131.5,517.4z"/>
			<path class="st10" d="M139.3,510.3l0.1,1c0.6-0.8,1.4-1.2,2.5-1.2c0.9,0,1.6,0.3,2,0.8c0.4,0.5,0.7,1.3,0.7,2.4v5.6h-2.3v-5.5
				c0-0.5-0.1-0.8-0.3-1.1c-0.2-0.2-0.6-0.3-1.1-0.3c-0.7,0-1.1,0.3-1.5,0.8v6.1h-2.3v-8.7H139.3z"/>
			<path class="st10" d="M151,516.6c0-0.3-0.1-0.5-0.4-0.7c-0.3-0.2-0.7-0.3-1.3-0.4c-2.1-0.4-3.1-1.3-3.1-2.6c0-0.8,0.3-1.4,1-1.9
				c0.6-0.5,1.5-0.8,2.5-0.8c1.1,0,2,0.3,2.6,0.8c0.7,0.5,1,1.2,1,2h-2.3c0-0.3-0.1-0.6-0.3-0.8c-0.2-0.2-0.5-0.3-1-0.3
				c-0.4,0-0.7,0.1-0.9,0.3c-0.2,0.2-0.3,0.4-0.3,0.7c0,0.3,0.1,0.5,0.4,0.6c0.2,0.2,0.7,0.3,1.2,0.4c0.6,0.1,1.1,0.2,1.5,0.4
				c1.2,0.4,1.8,1.2,1.8,2.3c0,0.8-0.3,1.4-1,1.9c-0.7,0.5-1.6,0.7-2.6,0.7c-0.7,0-1.4-0.1-1.9-0.4c-0.6-0.3-1-0.6-1.3-1.1
				s-0.5-0.9-0.5-1.5h2.2c0,0.4,0.2,0.7,0.5,0.9c0.3,0.2,0.7,0.3,1.1,0.3c0.4,0,0.8-0.1,1-0.3C150.9,517.1,151,516.8,151,516.6z"/>
			<path class="st10" d="M158.4,517.3c0.4,0,0.8-0.1,1-0.4c0.3-0.2,0.4-0.5,0.4-0.9h2.2c0,0.6-0.2,1.1-0.5,1.6
				c-0.3,0.5-0.7,0.9-1.3,1.1c-0.5,0.3-1.2,0.4-1.8,0.4c-1.2,0-2.2-0.4-2.9-1.2c-0.7-0.8-1.1-1.9-1.1-3.3v-0.2
				c0-1.3,0.4-2.4,1.1-3.2c0.7-0.8,1.7-1.2,2.9-1.2c1.1,0,2,0.3,2.6,0.9c0.7,0.6,1,1.4,1,2.5h-2.2c0-0.4-0.1-0.8-0.4-1.1
				c-0.3-0.3-0.6-0.4-1.1-0.4c-0.5,0-0.9,0.2-1.2,0.6c-0.3,0.4-0.4,1-0.4,1.9v0.2c0,0.9,0.1,1.5,0.4,1.9S157.8,517.3,158.4,517.3z"
				/>
			<path class="st10" d="M165.6,511.3c0.6-0.7,1.4-1.1,2.3-1.1c1.9,0,2.8,1.1,2.9,3.3v5.5h-2.3v-5.5c0-0.5-0.1-0.9-0.3-1.1
				c-0.2-0.2-0.6-0.4-1.1-0.4c-0.7,0-1.2,0.3-1.5,0.8v6.2h-2.3v-12.3h2.3V511.3z"/>
			<path class="st10" d="M174.9,519h-2.3v-12.3h2.3V519z"/>
			<path class="st10" d="M182,518.1c-0.6,0.7-1.4,1-2.4,1c-0.9,0-1.6-0.3-2.1-0.8c-0.5-0.5-0.7-1.3-0.7-2.3v-5.7h2.3v5.6
				c0,0.9,0.4,1.4,1.2,1.4c0.8,0,1.3-0.3,1.6-0.8v-6.1h2.3v8.7h-2.2L182,518.1z"/>
			<path class="st10" d="M188.5,519h-2.3v-8.8c0-1.2,0.3-2.1,1-2.7c0.7-0.6,1.6-1,2.8-1c1,0,1.8,0.3,2.5,0.8
				c0.6,0.5,0.9,1.3,0.9,2.2c0,0.6-0.1,1.1-0.4,1.6c-0.3,0.5-0.4,0.9-0.4,1.3c0,0.2,0.1,0.4,0.2,0.6c0.2,0.2,0.5,0.5,0.9,0.9
				c0.8,0.7,1.2,1.5,1.2,2.3c0,0.9-0.3,1.7-0.9,2.2c-0.6,0.5-1.5,0.8-2.6,0.8c-0.4,0-0.9,0-1.3-0.1c-0.4-0.1-0.7-0.2-1-0.3l0.4-1.8
				c0.5,0.3,1.1,0.4,1.8,0.4c0.4,0,0.7-0.1,1-0.3c0.2-0.2,0.3-0.5,0.3-0.8c0-0.2-0.1-0.5-0.3-0.7c-0.2-0.2-0.5-0.5-0.9-0.9
				c-0.8-0.6-1.2-1.4-1.2-2.2c0-0.5,0.1-1,0.4-1.5c0.3-0.5,0.4-0.9,0.4-1.4c0-0.4-0.1-0.7-0.4-0.9c-0.2-0.2-0.5-0.3-0.9-0.3
				c-0.8,0-1.3,0.6-1.3,1.7V519z"/>
		</g>
		<polygon class="st22" points="145.2,478.7 135,489 155.5,489 		"/>
	</g>
	<g id="Hotspot_Wallbox">
		<rect x="386.3" y="374.6" class="st2" width="94.6" height="94.6"/>
	</g>
	<g id="Beschriftung_Wallbox">
		<path class="st22" d="M346.4,487.4h180.2c6.8,0,12.3,5.5,12.3,12.3v30.7c0,6.8-5.5,12.3-12.3,12.3H346.4
			c-6.8,0-12.3-5.5-12.3-12.3v-30.7C334.1,493,339.6,487.4,346.4,487.4z"/>
		<g class="st18">
			<path class="st10" d="M370.2,515.9c0-0.5-0.2-0.8-0.5-1c-0.3-0.2-0.9-0.5-1.7-0.8c-0.8-0.3-1.5-0.5-2-0.8c-1.3-0.7-2-1.7-2-2.9
				c0-0.6,0.2-1.2,0.5-1.7c0.4-0.5,0.9-0.9,1.5-1.2c0.7-0.3,1.4-0.4,2.2-0.4c0.8,0,1.6,0.2,2.2,0.5c0.7,0.3,1.2,0.7,1.5,1.3
				c0.4,0.5,0.5,1.2,0.5,1.9h-2.4c0-0.5-0.2-0.9-0.5-1.2c-0.3-0.3-0.8-0.4-1.4-0.4c-0.6,0-1,0.1-1.4,0.4c-0.3,0.2-0.5,0.6-0.5,1
				c0,0.4,0.2,0.7,0.6,1c0.4,0.3,0.9,0.5,1.7,0.7c1.4,0.4,2.4,0.9,3,1.5s0.9,1.4,0.9,2.3c0,1-0.4,1.8-1.1,2.4
				c-0.8,0.6-1.8,0.9-3.1,0.9c-0.9,0-1.7-0.2-2.4-0.5c-0.7-0.3-1.3-0.8-1.7-1.3c-0.4-0.6-0.6-1.2-0.6-2h2.4c0,1.3,0.8,1.9,2.3,1.9
				c0.6,0,1-0.1,1.3-0.3C370,516.7,370.2,516.3,370.2,515.9z"/>
			<path class="st10" d="M376.8,508.2v2.1h1.5v1.7h-1.5v4.3c0,0.3,0.1,0.5,0.2,0.7c0.1,0.1,0.4,0.2,0.7,0.2c0.3,0,0.5,0,0.7-0.1v1.8
				c-0.5,0.1-0.9,0.2-1.4,0.2c-1.6,0-2.4-0.8-2.5-2.5V512h-1.3v-1.7h1.3v-2.1H376.8z"/>
			<path class="st10" d="M383.6,519.1c-1.3,0-2.3-0.4-3.1-1.2c-0.8-0.8-1.2-1.8-1.2-3.1v-0.2c0-0.9,0.2-1.6,0.5-2.3
				c0.3-0.7,0.8-1.2,1.4-1.6s1.3-0.6,2.1-0.6c1.2,0,2.1,0.4,2.8,1.1s1,1.8,1,3.2v0.9h-5.5c0.1,0.6,0.3,1,0.7,1.4s0.9,0.5,1.4,0.5
				c0.9,0,1.6-0.3,2.1-1l1.1,1.3c-0.3,0.5-0.8,0.9-1.4,1.1C385,519,384.3,519.1,383.6,519.1z M383.3,512c-0.5,0-0.8,0.2-1.1,0.5
				c-0.3,0.3-0.5,0.8-0.5,1.3h3.2v-0.2c0-0.5-0.1-0.9-0.4-1.2C384.2,512.2,383.8,512,383.3,512z"/>
			<path class="st10" d="M393.6,518.1c-0.6,0.7-1.4,1-2.4,1c-0.9,0-1.6-0.3-2.1-0.8s-0.7-1.3-0.7-2.3v-5.7h2.3v5.6
				c0,0.9,0.4,1.4,1.2,1.4c0.8,0,1.3-0.3,1.6-0.8v-6.1h2.3v8.7h-2.2L393.6,518.1z"/>
			<path class="st10" d="M401.6,519.1c-1.3,0-2.3-0.4-3.1-1.2c-0.8-0.8-1.2-1.8-1.2-3.1v-0.2c0-0.9,0.2-1.6,0.5-2.3
				c0.3-0.7,0.8-1.2,1.4-1.6c0.6-0.4,1.3-0.6,2.1-0.6c1.2,0,2.1,0.4,2.8,1.1c0.7,0.7,1,1.8,1,3.2v0.9h-5.5c0.1,0.6,0.3,1,0.7,1.4
				c0.4,0.3,0.9,0.5,1.4,0.5c0.9,0,1.6-0.3,2.1-1l1.1,1.3c-0.3,0.5-0.8,0.9-1.4,1.1S402.3,519.1,401.6,519.1z M401.3,512
				c-0.5,0-0.8,0.2-1.1,0.5c-0.3,0.3-0.5,0.8-0.5,1.3h3.2v-0.2c0-0.5-0.1-0.9-0.4-1.2C402.2,512.2,401.8,512,401.3,512z"/>
			<path class="st10" d="M411.3,512.5c-0.3,0-0.6-0.1-0.8-0.1c-0.9,0-1.4,0.3-1.7,0.9v5.7h-2.3v-8.7h2.2l0.1,1
				c0.5-0.8,1.1-1.2,1.9-1.2c0.3,0,0.5,0,0.7,0.1L411.3,512.5z"/>
			<path class="st10" d="M420.3,514.7c0,1.4-0.3,2.5-0.9,3.2c-0.6,0.8-1.4,1.2-2.5,1.2c-0.9,0-1.7-0.4-2.2-1.1l-0.1,0.9h-2.1v-12.3
				h2.3v4.4c0.5-0.6,1.2-0.9,2.1-0.9c1.1,0,1.9,0.4,2.5,1.2c0.6,0.8,0.9,1.9,0.9,3.3V514.7z M417.9,514.5c0-0.9-0.1-1.5-0.4-1.9
				c-0.3-0.4-0.7-0.6-1.2-0.6c-0.7,0-1.2,0.3-1.5,0.9v3.4c0.3,0.6,0.8,0.9,1.5,0.9c0.7,0,1.2-0.4,1.5-1.1
				C417.9,515.8,417.9,515.3,417.9,514.5z"/>
			<path class="st10" d="M426.7,519c-0.1-0.2-0.2-0.5-0.2-0.8c-0.6,0.6-1.3,0.9-2.2,0.9c-0.8,0-1.6-0.2-2.1-0.7
				c-0.6-0.5-0.8-1.1-0.8-1.9c0-0.9,0.3-1.6,1-2.1s1.7-0.7,2.9-0.7h1.1v-0.5c0-0.4-0.1-0.7-0.3-1c-0.2-0.2-0.5-0.4-1-0.4
				c-0.4,0-0.7,0.1-0.9,0.3c-0.2,0.2-0.3,0.4-0.3,0.8h-2.3c0-0.5,0.2-1,0.5-1.4c0.3-0.4,0.7-0.8,1.3-1c0.6-0.2,1.2-0.4,1.9-0.4
				c1.1,0,1.9,0.3,2.5,0.8c0.6,0.5,0.9,1.3,0.9,2.3v3.8c0,0.8,0.1,1.4,0.3,1.9v0.1H426.7z M424.8,517.4c0.3,0,0.7-0.1,0.9-0.2
				c0.3-0.2,0.5-0.4,0.6-0.6V515h-0.9c-1.2,0-1.8,0.4-1.8,1.2l0,0.1c0,0.3,0.1,0.5,0.3,0.7C424.2,517.3,424.4,517.4,424.8,517.4z"/>
			<path class="st10" d="M435.3,512.5c-0.3,0-0.6-0.1-0.8-0.1c-0.9,0-1.4,0.3-1.7,0.9v5.7h-2.3v-8.7h2.2l0.1,1
				c0.5-0.8,1.1-1.2,1.9-1.2c0.3,0,0.5,0,0.7,0.1L435.3,512.5z"/>
			<path class="st10" d="M440.3,519.1c-1.3,0-2.3-0.4-3.1-1.2c-0.8-0.8-1.2-1.8-1.2-3.1v-0.2c0-0.9,0.2-1.6,0.5-2.3
				c0.3-0.7,0.8-1.2,1.4-1.6c0.6-0.4,1.3-0.6,2.1-0.6c1.2,0,2.1,0.4,2.8,1.1c0.7,0.7,1,1.8,1,3.2v0.9h-5.5c0.1,0.6,0.3,1,0.7,1.4
				c0.4,0.3,0.9,0.5,1.4,0.5c0.9,0,1.6-0.3,2.1-1l1.1,1.3c-0.3,0.5-0.8,0.9-1.4,1.1S441,519.1,440.3,519.1z M440,512
				c-0.5,0-0.8,0.2-1.1,0.5c-0.3,0.3-0.5,0.8-0.5,1.3h3.2v-0.2c0-0.5-0.1-0.9-0.4-1.2C440.9,512.2,440.5,512,440,512z"/>
			<path class="st10" d="M458.4,515.6l1.6-8.3h2.4l-2.6,11.6h-2.4l-1.9-7.8l-1.9,7.8h-2.4l-2.6-11.6h2.4l1.6,8.3l1.9-8.3h2
				L458.4,515.6z"/>
			<path class="st10" d="M468.3,519c-0.1-0.2-0.2-0.5-0.2-0.8c-0.6,0.6-1.3,0.9-2.2,0.9c-0.8,0-1.6-0.2-2.1-0.7
				c-0.6-0.5-0.8-1.1-0.8-1.9c0-0.9,0.3-1.6,1-2.1c0.7-0.5,1.7-0.7,2.9-0.7h1.1v-0.5c0-0.4-0.1-0.7-0.3-1c-0.2-0.2-0.5-0.4-1-0.4
				c-0.4,0-0.7,0.1-0.9,0.3c-0.2,0.2-0.3,0.4-0.3,0.8h-2.3c0-0.5,0.2-1,0.5-1.4c0.3-0.4,0.7-0.8,1.3-1c0.6-0.2,1.2-0.4,1.9-0.4
				c1.1,0,1.9,0.3,2.5,0.8c0.6,0.5,0.9,1.3,0.9,2.3v3.8c0,0.8,0.1,1.4,0.3,1.9v0.1H468.3z M466.4,517.4c0.3,0,0.7-0.1,0.9-0.2
				s0.5-0.4,0.6-0.6V515h-0.9c-1.2,0-1.8,0.4-1.8,1.2l0,0.1c0,0.3,0.1,0.5,0.3,0.7C465.8,517.3,466,517.4,466.4,517.4z"/>
			<path class="st10" d="M474.5,519h-2.3v-12.3h2.3V519z"/>
			<path class="st10" d="M478.8,519h-2.3v-12.3h2.3V519z"/>
			<path class="st10" d="M488.5,514.7c0,1.4-0.3,2.5-0.9,3.2c-0.6,0.8-1.4,1.2-2.5,1.2c-0.9,0-1.7-0.4-2.2-1.1l-0.1,0.9h-2.1v-12.3
				h2.3v4.4c0.5-0.6,1.2-0.9,2.1-0.9c1.1,0,1.9,0.4,2.5,1.2c0.6,0.8,0.9,1.9,0.9,3.3V514.7z M486.2,514.5c0-0.9-0.1-1.5-0.4-1.9
				c-0.3-0.4-0.7-0.6-1.2-0.6c-0.7,0-1.2,0.3-1.5,0.9v3.4c0.3,0.6,0.8,0.9,1.5,0.9c0.7,0,1.2-0.4,1.5-1.1
				C486.2,515.8,486.2,515.3,486.2,514.5z"/>
			<path class="st10" d="M489.6,514.6c0-0.9,0.2-1.6,0.5-2.3c0.3-0.7,0.8-1.2,1.4-1.6c0.6-0.4,1.3-0.6,2.2-0.6
				c1.2,0,2.1,0.4,2.9,1.1c0.7,0.7,1.1,1.7,1.2,2.9l0,0.6c0,1.3-0.4,2.4-1.1,3.2c-0.7,0.8-1.7,1.2-3,1.2s-2.2-0.4-3-1.2
				c-0.7-0.8-1.1-1.9-1.1-3.3V514.6z M491.9,514.7c0,0.8,0.2,1.5,0.5,1.9c0.3,0.4,0.8,0.7,1.3,0.7c0.6,0,1-0.2,1.3-0.6
				c0.3-0.4,0.5-1.1,0.5-2.1c0-0.8-0.2-1.4-0.5-1.9c-0.3-0.4-0.8-0.7-1.3-0.7c-0.6,0-1,0.2-1.3,0.7
				C492.1,513.1,491.9,513.8,491.9,514.7z"/>
			<path class="st10" d="M502.4,512.9l1.5-2.6h2.5l-2.5,4.2l2.6,4.4h-2.5l-1.5-2.7l-1.5,2.7h-2.5l2.6-4.4l-2.5-4.2h2.5L502.4,512.9z
				"/>
		</g>
		<polygon class="st22" points="436.5,478.7 426.3,489 446.7,489 		"/>
	</g>
	<g id="Hotspot_Elektroauto">
		<rect x="643.1" y="374.6" class="st2" width="218.8" height="86.9"/>
	</g>
	<g id="Beschriftung_Elektroauto">
		<path class="st22" d="M669.4,487.4h180.2c6.8,0,12.3,5.5,12.3,12.3v30.7c0,6.8-5.5,12.3-12.3,12.3H669.4
			c-6.8,0-12.3-5.5-12.3-12.3v-30.7C657.1,493,662.7,487.4,669.4,487.4z"/>
		<g class="st18">
			<path class="st10" d="M724.4,513.9h-4.6v3.1h5.4v1.9h-7.8v-11.6h7.8v1.9h-5.4v2.8h4.6V513.9z"/>
			<path class="st10" d="M728.9,519h-2.3v-12.3h2.3V519z"/>
			<path class="st10" d="M734.8,519.1c-1.3,0-2.3-0.4-3.1-1.2c-0.8-0.8-1.2-1.8-1.2-3.1v-0.2c0-0.9,0.2-1.6,0.5-2.3
				c0.3-0.7,0.8-1.2,1.4-1.6s1.3-0.6,2.1-0.6c1.2,0,2.1,0.4,2.8,1.1c0.7,0.7,1,1.8,1,3.2v0.9h-5.5c0.1,0.6,0.3,1,0.7,1.4
				c0.4,0.3,0.9,0.5,1.4,0.5c0.9,0,1.6-0.3,2.1-1l1.1,1.3c-0.3,0.5-0.8,0.9-1.4,1.1S735.5,519.1,734.8,519.1z M734.5,512
				c-0.5,0-0.8,0.2-1.1,0.5c-0.3,0.3-0.5,0.8-0.5,1.3h3.2v-0.2c0-0.5-0.1-0.9-0.4-1.2C735.4,512.2,735,512,734.5,512z"/>
			<path class="st10" d="M742.8,515.5l-0.8,0.8v2.6h-2.3v-12.3h2.3v6.8l0.4-0.6l2.2-2.6h2.8l-3.1,3.6l3.4,5H745L742.8,515.5z"/>
			<path class="st10" d="M751.2,508.2v2.1h1.5v1.7h-1.5v4.3c0,0.3,0.1,0.5,0.2,0.7c0.1,0.1,0.4,0.2,0.7,0.2c0.3,0,0.5,0,0.7-0.1v1.8
				c-0.5,0.1-0.9,0.2-1.4,0.2c-1.6,0-2.4-0.8-2.5-2.5V512h-1.3v-1.7h1.3v-2.1H751.2z"/>
			<path class="st10" d="M758.8,512.5c-0.3,0-0.6-0.1-0.8-0.1c-0.9,0-1.4,0.3-1.7,0.9v5.7h-2.3v-8.7h2.2l0.1,1
				c0.5-0.8,1.1-1.2,1.9-1.2c0.3,0,0.5,0,0.7,0.1L758.8,512.5z"/>
			<path class="st10" d="M759.3,514.6c0-0.9,0.2-1.6,0.5-2.3c0.3-0.7,0.8-1.2,1.4-1.6c0.6-0.4,1.3-0.6,2.2-0.6
				c1.2,0,2.1,0.4,2.9,1.1c0.7,0.7,1.1,1.7,1.2,2.9l0,0.6c0,1.3-0.4,2.4-1.1,3.2c-0.7,0.8-1.7,1.2-3,1.2s-2.2-0.4-3-1.2
				c-0.7-0.8-1.1-1.9-1.1-3.3V514.6z M761.6,514.7c0,0.8,0.2,1.5,0.5,1.9c0.3,0.4,0.8,0.7,1.3,0.7c0.6,0,1-0.2,1.3-0.6
				c0.3-0.4,0.5-1.1,0.5-2.1c0-0.8-0.2-1.4-0.5-1.9c-0.3-0.4-0.8-0.7-1.3-0.7c-0.6,0-1,0.2-1.3,0.7
				C761.7,513.1,761.6,513.8,761.6,514.7z"/>
			<path class="st10" d="M773.9,519c-0.1-0.2-0.2-0.5-0.2-0.8c-0.6,0.6-1.3,0.9-2.2,0.9c-0.8,0-1.6-0.2-2.1-0.7
				c-0.6-0.5-0.8-1.1-0.8-1.9c0-0.9,0.3-1.6,1-2.1c0.7-0.5,1.7-0.7,2.9-0.7h1.1v-0.5c0-0.4-0.1-0.7-0.3-1c-0.2-0.2-0.5-0.4-1-0.4
				c-0.4,0-0.7,0.1-0.9,0.3c-0.2,0.2-0.3,0.4-0.3,0.8h-2.3c0-0.5,0.2-1,0.5-1.4c0.3-0.4,0.7-0.8,1.3-1c0.6-0.2,1.2-0.4,1.9-0.4
				c1.1,0,1.9,0.3,2.5,0.8c0.6,0.5,0.9,1.3,0.9,2.3v3.8c0,0.8,0.1,1.4,0.3,1.9v0.1H773.9z M772,517.4c0.3,0,0.7-0.1,0.9-0.2
				s0.5-0.4,0.6-0.6V515h-0.9c-1.2,0-1.8,0.4-1.8,1.2l0,0.1c0,0.3,0.1,0.5,0.3,0.7C771.4,517.3,771.6,517.4,772,517.4z"/>
			<path class="st10" d="M782.9,518.1c-0.6,0.7-1.4,1-2.4,1c-0.9,0-1.6-0.3-2.1-0.8c-0.5-0.5-0.7-1.3-0.7-2.3v-5.7h2.3v5.6
				c0,0.9,0.4,1.4,1.2,1.4c0.8,0,1.3-0.3,1.6-0.8v-6.1h2.3v8.7h-2.2L782.9,518.1z"/>
			<path class="st10" d="M789.6,508.2v2.1h1.5v1.7h-1.5v4.3c0,0.3,0.1,0.5,0.2,0.7c0.1,0.1,0.4,0.2,0.7,0.2c0.3,0,0.5,0,0.7-0.1v1.8
				c-0.5,0.1-0.9,0.2-1.4,0.2c-1.6,0-2.4-0.8-2.5-2.5V512H786v-1.7h1.3v-2.1H789.6z"/>
			<path class="st10" d="M791.8,514.6c0-0.9,0.2-1.6,0.5-2.3c0.3-0.7,0.8-1.2,1.4-1.6c0.6-0.4,1.3-0.6,2.2-0.6
				c1.2,0,2.1,0.4,2.9,1.1c0.7,0.7,1.1,1.7,1.2,2.9l0,0.6c0,1.3-0.4,2.4-1.1,3.2c-0.7,0.8-1.7,1.2-3,1.2s-2.2-0.4-3-1.2
				c-0.7-0.8-1.1-1.9-1.1-3.3V514.6z M794.1,514.7c0,0.8,0.2,1.5,0.5,1.9c0.3,0.4,0.8,0.7,1.3,0.7c0.6,0,1-0.2,1.3-0.6
				c0.3-0.4,0.5-1.1,0.5-2.1c0-0.8-0.2-1.4-0.5-1.9c-0.3-0.4-0.8-0.7-1.3-0.7c-0.6,0-1,0.2-1.3,0.7
				C794.2,513.1,794.1,513.8,794.1,514.7z"/>
		</g>
		<polygon class="st22" points="759.5,478.7 749.3,489 769.8,489 		"/>
	</g>
</g>
</svg>
