<?xml version="1.0" encoding="utf-8"?>
<!-- Generator: Adobe Illustrator 25.0.0, SVG Export Plug-In . SVG Version: 6.00 Build 0)  -->
<svg version="1.1" xmlns="http://www.w3.org/2000/svg" xmlns:xlink="http://www.w3.org/1999/xlink" x="0px" y="0px"
	 viewBox="0 0 1024 540" style="enable-background:new 0 0 1024 540;" xml:space="preserve">
<style type="text/css">
	.st0{fill:none;stroke:#FF6666;stroke-width:3;stroke-miterlimit:10;}
	.st1{fill:#FF6666;}
	.st2{fill:#FFFFFF;}
	.st3{fill:none;stroke:#AAAAAA;stroke-width:2;stroke-miterlimit:10;}
	.st4{fill:#AAAAAA;}
	.st5{fill:none;stroke:#0FDD42;stroke-width:2;stroke-linecap:round;stroke-miterlimit:10;}
	.st6{fill:none;stroke:#0FDD42;stroke-width:2;stroke-linecap:round;stroke-miterlimit:10;stroke-dasharray:0.5055,6.0661;}
	.st7{fill:#0FDD42;}
	.st8{fill:none;stroke:#AAAAAA;stroke-width:2;stroke-linecap:round;stroke-miterlimit:10;}
	.st9{fill:none;stroke:#AAAAAA;stroke-width:2;stroke-linecap:round;stroke-miterlimit:10;stroke-dasharray:0.4985,5.9816;}
	.st10{fill:none;}
	.st11{fill:#000066;}
	.st12{fill:#006600;}
	.st13{fill:#00E207;}
	.st14{fill:#000066;stroke:#FFFFFF;stroke-miterlimit:10;}
	.st15{fill:#FFFF00;}
	.st16{fill:#FFE000;}
	.st17{fill:none;stroke:#FFFFFF;stroke-linecap:round;stroke-miterlimit:10;}
	.st18{font-family:'Roboto-Bold';}
	.st19{font-size:16px;}
	.st20{fill:none;stroke:#AAAAAA;stroke-width:2;stroke-linecap:round;stroke-miterlimit:10;stroke-dasharray:0.5,6;}
	.st21{fill:#FFFFFF;stroke:#AAAAAA;stroke-width:2;stroke-miterlimit:10;}
	.st22{fill:none;stroke:#00E207;stroke-width:6;stroke-linecap:round;stroke-miterlimit:10;}
	.st23{fill:#666666;}
</style>
<g id="Ebene_1">
	<g id="Ebene_1_1_">
	</g>
	<path class="st0" d="M520.826,395.583v28.382c0,8.81-7.142,15.952-15.951,15.952h0c-8.81,0-15.951-7.142-15.952-15.952v-39.279
		l-1.122,27.615"/>
	<path class="st1" d="M501.604,374.975h12.994l10.061,22.228l-5.351,2.95l-8.578-11.988c-4.243,6.646-9.126,5.929-9.126,5.929
		V374.975z"/>
	<g>
		<line class="st2" x1="292.013" y1="391.125" x2="431.975" y2="391.125"/>
		<g>
			<line class="st3" x1="292.013" y1="391.125" x2="429.689" y2="391.125"/>
			<g>
				<polygon class="st4" points="425.705,394.515 429.098,391.125 425.705,387.734 428.584,387.734 431.975,391.125 
					428.584,394.515 				"/>
			</g>
		</g>
	</g>
	<g>
		<line class="st2" x1="212" y1="329.987" x2="212" y2="210.013"/>
		<g>
			<line class="st3" x1="212" y1="327.702" x2="212" y2="210.013"/>
			<g>
				<polygon class="st4" points="215.391,323.718 212,327.11 208.609,323.718 208.609,326.597 212,329.987 215.391,326.597 				"/>
			</g>
		</g>
	</g>
	<g>
		<g>
			<line class="st5" x1="497" y1="347.714" x2="497" y2="347.464"/>
			<line class="st6" x1="497" y1="341.398" x2="497" y2="193.283"/>
			<line class="st5" x1="497" y1="190.25" x2="497" y2="190"/>
			<g>
				<polygon class="st7" points="500.391,343.73 497,347.123 493.609,343.73 493.609,346.609 497,350 500.391,346.609 				"/>
			</g>
		</g>
	</g>
	<g>
		<g>
			<line class="st8" x1="441.399" y1="148.125" x2="441.149" y2="148.125"/>
			<line class="st9" x1="435.167" y1="148.125" x2="276.157" y2="148.125"/>
			<line class="st8" x1="273.167" y1="148.125" x2="272.917" y2="148.125"/>
			<g>
				<polygon class="st4" points="437.415,144.734 440.808,148.125 437.415,151.515 440.294,151.515 443.685,148.125 
					440.294,144.734 				"/>
			</g>
		</g>
	</g>
	<g>
		<line class="st2" x1="552.019" y1="391.125" x2="681.975" y2="391.125"/>
		<g>
			<line class="st3" x1="552.019" y1="391.125" x2="679.689" y2="391.125"/>
			<g>
				<polygon class="st4" points="675.705,394.515 679.098,391.125 675.705,387.734 678.584,387.734 681.975,391.125 
					678.584,394.515 				"/>
			</g>
		</g>
	</g>
	<path class="st7" d="M902.903,408.984c0,0-1.037,0.191,0,2.104c1.037,1.913,1.555,2.678-0.173,4.017
		c-1.728,1.339-9.85,2.869-11.406,4.4H725.158c0,0-1.55-3.252-3.623-4.017c-2.074-0.765-4.407-5.165-4.753-5.93
		c-0.346-0.765-4.32-8.991-4.32-13.582c0-0.191,2.938-6.849,2.938-9.91s1.037-8.608,1.555-9.565s-2.247-1.913-0.691-2.869
		c1.555-0.956,31.625-14.347,49.598-16.451c17.973-2.104,55.3-6.121,90.382,22.573c0,0,31.971,0.191,46.833,15.112
		c2.247,2.104,1.21,4.4,0.691,5.93s-0.346,6.084,0,6.658C904.113,408.028,902.903,408.984,902.903,408.984z"/>
	<path class="st1" d="M727.929,377.4l-11.323,0.13c-0.489,1.831-1.097,5.422-1.193,7.906
		C722.254,383.693,727.929,377.4,727.929,377.4z"/>
	<path class="st1" d="M898.151,395.689c2.238,0,3.122-1.51,3.418-2.235c-4.982-4.373-11.482-7.35-17.997-9.377
		C885.505,386.458,893.313,395.689,898.151,395.689z"/>
	<g>
		<polygon class="st10" points="787.337,360.42 787.338,355.703 787.338,355.703 787.337,360.42 		"/>
		<path class="st2" d="M787.336,362.903c-8.44,0-15.78,0.86-20.637,1.428c-6.22,0.728-14.377,3.06-22.16,5.715
			c10.513,5.014,32.642,5.631,32.642,5.631l66.601,3.787c-16.512-11.119-35.068-16.562-56.443-16.562h-0.001v-2.483c0,0,0,0-0.001,0
			L787.336,362.903z"/>
		<polygon class="st7" points="787.338,355.703 787.338,355.703 787.338,355.703 		"/>
	</g>
	<ellipse class="st11" cx="743.223" cy="411.12" rx="15.812" ry="16.09"/>
	<path class="st12" d="M843.135,381.55l-10.049-0.852c0,0-1.675-0.852-1.675-1.534s1.675-4.26,1.675-4.26s5.192-1.023,6.364,1.193
		c1.172,2.215,2.345,3.579,2.847,3.579S843.135,381.55,843.135,381.55z"/>
	<ellipse class="st11" cx="873.352" cy="411.12" rx="15.812" ry="16.09"/>
	<ellipse class="st2" cx="873.352" cy="411.12" rx="9.773" ry="9.945"/>
	<ellipse class="st2" cx="743.3" cy="411.12" rx="9.773" ry="9.945"/>
	<polygon class="st13" points="208.538,427.21 208.538,403.21 238.538,355.21 268.538,403.21 268.538,427.21 	"/>
	<polygon class="st1" points="190.538,355.21 238.538,355.21 208.538,403.21 160.538,403.21 	"/>
	
		<rect x="160.538" y="403.21" transform="matrix(-1 -4.471680e-11 4.471680e-11 -1 369.0756 830.4191)" class="st13" width="48" height="24"/>
	<path class="st11" d="M498.5,427.21h-26v-72h26c5.523,0,10,4.477,10,10v52C508.5,422.732,504.023,427.21,498.5,427.21z"/>
	<polygon class="st14" points="220.538,131.235 268.538,131.235 238.538,179.235 190.538,179.235 	"/>
	<polygon class="st15" points="172.538,87.188 175.514,106.445 184.295,89.05 181.174,108.285 194.901,94.454 185.989,111.783 
		203.318,102.871 189.488,116.598 208.723,113.478 191.327,122.259 210.585,125.235 191.327,128.211 208.723,136.992 
		189.488,133.871 203.318,147.598 185.989,138.686 194.901,156.015 181.174,142.185 184.295,161.42 175.514,144.024 
		172.538,163.282 169.562,144.024 160.781,161.42 163.901,142.185 150.174,156.015 159.086,138.686 141.757,147.598 
		155.588,133.871 136.353,136.992 153.748,128.211 134.491,125.235 153.748,122.259 136.353,113.478 155.588,116.598 
		141.757,102.871 159.086,111.783 150.174,94.454 163.901,108.285 160.781,89.05 169.562,106.445 	"/>
	<circle class="st16" cx="172.538" cy="125.235" r="18"/>
	<line class="st17" x1="198.411" y1="167.235" x2="246.411" y2="167.235"/>
	<line class="st17" x1="205.538" y1="155.235" x2="253.538" y2="155.235"/>
	<line class="st17" x1="212.274" y1="143.235" x2="260.274" y2="143.235"/>
	<text transform="matrix(1 0 0 1 312.1787 130.0623)" class="st4 st18 st19">Produktion</text>
	<text transform="matrix(1 0 0 1 516.5005 279.8835)" class="st7 st18 st19">Regelung</text>
	<text transform="matrix(0.7071 -0.7071 0.7071 0.7071 316.1675 284.5636)" class="st4 st18 st19">Verbrauch</text>
	<g>
		<g>
			<line class="st20" x1="274.761" y1="357.834" x2="449.562" y2="183.032"/>
			<g>
				<polygon class="st4" points="449.143,188.247 449.144,183.45 444.348,183.452 446.384,181.416 451.179,181.416 451.179,186.211 
									"/>
			</g>
		</g>
	</g>
	<text transform="matrix(0.7071 0.7071 -0.7071 0.7071 635.1382 226.6554)" class="st4 st18 st19">Ladestand</text>
	<g>
		<g>
			<line class="st20" x1="559.658" y1="183.032" x2="722" y2="345.375"/>
			<g>
				<polygon class="st4" points="560.077,188.247 560.076,183.45 564.872,183.452 562.836,181.416 558.041,181.416 558.041,186.211 
									"/>
			</g>
		</g>
	</g>
	<path class="st21" d="M512.5,177.36h-32c-11.046,0-20-8.954-20-20v-32c0-11.046,8.954-20,20-20h32c11.046,0,20,8.954,20,20v32
		C532.5,168.405,523.546,177.36,512.5,177.36z"/>
	<path class="st7" d="M495.709,123.96h9.491l-6.327,12.655h6.327l-11.864,22.145l2.373-15.818H487.8L495.709,123.96z"/>
	<line class="st22" x1="490.5" y1="379.21" x2="490.5" y2="403.21"/>
</g>
<g id="Hotspot_PV">
	<rect x="133.13" y="91.276" class="st10" width="139.787" height="118.737"/>
</g>
<g id="Beschriftung_PV">
	<path class="st23" d="M300,79.821H124c-6.6,0-12-5.4-12-12v-30c0-6.6,5.4-12,12-12h176c6.6,0,12,5.4,12,12v30
		C312,74.421,306.6,79.821,300,79.821z"/>
	<text transform="matrix(1 0 0 1 131.6924 48.8192)"><tspan x="0" y="0" class="st2 st18 st19">Photovoltaik-Anlage /</tspan><tspan x="25.106" y="19.2" class="st2 st18 st19">Wechselrichter</tspan></text>
	<polygon class="st23" points="212,88.322 222,78.322 202,78.322 	"/>
</g>
<g id="Hotspot_evcc">
	<rect x="443.685" y="95.389" class="st10" width="106.763" height="90.609"/>
</g>
<g id="Beschriftung_evcc">
	<path class="st23" d="M585,79.821H409c-6.6,0-12-5.4-12-12v-30c0-6.6,5.4-12,12-12h176c6.6,0,12,5.4,12,12v30
		C597,74.421,591.6,79.821,585,79.821z"/>
	<text transform="matrix(1 0 0 1 480.0503 56.6199)" class="st2 st18 st19">evcc</text>
	<polygon class="st23" points="497,88.322 507,78.322 487,78.322 	"/>
</g>
<g id="Hotspot_Netzanschluß">
	<rect x="157.203" y="340.33" class="st10" width="120.074" height="105.126"/>
</g>
<g id="Beschriftung_Netzanschluß">
	<path class="st23" d="M124,460.179h176c6.6,0,12,5.4,12,12v30c0,6.6-5.4,12-12,12H124c-6.6,0-12-5.4-12-12v-30
		C112,465.579,117.4,460.179,124,460.179z"/>
	<text transform="matrix(1 0 0 1 161.1973 490.9785)" class="st2 st18 st19">Netzanschluß</text>
	<polygon class="st23" points="212,451.678 202,461.678 222,461.678 	"/>
</g>
<g id="Hotspot_Wallbox">
	<rect x="447.476" y="350" class="st10" width="92.446" height="92.446"/>
</g>
<g id="Beschriftung_Wallbox">
	<path class="st23" d="M408.5,460.179h176c6.6,0,12,5.4,12,12v30c0,6.6-5.4,12-12,12h-176c-6.6,0-12-5.4-12-12v-30
		C396.5,465.579,401.9,460.179,408.5,460.179z"/>
	<text transform="matrix(1 0 0 1 424.8242 490.9785)" class="st2 st18 st19">Steuerbare Wallbox</text>
	<polygon class="st23" points="496.5,451.678 486.5,461.678 506.5,461.678 	"/>
</g>
<g id="Hotspot_Elektroauto">
	<rect x="698.316" y="350" class="st10" width="213.684" height="84.893"/>
</g>
<g id="Beschriftung_Elektroauto">
	<path class="st23" d="M724,460.179h176c6.6,0,12,5.4,12,12v30c0,6.6-5.4,12-12,12H724c-6.6,0-12-5.4-12-12v-30
		C712,465.579,717.4,460.179,724,460.179z"/>
	<text transform="matrix(1 0 0 1 769.8457 490.9785)" class="st2 st18 st19">Elektroauto</text>
	<polygon class="st23" points="812,451.678 802,461.678 822,461.678 	"/>
</g>
</svg>
