<?xml version="1.0" encoding="utf-8"?>
<svg version="1.1" xmlns="http://www.w3.org/2000/svg" xmlns:xlink="http://www.w3.org/1999/xlink" x="0px" y="0px" width="1024px"
	 height="540px" viewBox="0 0 1024 540" style="enable-background:new 0 0 1024 540;" xml:space="preserve">
<title>evcc Schema</title>
<style type="text/css">
	.st0{fill:#FFFFFF;}
	.st1{fill:#CCCCCC;}
	.st2{fill:#0FDD42;}
	.st3{fill:#FF6666;}
	.st4{fill:none;}
	.st5{fill:#000033;}
	.st6{fill:#006600;}
	.st7{fill:#00E207;}
	.st8{fill:#FFE000;}
	.st9{font-family:'Roboto-Regular';}
	.st10{font-size:13px;}
	.st11{fill:#666666;}
  
  body {
  margin: 100px;
}

.Hotspot {
    fill: red;
    pointer-events: all;
    opacity: 0.5;
}

.Hotspot:hover,  
    .Hotspot:focus { 
		cursor: pointer;
}

.Beschriftung {
    opacity: 0;
}

.Hotspot:hover + .Beschriftung,
    .Hotspot:focus + .Beschriftung { 
		opacity: 1;
} 

.Beschriftung { transition: .3s; }
  
</style>
<g id="Zeichnung">
	<g>
		<g>
			<line class="st0" x1="284.911" y1="392.368" x2="484.911" y2="392.368"/>
		</g>
		<g>
			<g>
				<rect x="284.911" y="391.368" class="st1" width="197.714" height="2"/>
			</g>
			<g>
				<g>
					<polygon class="st1" points="478.641,395.758 482.034,392.368 478.641,388.977 481.52,388.977 484.911,392.368 481.52,395.758 
											"/>
				</g>
			</g>
		</g>
	</g>
	<g>
		<g>
			<line class="st0" x1="224.911" y1="351.243" x2="224.911" y2="191.243"/>
		</g>
		<g>
			<g>
				<rect x="223.911" y="191.243" class="st1" width="2" height="157.714"/>
			</g>
			<g>
				<g>
					<polygon class="st1" points="228.301,344.973 224.911,348.366 221.52,344.973 221.52,347.852 224.911,351.243 228.301,347.852 
											"/>
				</g>
			</g>
		</g>
	</g>
	<g>
		<g>
			<path class="st2" d="M509.911,349.957c-0.552,0-1-0.448-1-1v-0.25c0-0.552,0.448-1,1-1s1,0.448,1,1v0.25
				C510.911,349.509,510.463,349.957,509.911,349.957z"/>
		</g>
		<g>
			<path class="st2" d="M509.911,343.641c-0.552,0-1-0.448-1-1v-0.505c0-0.552,0.448-1,1-1s1,0.448,1,1v0.505
				C510.911,343.193,510.463,343.641,509.911,343.641z M509.911,337.069c-0.552,0-1-0.448-1-1v-0.505c0-0.552,0.448-1,1-1
				s1,0.448,1,1v0.505C510.911,336.622,510.463,337.069,509.911,337.069z M509.911,330.498c-0.552,0-1-0.448-1-1v-0.506
				c0-0.552,0.448-1,1-1s1,0.448,1,1v0.506C510.911,330.05,510.463,330.498,509.911,330.498z M509.911,323.926c-0.552,0-1-0.448-1-1
				v-0.506c0-0.552,0.448-1,1-1s1,0.448,1,1v0.506C510.911,323.479,510.463,323.926,509.911,323.926z M509.911,317.355
				c-0.552,0-1-0.448-1-1v-0.505c0-0.552,0.448-1,1-1s1,0.448,1,1v0.505C510.911,316.907,510.463,317.355,509.911,317.355z
				 M509.911,310.783c-0.552,0-1-0.448-1-1v-0.505c0-0.552,0.448-1,1-1s1,0.448,1,1v0.505
				C510.911,310.335,510.463,310.783,509.911,310.783z M509.911,304.211c-0.552,0-1-0.448-1-1v-0.506c0-0.552,0.448-1,1-1
				s1,0.448,1,1v0.506C510.911,303.764,510.463,304.211,509.911,304.211z M509.911,297.64c-0.552,0-1-0.448-1-1v-0.505
				c0-0.552,0.448-1,1-1s1,0.448,1,1v0.505C510.911,297.192,510.463,297.64,509.911,297.64z M509.911,291.068c-0.552,0-1-0.448-1-1
				v-0.505c0-0.552,0.448-1,1-1s1,0.448,1,1v0.505C510.911,290.62,510.463,291.068,509.911,291.068z M509.911,284.496
				c-0.552,0-1-0.448-1-1v-0.505c0-0.552,0.448-1,1-1s1,0.448,1,1v0.505C510.911,284.048,510.463,284.496,509.911,284.496z
				 M509.911,277.925c-0.552,0-1-0.448-1-1v-0.506c0-0.552,0.448-1,1-1s1,0.448,1,1v0.506
				C510.911,277.477,510.463,277.925,509.911,277.925z M509.911,271.353c-0.552,0-1-0.448-1-1v-0.505c0-0.552,0.448-1,1-1
				s1,0.448,1,1v0.505C510.911,270.905,510.463,271.353,509.911,271.353z M509.911,264.781c-0.552,0-1-0.448-1-1v-0.505
				c0-0.552,0.448-1,1-1s1,0.448,1,1v0.505C510.911,264.334,510.463,264.781,509.911,264.781z M509.911,258.21c-0.552,0-1-0.448-1-1
				v-0.505c0-0.552,0.448-1,1-1s1,0.448,1,1v0.505C510.911,257.762,510.463,258.21,509.911,258.21z M509.911,251.638
				c-0.552,0-1-0.448-1-1v-0.506c0-0.552,0.448-1,1-1s1,0.448,1,1v0.506C510.911,251.19,510.463,251.638,509.911,251.638z
				 M509.911,245.066c-0.552,0-1-0.448-1-1v-0.505c0-0.552,0.448-1,1-1s1,0.448,1,1v0.505
				C510.911,244.619,510.463,245.066,509.911,245.066z M509.911,238.495c-0.552,0-1-0.448-1-1v-0.505c0-0.552,0.448-1,1-1
				s1,0.448,1,1v0.505C510.911,238.047,510.463,238.495,509.911,238.495z M509.911,231.923c-0.552,0-1-0.448-1-1v-0.505
				c0-0.552,0.448-1,1-1s1,0.448,1,1v0.505C510.911,231.475,510.463,231.923,509.911,231.923z M509.911,225.352
				c-0.552,0-1-0.448-1-1v-0.506c0-0.552,0.448-1,1-1s1,0.448,1,1v0.506C510.911,224.904,510.463,225.352,509.911,225.352z
				 M509.911,218.78c-0.552,0-1-0.448-1-1v-0.505c0-0.552,0.448-1,1-1s1,0.448,1,1v0.505
				C510.911,218.332,510.463,218.78,509.911,218.78z M509.911,212.208c-0.552,0-1-0.448-1-1v-0.505c0-0.552,0.448-1,1-1s1,0.448,1,1
				v0.505C510.911,211.76,510.463,212.208,509.911,212.208z M509.911,205.636c-0.552,0-1-0.448-1-1v-0.505c0-0.552,0.448-1,1-1
				s1,0.448,1,1v0.505C510.911,205.189,510.463,205.636,509.911,205.636z M509.911,199.065c-0.552,0-1-0.448-1-1v-0.506
				c0-0.552,0.448-1,1-1s1,0.448,1,1v0.506C510.911,198.617,510.463,199.065,509.911,199.065z"/>
		</g>
		<g>
			<path class="st2" d="M509.911,192.493c-0.552,0-1-0.448-1-1v-0.25c0-0.552,0.448-1,1-1s1,0.448,1,1v0.25
				C510.911,192.045,510.463,192.493,509.911,192.493z"/>
		</g>
		<g>
			<g>
				<polygon class="st2" points="513.301,344.973 509.911,348.366 506.52,344.973 506.52,347.852 509.911,351.243 513.301,347.852 
									"/>
			</g>
		</g>
	</g>
	<g>
		<g>
			<path class="st1" d="M454.31,150.368h-0.25c-0.552,0-1-0.448-1-1s0.448-1,1-1h0.25c0.552,0,1,0.448,1,1
				S454.862,150.368,454.31,150.368z"/>
		</g>
		<g>
			<path class="st1" d="M448.078,150.368h-0.499c-0.552,0-1-0.448-1-1s0.448-1,1-1h0.499c0.552,0,1,0.448,1,1
				S448.63,150.368,448.078,150.368z M441.598,150.368H441.1c-0.552,0-1-0.448-1-1s0.448-1,1-1h0.499c0.552,0,1,0.448,1,1
				S442.15,150.368,441.598,150.368z M435.118,150.368h-0.499c-0.552,0-1-0.448-1-1s0.448-1,1-1h0.499c0.552,0,1,0.448,1,1
				S435.67,150.368,435.118,150.368z M428.638,150.368h-0.499c-0.552,0-1-0.448-1-1s0.448-1,1-1h0.499c0.552,0,1,0.448,1,1
				S429.19,150.368,428.638,150.368z M422.158,150.368h-0.499c-0.552,0-1-0.448-1-1s0.448-1,1-1h0.499c0.552,0,1,0.448,1,1
				S422.71,150.368,422.158,150.368z M415.678,150.368h-0.499c-0.552,0-1-0.448-1-1s0.448-1,1-1h0.499c0.552,0,1,0.448,1,1
				S416.23,150.368,415.678,150.368z M409.198,150.368H408.7c-0.552,0-1-0.448-1-1s0.448-1,1-1h0.498c0.552,0,1,0.448,1,1
				S409.75,150.368,409.198,150.368z M402.718,150.368h-0.499c-0.552,0-1-0.448-1-1s0.448-1,1-1h0.499c0.552,0,1,0.448,1,1
				S403.27,150.368,402.718,150.368z M396.238,150.368h-0.499c-0.552,0-1-0.448-1-1s0.448-1,1-1h0.499c0.552,0,1,0.448,1,1
				S396.79,150.368,396.238,150.368z M389.758,150.368h-0.499c-0.552,0-1-0.448-1-1s0.448-1,1-1h0.499c0.552,0,1,0.448,1,1
				S390.31,150.368,389.758,150.368z M383.278,150.368h-0.499c-0.552,0-1-0.448-1-1s0.448-1,1-1h0.499c0.552,0,1,0.448,1,1
				S383.83,150.368,383.278,150.368z M376.798,150.368h-0.499c-0.552,0-1-0.448-1-1s0.448-1,1-1h0.499c0.552,0,1,0.448,1,1
				S377.35,150.368,376.798,150.368z M370.318,150.368h-0.499c-0.552,0-1-0.448-1-1s0.448-1,1-1h0.499c0.552,0,1,0.448,1,1
				S370.87,150.368,370.318,150.368z M363.838,150.368h-0.499c-0.552,0-1-0.448-1-1s0.448-1,1-1h0.499c0.552,0,1,0.448,1,1
				S364.39,150.368,363.838,150.368z M357.358,150.368h-0.499c-0.552,0-1-0.448-1-1s0.448-1,1-1h0.499c0.552,0,1,0.448,1,1
				S357.91,150.368,357.358,150.368z M350.878,150.368h-0.499c-0.552,0-1-0.448-1-1s0.448-1,1-1h0.499c0.552,0,1,0.448,1,1
				S351.43,150.368,350.878,150.368z M344.398,150.368h-0.499c-0.552,0-1-0.448-1-1s0.448-1,1-1h0.499c0.552,0,1,0.448,1,1
				S344.95,150.368,344.398,150.368z M337.917,150.368h-0.498c-0.552,0-1-0.448-1-1s0.448-1,1-1h0.498c0.552,0,1,0.448,1,1
				S338.47,150.368,337.917,150.368z M331.438,150.368h-0.498c-0.552,0-1-0.448-1-1s0.448-1,1-1h0.498c0.552,0,1,0.448,1,1
				S331.99,150.368,331.438,150.368z M324.958,150.368h-0.499c-0.552,0-1-0.448-1-1s0.448-1,1-1h0.499c0.552,0,1,0.448,1,1
				S325.51,150.368,324.958,150.368z M318.478,150.368h-0.499c-0.552,0-1-0.448-1-1s0.448-1,1-1h0.499c0.552,0,1,0.448,1,1
				S319.03,150.368,318.478,150.368z M311.998,150.368h-0.499c-0.552,0-1-0.448-1-1s0.448-1,1-1h0.499c0.552,0,1,0.448,1,1
				S312.55,150.368,311.998,150.368z M305.518,150.368h-0.499c-0.552,0-1-0.448-1-1s0.448-1,1-1h0.499c0.552,0,1,0.448,1,1
				S306.07,150.368,305.518,150.368z M299.038,150.368h-0.499c-0.552,0-1-0.448-1-1s0.448-1,1-1h0.499c0.552,0,1,0.448,1,1
				S299.59,150.368,299.038,150.368z M292.558,150.368h-0.499c-0.552,0-1-0.448-1-1s0.448-1,1-1h0.499c0.552,0,1,0.448,1,1
				S293.11,150.368,292.558,150.368z"/>
		</g>
		<g>
			<path class="st1" d="M286.078,150.368h-0.25c-0.552,0-1-0.448-1-1s0.448-1,1-1h0.25c0.552,0,1,0.448,1,1
				S286.63,150.368,286.078,150.368z"/>
		</g>
		<g>
			<g>
				<polygon class="st1" points="450.326,145.977 453.719,149.368 450.326,152.758 453.205,152.758 456.596,149.368 
					453.205,145.977 				"/>
			</g>
		</g>
	</g>
	<g>
		<g>
			<line class="st0" x1="534.911" y1="392.368" x2="734.911" y2="392.368"/>
		</g>
		<g>
			<g>
				<rect x="534.911" y="391.368" class="st1" width="197.714" height="2"/>
			</g>
			<g>
				<g>
					<polygon class="st1" points="728.641,395.758 732.034,392.368 728.641,388.977 731.52,388.977 734.911,392.368 731.52,395.758 
											"/>
				</g>
			</g>
		</g>
	</g>
	<g>
		<path class="st2" d="M903.611,404.18c0,0-0.864,0.159,0,1.754c0.864,1.594,1.296,2.232-0.144,3.348
			c-1.44,1.116-8.209,2.391-9.505,3.667H755.491c0,0-1.291-2.71-3.019-3.348s-3.672-4.304-3.96-4.942
			c-0.288-0.638-3.6-7.492-3.6-11.318c0-0.159,2.448-5.708,2.448-8.258c0-2.551,0.864-7.174,1.296-7.971
			c0.432-0.797-1.872-1.594-0.576-2.391s26.354-11.956,41.331-13.71c14.977-1.754,46.084-5.101,75.318,18.811
			c0,0,26.642,0.159,39.027,12.594c1.872,1.754,1.008,3.667,0.576,4.942c-0.432,1.275-0.288,5.07,0,5.548
			C904.62,403.383,903.611,404.18,903.611,404.18z"/>
	</g>
	<g>
		<path class="st3" d="M757.8,377.859l-9.436,0.108c-0.408,1.526-0.914,4.519-0.994,6.588
			C753.071,383.104,757.8,377.859,757.8,377.859z"/>
	</g>
	<g>
		<path class="st3" d="M899.651,393.101c1.865,0,2.602-1.259,2.848-1.863c-4.152-3.644-9.568-6.125-14.998-7.814
			C889.113,385.408,895.619,393.101,899.651,393.101z"/>
	</g>
	<g>
		<g>
			<polygon class="st4" points="807.307,363.71 807.307,359.779 807.307,359.779 807.306,363.71 			"/>
		</g>
		<g>
			<path class="st0" d="M807.306,365.779c-7.033,0-13.15,0.716-17.198,1.19c-5.184,0.607-11.981,2.55-18.466,4.763
				c8.761,4.178,27.202,4.693,27.202,4.693l55.5,3.156c-13.76-9.266-29.223-13.801-47.036-13.801H807.306l0.001-2.069c0,0,0,0,0,0
				L807.306,365.779z"/>
		</g>
		<g>
			<polygon class="st2" points="807.307,359.779 807.307,359.779 807.307,359.779 			"/>
		</g>
	</g>
	<g>
		<ellipse class="st5" cx="770.545" cy="405.96" rx="13.177" ry="13.408"/>
	</g>
	<g>
		<path class="st6" d="M853.805,381.318l-8.374-0.71c0,0-1.396-0.71-1.396-1.278s1.396-3.55,1.396-3.55s4.327-0.852,5.304,0.994
			c0.977,1.846,1.954,2.982,2.373,2.982S853.805,381.318,853.805,381.318z"/>
	</g>
	<g>
		<ellipse class="st5" cx="878.985" cy="405.96" rx="13.177" ry="13.408"/>
	</g>
	<g>
		<ellipse class="st0" cx="878.985" cy="405.96" rx="8.144" ry="8.287"/>
	</g>
	<g>
		<ellipse class="st0" cx="770.609" cy="405.96" rx="8.144" ry="8.287"/>
	</g>
	<g>
		<polygon class="st3" points="209.911,359.368 249.911,359.368 224.911,399.368 184.911,399.368 		"/>
	</g>
	<polygon class="st7" points="249.911,359.368 224.911,399.368 184.911,399.368 184.911,419.368 224.911,419.368 274.911,419.368 
		274.911,399.368 	"/>
	<g>
		<path class="st5" d="M524.911,419.368h-30v-57c0-1.657,1.343-3,3-3h24c1.657,0,3,1.343,3,3V419.368z"/>
	</g>
	<g>
		<g>
			<path class="st0" d="M503.411,389.368c-0.542,0-1-0.458-1-1v-15c0-0.542,0.458-1,1-1s1,0.458,1,1v15
				C504.411,388.91,503.953,389.368,503.411,389.368z"/>
		</g>
		<g>
			<path class="st1" d="M503.411,369.368c-2.2,0-4,1.8-4,4v15c0,2.2,1.8,4,4,4s4-1.8,4-4v-15
				C507.411,371.168,505.611,369.368,503.411,369.368L503.411,369.368z"/>
		</g>
	</g>
	<g>
		<g>
			<path class="st0" d="M516.411,389.368c-0.542,0-1-0.458-1-1v-15c0-0.542,0.458-1,1-1s1,0.458,1,1v15
				C517.411,388.91,516.953,389.368,516.411,389.368z"/>
		</g>
		<g>
			<path class="st1" d="M516.411,369.368c-2.2,0-4,1.8-4,4v15c0,2.2,1.8,4,4,4s4-1.8,4-4v-15
				C520.411,371.168,518.611,369.368,516.411,369.368L516.411,369.368z"/>
		</g>
	</g>
	<g>
		<rect x="472.887" y="123.634" class="st0" width="49.7" height="31.431"/>
		<path class="st1" d="M551.935,180.911l-23.348-20.083v-41.194c0-1.105-0.895-2-2-2h-57.7c-1.105,0-2,0.895-2,2v41.431h0.276
			l23.072,19.846H551.935z M472.887,123.634h49.7v31.431h-49.7V123.634z"/>
	</g>
	<g>
		<path class="st0" d="M539.536,176.638h-46.19l-18.062-15.536h46.191L539.536,176.638z M493.717,175.638h43.124l-15.736-13.536
			h-43.124L493.717,175.638z"/>
	</g>
	<g>
		<g>
			
				<rect x="205.876" y="132.533" transform="matrix(0.7071 -0.7071 0.7071 0.7071 -47.411 190.6053)" class="st8" width="1" height="40"/>
		</g>
		<g>
			
				<rect x="212.946" y="125.462" transform="matrix(0.7071 -0.7071 0.7071 0.7071 -40.3398 193.534)" class="st8" width="1" height="40"/>
		</g>
		<g>
			<polygon class="st5" points="234.911,139.368 274.911,139.368 249.911,179.368 209.911,179.368 			"/>
		</g>
		<g>
			<circle class="st8" cx="194.911" cy="134.368" r="15"/>
		</g>
	</g>
	<g>
		<path class="st0" d="M256.472,169.868h-40c-0.276,0-0.5-0.224-0.5-0.5s0.224-0.5,0.5-0.5h40c0.276,0,0.5,0.224,0.5,0.5
			S256.749,169.868,256.472,169.868z"/>
	</g>
	<g>
		<path class="st0" d="M262.411,159.868h-40c-0.276,0-0.5-0.224-0.5-0.5s0.224-0.5,0.5-0.5h40c0.276,0,0.5,0.224,0.5,0.5
			S262.687,159.868,262.411,159.868z"/>
	</g>
	<g>
		<path class="st0" d="M268.024,149.868h-40c-0.276,0-0.5-0.224-0.5-0.5s0.224-0.5,0.5-0.5h40c0.276,0,0.5,0.224,0.5,0.5
			S268.3,149.868,268.024,149.868z"/>
	</g>
	<text transform="matrix(1 0 0 1 333.9517 131.3052)" class="st1 st9 st10">Produktion</text>
	<text transform="matrix(1 0 0 1 537.0059 281.1265)" class="st2 st9 st10">Regelung</text>
	<text transform="matrix(0.7071 -0.7071 0.7071 0.7071 334.8927 279.994)" class="st1 st9 st10">Verbrauch</text>
	<g>
		<g>
			<path class="st1" d="M287.672,360.077c-0.256,0-0.512-0.098-0.707-0.293c-0.391-0.391-0.391-1.023,0-1.414l0.354-0.354
				c0.391-0.391,1.023-0.391,1.414,0s0.391,1.023,0,1.414l-0.354,0.354C288.184,359.979,287.928,360.077,287.672,360.077z
				 M292.268,355.481c-0.256,0-0.512-0.098-0.707-0.293c-0.391-0.391-0.391-1.023,0-1.414l0.354-0.354
				c0.391-0.391,1.023-0.391,1.414,0s0.391,1.023,0,1.414l-0.354,0.354C292.78,355.383,292.524,355.481,292.268,355.481z
				 M296.864,350.884c-0.256,0-0.512-0.098-0.707-0.293c-0.391-0.391-0.391-1.023,0-1.414l0.354-0.354
				c0.391-0.391,1.023-0.391,1.414,0s0.391,1.023,0,1.414l-0.354,0.354C297.376,350.787,297.12,350.884,296.864,350.884z
				 M301.46,346.288c-0.256,0-0.512-0.098-0.707-0.293c-0.391-0.391-0.391-1.023,0-1.414l0.354-0.354
				c0.391-0.391,1.023-0.391,1.414,0s0.391,1.023,0,1.414l-0.354,0.354C301.972,346.19,301.716,346.288,301.46,346.288z
				 M306.057,341.692c-0.256,0-0.512-0.098-0.707-0.293c-0.391-0.391-0.391-1.023,0-1.414l0.354-0.354
				c0.391-0.391,1.023-0.391,1.414,0s0.391,1.023,0,1.414l-0.354,0.354C306.568,341.594,306.312,341.692,306.057,341.692z
				 M310.653,337.096c-0.256,0-0.512-0.098-0.707-0.293c-0.391-0.391-0.391-1.023,0-1.414l0.354-0.354
				c0.391-0.391,1.023-0.391,1.414,0s0.391,1.023,0,1.414l-0.354,0.354C311.165,336.998,310.909,337.096,310.653,337.096z
				 M315.249,332.5c-0.256,0-0.512-0.098-0.707-0.293c-0.391-0.391-0.391-1.023,0-1.414l0.354-0.354
				c0.391-0.391,1.023-0.391,1.414,0s0.391,1.023,0,1.414l-0.354,0.354C315.761,332.402,315.505,332.5,315.249,332.5z
				 M319.845,327.903c-0.256,0-0.512-0.098-0.707-0.293c-0.391-0.391-0.391-1.023,0-1.414l0.354-0.354
				c0.391-0.391,1.023-0.391,1.414,0s0.391,1.023,0,1.414l-0.354,0.354C320.357,327.806,320.101,327.903,319.845,327.903z
				 M324.441,323.307c-0.256,0-0.512-0.098-0.707-0.293c-0.391-0.391-0.391-1.023,0-1.414l0.354-0.354
				c0.391-0.391,1.023-0.391,1.414,0s0.391,1.023,0,1.414l-0.354,0.354C324.953,323.21,324.697,323.307,324.441,323.307z
				 M329.038,318.711c-0.256,0-0.512-0.098-0.707-0.293c-0.391-0.391-0.391-1.023,0-1.414l0.354-0.354
				c0.391-0.391,1.023-0.391,1.414,0s0.391,1.023,0,1.414l-0.354,0.354C329.549,318.613,329.293,318.711,329.038,318.711z
				 M333.634,314.115c-0.256,0-0.512-0.098-0.707-0.293c-0.391-0.391-0.391-1.023,0-1.414l0.354-0.354
				c0.391-0.391,1.023-0.391,1.414,0s0.391,1.023,0,1.414l-0.354,0.354C334.146,314.017,333.89,314.115,333.634,314.115z
				 M338.23,309.519c-0.256,0-0.512-0.098-0.707-0.293c-0.391-0.391-0.391-1.023,0-1.414l0.354-0.354
				c0.391-0.391,1.023-0.391,1.414,0s0.391,1.023,0,1.414l-0.354,0.354C338.742,309.421,338.486,309.519,338.23,309.519z
				 M342.826,304.922c-0.256,0-0.512-0.098-0.707-0.293c-0.391-0.391-0.391-1.023,0-1.414l0.354-0.354
				c0.391-0.391,1.023-0.391,1.414,0s0.391,1.023,0,1.414l-0.354,0.354C343.338,304.825,343.082,304.922,342.826,304.922z
				 M347.422,300.326c-0.256,0-0.512-0.098-0.707-0.293c-0.391-0.391-0.391-1.023,0-1.414l0.354-0.354
				c0.391-0.391,1.023-0.391,1.414,0s0.391,1.023,0,1.414l-0.354,0.354C347.934,300.229,347.678,300.326,347.422,300.326z
				 M352.019,295.73c-0.256,0-0.512-0.098-0.707-0.293c-0.391-0.391-0.391-1.023,0-1.414l0.354-0.354
				c0.391-0.391,1.023-0.391,1.414,0s0.391,1.023,0,1.414l-0.354,0.354C352.53,295.632,352.274,295.73,352.019,295.73z
				 M356.615,291.134c-0.256,0-0.512-0.098-0.707-0.293c-0.391-0.391-0.391-1.023,0-1.414l0.354-0.354
				c0.391-0.391,1.023-0.391,1.414,0s0.391,1.023,0,1.414l-0.354,0.354C357.126,291.036,356.871,291.134,356.615,291.134z
				 M361.211,286.538c-0.256,0-0.512-0.098-0.707-0.293c-0.391-0.391-0.391-1.023,0-1.414l0.354-0.354
				c0.391-0.391,1.023-0.391,1.414,0s0.391,1.023,0,1.414l-0.354,0.354C361.723,286.44,361.467,286.538,361.211,286.538z
				 M365.807,281.941c-0.256,0-0.512-0.098-0.707-0.293c-0.391-0.391-0.391-1.023,0-1.414l0.354-0.354
				c0.391-0.391,1.023-0.391,1.414,0s0.391,1.023,0,1.414l-0.354,0.354C366.319,281.844,366.063,281.941,365.807,281.941z
				 M370.403,277.345c-0.256,0-0.512-0.098-0.707-0.293c-0.391-0.391-0.391-1.023,0-1.414l0.354-0.354
				c0.391-0.391,1.023-0.391,1.414,0s0.391,1.023,0,1.414l-0.354,0.354C370.915,277.248,370.659,277.345,370.403,277.345z
				 M375,272.749c-0.256,0-0.512-0.098-0.707-0.293c-0.391-0.391-0.391-1.023,0-1.414l0.354-0.354c0.391-0.391,1.023-0.391,1.414,0
				s0.391,1.023,0,1.414l-0.354,0.354C375.511,272.651,375.255,272.749,375,272.749z M379.596,268.153
				c-0.256,0-0.512-0.098-0.707-0.293c-0.391-0.391-0.391-1.023,0-1.414l0.354-0.354c0.391-0.391,1.023-0.391,1.414,0
				s0.391,1.023,0,1.414l-0.354,0.354C380.107,268.055,379.852,268.153,379.596,268.153z M384.192,263.557
				c-0.256,0-0.512-0.098-0.707-0.293c-0.391-0.391-0.391-1.023,0-1.414l0.354-0.354c0.391-0.391,1.023-0.391,1.414,0
				s0.391,1.023,0,1.414l-0.354,0.354C384.704,263.459,384.448,263.557,384.192,263.557z M388.788,258.961
				c-0.256,0-0.512-0.098-0.707-0.293c-0.391-0.391-0.391-1.023,0-1.414l0.354-0.354c0.391-0.391,1.023-0.391,1.414,0
				s0.391,1.023,0,1.414l-0.354,0.354C389.3,258.863,389.044,258.961,388.788,258.961z M393.384,254.364
				c-0.256,0-0.512-0.098-0.707-0.293c-0.391-0.391-0.391-1.023,0-1.414l0.354-0.354c0.391-0.391,1.023-0.391,1.414,0
				s0.391,1.023,0,1.414l-0.354,0.354C393.896,254.267,393.64,254.364,393.384,254.364z M397.98,249.768
				c-0.256,0-0.512-0.098-0.707-0.293c-0.391-0.391-0.391-1.023,0-1.414l0.354-0.354c0.391-0.391,1.023-0.391,1.414,0
				s0.391,1.023,0,1.414l-0.354,0.354C398.492,249.67,398.236,249.768,397.98,249.768z M402.577,245.172
				c-0.256,0-0.512-0.098-0.707-0.293c-0.391-0.391-0.391-1.023,0-1.414l0.354-0.354c0.391-0.391,1.023-0.391,1.414,0
				s0.391,1.023,0,1.414l-0.354,0.354C403.088,245.074,402.833,245.172,402.577,245.172z M407.173,240.576
				c-0.256,0-0.512-0.098-0.707-0.293c-0.391-0.391-0.391-1.023,0-1.414l0.354-0.354c0.391-0.391,1.023-0.391,1.414,0
				s0.391,1.023,0,1.414l-0.354,0.354C407.685,240.478,407.429,240.576,407.173,240.576z M411.769,235.98
				c-0.256,0-0.512-0.098-0.707-0.293c-0.391-0.391-0.391-1.023,0-1.414l0.354-0.354c0.391-0.391,1.023-0.391,1.414,0
				s0.391,1.023,0,1.414l-0.354,0.354C412.281,235.882,412.025,235.98,411.769,235.98z M416.365,231.383
				c-0.256,0-0.512-0.098-0.707-0.293c-0.391-0.391-0.391-1.023,0-1.414l0.354-0.354c0.391-0.391,1.023-0.391,1.414,0
				s0.391,1.023,0,1.414l-0.354,0.354C416.877,231.286,416.621,231.383,416.365,231.383z M420.961,226.787
				c-0.256,0-0.512-0.098-0.707-0.293c-0.391-0.391-0.391-1.023,0-1.414l0.354-0.354c0.391-0.391,1.023-0.391,1.414,0
				s0.391,1.023,0,1.414l-0.354,0.354C421.473,226.689,421.217,226.787,420.961,226.787z M425.558,222.191
				c-0.256,0-0.512-0.098-0.707-0.293c-0.391-0.391-0.391-1.023,0-1.414l0.354-0.354c0.391-0.391,1.023-0.391,1.414,0
				s0.391,1.023,0,1.414l-0.354,0.354C426.069,222.093,425.813,222.191,425.558,222.191z M430.154,217.595
				c-0.256,0-0.512-0.098-0.707-0.293c-0.391-0.391-0.391-1.023,0-1.414l0.354-0.354c0.391-0.391,1.023-0.391,1.414,0
				s0.391,1.023,0,1.414l-0.354,0.354C430.666,217.497,430.41,217.595,430.154,217.595z M434.75,212.999
				c-0.256,0-0.512-0.098-0.707-0.293c-0.391-0.391-0.391-1.023,0-1.414l0.354-0.354c0.391-0.391,1.023-0.391,1.414,0
				s0.391,1.023,0,1.414l-0.354,0.354C435.262,212.901,435.006,212.999,434.75,212.999z M439.346,208.402
				c-0.256,0-0.512-0.098-0.707-0.293c-0.391-0.391-0.391-1.023,0-1.414l0.354-0.354c0.391-0.391,1.023-0.391,1.414,0
				s0.391,1.023,0,1.414l-0.354,0.354C439.858,208.305,439.602,208.402,439.346,208.402z M443.942,203.806
				c-0.256,0-0.511-0.098-0.707-0.292c-0.391-0.39-0.391-1.023-0.001-1.414l0.354-0.354c0.39-0.392,1.022-0.392,1.414-0.001
				c0.391,0.39,0.391,1.023,0.001,1.414l-0.354,0.354C444.455,203.709,444.199,203.806,443.942,203.806z M448.539,199.21
				c-0.256,0-0.512-0.098-0.707-0.293c-0.391-0.391-0.391-1.023,0-1.414l0.354-0.354c0.391-0.391,1.023-0.391,1.414,0
				s0.391,1.023,0,1.414l-0.354,0.354C449.05,199.112,448.794,199.21,448.539,199.21z M453.135,194.614
				c-0.256,0-0.512-0.098-0.707-0.293c-0.391-0.391-0.391-1.023,0-1.414l0.354-0.354c0.391-0.391,1.023-0.391,1.414,0
				s0.391,1.023,0,1.414l-0.354,0.354C453.646,194.516,453.391,194.614,453.135,194.614z M457.731,190.018
				c-0.256,0-0.512-0.098-0.707-0.293c-0.391-0.391-0.391-1.023,0-1.414l0.354-0.354c0.391-0.391,1.023-0.391,1.414,0
				s0.391,1.023,0,1.414l-0.354,0.354C458.243,189.92,457.987,190.018,457.731,190.018z M462.327,185.421
				c-0.256,0-0.513-0.098-0.708-0.294c-0.39-0.391-0.389-1.024,0.002-1.415l0.146-0.146c0.391-0.39,1.023-0.388,1.415,0.002
				c0.39,0.391,0.389,1.024-0.002,1.415l-0.146,0.146C462.838,185.324,462.583,185.421,462.327,185.421z"/>
		</g>
		<g>
			<g>
				<polygon class="st1" points="462.054,189.49 462.055,184.693 457.259,184.695 459.294,182.659 464.09,182.659 464.09,187.454 
									"/>
			</g>
		</g>
	</g>
	<text transform="matrix(0.7071 0.7071 -0.7071 0.7071 653.5515 233.4002)" class="st1 st9 st10">Ladestand</text>
	<g>
		<g>
			<path class="st1" d="M747.37,360.077c-0.256,0-0.511-0.097-0.706-0.292l-0.146-0.146c-0.391-0.39-0.393-1.023-0.002-1.415
				c0.391-0.391,1.023-0.391,1.414-0.002l0.146,0.146c0.391,0.39,0.393,1.023,0.002,1.415
				C747.883,359.979,747.627,360.077,747.37,360.077z M742.981,355.688c-0.256,0-0.512-0.098-0.707-0.293l-0.354-0.354
				c-0.391-0.391-0.391-1.023,0-1.414s1.023-0.391,1.414,0l0.354,0.354c0.391,0.391,0.391,1.023,0,1.414
				C743.493,355.59,743.237,355.688,742.981,355.688z M738.385,351.092c-0.256,0-0.512-0.098-0.707-0.293l-0.354-0.354
				c-0.391-0.391-0.391-1.023,0-1.414s1.023-0.391,1.414,0l0.354,0.354c0.391,0.391,0.391,1.023,0,1.414
				C738.896,350.994,738.641,351.092,738.385,351.092z M733.789,346.496c-0.256,0-0.512-0.098-0.707-0.293l-0.354-0.354
				c-0.391-0.391-0.391-1.023,0-1.414s1.023-0.391,1.414,0l0.354,0.354c0.391,0.391,0.391,1.023,0,1.414
				C734.301,346.398,734.045,346.496,733.789,346.496z M729.192,341.899c-0.256,0-0.512-0.098-0.707-0.293l-0.354-0.354
				c-0.391-0.391-0.391-1.023,0-1.414s1.023-0.391,1.414,0l0.354,0.354c0.391,0.391,0.391,1.023,0,1.414
				C729.704,341.802,729.448,341.899,729.192,341.899z M724.597,337.303c-0.256,0-0.512-0.098-0.707-0.293l-0.354-0.354
				c-0.391-0.391-0.391-1.023,0-1.414s1.023-0.391,1.414,0l0.354,0.354c0.391,0.391,0.391,1.023,0,1.414
				C725.108,337.206,724.853,337.303,724.597,337.303z M720,332.707c-0.256,0-0.512-0.098-0.707-0.293l-0.354-0.354
				c-0.391-0.391-0.391-1.023,0-1.414s1.023-0.391,1.414,0l0.354,0.354c0.391,0.391,0.391,1.023,0,1.414
				C720.512,332.609,720.256,332.707,720,332.707z M715.404,328.111c-0.256,0-0.512-0.098-0.707-0.293l-0.354-0.354
				c-0.391-0.391-0.391-1.023,0-1.414s1.023-0.391,1.414,0l0.354,0.354c0.391,0.391,0.391,1.023,0,1.414
				C715.916,328.013,715.66,328.111,715.404,328.111z M710.808,323.515c-0.256,0-0.512-0.098-0.707-0.293l-0.354-0.354
				c-0.391-0.391-0.391-1.023,0-1.414s1.023-0.391,1.414,0l0.354,0.354c0.391,0.391,0.391,1.023,0,1.414
				C711.319,323.417,711.063,323.515,710.808,323.515z M706.212,318.919c-0.256,0-0.512-0.098-0.707-0.293l-0.354-0.354
				c-0.391-0.391-0.391-1.023,0-1.414s1.023-0.391,1.414,0l0.354,0.354c0.391,0.391,0.391,1.023,0,1.414
				C706.724,318.821,706.468,318.919,706.212,318.919z M701.615,314.322c-0.256,0-0.512-0.098-0.707-0.293l-0.354-0.354
				c-0.391-0.391-0.391-1.023,0-1.414s1.023-0.391,1.414,0l0.354,0.354c0.391,0.391,0.391,1.023,0,1.414
				C702.127,314.225,701.871,314.322,701.615,314.322z M697.02,309.726c-0.256,0-0.512-0.098-0.707-0.293l-0.354-0.354
				c-0.391-0.391-0.391-1.023,0-1.414s1.023-0.391,1.414,0l0.354,0.354c0.391,0.391,0.391,1.023,0,1.414
				C697.531,309.628,697.275,309.726,697.02,309.726z M692.423,305.13c-0.256,0-0.512-0.098-0.707-0.293l-0.354-0.354
				c-0.391-0.391-0.391-1.023,0-1.414s1.023-0.391,1.414,0l0.354,0.354c0.391,0.391,0.391,1.023,0,1.414
				C692.935,305.032,692.679,305.13,692.423,305.13z M687.827,300.534c-0.256,0-0.512-0.098-0.707-0.293l-0.354-0.354
				c-0.391-0.391-0.391-1.023,0-1.414s1.023-0.391,1.414,0l0.354,0.354c0.391,0.391,0.391,1.023,0,1.414
				C688.339,300.436,688.083,300.534,687.827,300.534z M683.23,295.938c-0.256,0-0.512-0.098-0.707-0.293l-0.354-0.354
				c-0.391-0.391-0.391-1.023,0-1.414s1.023-0.391,1.414,0l0.354,0.354c0.391,0.391,0.391,1.023,0,1.414
				C683.742,295.84,683.486,295.938,683.23,295.938z M678.635,291.341c-0.256,0-0.512-0.098-0.707-0.293l-0.354-0.354
				c-0.391-0.391-0.391-1.023,0-1.414s1.023-0.391,1.414,0l0.354,0.354c0.391,0.391,0.391,1.023,0,1.414
				C679.146,291.244,678.891,291.341,678.635,291.341z M674.038,286.745c-0.256,0-0.512-0.098-0.707-0.293l-0.354-0.354
				c-0.391-0.391-0.391-1.023,0-1.414s1.023-0.391,1.414,0l0.354,0.354c0.391,0.391,0.391,1.023,0,1.414
				C674.55,286.648,674.294,286.745,674.038,286.745z M669.442,282.149c-0.256,0-0.512-0.098-0.707-0.293l-0.354-0.354
				c-0.391-0.391-0.391-1.023,0-1.414s1.023-0.391,1.414,0l0.354,0.354c0.391,0.391,0.391,1.023,0,1.414
				C669.954,282.051,669.698,282.149,669.442,282.149z M664.846,277.553c-0.256,0-0.512-0.098-0.707-0.293l-0.354-0.354
				c-0.391-0.391-0.391-1.023,0-1.414s1.023-0.391,1.414,0l0.354,0.354c0.391,0.391,0.391,1.023,0,1.414
				C665.357,277.455,665.102,277.553,664.846,277.553z M660.25,272.957c-0.256,0-0.512-0.098-0.707-0.293l-0.354-0.354
				c-0.391-0.391-0.391-1.023,0-1.414s1.023-0.391,1.414,0l0.354,0.354c0.391,0.391,0.391,1.023,0,1.414
				C660.762,272.859,660.506,272.957,660.25,272.957z M655.653,268.36c-0.256,0-0.512-0.098-0.707-0.293l-0.354-0.354
				c-0.391-0.391-0.391-1.023,0-1.414s1.023-0.391,1.414,0l0.354,0.354c0.391,0.391,0.391,1.023,0,1.414
				C656.165,268.263,655.909,268.36,655.653,268.36z M651.058,263.764c-0.256,0-0.512-0.098-0.707-0.293l-0.354-0.354
				c-0.391-0.391-0.391-1.023,0-1.414s1.023-0.391,1.414,0l0.354,0.354c0.391,0.391,0.391,1.023,0,1.414
				C651.569,263.667,651.313,263.764,651.058,263.764z M646.461,259.168c-0.256,0-0.512-0.098-0.707-0.293l-0.354-0.354
				c-0.391-0.391-0.391-1.023,0-1.414s1.023-0.391,1.414,0l0.354,0.354c0.391,0.391,0.391,1.023,0,1.414
				C646.973,259.07,646.717,259.168,646.461,259.168z M641.865,254.572c-0.256,0-0.512-0.098-0.707-0.293l-0.354-0.354
				c-0.391-0.391-0.391-1.023,0-1.414s1.023-0.391,1.414,0l0.354,0.354c0.391,0.391,0.391,1.023,0,1.414
				C642.377,254.474,642.121,254.572,641.865,254.572z M637.269,249.976c-0.256,0-0.512-0.098-0.707-0.293l-0.354-0.354
				c-0.391-0.391-0.391-1.023,0-1.414s1.023-0.391,1.414,0l0.354,0.354c0.391,0.391,0.391,1.023,0,1.414
				C637.78,249.878,637.524,249.976,637.269,249.976z M632.673,245.379c-0.256,0-0.512-0.098-0.707-0.293l-0.354-0.354
				c-0.391-0.391-0.391-1.023,0-1.414s1.023-0.391,1.414,0l0.354,0.354c0.391,0.391,0.391,1.023,0,1.414
				C633.185,245.282,632.929,245.379,632.673,245.379z M628.076,240.783c-0.256,0-0.512-0.098-0.707-0.293l-0.354-0.354
				c-0.391-0.391-0.391-1.023,0-1.414s1.023-0.391,1.414,0l0.354,0.354c0.391,0.391,0.391,1.023,0,1.414
				C628.588,240.686,628.332,240.783,628.076,240.783z M623.48,236.187c-0.256,0-0.512-0.098-0.707-0.293l-0.354-0.354
				c-0.391-0.391-0.391-1.023,0-1.414s1.023-0.391,1.414,0l0.354,0.354c0.391,0.391,0.391,1.023,0,1.414
				C623.992,236.089,623.736,236.187,623.48,236.187z M618.884,231.591c-0.256,0-0.512-0.098-0.707-0.293l-0.354-0.354
				c-0.391-0.391-0.391-1.023,0-1.414s1.023-0.391,1.414,0l0.354,0.354c0.391,0.391,0.391,1.023,0,1.414
				C619.396,231.493,619.14,231.591,618.884,231.591z M614.288,226.995c-0.256,0-0.512-0.098-0.707-0.293l-0.354-0.354
				c-0.391-0.391-0.391-1.023,0-1.414s1.023-0.391,1.414,0l0.354,0.354c0.391,0.391,0.391,1.023,0,1.414
				C614.8,226.897,614.544,226.995,614.288,226.995z M609.691,222.398c-0.256,0-0.512-0.098-0.707-0.293l-0.354-0.354
				c-0.391-0.391-0.391-1.023,0-1.414s1.023-0.391,1.414,0l0.354,0.354c0.391,0.391,0.391,1.023,0,1.414
				C610.203,222.301,609.947,222.398,609.691,222.398z M605.096,217.802c-0.256,0-0.512-0.098-0.707-0.293l-0.354-0.354
				c-0.391-0.391-0.391-1.023,0-1.414s1.023-0.391,1.414,0l0.354,0.354c0.391,0.391,0.391,1.023,0,1.414
				C605.607,217.705,605.352,217.802,605.096,217.802z M600.499,213.206c-0.256,0-0.512-0.098-0.707-0.293l-0.354-0.354
				c-0.391-0.391-0.391-1.023,0-1.414s1.023-0.391,1.414,0l0.354,0.354c0.391,0.391,0.391,1.023,0,1.414
				C601.011,213.108,600.755,213.206,600.499,213.206z M595.903,208.61c-0.256,0-0.512-0.098-0.707-0.293l-0.354-0.354
				c-0.391-0.391-0.391-1.023,0-1.414s1.023-0.391,1.414,0l0.354,0.354c0.391,0.391,0.391,1.023,0,1.414
				C596.415,208.512,596.159,208.61,595.903,208.61z M591.307,204.014c-0.256,0-0.512-0.098-0.707-0.293l-0.354-0.354
				c-0.391-0.391-0.391-1.023,0-1.414s1.023-0.391,1.414,0l0.354,0.354c0.391,0.391,0.391,1.023,0,1.414
				C591.818,203.916,591.562,204.014,591.307,204.014z M586.711,199.418c-0.256,0-0.512-0.098-0.707-0.293l-0.354-0.354
				c-0.391-0.391-0.391-1.023,0-1.414s1.023-0.391,1.414,0l0.354,0.354c0.391,0.391,0.391,1.023,0,1.414
				C587.223,199.32,586.967,199.418,586.711,199.418z M582.114,194.821c-0.256,0-0.512-0.098-0.707-0.293l-0.354-0.354
				c-0.391-0.391-0.391-1.023,0-1.414s1.023-0.391,1.414,0l0.354,0.354c0.391,0.391,0.391,1.023,0,1.414
				C582.626,194.724,582.37,194.821,582.114,194.821z M577.519,190.225c-0.256,0-0.512-0.098-0.707-0.293l-0.354-0.354
				c-0.391-0.391-0.391-1.023,0-1.414s1.023-0.391,1.414,0l0.354,0.354c0.391,0.391,0.391,1.023,0,1.414
				C578.03,190.127,577.774,190.225,577.519,190.225z M572.922,185.629c-0.256,0-0.512-0.098-0.707-0.293l-0.354-0.354
				c-0.391-0.391-0.391-1.023,0-1.414s1.023-0.391,1.414,0l0.354,0.354c0.391,0.391,0.391,1.023,0,1.414
				C573.434,185.531,573.178,185.629,572.922,185.629z"/>
		</g>
		<g>
			<g>
				<polygon class="st1" points="572.988,189.49 572.986,184.693 577.783,184.695 575.747,182.659 570.952,182.659 570.952,187.454 
									"/>
			</g>
		</g>
	</g>
	<g>
		<rect x="484.911" y="417.368" class="st5" width="50" height="2"/>
	</g>
	<g>
		<g>
			<circle class="st5" cx="503.411" cy="383.369" r="1.5"/>
		</g>
		<g>
			<circle class="st5" cx="503.411" cy="378.366" r="1.5"/>
		</g>
	</g>
	<g>
		<g>
			<circle class="st5" cx="516.419" cy="383.369" r="1.5"/>
		</g>
		<g>
			<circle class="st5" cx="516.419" cy="378.366" r="1.5"/>
		</g>
	</g>
	<g>
		<path class="st0" d="M249.422,384.758h5.867l-3.912,7.823h3.912l-7.334,13.691l1.467-9.779h-4.89L249.422,384.758z"/>
	</g>
	<g>
		<path class="st7" d="M497.248,128.593h5.867l-3.912,7.823h3.912l-7.334,13.691l1.467-9.779h-4.89L497.248,128.593z"/>
	</g>
</g>
<g id="Ebene_1">
</g>
<g class="Hotspot">
	<rect x="173.766" y="107.682" class="st4" width="101.144" height="78.393"/>
</g>
<g class="Beschriftung">
	<path class="st11" d="M295.19,31.564H154.632c-6.6,0-12,5.4-12,12v21c0,6.6,5.4,12,12,12h60.28l9.999,9.999l9.999-9.999h60.28
		c6.6,0,12-5.4,12-12v-21C307.19,36.964,301.79,31.564,295.19,31.564z"/>
	<text transform="matrix(1 0 0 1 162.6172 50.0622)"><tspan x="0" y="0" class="st0 st9 st10">Photovoltaik-Anlage /</tspan><tspan x="19.202" y="15.6" class="st0 st9 st10">Wechselrichter</tspan></text>
</g>
<g class="Hotspot">
	<rect x="462.887" y="107.682" class="st4" width="89.048" height="78.393"/>
</g>
<g class="Beschriftung">
	<path class="st11" d="M580.19,31.564H439.632c-6.6,0-12,5.4-12,12v21c0,6.6,5.4,12,12,12h60.28l9.999,9.999l9.999-9.999h60.28
		c6.6,0,12-5.4,12-12v-21C592.19,36.964,586.79,31.564,580.19,31.564z"/>
	<text transform="matrix(1 0 0 1 496.5156 57.8628)" class="st0 st9 st10">evcc</text>
</g>
<g class="Hotspot">
	<rect x="184.911" y="352.597" class="st4" width="90" height="78.393"/>
</g>
<g class="Beschriftung">
	<path class="st11" d="M295.19,465.922h-60.28l-9.999-9.999l-9.999,9.999h-60.28c-6.6,0-12,5.4-12,12v21c0,6.6,5.4,12,12,12H295.19
		c6.6,0,12-5.4,12-12v-21C307.19,471.322,301.79,465.922,295.19,465.922z"/>
	<text transform="matrix(1 0 0 1 185.0059 492.2215)" class="st0 st9 st10">Netzanschluß</text>
</g>
<g class="Hotspot">
	<rect x="482.91" y="352.597" class="st4" width="52.001" height="78.393"/>
</g>
<g class="Beschriftung">
	<path class="st11" d="M579.69,465.922h-60.28l-9.999-9.999l-9.999,9.999h-60.28c-6.6,0-12,5.4-12,12v21c0,6.6,5.4,12,12,12H579.69
		c6.6,0,12-5.4,12-12v-21C591.69,471.322,586.29,465.922,579.69,465.922z"/>
	<text transform="matrix(1 0 0 1 453.2954 492.2215)" class="st0 st9 st10">Steuerbare Wallbox</text>
</g>
<g class="Hotspot">
	<rect x="742.036" y="352.597" class="st4" width="161.575" height="78.393"/>
</g>
<g class="Beschriftung">
	<path class="st11" d="M895.19,465.922h-60.28l-9.999-9.999l-9.999,9.999h-60.28c-6.6,0-12,5.4-12,12v21c0,6.6,5.4,12,12,12H895.19
		c6.6,0,12-5.4,12-12v-21C907.19,471.322,901.79,465.922,895.19,465.922z"/>
	<text transform="matrix(1 0 0 1 791.9236 492.2215)" class="st0 st9 st10">Elektroauto</text>
</g>
</svg>