<?xml version="1.0" encoding="utf-8"?>
<!-- Generator: Adobe Illustrator 24.0.3, SVG Export Plug-In . SVG Version: 6.00 Build 0)  -->
<svg version="1.1" id="Ebene_1" xmlns="http://www.w3.org/2000/svg" xmlns:xlink="http://www.w3.org/1999/xlink" x="0px" y="0px"
	 width="600px" height="350px" viewBox="0 0 600 350" style="enable-background:new 0 0 600 350;" xml:space="preserve">
<style type="text/css">
	.st0{fill:url(#SVGID_1_);}
	.st1{fill:#00E207;}
	.st2{fill:#FF6666;}
	.st3{fill:#000033;}
	.st4{fill:#663300;}
	.st5{fill:#FFFFFF;}
	.st6{fill:#006600;}
	.st7{fill:#CCCCCC;}
	.st8{fill:#FFFF00;}
	.st9{fill:#0FDD42;}
	.st10{fill:#F7D5D5;}
</style>
<linearGradient id="SVGID_1_" gradientUnits="userSpaceOnUse" x1="299" y1="0" x2="299" y2="350">
	<stop  offset="0" style="stop-color:#FFFFFF"/>
	<stop  offset="1" style="stop-color:#CCFFFF"/>
</linearGradient>
<rect class="st0" width="598" height="350"/>
<g>
	<path class="st1" d="M164.7,324c-13.7,0-25.3,8.8-29.6,21h59.3C190.9,335.5,177.4,324,164.7,324z"/>
</g>
<g>
	<path class="st1" d="M551.9,324c-13.7,0-25.3,8.8-29.6,21h59.3C578.2,335.5,564.7,324,551.9,324z"/>
</g>
<g>
	<rect x="21.4" y="261.3" class="st2" width="7.3" height="30.8"/>
</g>
<g>
	<polyline class="st1" points="10,343.4 10,306.1 43.6,261.3 77.2,306.1 77.2,343.4 	"/>
</g>
<g>
	<polygon class="st2" points="77.2,306.1 117.2,306.1 83.6,261.3 43.6,261.3 	"/>
</g>
<g>
	<polygon class="st3" points="79.1,300.6 108.1,300.6 82.8,266.8 53.7,266.8 	"/>
</g>
<g>
	<polyline class="st4" points="47.3,343.4 47.3,313.6 69.8,313.6 69.8,343.4 	"/>
</g>
<g>
	<rect x="17.5" y="313.6" class="st3" width="22.4" height="14.9"/>
</g>
<g>
	<rect x="32.4" y="283.7" class="st3" width="22.4" height="14.9"/>
</g>
<g>
	<rect x="32.4" y="283.7" class="st2" width="5.2" height="14.9"/>
</g>
<g>
	<rect x="49.6" y="283.7" class="st2" width="5.2" height="14.9"/>
</g>
<g>
	<polygon class="st5" points="89.6,275.8 60.6,275.8 61.1,276.6 90.1,276.6 	"/>
	<polygon class="st5" points="95.2,283.3 66.2,283.3 66.7,284.1 95.7,284.1 	"/>
	<polygon class="st5" points="100.8,290.8 71.8,290.8 72.3,291.5 101.3,291.5 	"/>
</g>
<g>
	<polyline class="st4" points="581.7,343.7 581.7,302.4 588.4,302.4 588.4,343.7 	"/>
</g>
<g>
	<ellipse class="st6" cx="585.1" cy="297.9" rx="12.7" ry="14.9"/>
</g>
<g>
	<ellipse class="st6" cx="585.1" cy="313.6" rx="12.7" ry="14.9"/>
</g>
<g>
	<rect y="343.3" class="st7" width="600" height="6.2"/>
</g>
<g>
	<g>
		<path class="st6" d="M147.2,337.3c-8.2,0-14.9,5.7-14.9,12.7h29.9C162.2,343,155.5,337.3,147.2,337.3z"/>
	</g>
</g>
<g>
	<g>
		<path class="st6" d="M449.2,337.3c-8.2,0-14.9,5.7-14.9,12.7h29.9C464.1,343,457.4,337.3,449.2,337.3z"/>
	</g>
</g>
<g>
	<circle class="st8" cx="143.5" cy="139.2" r="21.6"/>
</g>
<g>
	<polygon class="st8" points="112.6,160.8 59.4,199.1 64.3,208.6 	"/>
</g>
<g>
	<polygon class="st8" points="117,167.6 88,206.6 95.1,213.5 	"/>
</g>
<path class="st5" d="M348,161.9h-7.9c0-0.1,0-0.2,0-0.4c0-5.6-4.6-10.2-10.2-10.2s-10.2,4.6-10.2,10.2c0,0.1,0,0.2,0,0.4h-2.2
	c-5.4,0-9.8,4.4-9.8,9.8s4.4,9.8,9.8,9.8H348c5.4,0,9.8-4.4,9.8-9.8S353.4,161.9,348,161.9z"/>
<path class="st5" d="M295.4,129h-7.9c0-0.1,0-0.2,0-0.4c0-5.6-4.6-10.2-10.2-10.2s-10.2,4.6-10.2,10.2c0,0.1,0,0.2,0,0.4h-2.2
	c-5.4,0-9.8,4.4-9.8,9.8s4.4,9.8,9.8,9.8h30.5c5.4,0,9.8-4.4,9.8-9.8S300.8,129,295.4,129z"/>
<g>
	<g>
		<path class="st9" d="M416.1,320.8c0,0-1.3,0.2,0,2.6s1.9,3.3-0.2,4.9s-12.1,3.5-14,5.4H197.6c0,0-1.9-4-4.5-4.9
			c-2.5-0.9-5.4-6.3-5.8-7.3s-5.3-11.1-5.3-16.7c0-0.2,3.6-8.4,3.6-12.2c0-3.8,1.3-10.6,1.9-11.8s-2.8-2.4-0.9-3.5
			c1.9-1.2,38.9-17.6,61-20.2s68-7.5,111.1,27.7c0,0,39.3,0.2,57.6,18.6c2.8,2.6,1.5,5.4,0.9,7.3s-0.4,7.5,0,8.2
			S416.1,320.8,416.1,320.8z"/>
	</g>
	<g>
		<path class="st5" d="M349.3,284.9c-11.4-8.3-23.7-14.5-36.9-18.4c-12.1-3.6-24.7-5.4-38.4-5.4l0,0c-10.6,0-19.7,1.1-25.7,1.8
			c-8.6,1-20,4.4-30.4,8c10.5,8.1,43.6,9,43.6,9L349.3,284.9z"/>
	</g>
	<g>
		<path class="st6" d="M361.8,327.5H258.5h-0.1c-0.2-0.2-21.4-15.6-32.4-40.6v-0.1c-0.2-1.6,1.9-4.1,3.9-6.4
			c1.4-1.6,3.2-3.7,2.8-4.2l0.5-0.3c0.5,0.9-0.8,2.4-2.9,4.9c-1.9,2.2-4,4.6-3.8,6c10.6,24.1,30.8,39.3,32.1,40.3h103.1L361.8,327.5
			L361.8,327.5z"/>
	</g>
	<g>
		<g>
			<path class="st2" d="M201,282l-13.9,0.2c-0.6,2.3-1.3,6.7-1.5,9.7C194,289.7,201,282,201,282z"/>
		</g>
		<g>
			<path class="st2" d="M410.3,304.5c2.8,0,3.8-1.9,4.2-2.7c-6.1-5.4-14.1-9-22.1-11.5C394.7,293.1,404.3,304.5,410.3,304.5z"/>
		</g>
	</g>
	<g>
		<ellipse class="st3" cx="219.8" cy="323.4" rx="19.4" ry="19.8"/>
	</g>
	<g>
		<path class="st6" d="M342.6,287.1l-12.4-1c0,0-2.1-1-2.1-1.9s2.1-5.2,2.1-5.2s6.4-1.3,7.8,1.5c1.4,2.7,2.9,4.4,3.5,4.4
			S342.6,287.1,342.6,287.1z"/>
	</g>
	<g>
		<ellipse class="st3" cx="379.8" cy="323.4" rx="19.4" ry="19.8"/>
	</g>
	<g>
		<ellipse class="st5" cx="379.8" cy="323.4" rx="12" ry="12.2"/>
	</g>
	<g>
		<ellipse class="st5" cx="219.9" cy="323.4" rx="12" ry="12.2"/>
	</g>
	<g>
		<path class="st6" d="M293.5,327.2c0-36.7-8.2-59.1-11.2-66.2h-0.6c2.9,6.8,11.3,29.2,11.3,66.2H293.5z"/>
	</g>
</g>
<rect x="77.2" y="306.1" class="st1" width="40" height="37.4"/>
<g>
	<path class="st2" d="M189.7,311.2h-7.4l-5.7,12.7l3.1,1.7l4.9-6.8c2.4,3.8,5.2,3.4,5.2,3.4v-11L189.7,311.2L189.7,311.2z"/>
</g>
<g>
	<path class="st2" d="M149.4,338.2c-20.2,0-30-13.2-30.4-13.7l2.2-1.6c0.1,0.1,9.5,12.6,28.2,12.6s28.1-12.5,28.2-12.6l2.2,1.6
		C179.4,325.1,169.5,338.2,149.4,338.2z"/>
</g>
<g>
	<path class="st3" d="M121,325.6h-4v-19.3h4c3.1,0,5.7,2.5,5.7,5.7v8C126.6,323,124.1,325.6,121,325.6z"/>
</g>
<g>
	<path class="st1" d="M121.8,320.1c-0.5,0-1-0.4-1-1v-6.4c0-0.5,0.4-1,1-1s1,0.4,1,1v6.4C122.8,319.7,122.3,320.1,121.8,320.1z"/>
</g>
<g>
	<g>
		<g>
			
				<rect x="460.2" y="284.5" transform="matrix(0.3566 -0.9343 0.9343 0.3566 54.7248 663.8443)" class="st6" width="98.3" height="15.4"/>
		</g>
	</g>
	<g>
		<g>
			<rect x="522.1" y="244.9" class="st6" width="15.4" height="98.3"/>
		</g>
	</g>
	<g>
		<g>
			<path class="st2" d="M512.7,260.6h36.9c0,0-5.1-69.9-26.4-69.9C502,190.6,512.7,260.6,512.7,260.6z"/>
		</g>
	</g>
	<g>
		<g>
			<path class="st3" d="M474.4,326.7c0,0,5-4.6,15,2.5s2.7,14.7,2.7,14.7L474.4,326.7z"/>
		</g>
	</g>
	<g>
		<g>
			<path class="st3" d="M512.7,343.9c0,0,0.4-6.7,12.5-8.7c12.2-1.9,12.2,8.7,12.2,8.7H512.7z"/>
		</g>
	</g>
	<g>
		<g>
			<ellipse class="st10" cx="515.9" cy="165.2" rx="11.6" ry="15.6"/>
		</g>
	</g>
	<g>
		<g>
			<polygon class="st10" points="507.9,160.5 499.3,168.9 506.7,168.9 			"/>
		</g>
	</g>
	<g>
		<g>
			<ellipse class="st3" cx="512" cy="150.3" rx="8.4" ry="3.3"/>
		</g>
	</g>
	<g>
		<g>
			
				<ellipse transform="matrix(0.9616 -0.2745 0.2745 0.9616 -23.9424 149.686)" class="st3" cx="522.9" cy="160.4" rx="7" ry="12.2"/>
		</g>
	</g>
	<g>
		<g>
			
				<ellipse transform="matrix(8.169650e-02 -0.9967 0.9967 8.169650e-02 310.2596 670.2422)" class="st10" cx="518.8" cy="166.8" rx="5.8" ry="3.4"/>
		</g>
	</g>
	<g>
		<g>
			<rect x="515.9" y="174.9" class="st10" width="8" height="15.7"/>
		</g>
	</g>
	<g>
		<g>
			<polygon class="st2" points="529.8,193.1 513.6,193.1 513.6,186.9 529.8,182 			"/>
		</g>
	</g>
	<g>
		<g>
			<path class="st3" d="M511.8,176c-1.7,0-3-2.7-3-6.3h1c0,3,1.1,5.3,2,5.3c1,0,2-2.3,2-5.3h1C514.8,173.3,513.5,176,511.8,176z"/>
		</g>
	</g>
	<g>
		<g>
			<path class="st3" d="M511.6,159.8c1.1,0,1.9,0.9,1.9,1.9s-0.9,1.9-1.9,1.9c-1.1,0-1.9-0.9-1.9-1.9S510.6,159.8,511.6,159.8z"/>
		</g>
	</g>
	<g>
		<g>
			<circle class="st3" cx="505.8" cy="161.7" r="1.9"/>
		</g>
	</g>
	<g>
		<path class="st10" d="M451.5,242.3C451.5,242.3,451.5,242.3,451.5,242.3c-9.6-0.1-15.3-6.8-17.1-10.8c-1.2-2.6-0.1-5.7,2.5-6.9
			c2.6-1.2,5.6-0.1,6.9,2.4c0.3,0.5,2.6,4.8,7.8,4.8c2.9,0,5.1,2.4,5.1,5.3C456.6,240,454.3,242.3,451.5,242.3z"/>
	</g>
	<g>
		<path class="st2" d="M498.3,225.3c-8.8,0-18-4.9-27.3-14.7l8.4-8c5.4,5.6,13.4,12.1,20.7,11c7.5-1.2,11.8-9.9,11.9-10l10.5,5
			c-0.3,0.6-6.8,14.3-20.5,16.5C500.8,225.2,499.6,225.3,498.3,225.3z"/>
	</g>
	<g>
		<path class="st5" d="M459.1,223l-10.3,10.3c-1.2,1.2-3.1,1.2-4.2,0l-26.1-26.1c-1.2-1.2-1.2-3.1,0-4.2l10.3-10.3
			c1.2-1.2,3.1-1.2,4.2,0l26.1,26.1C460.3,219.9,460.3,221.8,459.1,223z"/>
		<path class="st3" d="M446.8,234.4c-1.2,0-2.3-0.4-3.2-1.3l-24.8-24.8c-1.8-1.8-1.8-4.6,0-6.4l9-9c1.7-1.7,4.7-1.7,6.4,0l24.8,24.8
			c0.9,0.9,1.3,2,1.3,3.2c0,1.2-0.5,2.3-1.3,3.2l-9,9C449.1,233.9,447.9,234.4,446.8,234.4z M431,192.8c-0.9,0-1.7,0.3-2.3,0.9l-9,9
			c-1.3,1.3-1.3,3.3,0,4.6l24.8,24.8c1.3,1.3,3.3,1.3,4.6,0l9-9c0.6-0.6,0.9-1.4,0.9-2.3c0-0.9-0.3-1.7-0.9-2.3l-24.8-24.8
			C432.6,193.1,431.8,192.8,431,192.8z"/>
	</g>
	<g>
		<path class="st9" d="M429.8,204.8l5.5-5.5l3.7,11.1l3.7-3.7l6,19.8l-7.8-10.6l-4.6,4.6L429.8,204.8z"/>
	</g>
	<g>
		<path class="st3" d="M428.7,196.5l-6.3,6.3c-0.4,0.4-1,0.4-1.4,0l-1.1-1.1l7.7-7.7l1.1,1.1C429.1,195.5,429.1,196.1,428.7,196.5z"
			/>
	</g>
	<g>
		<path class="st10" d="M451.7,241c-0.2,0-0.5,0-0.7-0.1c-2.1-0.4-3.5-2.4-3.1-4.5c0.4-2.4-0.3-4.6-0.4-4.6c-0.8-2,0.2-4.3,2.2-5
			c2-0.8,4.2,0.2,5,2.2c0.2,0.4,1.6,4.3,0.8,8.9C455.2,239.7,453.5,241,451.7,241z"/>
	</g>
	<g>
		<path class="st2" d="M483.8,261c-11.7,0-23.9-6.7-36.5-20l8.4-8c12.1,12.7,23,18,32.4,15.8c8.9-2.1,15.6-10.8,19.7-17.7
			c4.7-8.1,7.1-15.8,7.1-15.8l11.2,3.4c-0.4,1.5-11,35.8-35.2,41.5C488.5,260.8,486.1,261,483.8,261z"/>
	</g>
	<g>
		<path class="st10" d="M468.4,218.1c-1.6,0-3.1-1-3.7-2.6c-0.7-2,0.4-4.2,2.4-4.9c0.2-0.1,5-1.8,5.5-5.7c-2.5-0.5-9.8,0.7-16.3,3
			c-2,0.7-4.2-0.4-4.9-2.4c-0.7-2,0.4-4.2,2.4-4.9c5.4-1.8,18.4-5.7,23.9-1.7c1.8,1.3,2.7,3.2,2.7,5.4c0,8-6.8,12.4-10.8,13.8
			C469.2,218.1,468.8,218.1,468.4,218.1z"/>
	</g>
</g>
</svg>
