<?xml version="1.0" encoding="utf-8"?>
<!-- Generator: Adobe Illustrator 25.0.0, SVG Export Plug-In . SVG Version: 6.00 Build 0)  -->
<svg version="1.1" id="Ebene_1" xmlns="http://www.w3.org/2000/svg" xmlns:xlink="http://www.w3.org/1999/xlink" x="0px" y="0px"
	 viewBox="0 0 600 350" style="enable-background:new 0 0 600 350;" xml:space="preserve">
<style type="text/css">
	.st0{fill:#CCFFFF;}
	.st1{fill:#00E207;}
	.st2{fill:#FF6666;}
	.st3{fill:#000033;}
	.st4{fill:#663300;}
	.st5{fill:#FFFFFF;}
	.st6{fill:#006600;}
	.st7{fill:#CCCCCC;}
	.st8{fill:#FFFF00;}
	.st9{fill:#0FDD42;}
	.st10{fill:#F7D5D5;}
</style>
<rect y="0" class="st0" width="600" height="350"/>
<g>
	<path class="st1" d="M164.7,324c-13.7,0-25.3,8.8-29.6,21h59.3C190.9,335.5,177.4,324,164.7,324z"/>
</g>
<g>
	<path class="st1" d="M551.9,324c-13.7,0-25.3,8.8-29.6,21h59.3C578.2,335.5,564.7,324,551.9,324z"/>
</g>
<g>
	<rect x="21.4" y="261.3" class="st2" width="7.3" height="30.8"/>
</g>
<g>
	<polyline class="st1" points="10,343.4 10,306.1 43.6,261.3 77.2,306.1 77.2,343.4 	"/>
</g>
<g>
	<polygon class="st2" points="77.2,306.1 117.2,306.1 83.6,261.3 43.6,261.3 	"/>
</g>
<g>
	<polygon class="st3" points="79.1,300.6 108.1,300.6 82.8,266.8 53.7,266.8 	"/>
</g>
<g>
	<polyline class="st4" points="47.3,343.4 47.3,313.6 69.8,313.6 69.8,343.4 	"/>
</g>
<g>
	<rect x="17.5" y="313.6" class="st3" width="22.4" height="14.9"/>
</g>
<g>
	<rect x="32.4" y="283.7" class="st3" width="22.4" height="14.9"/>
</g>
<g>
	<rect x="32.4" y="283.7" class="st2" width="5.2" height="14.9"/>
</g>
<g>
	<rect x="49.6" y="283.7" class="st2" width="5.2" height="14.9"/>
</g>
<g>
	<polygon class="st5" points="89.6,275.8 60.6,275.8 61.1,276.6 90.1,276.6 	"/>
	<polygon class="st5" points="95.2,283.3 66.2,283.3 66.7,284.1 95.7,284.1 	"/>
	<polygon class="st5" points="100.8,290.8 71.8,290.8 72.3,291.5 101.3,291.5 	"/>
</g>
<g>
	<polyline class="st4" points="581.7,343.7 581.7,302.4 588.4,302.4 588.4,343.7 	"/>
</g>
<g>
	<ellipse class="st6" cx="585.1" cy="297.9" rx="12.7" ry="14.9"/>
</g>
<g>
	<ellipse class="st6" cx="585.1" cy="313.6" rx="12.7" ry="14.9"/>
</g>
<g>
	<rect y="343.3" class="st7" width="600" height="6.2"/>
</g>
<g>
	<g>
		<path class="st6" d="M147.2,337.3c-8.2,0-14.9,5.7-14.9,12.7h29.9C162.2,343,155.5,337.3,147.2,337.3z"/>
	</g>
</g>
<g>
	<g>
		<path class="st6" d="M449.2,337.3c-8.2,0-14.9,5.7-14.9,12.7h29.9C464.1,343,457.4,337.3,449.2,337.3z"/>
	</g>
</g>
<g>
	<circle class="st8" cx="143.5" cy="139.2" r="21.6"/>
</g>
<g>
	<polygon class="st8" points="112.6,160.8 59.4,199.1 64.3,208.6 	"/>
</g>
<g>
	<polygon class="st8" points="117,167.6 88,206.6 95.1,213.5 	"/>
</g>
<path class="st5" d="M348,161.9h-7.9c0-0.1,0-0.2,0-0.4c0-5.6-4.6-10.2-10.2-10.2s-10.2,4.6-10.2,10.2c0,0.1,0,0.2,0,0.4h-2.2
	c-5.4,0-9.8,4.4-9.8,9.8s4.4,9.8,9.8,9.8H348c5.4,0,9.8-4.4,9.8-9.8S353.4,161.9,348,161.9z"/>
<path class="st5" d="M295.4,129h-7.9c0-0.1,0-0.2,0-0.4c0-5.6-4.6-10.2-10.2-10.2s-10.2,4.6-10.2,10.2c0,0.1,0,0.2,0,0.4h-2.2
	c-5.4,0-9.8,4.4-9.8,9.8s4.4,9.8,9.8,9.8h30.5c5.4,0,9.8-4.4,9.8-9.8S300.8,129,295.4,129z"/>
<g>
	<g>
		<path class="st9" d="M416.1,320.8c0,0-1.3,0.2,0,2.6s1.9,3.3-0.2,4.9s-12.1,3.5-14,5.4H197.6c0,0-1.9-4-4.5-4.9
			c-2.5-0.9-5.4-6.3-5.8-7.3s-5.3-11.1-5.3-16.7c0-0.2,3.6-8.4,3.6-12.2c0-3.8,1.3-10.6,1.9-11.8s-2.8-2.4-0.9-3.5
			c1.9-1.2,38.9-17.6,61-20.2s68-7.5,111.1,27.7c0,0,39.3,0.2,57.6,18.6c2.8,2.6,1.5,5.4,0.9,7.3s-0.4,7.5,0,8.2
			S416.1,320.8,416.1,320.8z"/>
	</g>
	<g>
		<path class="st5" d="M349.3,284.9c-11.4-8.3-23.7-14.5-36.9-18.4c-12.1-3.6-24.7-5.4-38.4-5.4l0,0c-10.6,0-19.7,1.1-25.7,1.8
			c-8.6,1-20,4.4-30.4,8c10.5,8.1,43.6,9,43.6,9L349.3,284.9z"/>
	</g>
	<g>
		<path class="st6" d="M361.8,327.5H258.5h-0.1c-0.2-0.2-21.4-15.6-32.4-40.6v-0.1c-0.2-1.6,1.9-4.1,3.9-6.4
			c1.4-1.6,3.2-3.7,2.8-4.2l0.5-0.3c0.5,0.9-0.8,2.4-2.9,4.9c-1.9,2.2-4,4.6-3.8,6c10.6,24.1,30.8,39.3,32.1,40.3h103.1L361.8,327.5
			L361.8,327.5z"/>
	</g>
	<g>
		<g>
			<path class="st2" d="M201,282l-13.9,0.2c-0.6,2.3-1.3,6.7-1.5,9.7C194,289.7,201,282,201,282z"/>
		</g>
		<g>
			<path class="st2" d="M410.3,304.5c2.8,0,3.8-1.9,4.2-2.7c-6.1-5.4-14.1-9-22.1-11.5C394.7,293.1,404.3,304.5,410.3,304.5z"/>
		</g>
	</g>
	<g>
		<ellipse class="st3" cx="219.8" cy="323.4" rx="19.4" ry="19.8"/>
	</g>
	<g>
		<path class="st6" d="M342.6,287.1l-12.4-1c0,0-2.1-1-2.1-1.9s2.1-5.2,2.1-5.2s6.4-1.3,7.8,1.5c1.4,2.7,2.9,4.4,3.5,4.4
			S342.6,287.1,342.6,287.1z"/>
	</g>
	<g>
		<ellipse class="st3" cx="379.8" cy="323.4" rx="19.4" ry="19.8"/>
	</g>
	<g>
		<ellipse class="st5" cx="379.8" cy="323.4" rx="12" ry="12.2"/>
	</g>
	<g>
		<ellipse class="st5" cx="219.9" cy="323.4" rx="12" ry="12.2"/>
	</g>
	<g>
		<path class="st6" d="M293.5,327.2c0-36.7-8.2-59.1-11.2-66.2h-0.6c2.9,6.8,11.3,29.2,11.3,66.2H293.5z"/>
	</g>
</g>
<rect x="77.2" y="306.1" class="st1" width="40" height="37.4"/>
<g>
	<path class="st2" d="M189.7,311.2h-7.4l-5.7,12.7l3.1,1.7l4.9-6.8c2.4,3.8,5.2,3.4,5.2,3.4v-11H189.7z"/>
</g>
<g>
	<path class="st2" d="M149.4,338.2c-20.2,0-30-13.2-30.4-13.7l2.2-1.6c0.1,0.1,9.5,12.6,28.2,12.6s28.1-12.5,28.2-12.6l2.2,1.6
		C179.4,325.1,169.5,338.2,149.4,338.2z"/>
</g>
<g>
	<path class="st3" d="M121,325.6h-4v-19.3h4c3.1,0,5.7,2.5,5.7,5.7v8C126.6,323,124.1,325.6,121,325.6z"/>
</g>
<g>
	<path class="st1" d="M121.8,320.1c-0.5,0-1-0.4-1-1v-6.4c0-0.5,0.4-1,1-1s1,0.4,1,1v6.4C122.8,319.7,122.3,320.1,121.8,320.1z"/>
</g>
<g>
	<g>
		<g>
			
				<rect x="501.581" y="243.029" transform="matrix(0.9343 0.3566 -0.3566 0.9343 137.6831 -162.4124)" class="st6" width="15.432" height="98.311"/>
		</g>
	</g>
	<g>
		<g>
			<rect x="522.086" y="244.923" class="st6" width="15.432" height="98.311"/>
		</g>
	</g>
	<g>
		<g>
			<path class="st2" d="M512.725,260.58H549.6c0,0-5.12-69.95-26.375-69.95C501.971,190.63,512.725,260.58,512.725,260.58z"/>
		</g>
	</g>
	<g>
		<g>
			<path class="st3" d="M474.385,326.68c0,0,4.961-4.587,15.044,2.501c10.083,7.088,2.692,14.706,2.692,14.706L474.385,326.68z"/>
		</g>
	</g>
	<g>
		<g>
			<path class="st3" d="M512.672,343.9c0,0,0.367-6.747,12.539-8.68c12.172-1.934,12.172,8.68,12.172,8.68H512.672z"/>
		</g>
	</g>
	<g>
		<g>
			<ellipse class="st10" cx="515.949" cy="165.232" rx="11.59" ry="15.648"/>
		</g>
	</g>
	<g>
		<g>
			<polygon class="st10" points="507.94,160.469 499.302,168.933 506.683,168.933 			"/>
		</g>
	</g>
	<g>
		<g>
			<ellipse class="st3" cx="512.018" cy="150.345" rx="8.396" ry="3.269"/>
		</g>
	</g>
	<g>
		<g>
			
				<ellipse transform="matrix(0.9616 -0.2745 0.2745 0.9616 -23.9404 149.6925)" class="st3" cx="522.86" cy="160.382" rx="7.005" ry="12.151"/>
		</g>
	</g>
	<g>
		<g>
			
				<ellipse transform="matrix(0.0817 -0.9967 0.9967 0.0817 310.2365 670.2397)" class="st10" cx="518.822" cy="166.771" rx="5.833" ry="3.363"/>
		</g>
	</g>
	<g>
		<g>
			<rect x="515.949" y="174.892" class="st10" width="7.999" height="15.738"/>
		</g>
	</g>
	<g>
		<g>
			<polygon class="st2" points="529.802,193.095 513.559,193.095 513.559,186.868 529.802,182.034 			"/>
		</g>
	</g>
	<g>
		<g>
			<path class="st3" d="M511.837,176.018c-1.706,0-2.992-2.695-2.992-6.269h0.967c0,3.035,1.069,5.302,2.025,5.302
				c0.956,0,2.025-2.267,2.025-5.302h0.967C514.829,173.323,513.543,176.018,511.837,176.018z"/>
		</g>
	</g>
	<g>
		<g>
			<circle class="st3" cx="511.641" cy="161.682" r="1.918"/>
		</g>
	</g>
	<g>
		<g>
			<circle class="st3" cx="505.832" cy="161.682" r="1.918"/>
		</g>
	</g>
	<g>
		<path class="st10" d="M451.502,242.252c-0.027,0-0.052,0-0.078,0c-9.545-0.144-15.196-6.831-17.03-10.76
			c-1.21-2.592-0.091-5.673,2.501-6.882c2.571-1.204,5.632-0.105,6.858,2.45c0.266,0.527,2.563,4.757,7.826,4.836
			c2.86,0.043,5.143,2.397,5.101,5.255C456.636,239.984,454.326,242.252,451.502,242.252z"/>
	</g>
	<g>
		<path class="st2" d="M498.286,225.347c-8.793,0-17.953-4.932-27.288-14.705l8.425-8.048c5.388,5.642,13.355,12.138,20.697,10.957
			c7.547-1.195,11.819-9.909,11.862-9.997l10.539,4.966c-0.272,0.583-6.832,14.288-20.459,16.521
			C500.81,225.244,499.551,225.347,498.286,225.347z"/>
	</g>
	<g>
		<path class="st5" d="M459.146,222.965l-10.268,10.268c-1.172,1.172-3.071,1.172-4.243,0l-26.059-26.059
			c-1.172-1.172-1.172-3.071,0-4.243l10.268-10.268c1.172-1.172,3.071-1.172,4.243,0l26.059,26.059
			C460.317,219.894,460.317,221.794,459.146,222.965z"/>
		<path class="st3" d="M446.756,234.39c-1.159,0-2.32-0.441-3.204-1.324l-24.809-24.809c-1.765-1.767-1.765-4.641,0-6.408
			l9.019-9.018c1.709-1.71,4.694-1.712,6.407,0l24.809,24.809c0.856,0.856,1.327,1.994,1.327,3.205c0,1.21-0.472,2.348-1.327,3.204
			l-9.018,9.018C449.077,233.948,447.917,234.39,446.756,234.39z M430.966,192.798c-0.865,0-1.678,0.336-2.288,0.948l-9.019,9.018
			c-1.26,1.262-1.26,3.316,0,4.578l24.809,24.809c1.262,1.262,3.316,1.26,4.578,0l9.018-9.018c0.612-0.612,0.948-1.425,0.948-2.288
			c0-0.865-0.336-1.678-0.948-2.29l-24.809-24.809C432.642,193.134,431.829,192.798,430.966,192.798z"/>
	</g>
	<g>
		<path class="st9" d="M429.783,204.792l5.529-5.529l3.686,11.057l3.686-3.686l5.989,19.811l-7.832-10.597l-4.607,4.607
			L429.783,204.792z"/>
	</g>
	<g>
		<path class="st3" d="M428.694,196.475l-6.306,6.306c-0.391,0.391-1.024,0.391-1.414,0l-1.124-1.124l7.721-7.721l1.124,1.124
			C429.085,195.452,429.085,196.085,428.694,196.475z"/>
	</g>
	<g>
		<path class="st10" d="M451.716,240.959c-0.238,0-0.479-0.023-0.721-0.068c-2.109-0.396-3.496-2.426-3.1-4.534
			c0.442-2.354-0.344-4.57-0.353-4.59c-0.785-1.996,0.197-4.252,2.192-5.037c2.001-0.786,4.25,0.197,5.037,2.192
			c0.168,0.427,1.616,4.303,0.757,8.869C455.178,239.656,453.547,240.959,451.716,240.959z"/>
	</g>
	<g>
		<path class="st2" d="M483.777,261.041c-11.651,0-23.896-6.685-36.501-19.954l8.448-8.025c12.09,12.727,22.97,18.047,32.351,15.824
			c8.901-2.113,15.603-10.804,19.657-17.723c4.732-8.073,7.08-15.751,7.104-15.828l11.158,3.354
			c-0.437,1.456-10.982,35.75-35.196,41.526C488.484,260.765,486.143,261.041,483.777,261.041z"/>
	</g>
	<g>
		<path class="st10" d="M468.373,218.129c-1.621,0-3.131-1.021-3.679-2.641c-0.686-2.033,0.403-4.236,2.435-4.923
			c0.193-0.068,4.968-1.799,5.507-5.688c-2.534-0.541-9.842,0.746-16.343,2.954c-2.033,0.693-4.238-0.396-4.927-2.426
			c-0.692-2.03,0.396-4.236,2.426-4.927c5.37-1.827,18.448-5.652,23.911-1.74c1.772,1.269,2.748,3.193,2.748,5.416
			c0,7.977-6.812,12.407-10.836,13.767C469.205,218.062,468.785,218.129,468.373,218.129z"/>
	</g>
</g>
</svg>
