<?xml version="1.0" encoding="utf-8"?>
<!-- Generator: Adobe Illustrator 25.0.0, SVG Export Plug-In . SVG Version: 6.00 Build 0)  -->
<svg version="1.1" id="Ebene_1" xmlns="http://www.w3.org/2000/svg" xmlns:xlink="http://www.w3.org/1999/xlink" x="0px" y="0px"
	 viewBox="0 0 600 350" style="enable-background:new 0 0 600 350;" xml:space="preserve">
<style type="text/css">
	.st0{fill:#CCFFFF;}
	.st1{fill:#00E207;}
	.st2{fill:#FF6666;}
	.st3{fill:#000033;}
	.st4{fill:#663300;}
	.st5{fill:#FFFFFF;}
	.st6{fill:#006600;}
	.st7{fill:#CCCCCC;}
	.st8{fill:#FFFF00;}
	.st9{fill:#F7D5D5;}
	.st10{fill:#0FDD42;}
</style>
<rect y="0" class="st0" width="600" height="350"/>
<g>
	<path class="st1" d="M164.7,324c-13.7,0-25.3,8.8-29.6,21h59.3C190.9,335.5,177.4,324,164.7,324z"/>
</g>
<g>
	<path class="st1" d="M551.9,324c-13.7,0-25.3,8.8-29.6,21h59.3C578.2,335.5,564.7,324,551.9,324z"/>
</g>
<g>
	<rect x="21.4" y="261.3" class="st2" width="7.3" height="30.8"/>
</g>
<g>
	<polyline class="st1" points="10,343.4 10,306.1 43.6,261.3 77.2,306.1 77.2,343.4 	"/>
</g>
<g>
	<polygon class="st2" points="77.2,306.1 117.2,306.1 83.6,261.3 43.6,261.3 	"/>
</g>
<g>
	<polygon class="st3" points="79.1,300.6 108.1,300.6 82.8,266.8 53.7,266.8 	"/>
</g>
<g>
	<polyline class="st4" points="47.3,343.4 47.3,313.6 69.8,313.6 69.8,343.4 	"/>
</g>
<g>
	<rect x="17.5" y="313.6" class="st3" width="22.4" height="14.9"/>
</g>
<g>
	<rect x="32.4" y="283.7" class="st3" width="22.4" height="14.9"/>
</g>
<g>
	<rect x="32.4" y="283.7" class="st2" width="5.2" height="14.9"/>
</g>
<g>
	<rect x="49.6" y="283.7" class="st2" width="5.2" height="14.9"/>
</g>
<g>
	<polygon class="st5" points="89.6,275.8 60.6,275.8 61.1,276.6 90.1,276.6 	"/>
	<polygon class="st5" points="95.2,283.3 66.2,283.3 66.7,284.1 95.7,284.1 	"/>
	<polygon class="st5" points="100.8,290.8 71.8,290.8 72.3,291.5 101.3,291.5 	"/>
</g>
<g>
	<polyline class="st4" points="581.7,343.7 581.7,302.4 588.4,302.4 588.4,343.7 	"/>
</g>
<g>
	<ellipse class="st6" cx="585.1" cy="297.9" rx="12.7" ry="14.9"/>
</g>
<g>
	<ellipse class="st6" cx="585.1" cy="313.6" rx="12.7" ry="14.9"/>
</g>
<g>
	<rect y="343.3" class="st7" width="600" height="6.2"/>
</g>
<g>
	<g>
		<path class="st6" d="M147.2,337.3c-8.2,0-14.9,5.7-14.9,12.7h29.9C162.2,343,155.5,337.3,147.2,337.3z"/>
	</g>
</g>
<g>
	<g>
		<path class="st6" d="M449.2,337.3c-8.2,0-14.9,5.7-14.9,12.7h29.9C464.1,343,457.4,337.3,449.2,337.3z"/>
	</g>
</g>
<g>
	<circle class="st8" cx="143.5" cy="139.2" r="21.6"/>
</g>
<g>
	<polygon class="st8" points="112.6,160.8 59.4,199.1 64.3,208.6 	"/>
</g>
<g>
	<polygon class="st8" points="117,167.6 88,206.6 95.1,213.5 	"/>
</g>
<path class="st5" d="M348,161.9h-7.9c0-0.1,0-0.2,0-0.4c0-5.6-4.6-10.2-10.2-10.2s-10.2,4.6-10.2,10.2c0,0.1,0,0.2,0,0.4h-2.2
	c-5.4,0-9.8,4.4-9.8,9.8s4.4,9.8,9.8,9.8H348c5.4,0,9.8-4.4,9.8-9.8S353.4,161.9,348,161.9z"/>
<path class="st5" d="M295.4,129h-7.9c0-0.1,0-0.2,0-0.4c0-5.6-4.6-10.2-10.2-10.2s-10.2,4.6-10.2,10.2c0,0.1,0,0.2,0,0.4h-2.2
	c-5.4,0-9.8,4.4-9.8,9.8s4.4,9.8,9.8,9.8h30.5c5.4,0,9.8-4.4,9.8-9.8S300.8,129,295.4,129z"/>
<g>
	<g>
		
			<rect x="456.6" y="282.1" transform="matrix(0.3566 -0.9343 0.9343 0.3566 55.6217 661.0574)" class="st6" width="102.3" height="16.1"/>
	</g>
	<g>
		<rect x="521" y="241" class="st6" width="16.1" height="102.3"/>
	</g>
	<g>
		<path class="st2" d="M511.2,257.3h38.4c0,0-5.3-72.8-27.4-72.8C500.1,184.5,511.2,257.3,511.2,257.3z"/>
	</g>
	<g>
		<path class="st3" d="M471.4,326c0,0,5.2-4.8,15.6,2.6c10.5,7.4,2.8,15.3,2.8,15.3L471.4,326z"/>
	</g>
	<g>
		<path class="st3" d="M511.2,343.9c0,0,0.4-7,13-9c12.7-2,12.7,9,12.7,9H511.2z"/>
	</g>
	<g>
		<ellipse class="st9" cx="514.6" cy="158.1" rx="12.1" ry="16.3"/>
	</g>
	<g>
		<path class="st2" d="M469.1,264.3c-9.5,0-18.9-3.7-28-11l7.6-9.4c9,7.3,17.8,9.8,26.9,7.5c27.5-6.9,47.7-53.6,47.9-54.1l11.1,4.7
			c-0.9,2.1-22.8,52.8-56,61.1C475.4,263.9,472.2,264.3,469.1,264.3z"/>
	</g>
	<g>
		<g>
			<rect x="399.9" y="192.1" class="st5" width="56" height="37.6"/>
		</g>
		<g>
			<path class="st7" d="M452.9,195.1v31.6h-50v-31.6H452.9 M458.9,189.1h-62v43.7h62V189.1L458.9,189.1z"/>
		</g>
	</g>
	<g>
		<polygon class="st7" points="482.4,252.7 420.3,252.7 396.8,232.5 458.9,232.5 		"/>
	</g>
	<g>
		<path class="st5" d="M469.9,248.4h-46.4l-18.2-15.6h46.4L469.9,248.4z M423.8,247.4h43.4l-15.8-13.6H408L423.8,247.4z"/>
	</g>
	<g>
		<path class="st9" d="M479.8,230.5c-0.8,0-1.6-0.2-2.3-0.7c-1.8-1.3-2.2-3.8-1-5.6c0.7-1,1.5-2.9,1.3-3.9c0-0.1-0.1-0.4-0.8-0.8
			c-1.1,0.8-2.7,4.5-3.4,7.8c-0.5,2.2-2.6,3.6-4.8,3.1c-2.2-0.5-3.6-2.6-3.1-4.8c0.5-2.5,2.7-11,8-13.5c2.2-1,4.6-1,6.9,0.2
			c3.3,1.7,4.5,4.2,5,6.1c1.2,5-2.1,9.9-2.5,10.4C482.3,229.9,481,230.5,479.8,230.5z"/>
	</g>
	<g>
		<path class="st2" d="M484.3,214.4l-11.8-2.5c1.8-8.7,8.1-19.8,27.6-23.5c10.6-2,20.5-0.9,20.9-0.8l-1.5,12
			C519.1,199.5,488.1,196.1,484.3,214.4z"/>
	</g>
	<g>
		<polygon class="st9" points="506.3,153.2 497.3,162 505,162 		"/>
	</g>
	<g>
		<ellipse class="st3" cx="510.5" cy="142.6" rx="8.7" ry="3.4"/>
	</g>
	<g>
		
			<ellipse transform="matrix(0.9616 -0.2745 0.2745 0.9616 -21.9784 149.1135)" class="st3" cx="521.8" cy="153.1" rx="7.3" ry="12.6"/>
	</g>
	<g>
		
			<ellipse transform="matrix(8.169650e-02 -0.9967 0.9967 8.169650e-02 316.2216 662.5179)" class="st9" cx="517.6" cy="159.7" rx="6.1" ry="3.5"/>
	</g>
	<g>
		<rect x="514.6" y="168.2" class="st9" width="8.3" height="16.4"/>
	</g>
	<g>
		<polygon class="st2" points="529,187.1 512.1,187.1 512.1,180.6 529,175.6 		"/>
	</g>
	<g>
		<path class="st3" d="M510.3,169.3c-1.8,0-3.1-2.8-3.1-6.5h1c0,3.2,1.1,5.5,2.1,5.5c1,0,2.1-2.4,2.1-5.5h1
			C513.4,166.5,512.1,169.3,510.3,169.3z"/>
	</g>
	<g>
		<path class="st3" d="M510.1,152.4c1.1,0,2,0.9,2,2s-0.9,2-2,2s-2-0.9-2-2S509,152.4,510.1,152.4z"/>
	</g>
	<g>
		<circle class="st3" cx="504.1" cy="154.4" r="2"/>
	</g>
	<g>
		<polygon class="st1" points="428.1,199.8 418.8,210.5 428.1,210.5 418.8,220.6 438.9,208.2 431.1,205.5 438.9,199.8 		"/>
	</g>
</g>
<g>
	<g>
		<path class="st10" d="M416.1,320.8c0,0-1.3,0.2,0,2.6c1.3,2.4,1.9,3.3-0.2,4.9c-2.1,1.6-12.1,3.5-14,5.4H197.6c0,0-1.9-4-4.5-4.9
			c-2.5-0.9-5.4-6.3-5.8-7.3s-5.3-11.1-5.3-16.7c0-0.2,3.6-8.4,3.6-12.2c0-3.8,1.3-10.6,1.9-11.8s-2.8-2.4-0.9-3.5
			c1.9-1.2,38.9-17.6,61-20.2c22.1-2.6,68-7.5,111.1,27.7c0,0,39.3,0.2,57.6,18.6c2.8,2.6,1.5,5.4,0.9,7.3s-0.4,7.5,0,8.2
			C417.6,319.6,416.1,320.8,416.1,320.8z"/>
	</g>
	<g>
		<path class="st5" d="M349.3,284.9c-11.4-8.3-23.7-14.5-36.9-18.4c-12.1-3.6-24.7-5.4-38.4-5.4h0c-10.6,0-19.7,1.1-25.7,1.8
			c-8.6,1-20,4.4-30.4,8c10.5,8.1,43.6,9,43.6,9L349.3,284.9z"/>
	</g>
	<g>
		<path class="st6" d="M361.8,327.5H258.5l-0.1,0c-0.2-0.2-21.4-15.6-32.4-40.6l0-0.1c-0.2-1.6,1.9-4.1,3.9-6.4
			c1.4-1.6,3.2-3.7,2.8-4.2l0.5-0.3c0.5,0.9-0.8,2.4-2.9,4.9c-1.9,2.2-4,4.6-3.8,6c10.6,24.1,30.8,39.3,32.1,40.3h103.1L361.8,327.5
			L361.8,327.5z"/>
	</g>
	<g>
		<g>
			<path class="st2" d="M201,282l-13.9,0.2c-0.6,2.3-1.3,6.7-1.5,9.7C194,289.7,201,282,201,282z"/>
		</g>
		<g>
			<path class="st2" d="M410.3,304.5c2.8,0,3.8-1.9,4.2-2.7c-6.1-5.4-14.1-9-22.1-11.5C394.7,293.1,404.3,304.5,410.3,304.5z"/>
		</g>
	</g>
	<g>
		<ellipse class="st3" cx="219.8" cy="323.4" rx="19.4" ry="19.8"/>
	</g>
	<g>
		<path class="st6" d="M342.6,287.1l-12.4-1c0,0-2.1-1-2.1-1.9s2.1-5.2,2.1-5.2s6.4-1.3,7.8,1.5c1.4,2.7,2.9,4.4,3.5,4.4
			S342.6,287.1,342.6,287.1z"/>
	</g>
	<g>
		<ellipse class="st3" cx="379.8" cy="323.4" rx="19.4" ry="19.8"/>
	</g>
	<g>
		<ellipse class="st5" cx="379.8" cy="323.4" rx="12" ry="12.2"/>
	</g>
	<g>
		<ellipse class="st5" cx="219.9" cy="323.4" rx="12" ry="12.2"/>
	</g>
	<g>
		<path class="st6" d="M293.5,327.2c0-36.7-8.2-59.1-11.2-66.2h-0.6c2.9,6.8,11.3,29.2,11.3,66.2H293.5z"/>
	</g>
</g>
<rect x="77.2" y="306.1" class="st1" width="40" height="37.4"/>
<g>
	<path class="st2" d="M189.7,311.2h-7.4l-5.7,12.7l3.1,1.7l4.9-6.8c2.4,3.8,5.2,3.4,5.2,3.4V311.2z"/>
</g>
<g>
	<path class="st2" d="M149.4,338.2c-20.2,0-30-13.2-30.4-13.7l2.2-1.6c0.1,0.1,9.5,12.6,28.2,12.6c18.7,0,28.1-12.5,28.2-12.6
		l2.2,1.6C179.4,325.1,169.5,338.2,149.4,338.2z"/>
</g>
<g>
	<path class="st3" d="M121,325.6h-4v-19.3h4c3.1,0,5.7,2.5,5.7,5.7v8C126.6,323,124.1,325.6,121,325.6z"/>
</g>
<g>
	<path class="st1" d="M121.8,320.1c-0.5,0-1-0.4-1-1v-6.4c0-0.5,0.4-1,1-1s1,0.4,1,1v6.4C122.8,319.7,122.3,320.1,121.8,320.1z"/>
</g>
</svg>
