<?xml version="1.0" encoding="utf-8"?>
<!-- Generator: Adobe Illustrator 24.0.3, SVG Export Plug-In . SVG Version: 6.00 Build 0)  -->
<svg version="1.1" id="Ebene_1" xmlns="http://www.w3.org/2000/svg" xmlns:xlink="http://www.w3.org/1999/xlink" x="0px" y="0px"
	viewBox="0 0 1024 350" style="enable-background:new 0 0 1024 350;" xml:space="preserve">
<style type="text/css">
	.st0{fill:url(#SVGID_1_);}
	.st1{fill:#00E207;}
	.st2{fill:#FF6666;}
	.st3{fill:#000033;}
	.st4{fill:#663300;}
	.st5{fill:#FFFFFF;}
	.st6{fill:#006600;}
	.st7{fill:#CCCCCC;}
	.st8{fill:#FFFF00;}
	.st9{fill:#0FDD42;}
	.st10{fill:#F7D5D5;}
</style>
<linearGradient id="SVGID_1_" gradientUnits="userSpaceOnUse" x1="512" y1="0" x2="512" y2="350">
	<stop  offset="0" style="stop-color:#FFFFFF"/>
	<stop  offset="1" style="stop-color:#CCFFFF"/>
</linearGradient>
<rect class="st0" width="1024" height="350"/>
<g>
	<path class="st1" d="M84.4,321c-15.5,0-28.7,8.5-33.8,20.5c-5.8-7.2-14.6-11.8-24.5-11.8c-10.8,0-20.4,5.5-26,13.8v6.4h120.3
		C118.9,333.8,103.4,321,84.4,321z"/>
	<path class="st1" d="M285.7,329c-13.7,0-25.3,8.8-29.6,21h59.3C311,337.8,299.4,329,285.7,329z"/>
	<path class="st1" d="M860,321c-13.5,0-25.3,6.5-31.5,16.1c-6.2-9.6-18-16.1-31.5-16.1c-15.5,0-28.7,8.5-33.8,20.5
		c-5.8-7.2-14.6-11.8-24.5-11.8c-13.4,0-24.9,8.4-29.4,20.2H896C894.5,333.8,878.9,321,860,321z"/>
	<path class="st1" d="M995.8,326.8c-14.5,0-26.7,9.8-30.3,23.2h58.6v-5.6C1018.9,334,1008.2,326.8,995.8,326.8z"/>
</g>
<g>
	<polyline class="st1" points="222.9,343.4 222.9,306.1 290.1,306.1 290.1,343.4 	"/>
</g>
<g>
	<rect x="167" y="261.3" class="st2" width="7.3" height="30.8"/>
</g>
<g>
	<polyline class="st1" points="155.6,343.4 155.6,306.1 189.3,261.3 222.9,306.1 222.9,343.4 	"/>
</g>
<g>
	<polygon class="st2" points="290.1,306.1 222.9,306.1 189.3,261.3 290.1,261.3 	"/>
</g>
<g>
	<rect x="230.3" y="268.8" class="st3" width="52.3" height="29.9"/>
</g>
<g>
	<polyline class="st4" points="230.3,343.4 230.3,313.6 282.6,313.6 282.6,343.4 	"/>
</g>
<g>
	<polyline class="st4" points="193,343.4 193,313.6 215.4,313.6 215.4,343.4 	"/>
</g>
<g>
	<rect x="163.1" y="313.6" class="st3" width="22.4" height="14.9"/>
</g>
<g>
	<rect x="178.1" y="283.7" class="st3" width="22.4" height="14.9"/>
</g>
<g>
	<rect x="178.1" y="283.7" class="st2" width="5.2" height="14.9"/>
</g>
<g>
	<rect x="195.2" y="283.7" class="st2" width="5.2" height="14.9"/>
</g>
<g>
	<rect x="230.3" y="275.8" class="st5" width="52.3" height="0.7"/>
</g>
<g>
	<rect x="230.3" y="283.3" class="st5" width="52.3" height="0.7"/>
</g>
<g>
	<rect x="230.3" y="290.8" class="st5" width="52.3" height="0.7"/>
</g>
<g>
	<polyline class="st4" points="128,343.7 128,302.4 134.7,302.4 134.7,343.7 	"/>
</g>
<g>
	<ellipse class="st6" cx="131.4" cy="297.9" rx="12.7" ry="14.9"/>
</g>
<g>
	<ellipse class="st6" cx="131.4" cy="313.6" rx="12.7" ry="14.9"/>
</g>
<g>
	<rect y="343.5" class="st7" width="1024" height="6.5"/>
</g>
<g>
	<g>
		<path class="st6" d="M47,337.3c-8.2,0-14.9,5.7-14.9,12.7H62C62,343,55.3,337.3,47,337.3z"/>
	</g>
</g>
<g>
	<g>
		<path class="st6" d="M915.6,337.3c-8.2,0-14.9,5.7-14.9,12.7h29.9C930.5,343,923.8,337.3,915.6,337.3z"/>
	</g>
</g>
<g>
	<circle class="st8" cx="327.2" cy="189.3" r="21.6"/>
</g>
<g>
	<polygon class="st8" points="296.2,210.9 243,249.2 248,258.6 	"/>
</g>
<g>
	<polygon class="st8" points="300.6,217.7 271.7,256.6 278.7,263.5 	"/>
</g>
<path class="st5" d="M658.7,191.9h-7.9c0-0.1,0-0.2,0-0.4c0-5.6-4.6-10.2-10.2-10.2s-10.2,4.6-10.2,10.2c0,0.1,0,0.2,0,0.4h-2.2
	c-5.4,0-9.8,4.4-9.8,9.8s4.4,9.8,9.8,9.8h30.5c5.4,0,9.8-4.4,9.8-9.8S664.2,191.9,658.7,191.9z"/>
<path class="st5" d="M875.3,259.1h-7.9c0-0.1,0-0.2,0-0.4c0-5.6-4.6-10.2-10.2-10.2s-10.2,4.6-10.2,10.2c0,0.1,0,0.2,0,0.4h-2.2
	c-5.4,0-9.8,4.4-9.8,9.8s4.4,9.8,9.8,9.8h30.5c5.4,0,9.8-4.4,9.8-9.8S880.7,259.1,875.3,259.1z"/>
<g>
	<g>
		<path class="st9" d="M690.4,312.2c0,0-1.8,0.3,0,3.6s2.7,4.6-0.3,6.9s-16.9,4.9-19.5,7.5H386.2c0,0-2.7-5.6-6.2-6.9
			s-7.5-8.8-8.1-10.1c-0.6-1.3-7.4-15.4-7.4-23.2c0-0.3,5-11.7,5-17c0-5.2,1.8-14.7,2.7-16.4s-3.8-3.3-1.2-4.9s54.1-24.6,84.9-28.2
			s94.6-10.5,154.7,38.6c0,0,54.7,0.3,80.2,25.9c3.8,3.6,2.1,7.5,1.2,10.1s-0.6,10.4,0,11.4C692.5,310.6,690.4,312.2,690.4,312.2z"
			/>
	</g>
	<g>
		<path class="st5" d="M597.4,262.2c-15.8-11.5-33.1-20.2-51.3-25.6c-16.8-5-34.3-7.5-53.5-7.5l0,0c-14.7,0-27.4,1.5-35.8,2.5
			c-12,1.4-27.8,6.1-42.3,11.2c14.6,11.3,60.8,12.6,60.8,12.6L597.4,262.2z"/>
	</g>
	<g>
		<path class="st6" d="M614.8,321.6H471l-0.1-0.1c-0.3-0.2-29.8-21.7-45.1-56.5v-0.1c-0.3-2.2,2.6-5.7,5.5-9c2-2.3,4.4-5.1,4-5.9
			l0.6-0.4c0.7,1.2-1.1,3.4-4,6.8c-2.6,3-5.6,6.4-5.3,8.3c14.7,33.5,42.8,54.7,44.7,56h143.5L614.8,321.6L614.8,321.6z"/>
	</g>
	<g>
		<g>
			<path class="st2" d="M390.9,258.2l-19.4,0.2c-0.8,3.1-1.9,9.3-2,13.5C381.2,268.9,390.9,258.2,390.9,258.2z"/>
		</g>
		<g>
			<path class="st2" d="M682.3,289.5c3.8,0,5.3-2.6,5.8-3.8c-8.5-7.5-19.7-12.6-30.8-16C660.6,273.7,674,289.5,682.3,289.5z"/>
		</g>
	</g>
	<g>
		<ellipse class="st3" cx="417.1" cy="315.9" rx="27.1" ry="27.5"/>
	</g>
	<g>
		<path class="st6" d="M588.1,265.3l-17.2-1.5c0,0-2.9-1.5-2.9-2.6s2.9-7.3,2.9-7.3s8.9-1.8,10.9,2s4,6.1,4.9,6.1
			S588.1,265.3,588.1,265.3z"/>
	</g>
	<g>
		<ellipse class="st3" cx="639.8" cy="315.9" rx="27.1" ry="27.5"/>
	</g>
	<g>
		<ellipse class="st5" cx="639.8" cy="315.9" rx="16.7" ry="17"/>
	</g>
	<g>
		<ellipse class="st5" cx="417.2" cy="315.9" rx="16.7" ry="17"/>
	</g>
	<g>
		<path class="st6" d="M519.8,321.1c0-51-11.4-82.3-15.6-92.2h-0.8c4.1,9.4,15.7,40.7,15.7,92.2H519.8z"/>
	</g>
</g>
<g>
	<g>
		<path class="st2" d="M373.8,300.3H363l-8.4,18.5l4.5,2.5l7.1-10c3.5,5.5,7.6,4.9,7.6,4.9L373.8,300.3L373.8,300.3z"/>
	</g>
	<g>
		<path class="st2" d="M325.2,335c-21.8,0-32.5-14.3-32.9-14.9l2.4-1.8c0.1,0.1,10.3,13.6,30.5,13.6c20.3,0,30.4-13.5,30.5-13.6
			l2.4,1.8C357.7,320.7,347,335,325.2,335z"/>
	</g>
	<g>
		<path class="st3" d="M295.1,321.3h-5v-30h5c5.5,0,10,4.5,10,10v10C305.1,316.8,300.6,321.3,295.1,321.3z"/>
	</g>
	<g>
		<path class="st1" d="M297.6,312.8c-0.8,0-1.5-0.7-1.5-1.5v-10c0-0.8,0.7-1.5,1.5-1.5s1.5,0.7,1.5,1.5v10
			C299.1,312.1,298.4,312.8,297.6,312.8z"/>
	</g>
</g>
<g>
	<g>
		<g>
			
				<rect x="751.2" y="298" transform="matrix(0.3566 -0.9343 0.9343 0.3566 223.8165 932.8984)" class="st6" width="75.9" height="11.9"/>
		</g>
	</g>
	<g>
		<g>
			<rect x="799" y="267.4" class="st6" width="11.9" height="75.9"/>
		</g>
	</g>
	<g>
		<g>
			<path class="st2" d="M791.8,279.5h28.5c0,0-4-54-20.4-54S791.8,279.5,791.8,279.5z"/>
		</g>
	</g>
	<g>
		<g>
			<path class="st3" d="M762.2,330.6c0,0,3.8-3.5,11.6,1.9c7.8,5.5,2.1,11.4,2.1,11.4L762.2,330.6z"/>
		</g>
	</g>
	<g>
		<g>
			<path class="st3" d="M791.8,343.9c0,0,0.3-5.2,9.7-6.7c9.4-1.5,9.4,6.7,9.4,6.7H791.8z"/>
		</g>
	</g>
	<g>
		<g>
			<ellipse class="st10" cx="794.3" cy="205.9" rx="9" ry="12.1"/>
		</g>
	</g>
	<g>
		<g>
			<polygon class="st10" points="788.1,202.2 781.4,208.7 787.1,208.7 			"/>
		</g>
	</g>
	<g>
		<g>
			<ellipse class="st3" cx="791.3" cy="194.4" rx="6.5" ry="2.5"/>
		</g>
	</g>
	<g>
		<g>
			
				<ellipse transform="matrix(0.9616 -0.2745 0.2745 0.9616 -24.7737 227.2675)" class="st3" cx="799.7" cy="202.2" rx="5.4" ry="9.4"/>
		</g>
	</g>
	<g>
		<g>
			
				<ellipse transform="matrix(8.169650e-02 -0.9967 0.9967 8.169650e-02 525.1253 984.029)" class="st10" cx="796.6" cy="207" rx="4.5" ry="2.6"/>
		</g>
	</g>
	<g>
		<g>
			<rect x="794.3" y="213.3" class="st10" width="6.2" height="12.2"/>
		</g>
	</g>
	<g>
		<g>
			<polygon class="st2" points="805,227.4 792.5,227.4 792.5,222.6 805,218.9 			"/>
		</g>
	</g>
	<g>
		<g>
			<path class="st3" d="M791.1,214.2c-1.3,0-2.3-2.1-2.3-4.8h0.7c0,2.3,0.8,4.1,1.6,4.1c0.7,0,1.6-1.8,1.6-4.1h0.7
				C793.4,212.1,792.4,214.2,791.1,214.2z"/>
		</g>
	</g>
	<g>
		<g>
			<circle class="st3" cx="791" cy="203.1" r="1.5"/>
		</g>
	</g>
	<g>
		<g>
			<circle class="st3" cx="786.5" cy="203.1" r="1.5"/>
		</g>
	</g>
	<g>
		<path class="st10" d="M744.5,265.4C744.5,265.4,744.5,265.4,744.5,265.4c-7.4-0.1-11.8-5.3-13.2-8.3c-0.9-2-0.1-4.4,1.9-5.3
			c2-0.9,4.4-0.1,5.3,1.9c0.2,0.4,2,3.7,6,3.7c2.2,0,4,1.9,3.9,4.1C748.5,263.6,746.7,265.4,744.5,265.4z"/>
	</g>
	<g>
		<path class="st2" d="M780.7,252.3c-6.8,0-13.9-3.8-21.1-11.4l6.5-6.2c4.2,4.4,10.3,9.4,16,8.5c5.8-0.9,9.1-7.7,9.2-7.7l8.1,3.8
			c-0.2,0.4-5.3,11-15.8,12.8C782.6,252.2,781.6,252.3,780.7,252.3z"/>
	</g>
	<g>
		<path class="st5" d="M749.9,251l-7,7c-1.2,1.2-3.1,1.2-4.2,0l-19.2-19.2c-1.2-1.2-1.2-3.1,0-4.2l7-7c1.2-1.2,3.1-1.2,4.2,0
			l19.2,19.2C751.1,247.9,751.1,249.8,749.9,251z"/>
		<path class="st3" d="M740.9,259.3c-0.9,0-1.8-0.3-2.5-1l-19.2-19.2c-1.4-1.4-1.4-3.6,0-4.9l7-7c1.3-1.3,3.6-1.3,4.9,0l19.2,19.2
			c0.7,0.7,1,1.5,1,2.5c0,0.9-0.4,1.8-1,2.5l-7,7C742.7,259,741.8,259.3,740.9,259.3z M728.7,227.2c-0.7,0-1.3,0.3-1.8,0.7l-7,7
			c-1,1-1,2.6,0,3.5l19.2,19.2c1,1,2.6,1,3.5,0l7-7c0.5-0.5,0.7-1.1,0.7-1.8c0-0.7-0.3-1.3-0.7-1.8l-19.2-19.2
			C730,227.4,729.3,227.2,728.7,227.2z"/>
	</g>
	<g>
		<path class="st9" d="M727.7,236.4l4.3-4.3l2.8,8.5l2.8-2.8l4.6,15.3l-6-8.2l-3.6,3.6L727.7,236.4z"/>
	</g>
	<g>
		<path class="st3" d="M726.7,230.2l-4.5,4.6c-0.4,0.4-1,0.4-1.4,0l-0.7-0.7l6-6l0.7,0.7C727.1,229.2,727.1,229.8,726.7,230.2z"/>
	</g>
	<g>
		<path class="st10" d="M744.7,264.4c-0.2,0-0.4,0-0.6-0.1c-1.6-0.3-2.7-1.9-2.4-3.5c0.3-1.8-0.3-3.5-0.3-3.5
			c-0.6-1.5,0.2-3.3,1.7-3.9c1.5-0.6,3.3,0.2,3.9,1.7c0.1,0.3,1.2,3.3,0.6,6.9C747.4,263.4,746.1,264.4,744.7,264.4z"/>
	</g>
	<g>
		<path class="st2" d="M769.5,279.9c-9,0-18.5-5.2-28.2-15.4l6.5-6.2c9.3,9.8,17.7,13.9,25,12.2c6.9-1.6,12.1-8.3,15.2-13.7
			c3.7-6.2,5.5-12.2,5.5-12.2l8.6,2.6c-0.3,1.1-8.5,27.6-27.2,32.1C773.1,279.7,771.3,279.9,769.5,279.9z"/>
	</g>
	<g>
		<path class="st10" d="M757.6,246.7c-1.3,0-2.4-0.8-2.8-2c-0.5-1.6,0.3-3.3,1.9-3.8c0.1-0.1,3.8-1.4,4.3-4.4
			c-2-0.4-7.6,0.6-12.6,2.3c-1.6,0.5-3.3-0.3-3.8-1.9c-0.5-1.6,0.3-3.3,1.9-3.8c4.1-1.4,14.2-4.4,18.5-1.3c1.4,1,2.1,2.5,2.1,4.2
			c0,6.2-5.3,9.6-8.4,10.6C758.2,246.7,757.9,246.7,757.6,246.7z"/>
	</g>
</g>
</svg>
