<?xml version="1.0" encoding="utf-8"?>
<!-- Generator: Adobe Illustrator 25.0.0, SVG Export Plug-In . SVG Version: 6.00 Build 0)  -->
<svg version="1.1" id="Ebene_1" xmlns="http://www.w3.org/2000/svg" xmlns:xlink="http://www.w3.org/1999/xlink" x="0px" y="0px"
	 viewBox="0 0 1024 350" style="enable-background:new 0 0 1024 350;" xml:space="preserve">
<style type="text/css">
	.st0{fill:#CCFFFF;}
	.st1{fill:#00E207;}
	.st2{fill:#FF6666;}
	.st3{fill:#000033;}
	.st4{fill:#663300;}
	.st5{fill:#FFFFFF;}
	.st6{fill:#006600;}
	.st7{fill:#CCCCCC;}
	.st8{fill:#FFFF00;}
	.st9{fill:#0FDD42;}
	.st10{fill:#F7D5D5;}
</style>
<rect y="0" class="st0" width="1024" height="350"/>
<g>
	<path class="st1" d="M84.4,321c-15.5,0-28.7,8.5-33.8,20.5c-5.8-7.2-14.6-11.8-24.5-11.8c-10.8,0-20.4,5.5-26,13.8v6.4h120.3
		C118.9,333.8,103.4,321,84.4,321z"/>
	<path class="st1" d="M285.7,329c-13.7,0-25.3,8.8-29.6,21h59.3C311,337.8,299.4,329,285.7,329z"/>
	<path class="st1" d="M860,321c-13.5,0-25.3,6.5-31.5,16.1c-6.2-9.6-18-16.1-31.5-16.1c-15.5,0-28.7,8.5-33.8,20.5
		c-5.8-7.2-14.6-11.8-24.5-11.8c-13.4,0-24.9,8.4-29.4,20.2H896C894.5,333.8,878.9,321,860,321z"/>
	<path class="st1" d="M995.8,326.8c-14.5,0-26.7,9.8-30.3,23.2h58.6v-5.6C1018.9,334,1008.2,326.8,995.8,326.8z"/>
</g>
<g>
	<polyline class="st1" points="222.9,343.4 222.9,306.1 290.1,306.1 290.1,343.4 	"/>
</g>
<g>
	<rect x="167" y="261.3" class="st2" width="7.3" height="30.8"/>
</g>
<g>
	<polyline class="st1" points="155.6,343.4 155.6,306.1 189.3,261.3 222.9,306.1 222.9,343.4 	"/>
</g>
<g>
	<polygon class="st2" points="290.1,306.1 222.9,306.1 189.3,261.3 290.1,261.3 	"/>
</g>
<g>
	<rect x="230.3" y="268.8" class="st3" width="52.3" height="29.9"/>
</g>
<g>
	<polyline class="st4" points="230.3,343.4 230.3,313.6 282.6,313.6 282.6,343.4 	"/>
</g>
<g>
	<polyline class="st4" points="193,343.4 193,313.6 215.4,313.6 215.4,343.4 	"/>
</g>
<g>
	<rect x="163.1" y="313.6" class="st3" width="22.4" height="14.9"/>
</g>
<g>
	<rect x="178.1" y="283.7" class="st3" width="22.4" height="14.9"/>
</g>
<g>
	<rect x="178.1" y="283.7" class="st2" width="5.2" height="14.9"/>
</g>
<g>
	<rect x="195.2" y="283.7" class="st2" width="5.2" height="14.9"/>
</g>
<g>
	<rect x="230.3" y="275.8" class="st5" width="52.3" height="0.7"/>
</g>
<g>
	<rect x="230.3" y="283.3" class="st5" width="52.3" height="0.7"/>
</g>
<g>
	<rect x="230.3" y="290.8" class="st5" width="52.3" height="0.7"/>
</g>
<g>
	<polyline class="st4" points="128,343.7 128,302.4 134.7,302.4 134.7,343.7 	"/>
</g>
<g>
	<ellipse class="st6" cx="131.4" cy="297.9" rx="12.7" ry="14.9"/>
</g>
<g>
	<ellipse class="st6" cx="131.4" cy="313.6" rx="12.7" ry="14.9"/>
</g>
<g>
	<rect y="343.5" class="st7" width="1024" height="6.5"/>
</g>
<g>
	<g>
		<path class="st6" d="M47,337.3c-8.2,0-14.9,5.7-14.9,12.7H62C62,343,55.3,337.3,47,337.3z"/>
	</g>
</g>
<g>
	<g>
		<path class="st6" d="M915.6,337.3c-8.2,0-14.9,5.7-14.9,12.7h29.9C930.5,343,923.8,337.3,915.6,337.3z"/>
	</g>
</g>
<g>
	<circle class="st8" cx="327.2" cy="189.3" r="21.6"/>
</g>
<g>
	<polygon class="st8" points="296.2,210.9 243,249.2 248,258.6 	"/>
</g>
<g>
	<polygon class="st8" points="300.6,217.7 271.7,256.6 278.7,263.5 	"/>
</g>
<path class="st5" d="M658.7,191.9h-7.9c0-0.1,0-0.2,0-0.4c0-5.6-4.6-10.2-10.2-10.2s-10.2,4.6-10.2,10.2c0,0.1,0,0.2,0,0.4h-2.2
	c-5.4,0-9.8,4.4-9.8,9.8s4.4,9.8,9.8,9.8h30.5c5.4,0,9.8-4.4,9.8-9.8S664.2,191.9,658.7,191.9z"/>
<path class="st5" d="M875.3,259.1h-7.9c0-0.1,0-0.2,0-0.4c0-5.6-4.6-10.2-10.2-10.2s-10.2,4.6-10.2,10.2c0,0.1,0,0.2,0,0.4h-2.2
	c-5.4,0-9.8,4.4-9.8,9.8s4.4,9.8,9.8,9.8h30.5c5.4,0,9.8-4.4,9.8-9.8S880.7,259.1,875.3,259.1z"/>
<g>
	<g>
		<path class="st9" d="M690.4,312.2c0,0-1.8,0.3,0,3.6s2.7,4.6-0.3,6.9s-16.9,4.9-19.5,7.5H386.2c0,0-2.7-5.6-6.2-6.9
			s-7.5-8.8-8.1-10.1c-0.6-1.3-7.4-15.4-7.4-23.2c0-0.3,5-11.7,5-17c0-5.2,1.8-14.7,2.7-16.4s-3.8-3.3-1.2-4.9s54.1-24.6,84.9-28.2
			s94.6-10.5,154.7,38.6c0,0,54.7,0.3,80.2,25.9c3.8,3.6,2.1,7.5,1.2,10.1s-0.6,10.4,0,11.4C692.5,310.6,690.4,312.2,690.4,312.2z"
			/>
	</g>
	<g>
		<path class="st5" d="M597.4,262.2c-15.8-11.5-33.1-20.2-51.3-25.6c-16.8-5-34.3-7.5-53.5-7.5l0,0c-14.7,0-27.4,1.5-35.8,2.5
			c-12,1.4-27.8,6.1-42.3,11.2c14.6,11.3,60.8,12.6,60.8,12.6L597.4,262.2z"/>
	</g>
	<g>
		<path class="st6" d="M614.8,321.6H471l-0.1-0.1c-0.3-0.2-29.8-21.7-45.1-56.5v-0.1c-0.3-2.2,2.6-5.7,5.5-9c2-2.3,4.4-5.1,4-5.9
			l0.6-0.4c0.7,1.2-1.1,3.4-4,6.8c-2.6,3-5.6,6.4-5.3,8.3c14.7,33.5,42.8,54.7,44.7,56h143.5L614.8,321.6L614.8,321.6z"/>
	</g>
	<g>
		<g>
			<path class="st2" d="M390.9,258.2l-19.4,0.2c-0.8,3.1-1.9,9.3-2,13.5C381.2,268.9,390.9,258.2,390.9,258.2z"/>
		</g>
		<g>
			<path class="st2" d="M682.3,289.5c3.8,0,5.3-2.6,5.8-3.8c-8.5-7.5-19.7-12.6-30.8-16C660.6,273.7,674,289.5,682.3,289.5z"/>
		</g>
	</g>
	<g>
		<ellipse class="st3" cx="417.1" cy="315.9" rx="27.1" ry="27.5"/>
	</g>
	<g>
		<path class="st6" d="M588.1,265.3l-17.2-1.5c0,0-2.9-1.5-2.9-2.6s2.9-7.3,2.9-7.3s8.9-1.8,10.9,2s4,6.1,4.9,6.1
			S588.1,265.3,588.1,265.3z"/>
	</g>
	<g>
		<ellipse class="st3" cx="639.8" cy="315.9" rx="27.1" ry="27.5"/>
	</g>
	<g>
		<ellipse class="st5" cx="639.8" cy="315.9" rx="16.7" ry="17"/>
	</g>
	<g>
		<ellipse class="st5" cx="417.2" cy="315.9" rx="16.7" ry="17"/>
	</g>
	<g>
		<path class="st6" d="M519.8,321.1c0-51-11.4-82.3-15.6-92.2h-0.8c4.1,9.4,15.7,40.7,15.7,92.2H519.8z"/>
	</g>
</g>
<g>
	<g>
		<path class="st2" d="M373.8,300.3H363l-8.4,18.5l4.5,2.5l7.1-10c3.5,5.5,7.6,4.9,7.6,4.9L373.8,300.3L373.8,300.3z"/>
	</g>
	<g>
		<path class="st2" d="M325.2,335c-21.8,0-32.5-14.3-32.9-14.9l2.4-1.8c0.1,0.1,10.3,13.6,30.5,13.6c20.3,0,30.4-13.5,30.5-13.6
			l2.4,1.8C357.7,320.7,347,335,325.2,335z"/>
	</g>
	<g>
		<path class="st3" d="M295.1,321.3h-5v-30h5c5.5,0,10,4.5,10,10v10C305.1,316.8,300.6,321.3,295.1,321.3z"/>
	</g>
	<g>
		<path class="st1" d="M297.6,312.8c-0.8,0-1.5-0.7-1.5-1.5v-10c0-0.8,0.7-1.5,1.5-1.5s1.5,0.7,1.5,1.5v10
			C299.1,312.1,298.4,312.8,297.6,312.8z"/>
	</g>
</g>
<g>
	<g>
		<g>
			
				<rect x="783.207" y="265.981" transform="matrix(0.9343 0.3566 -0.3566 0.9343 160.2806 -261.4449)" class="st6" width="11.921" height="75.941"/>
		</g>
	</g>
	<g>
		<g>
			<rect x="799.047" y="267.444" class="st6" width="11.921" height="75.941"/>
		</g>
	</g>
	<g>
		<g>
			<path class="st2" d="M791.816,279.538H820.3c0,0-3.955-54.033-20.373-54.033S791.816,279.538,791.816,279.538z"/>
		</g>
	</g>
	<g>
		<g>
			<path class="st3" d="M762.199,330.598c0,0,3.832-3.543,11.621,1.932c7.788,5.475,2.079,11.36,2.079,11.36L762.199,330.598z"/>
		</g>
	</g>
	<g>
		<g>
			<path class="st3" d="M791.774,343.9c0,0,0.283-5.212,9.686-6.705c9.403-1.494,9.403,6.705,9.403,6.705H791.774z"/>
		</g>
	</g>
	<g>
		<g>
			<ellipse class="st10" cx="794.306" cy="205.886" rx="8.953" ry="12.087"/>
		</g>
	</g>
	<g>
		<g>
			<polygon class="st10" points="788.119,202.207 781.447,208.745 787.148,208.745 			"/>
		</g>
	</g>
	<g>
		<g>
			<ellipse class="st3" cx="791.269" cy="194.387" rx="6.486" ry="2.525"/>
		</g>
	</g>
	<g>
		<g>
			
				<ellipse transform="matrix(0.9616 -0.2745 0.2745 0.9616 -24.7703 227.2772)" class="st3" cx="799.644" cy="202.139" rx="5.411" ry="9.386"/>
		</g>
	</g>
	<g>
		<g>
			
				<ellipse transform="matrix(0.0817 -0.9967 0.9967 0.0817 525.0903 984.0273)" class="st10" cx="796.525" cy="207.075" rx="4.506" ry="2.598"/>
		</g>
	</g>
	<g>
		<g>
			<rect x="794.306" y="213.348" class="st10" width="6.179" height="12.157"/>
		</g>
	</g>
	<g>
		<g>
			<polygon class="st2" points="805.007,227.409 792.46,227.409 792.46,222.599 805.007,218.865 			"/>
		</g>
	</g>
	<g>
		<g>
			<path class="st3" d="M791.129,214.218c-1.318,0-2.311-2.082-2.311-4.842h0.747c0,2.344,0.826,4.096,1.564,4.096
				c0.739,0,1.564-1.751,1.564-4.096h0.747C793.441,212.136,792.447,214.218,791.129,214.218z"/>
		</g>
	</g>
	<g>
		<g>
			<circle class="st3" cx="790.978" cy="203.144" r="1.481"/>
		</g>
	</g>
	<g>
		<g>
			<circle class="st3" cx="786.491" cy="203.144" r="1.481"/>
		</g>
	</g>
	<g>
		<path class="st10" d="M744.523,265.381c-0.021,0-0.04,0-0.061,0c-7.373-0.111-11.738-5.276-13.155-8.312
			c-0.935-2.002-0.07-4.382,1.932-5.316c1.986-0.93,4.351-0.081,5.298,1.893c0.205,0.407,1.979,3.675,6.045,3.735
			c2.209,0.033,3.973,1.852,3.94,4.06C748.489,263.629,746.705,265.381,744.523,265.381z"/>
	</g>
	<g>
		<path class="st2" d="M780.662,252.322c-6.792,0-13.868-3.81-21.079-11.359l6.508-6.217c4.162,4.358,10.316,9.376,15.987,8.464
			c5.83-0.923,9.13-7.654,9.163-7.723l8.141,3.836c-0.21,0.45-5.277,11.037-15.804,12.762
			C782.612,252.243,781.639,252.322,780.662,252.322z"/>
	</g>
	<g>
		<path class="st5" d="M749.945,250.965l-6.966,6.966c-1.172,1.172-3.071,1.172-4.243,0l-19.164-19.164
			c-1.172-1.172-1.172-3.071,0-4.243l6.966-6.966c1.172-1.172,3.071-1.172,4.243,0l19.164,19.164
			C751.117,247.894,751.117,249.794,749.945,250.965z"/>
		<path class="st3" d="M740.857,259.308c-0.896,0-1.792-0.341-2.475-1.022l-19.164-19.164c-1.363-1.365-1.363-3.585,0-4.95
			l6.967-6.966c1.32-1.321,3.626-1.322,4.949,0l19.164,19.164c0.661,0.661,1.025,1.54,1.025,2.476c0,0.935-0.364,1.813-1.025,2.475
			l-6.966,6.966C742.65,258.967,741.753,259.308,740.857,259.308z M728.66,227.18c-0.668,0-1.296,0.26-1.768,0.732l-6.967,6.966
			c-0.974,0.975-0.974,2.562,0,3.536l19.164,19.164c0.975,0.975,2.562,0.974,3.536,0l6.966-6.966
			c0.473-0.473,0.732-1.101,0.732-1.768c0-0.668-0.26-1.296-0.732-1.769l-19.164-19.164
			C729.955,227.439,729.327,227.18,728.66,227.18z"/>
	</g>
	<g>
		<path class="st9" d="M727.746,236.444l4.271-4.271l2.847,8.541l2.847-2.847l4.627,15.303l-6.05-8.185l-3.559,3.559
			L727.746,236.444z"/>
	</g>
	<g>
		<path class="st3" d="M726.744,230.181l-4.55,4.55c-0.391,0.391-1.024,0.391-1.414,0l-0.707-0.707l5.964-5.964l0.707,0.707
			C727.135,229.157,727.135,229.791,726.744,230.181z"/>
	</g>
	<g>
		<path class="st10" d="M744.688,264.382c-0.184,0-0.37-0.018-0.557-0.053c-1.629-0.306-2.7-1.874-2.395-3.502
			c0.342-1.818-0.266-3.53-0.272-3.546c-0.606-1.542,0.152-3.284,1.693-3.891c1.546-0.607,3.283,0.152,3.891,1.693
			c0.13,0.33,1.248,3.324,0.585,6.851C747.363,263.376,746.103,264.382,744.688,264.382z"/>
	</g>
	<g>
		<path class="st2" d="M769.455,279.895c-9,0-18.459-5.164-28.195-15.414l6.525-6.199c9.339,9.831,17.743,13.94,24.99,12.224
			c6.876-1.632,12.053-8.346,15.185-13.69c3.655-6.236,5.469-12.167,5.487-12.227l8.619,2.591
			c-0.338,1.125-8.483,27.615-27.188,32.077C773.09,279.682,771.282,279.895,769.455,279.895z"/>
	</g>
	<g>
		<path class="st10" d="M757.555,246.747c-1.252,0-2.419-0.789-2.842-2.04c-0.53-1.57,0.312-3.272,1.881-3.803
			c0.149-0.053,3.838-1.39,4.254-4.394c-1.957-0.418-7.603,0.576-12.624,2.282c-1.57,0.535-3.273-0.306-3.806-1.874
			c-0.534-1.568,0.306-3.272,1.874-3.806c4.148-1.411,14.25-4.366,18.471-1.344c1.369,0.98,2.123,2.467,2.123,4.184
			c0,6.162-5.262,9.584-8.37,10.635C758.198,246.695,757.874,246.747,757.555,246.747z"/>
	</g>
</g>
</svg>
