<?xml version="1.0" encoding="utf-8"?>
<!-- Generator: Adobe Illustrator 25.0.0, SVG Export Plug-In . SVG Version: 6.00 Build 0)  -->
<svg version="1.1" id="Ebene_1" xmlns="http://www.w3.org/2000/svg" xmlns:xlink="http://www.w3.org/1999/xlink" x="0px" y="0px"
	 viewBox="0 0 1024 350" style="enable-background:new 0 0 1024 350;" xml:space="preserve">
<style type="text/css">
	.st0{fill:#CCFFFF;}
	.st1{fill:#00E207;}
	.st2{fill:#FF6666;}
	.st3{fill:#000033;}
	.st4{fill:#663300;}
	.st5{fill:#FFFFFF;}
	.st6{fill:#006600;}
	.st7{fill:#CCCCCC;}
	.st8{fill:#FFFF00;}
	.st9{fill:#F7D5D5;}
	.st10{fill:#0FDD42;}
</style>
<rect y="0" class="st0" width="1024" height="350"/>
<g>
	<path class="st1" d="M84.4,321c-15.5,0-28.7,8.5-33.8,20.5c-5.8-7.2-14.6-11.8-24.5-11.8c-10.8,0-20.4,5.5-26,13.8v6.4h120.3
		C118.9,333.8,103.4,321,84.4,321z"/>
	<path class="st1" d="M285.7,329c-13.7,0-25.3,8.8-29.6,21h59.3C311,337.8,299.4,329,285.7,329z"/>
	<path class="st1" d="M860,321c-13.5,0-25.3,6.5-31.5,16.1c-6.2-9.6-18-16.1-31.5-16.1c-15.5,0-28.7,8.5-33.8,20.5
		c-5.8-7.2-14.6-11.8-24.5-11.8c-13.4,0-24.9,8.4-29.4,20.2h186.7C894.5,333.8,878.9,321,860,321z"/>
	<path class="st1" d="M995.8,326.8c-14.5,0-26.7,9.8-30.3,23.2h58.6v-5.6C1018.9,334,1008.2,326.8,995.8,326.8z"/>
</g>
<g>
	<polyline class="st1" points="222.9,343.4 222.9,306.1 290.1,306.1 290.1,343.4 	"/>
</g>
<g>
	<rect x="167" y="261.3" class="st2" width="7.3" height="30.8"/>
</g>
<g>
	<polyline class="st1" points="155.6,343.4 155.6,306.1 189.3,261.3 222.9,306.1 222.9,343.4 	"/>
</g>
<g>
	<polygon class="st2" points="290.1,306.1 222.9,306.1 189.3,261.3 290.1,261.3 	"/>
</g>
<g>
	<rect x="230.3" y="268.8" class="st3" width="52.3" height="29.9"/>
</g>
<g>
	<polyline class="st4" points="230.3,343.4 230.3,313.6 282.6,313.6 282.6,343.4 	"/>
</g>
<g>
	<polyline class="st4" points="193,343.4 193,313.6 215.4,313.6 215.4,343.4 	"/>
</g>
<g>
	<rect x="163.1" y="313.6" class="st3" width="22.4" height="14.9"/>
</g>
<g>
	<rect x="178.1" y="283.7" class="st3" width="22.4" height="14.9"/>
</g>
<g>
	<rect x="178.1" y="283.7" class="st2" width="5.2" height="14.9"/>
</g>
<g>
	<rect x="195.2" y="283.7" class="st2" width="5.2" height="14.9"/>
</g>
<g>
	<rect x="230.3" y="275.8" class="st5" width="52.3" height="0.7"/>
</g>
<g>
	<rect x="230.3" y="283.3" class="st5" width="52.3" height="0.7"/>
</g>
<g>
	<rect x="230.3" y="290.8" class="st5" width="52.3" height="0.7"/>
</g>
<g>
	<polyline class="st4" points="128,343.7 128,302.4 134.7,302.4 134.7,343.7 	"/>
</g>
<g>
	<ellipse class="st6" cx="131.4" cy="297.9" rx="12.7" ry="14.9"/>
</g>
<g>
	<ellipse class="st6" cx="131.4" cy="313.6" rx="12.7" ry="14.9"/>
</g>
<g>
	<rect y="343.5" class="st7" width="1024" height="6.5"/>
</g>
<g>
	<g>
		<path class="st6" d="M47,337.3c-8.2,0-14.9,5.7-14.9,12.7h29.9C62,343,55.3,337.3,47,337.3z"/>
	</g>
</g>
<g>
	<g>
		<path class="st6" d="M915.6,337.3c-8.2,0-14.9,5.7-14.9,12.7h29.9C930.5,343,923.8,337.3,915.6,337.3z"/>
	</g>
</g>
<g>
	<circle class="st8" cx="327.2" cy="189.3" r="21.6"/>
</g>
<g>
	<polygon class="st8" points="296.2,210.9 243,249.2 248,258.6 	"/>
</g>
<g>
	<polygon class="st8" points="300.6,217.7 271.7,256.6 278.7,263.5 	"/>
</g>
<path class="st5" d="M658.7,191.9h-7.9c0-0.1,0-0.2,0-0.4c0-5.6-4.6-10.2-10.2-10.2s-10.2,4.6-10.2,10.2c0,0.1,0,0.2,0,0.4h-2.2
	c-5.4,0-9.8,4.4-9.8,9.8s4.4,9.8,9.8,9.8h30.5c5.4,0,9.8-4.4,9.8-9.8S664.2,191.9,658.7,191.9z"/>
<path class="st5" d="M875.3,259.1h-7.9c0-0.1,0-0.2,0-0.4c0-5.6-4.6-10.2-10.2-10.2s-10.2,4.6-10.2,10.2c0,0.1,0,0.2,0,0.4h-2.2
	c-5.4,0-9.8,4.4-9.8,9.8s4.4,9.8,9.8,9.8h30.5c5.4,0,9.8-4.4,9.8-9.8S880.7,259.1,875.3,259.1z"/>
<g>
	
		<rect x="751.3" y="298" transform="matrix(0.3566 -0.9343 0.9343 0.3566 223.7799 932.9417)" class="st6" width="75.9" height="11.9"/>
</g>
<g>
	<rect x="799.1" y="267.5" class="st6" width="11.9" height="75.9"/>
</g>
<g>
	<path class="st2" d="M791.8,279.6h28.5c0,0-4-54-20.4-54S791.8,279.6,791.8,279.6z"/>
</g>
<g>
	<path class="st3" d="M762.2,330.6c0,0,3.8-3.5,11.6,1.9s2.1,11.4,2.1,11.4L762.2,330.6z"/>
</g>
<g>
	<path class="st3" d="M791.8,343.9c0,0,0.3-5.2,9.7-6.7c9.4-1.5,9.4,6.7,9.4,6.7H791.8z"/>
</g>
<g>
	<ellipse class="st9" cx="794.3" cy="205.9" rx="9" ry="12.1"/>
</g>
<g>
	<path class="st2" d="M760.5,284.8c-7.1,0-14.1-2.7-20.8-8.2l5.6-7c6.7,5.4,13.2,7.2,20,5.6c20.4-5.1,35.4-39.8,35.6-40.2l8.2,3.5
		c-0.7,1.6-16.9,39.2-41.6,45.4C765.2,284.5,762.8,284.8,760.5,284.8z"/>
</g>
<g>
	<g>
		<rect x="709.1" y="231.2" class="st5" width="41.6" height="28"/>
	</g>
	<g>
		<path class="st7" d="M748.5,233.4v23.5h-37.1v-23.5H748.5 M753,228.9h-46.1v32.4H753V228.9L753,228.9z"/>
	</g>
</g>
<g>
	<polygon class="st7" points="770.4,276.2 724.3,276.2 706.9,261.2 753,261.2 	"/>
</g>
<g>
	<path class="st5" d="M761.1,273h-34.5l-13.5-11.6h34.5L761.1,273z M726.9,272.3h32.2l-11.8-10.1h-32.2L726.9,272.3z"/>
</g>
<g>
	<path class="st9" d="M768.5,259.7c-0.6,0-1.2-0.2-1.7-0.6c-1.3-1-1.7-2.8-0.7-4.2c0.5-0.7,1.1-2.2,0.9-2.9c0-0.1-0.1-0.3-0.6-0.6
		c-0.8,0.6-2,3.3-2.5,5.8c-0.3,1.6-1.9,2.6-3.5,2.3c-1.6-0.3-2.6-1.9-2.3-3.5c0.4-1.9,2-8.1,6-10c1.6-0.8,3.5-0.7,5.1,0.1
		c2.5,1.3,3.4,3.1,3.7,4.5c0.9,3.7-1.6,7.3-1.9,7.7C770.3,259.2,769.4,259.7,768.5,259.7z"/>
</g>
<g>
	<path class="st2" d="M771.8,247.7l-8.8-1.8c1.3-6.4,6-14.7,20.5-17.5c7.9-1.5,15.2-0.7,15.5-0.6l-1.1,8.9
		C797.7,236.7,774.6,234.1,771.8,247.7z"/>
</g>
<g>
	<polygon class="st9" points="788.1,202.3 781.5,208.8 787.2,208.8 	"/>
</g>
<g>
	<ellipse class="st3" cx="791.3" cy="194.4" rx="6.5" ry="2.5"/>
</g>
<g>
	
		<ellipse transform="matrix(0.9616 -0.2745 0.2745 0.9616 -24.7866 227.273)" class="st3" cx="799.7" cy="202.2" rx="5.4" ry="9.4"/>
</g>
<g>
	
		<ellipse transform="matrix(8.169650e-02 -0.9967 0.9967 8.169650e-02 525.0889 984.0853)" class="st9" cx="796.6" cy="207.1" rx="4.5" ry="2.6"/>
</g>
<g>
	<rect x="794.3" y="213.4" class="st9" width="6.2" height="12.2"/>
</g>
<g>
	<polygon class="st2" points="805,227.5 792.5,227.5 792.5,222.6 805,218.9 	"/>
</g>
<g>
	<path class="st3" d="M791.1,214.3c-1.3,0-2.3-2.1-2.3-4.8h0.7c0,2.3,0.8,4.1,1.6,4.1c0.7,0,1.6-1.8,1.6-4.1h0.7
		C793.5,212.2,792.5,214.3,791.1,214.3z"/>
</g>
<g>
	<circle class="st3" cx="791" cy="203.2" r="1.5"/>
</g>
<g>
	<circle class="st3" cx="786.5" cy="203.2" r="1.5"/>
</g>
<g>
	<polygon class="st1" points="730.1,236.9 723.2,244.9 730.1,244.9 723.2,252.4 738.1,243.1 732.3,241.1 738.1,236.9 	"/>
</g>
<g>
	<g>
		<path class="st10" d="M690.4,312.2c0,0-1.8,0.3,0,3.6s2.7,4.6-0.3,6.9c-3,2.3-16.9,4.9-19.5,7.5H386.2c0,0-2.7-5.6-6.2-6.9
			c-3.5-1.3-7.5-8.8-8.1-10.1c-0.6-1.3-7.4-15.4-7.4-23.2c0-0.3,5-11.7,5-17c0-5.2,1.8-14.7,2.7-16.4s-3.8-3.3-1.2-4.9
			s54.1-24.6,84.9-28.2s94.6-10.5,154.7,38.6c0,0,54.7,0.3,80.2,25.9c3.8,3.6,2.1,7.5,1.2,10.1s-0.6,10.4,0,11.4
			C692.5,310.6,690.4,312.2,690.4,312.2z"/>
	</g>
	<g>
		<path class="st5" d="M597.4,262.2c-15.8-11.5-33.1-20.2-51.3-25.6c-16.8-5-34.3-7.5-53.5-7.5h0c-14.7,0-27.4,1.5-35.8,2.5
			c-12,1.4-27.8,6.1-42.3,11.2c14.6,11.3,60.8,12.6,60.8,12.6L597.4,262.2z"/>
	</g>
	<g>
		<path class="st6" d="M614.8,321.6H471l-0.1-0.1c-0.3-0.2-29.8-21.7-45.1-56.5l0-0.1c-0.3-2.2,2.6-5.7,5.5-9c2-2.3,4.4-5.1,4-5.9
			l0.6-0.4c0.7,1.2-1.1,3.4-4,6.8c-2.6,3-5.6,6.4-5.3,8.3c14.7,33.5,42.8,54.7,44.7,56h143.5L614.8,321.6L614.8,321.6z"/>
	</g>
	<g>
		<g>
			<path class="st2" d="M390.9,258.2l-19.4,0.2c-0.8,3.1-1.9,9.3-2,13.5C381.2,268.9,390.9,258.2,390.9,258.2z"/>
		</g>
		<g>
			<path class="st2" d="M682.3,289.5c3.8,0,5.3-2.6,5.8-3.8c-8.5-7.5-19.7-12.6-30.8-16C660.6,273.7,674,289.5,682.3,289.5z"/>
		</g>
	</g>
	<g>
		<ellipse class="st3" cx="417.1" cy="315.9" rx="27.1" ry="27.5"/>
	</g>
	<g>
		<path class="st6" d="M588.1,265.3l-17.2-1.5c0,0-2.9-1.5-2.9-2.6s2.9-7.3,2.9-7.3s8.9-1.8,10.9,2c2,3.8,4,6.1,4.9,6.1
			S588.1,265.3,588.1,265.3z"/>
	</g>
	<g>
		<ellipse class="st3" cx="639.8" cy="315.9" rx="27.1" ry="27.5"/>
	</g>
	<g>
		<ellipse class="st5" cx="639.8" cy="315.9" rx="16.7" ry="17"/>
	</g>
	<g>
		<ellipse class="st5" cx="417.2" cy="315.9" rx="16.7" ry="17"/>
	</g>
	<g>
		<path class="st6" d="M519.8,321.1c0-51-11.4-82.3-15.6-92.2h-0.8c4.1,9.4,15.7,40.7,15.7,92.2H519.8z"/>
	</g>
</g>
<g>
	<g>
		<path class="st2" d="M373.8,300.3H363l-8.4,18.5l4.5,2.5l7.1-10c3.5,5.5,7.6,4.9,7.6,4.9V300.3z"/>
	</g>
	<g>
		<path class="st2" d="M325.2,335c-21.8,0-32.5-14.3-32.9-14.9l2.4-1.8c0.1,0.1,10.3,13.6,30.5,13.6c20.3,0,30.4-13.5,30.5-13.6
			l2.4,1.8C357.7,320.7,347,335,325.2,335z"/>
	</g>
	<g>
		<path class="st3" d="M295.1,321.3h-5v-30h5c5.5,0,10,4.5,10,10v10C305.1,316.8,300.6,321.3,295.1,321.3z"/>
	</g>
	<g>
		<path class="st1" d="M297.6,312.8c-0.8,0-1.5-0.7-1.5-1.5v-10c0-0.8,0.7-1.5,1.5-1.5s1.5,0.7,1.5,1.5v10
			C299.1,312.1,298.4,312.8,297.6,312.8z"/>
	</g>
</g>
</svg>
