<svg version="1.1" id="Ebene_1" xmlns="http://www.w3.org/2000/svg" x="0" y="0" width="1024" height="350"
  xml:space="preserve">
  <style>
    .st1 {
      fill: #0fdd42
    }

    .st2 {
      fill: none;
      stroke: #060;
      stroke-miterlimit: 10
    }

    .st3 {
      opacity: .5;
      fill: #fff
    }
  </style>
  <path class="st1"
    d="M712.7 311.9s-2.2.4 0 4.4 3.3 5.6-.4 8.4c-3.7 2.8-20.9 6-24.2 9.2-3.3 3.2-274.7 0-274.7 0s-73.8-6.8-78.2-8.4c-4.4-1.6-17.3-10.8-18-12.4-.7-1.6-9.2-18.8-9.2-28.4 0-.4 6.2-15.2 6.2-21.6s2.2-18 3.3-20c1.1-2-4.8-4-1.5-6s67.2-30 105.4-34.4S539 190.1 613.5 250c0 0 67.9.4 99.5 31.6 4.8 4.4 2.6 9.2 1.5 12.4-1.1 3.2-.7 13.6 0 14.8s-1.8 3.1-1.8 3.1z" />
  <circle class="st1" cx="373.4" cy="316.4" r="33.6" />
  <path class="st2"
    d="M670.3 255.8s20.5 28.4 32.3 28.4c6.3 0 12.5-2.4 11.8-7.2M610.4 249.8s-124.9-5.6-164.9-9.2c-40-3.6-74.6-1.6-81.9-26" />
  <path class="st2"
    d="M596.1 320.5s5.5-55.9 2.6-63.1c-.7-.4-44.4-53.5-125.2-52.7-80.8.8-105.1 19.3-105.1 19.3M486.7 316.9s2.7-59.5-3.8-74.1" />
  <path class="st2"
    d="M618.8 322.9l-178.4-5.2s-36.7-20.8-55.8-63.5c-.7-4.8 11.6-15 10-17.7M315.6 244.2h25.2s-14.9 13.6-30 16.8M585.7 252.9l-20.1-1.7s-3.4-1.7-3.4-3 3.4-8.4 3.4-8.4 10.4-2 12.7 2.3c2.3 4.4 4.7 7 5.7 7 1 .1 1.7 3.8 1.7 3.8zM464.8 206.4l4.9 31.8M478.9 209.8l10 28.4" />
  <circle class="st2" cx="373.4" cy="316.4" r="25" />
  <circle class="st1" cx="649.9" cy="316.4" r="33.6" />
  <circle class="st2" cx="649.9" cy="316.4" r="25" />
  <path class="st3"
    d="M460.9 211.8l3.4 35.2s-65.6-3-86.8-12.4 53.2-33.6 83.4-22.8zM570.7 237.1c-17.3-11.7-45.6-25.2-86-28.2l13.1 40.6 62.5 3.8c-.9-1.4-1.3-3-1.3-4.6-.1-5.2 4.8-9.7 11.7-11.6z" />
</svg>