<?xml version="1.0" encoding="UTF-8" standalone="no"?><!DOCTYPE svg PUBLIC "-//W3C//DTD SVG 1.1//EN" "http://www.w3.org/Graphics/SVG/1.1/DTD/svg11.dtd"><svg width="100%" height="100%" viewBox="0 0 1000 260" version="1.1" xmlns="http://www.w3.org/2000/svg" xmlns:xlink="http://www.w3.org/1999/xlink" xml:space="preserve" xmlns:serif="http://www.serif.com/" style="fill-rule:evenodd;clip-rule:evenodd;stroke-linejoin:round;stroke-miterlimit:2;"><path d="M171.662,167.179c-14.488,14.496 -33.514,21.736 -52.524,21.736c-19.011,-0 -38.053,-7.24 -52.541,-21.736c-28.959,-28.975 -28.959,-76.129 0,-105.104l21.241,-21.245c7.592,-7.588 19.897,-7.588 27.472,0c7.576,7.588 7.576,19.902 0,27.489l-21.241,21.246c-13.807,13.831 -13.807,36.326 0,50.141c13.824,13.816 36.298,13.816 50.122,0l21.24,-21.245c7.577,-7.588 19.88,-7.588 27.473,-0c7.592,7.588 7.592,19.886 0,27.49l-21.242,21.243l0,-0.015Zm-27.471,-105.104c7.591,-7.587 19.879,-7.587 27.471,0c7.592,7.588 7.592,19.902 0,27.49l-38.796,38.806c-3.796,3.794 -8.762,5.692 -13.728,5.692c-4.966,0 -9.948,-1.898 -13.744,-5.692c-7.592,-7.587 -7.592,-19.901 -0,-27.488l38.797,-38.808Zm-22.143,-55.958c-57.965,-0 -104.971,47.027 -104.971,105.025c0,47.976 23.345,75.385 71.489,123.551c18.425,18.432 48.555,18.432 66.98,0c48.144,-48.149 71.488,-75.575 71.488,-123.551c0,-57.998 -47.004,-105.025 -104.986,-105.025Z" style="fill:#215349;fill-rule:nonzero;"/><path d="M321.233,99.005c4.662,0 8.384,-3.763 8.384,-8.38c0,-4.616 -3.764,-8.421 -8.384,-8.421c-23.014,0 -41.75,18.726 -41.75,41.682c0,22.961 18.736,41.687 41.75,41.687c4.662,0 8.384,-3.763 8.384,-8.421c0,-4.662 -3.764,-8.38 -8.384,-8.38c-13.731,0 -24.939,-11.158 -24.939,-24.926c0,-13.769 11.165,-24.927 24.939,-24.927" style="fill:#215349;fill-rule:nonzero;"/><path d="M485.752,99.005c4.619,0 8.384,-3.763 8.384,-8.38c-0,-4.616 -3.765,-8.421 -8.384,-8.421c-23.015,0 -41.751,18.726 -41.751,41.682c0,22.961 18.736,41.687 41.751,41.687c4.619,0 8.384,-3.763 8.384,-8.421c-0,-4.662 -3.765,-8.38 -8.384,-8.38c-13.732,0 -24.939,-11.158 -24.939,-24.926c-0,-13.769 11.207,-24.927 24.939,-24.927" style="fill:#215349;fill-rule:nonzero;"/><path d="M753.317,82.245c-23.011,0 -41.705,18.726 -41.705,41.687l0,33.302c0,4.621 3.764,8.425 8.426,8.425c4.662,0 8.384,-3.763 8.384,-8.425l0,-33.302c0,-13.723 11.167,-24.886 24.895,-24.886c4.621,0 8.384,-3.759 8.384,-8.375c0,-4.622 -3.763,-8.426 -8.384,-8.426Z" style="fill:#215349;fill-rule:nonzero;"/><path d="M385.398,148.858c-13.731,0 -24.896,-11.162 -24.896,-24.926c-0,-13.769 11.165,-24.886 24.896,-24.886c13.731,0 24.938,11.163 24.938,24.886c0,13.723 -11.164,24.926 -24.938,24.926Zm-0,-66.613c-23.014,0 -41.708,18.726 -41.708,41.687c0,22.956 18.694,41.727 41.708,41.727c23.013,0 41.75,-18.725 41.75,-41.727c-0,-23.002 -18.737,-41.687 -41.75,-41.687Z" style="fill:#215349;fill-rule:nonzero;"/><path d="M552.354,82.245c-9.367,0 -17.966,3.124 -24.939,8.339l0,-58.314c0,-4.622 -3.764,-8.426 -8.384,-8.426c-4.619,0 -8.426,3.763 -8.426,8.426l-0,124.964c-0,4.621 3.764,8.425 8.426,8.425c4.663,0 8.384,-3.763 8.384,-8.425l0,-33.302c0,-13.723 11.208,-24.886 24.939,-24.886c13.732,0 24.897,11.163 24.897,24.886l-0,33.302c-0,4.621 3.764,8.425 8.384,8.425c4.619,0 8.384,-3.763 8.384,-8.425l-0,-33.302c-0,-23.002 -18.694,-41.687 -41.707,-41.687" style="fill:#215349;fill-rule:nonzero;"/><path d="M789.592,123.932c0,-13.723 11.168,-24.886 24.895,-24.886c13.732,0 24.94,11.163 24.94,24.886c0,13.723 -11.162,24.926 -24.94,24.926c-13.773,0 -24.895,-11.162 -24.895,-24.926Zm66.645,-0c0,-23.002 -18.734,-41.687 -41.75,-41.687c-23.011,0 -41.704,18.685 -41.704,41.687c-0,23.002 18.734,41.682 41.704,41.682c13.732,-0 24.94,11.163 24.94,24.927l0,0.599c0,13.723 -11.162,24.881 -24.94,24.881c-13.773,-0 -24.895,-11.158 -24.895,-24.881c0,-4.662 -3.763,-8.421 -8.384,-8.421c-4.621,-0 -8.425,3.759 -8.425,8.421c-0,23.002 18.734,41.727 41.704,41.727c22.975,0 41.75,-18.725 41.75,-41.727l0,-0.599c0,-13.596 -6.586,-25.694 -16.723,-33.307c10.137,-7.608 16.723,-19.706 16.723,-33.302Z" style="fill:#215349;fill-rule:nonzero;"/><path d="M677.647,148.858l-24.94,0c-13.732,0 -24.895,-11.162 -24.895,-24.926c0,-13.769 11.163,-24.886 24.895,-24.886c13.732,0 24.94,11.163 24.94,24.886l0,24.926Zm-24.94,-66.613c-23.011,0 -41.705,18.726 -41.705,41.687c0,22.956 18.694,41.727 41.705,41.727l33.325,0c4.617,0 8.384,-3.763 8.384,-8.425l0,-33.302c0,-23.002 -18.739,-41.687 -41.75,-41.687" style="fill:#215349;fill-rule:nonzero;"/><path d="M946.538,148.858l-33.32,0c-13.732,0 -24.895,-11.162 -24.895,-24.885c-0,-13.723 11.163,-24.922 24.895,-24.922c13.732,-0 24.94,11.158 24.94,24.922c-0,4.616 3.763,8.38 8.425,8.38c4.662,-0 8.385,-3.764 8.385,-8.38c-0,-23.002 -18.735,-41.728 -41.75,-41.728c-23.016,0 -41.71,18.726 -41.71,41.728c0,23.002 18.694,41.686 41.71,41.686l33.32,0c4.621,0 8.384,-3.763 8.384,-8.38c0,-4.616 -3.763,-8.421 -8.384,-8.421Z" style="fill:#215349;fill-rule:nonzero;"/></svg>