<svg clip-rule="evenodd" fill-rule="evenodd" stroke-linejoin="round" stroke-miterlimit="2" viewBox="0 0 1850 350" xmlns="http://www.w3.org/2000/svg"><path d="m-11.882-23.342h1960.4v391.116h-1960.4z" fill="#fff"/><g fill="#132238" fill-rule="nonzero"><path d="m65.6 274.9v-194.5h66c15.5 0 29.1 2.6 40.7 7.7s21.3 12.1 29 20.8c7.8 8.8 13.6 19 17.5 30.8s5.9 24.3 5.9 37.7c0 14.8-2.2 28.2-6.6 40.1-4.4 12-10.6 22.2-18.8 30.7-8.1 8.5-17.9 15.1-29.3 19.7-11.4 4.7-24.2 7-38.5 7zm140-97.5c0-11.7-1.6-22.4-4.9-32.2s-8.1-18.2-14.4-25.3-14-12.6-23.2-16.6c-9.1-3.9-19.6-5.9-31.5-5.9h-46.8v160.6h46.9c12.1 0 22.7-2.1 31.9-6.2s16.9-9.8 23.2-17c6.2-7.2 10.9-15.7 14.1-25.5 3.1-9.8 4.7-20.4 4.7-31.9zm48.5 97.5h-20.5l81.4-194.5h16.2l80.8 194.5h-20.3l-68.8-172.1zm185.8 0v-194.5h66c15.5 0 29.1 2.6 40.7 7.7s21.3 12.1 29 20.8c7.8 8.8 13.6 19 17.5 30.8s5.9 24.3 5.9 37.7c0 14.8-2.2 28.2-6.6 40.1-4.4 12-10.6 22.2-18.8 30.7-8.1 8.5-17.9 15.1-29.3 19.7-11.4 4.7-24.2 7-38.5 7zm140-97.5c0-11.7-1.6-22.4-4.9-32.2s-8.1-18.2-14.4-25.3-14-12.6-23.2-16.6c-9.1-3.9-19.6-5.9-31.5-5.9h-46.9v160.6h46.9c12.1 0 22.7-2.1 31.9-6.2s16.9-9.8 23.2-17c6.2-7.2 10.9-15.7 14.1-25.5s4.8-20.4 4.8-31.9zm48.5 97.5h-20.5l81.4-194.5h16.2l80.8 194.5h-20.3l-68.8-172.1z"/><path d="m818.3 275v-194.6h80c8.2 0 15.8 1.7 22.7 5.2s12.9 8.1 17.9 13.8c5 5.8 8.9 12.2 11.8 19.5 2.8 7.2 4.2 14.5 4.2 21.8 0 7.9-1.3 15.4-4 22.7s-6.4 13.8-11.2 19.5-10.6 10.2-17.4 13.6-14.2 5.1-22.5 5.1h-67.7v73.4zm13.9-86.4h67.1c6.4 0 12.1-1.3 17.3-4 5.1-2.6 9.5-6.2 13-10.7 3.6-4.5 6.3-9.6 8.2-15.3s2.9-11.7 2.9-17.9c0-6.4-1.1-12.5-3.4-18.2-2.3-5.8-5.4-10.8-9.3-15.2s-8.5-7.9-13.7-10.4c-5.2-2.6-10.7-3.8-16.6-3.8h-65.5zm233.8 87.7c-13.5 0-25.9-2.8-37-8.5s-20.7-13.1-28.8-22.2c-8-9.1-14.2-19.6-18.6-31.5s-6.6-24-6.6-36.4c0-13 2.3-25.4 7-37.3s11-22.4 19.2-31.5c8.1-9.1 17.8-16.4 28.9-21.8s23.2-8.1 36.2-8.1c13.5 0 25.9 2.9 37.1 8.6 11.2 5.8 20.8 13.3 28.8 22.6 7.9 9.3 14.1 19.9 18.5 31.6 4.4 11.8 6.6 23.7 6.6 35.8 0 13.2-2.3 25.7-7 37.5-4.7 11.9-11.1 22.3-19.2 31.4-8.1 9-17.8 16.3-28.9 21.6-11.2 5.5-23.3 8.2-36.2 8.2zm-77-98.6c0 11.1 1.9 21.9 5.6 32.2s9 19.5 15.9 27.4c6.8 7.9 15 14.3 24.5 19 9.5 4.8 19.9 7.1 31.2 7.1 11.7 0 22.2-2.5 31.6-7.4s17.4-11.5 24.1-19.6 11.8-17.3 15.5-27.5 5.5-20.6 5.5-31.2c0-11.1-1.9-21.9-5.8-32.2-3.8-10.3-9.2-19.5-16-27.4-6.9-7.9-14.9-14.3-24.2-19s-19.5-7.1-30.7-7.1c-11.7 0-22.3 2.5-31.8 7.4s-17.6 11.5-24.4 19.6-12 17.3-15.6 27.5-5.4 20.6-5.4 31.2zm273.2-95.9h13.7l29 70.7 29-70.7h13.7l-34.3 81.9 40.8 94.8 74.5-178.1h15.3l-83.3 194.5h-12.9l-42.7-100-43 100h-12.7l-83-194.5h15.1l74.8 178.1 40.3-94.8zm340.8 180.5v12.6h-129.6v-194.5h127.1v12.6h-113.2v76.4h98.9v12.1h-98.9v80.8zm38.1 12.7v-194.6h80.8c8.2 0 15.8 1.7 22.7 5.2s12.9 8.1 17.9 13.8c5 5.8 8.9 12.2 11.8 19.5 2.8 7.2 4.2 14.5 4.2 21.8 0 7.1-1.1 14-3.3 20.7s-5.3 12.7-9.3 17.9c-4 5.3-8.9 9.7-14.5 13.2-5.7 3.5-11.9 5.8-18.6 6.9l48.5 75.6h-16.2l-47.1-73.4h-63v73.4zm14-86.4h68.2c6.2 0 11.9-1.4 17-4.1s9.5-6.3 13.2-10.8 6.4-9.6 8.4-15.3 2.9-11.6 2.9-17.7c0-6.2-1.1-12.2-3.4-17.9-2.3-5.8-5.4-10.8-9.3-15.2s-8.5-7.9-13.7-10.5-10.8-4-16.9-4h-66.3z"/></g></svg>