<?xml version="1.0" encoding="UTF-8" standalone="no"?><!DOCTYPE svg PUBLIC "-//W3C//DTD SVG 1.1//EN" "http://www.w3.org/Graphics/SVG/1.1/DTD/svg11.dtd"><svg width="100%" height="100%" viewBox="0 0 180 40" version="1.1" xmlns="http://www.w3.org/2000/svg" xmlns:xlink="http://www.w3.org/1999/xlink" xml:space="preserve" xmlns:serif="http://www.serif.com/" style="fill-rule:evenodd;clip-rule:evenodd;stroke-linejoin:round;stroke-miterlimit:2;"><g id="Ebene1"><rect x="0" y="0" width="180" height="40" style="fill:#fff;"/></g><g><g><path d="M40.54,21.729l0,-3.203l-27.364,0l0,-2.785c0,-0.501 0.179,-0.929 0.537,-1.284c0.358,-0.356 0.788,-0.534 1.291,-0.534l25.537,-0l-0,-3.203l-25.537,0c-1.397,0 -2.588,0.495 -3.571,1.485c-0.984,0.979 -1.476,2.158 -1.476,3.536l0,8.541c0,1.39 0.492,2.574 1.476,3.552c0.983,0.979 2.174,1.468 3.571,1.468l25.537,0l-0,-3.202l-25.537,-0c-0.503,-0 -0.933,-0.178 -1.291,-0.534c-0.357,-0.356 -0.537,-0.784 -0.537,-1.284l0,-2.553l27.364,0Z" style="fill-rule:nonzero;"/><path d="M73.755,13.47l0.017,-0.034c-0.011,0.011 -0.017,0.022 -0.017,0.034Zm-2.75,15.829l3.219,-0l0,-16.981c0,-0.711 -0.334,-1.201 -1.005,-1.468c-0.671,-0.278 -1.258,-0.155 -1.761,0.367l-12.826,13.111l-12.828,-13.111c-0.514,-0.522 -1.1,-0.645 -1.76,-0.367c-0.671,0.267 -1.006,0.757 -1.006,1.468l-0,16.981l3.219,-0l0,-13.027l11.217,11.475c0.313,0.323 0.699,0.484 1.157,0.484c0.447,0 0.833,-0.161 1.157,-0.484l11.217,-11.475l0,13.027Z" style="fill-rule:nonzero;"/><path d="M79.99,26.099l-0,-2.236c-0,-0.856 0.29,-1.473 0.872,-1.851c0.223,-0.144 0.475,-0.25 0.754,-0.317c0.201,-0.044 0.414,-0.066 0.637,-0.066l17.589,-0c1.822,-0 3.236,-0.634 4.242,-1.902c0.816,-1.034 1.224,-2.219 1.224,-3.553c0,-1.801 -0.637,-3.208 -1.911,-4.22c-1.029,-0.812 -2.214,-1.217 -3.555,-1.217l-21.461,-0l-0,3.202l21.461,0c0.213,0 0.425,0.028 0.637,0.083c0.28,0.067 0.526,0.167 0.738,0.3c0.582,0.379 0.872,0.996 0.872,1.852c0,0.222 -0.022,0.434 -0.067,0.634c-0.067,0.278 -0.173,0.528 -0.318,0.75c-0.38,0.579 -1.001,0.868 -1.861,0.868l-17.605,-0c-1.33,-0 -2.516,0.406 -3.555,1.217c-1.274,1.013 -1.912,2.419 -1.912,4.22l0,3.837c0,0.445 0.157,0.823 0.47,1.134c0.313,0.312 0.693,0.467 1.14,0.467l25.319,0l-0,-3.202l-23.71,-0Z" style="fill-rule:nonzero;"/><path d="M169.978,15.737c0,-1.379 -0.492,-2.557 -1.475,-3.536c-0.984,-0.99 -2.174,-1.485 -3.571,-1.485l-19.736,0c-1.397,0 -2.587,0.495 -3.571,1.485c-0.984,0.979 -1.475,2.157 -1.475,3.536l-0,8.541c-0,1.39 0.491,2.574 1.475,3.552c0.984,0.979 2.174,1.468 3.571,1.468l19.736,0c1.397,0 2.587,-0.489 3.571,-1.468c0.983,-0.978 1.475,-2.162 1.475,-3.552l0,-8.541Zm-3.219,8.541c0,0.5 -0.179,0.928 -0.537,1.284c-0.357,0.356 -0.788,0.534 -1.29,0.534l-19.736,-0c-0.503,-0 -0.933,-0.178 -1.29,-0.534c-0.358,-0.356 -0.537,-0.784 -0.537,-1.284l-0,-8.541c-0,-0.501 0.179,-0.929 0.537,-1.285c0.357,-0.355 0.787,-0.533 1.29,-0.533l19.736,-0c0.502,-0 0.933,0.178 1.29,0.533c0.358,0.356 0.537,0.784 0.537,1.285l0,8.541Z" style="fill-rule:nonzero;"/><path d="M125.232,18.043l0,3.203l9.169,0l-0,3.036c-0,0.5 -0.18,0.928 -0.537,1.284c-0.358,0.356 -0.788,0.534 -1.291,0.534l-19.735,0c-0.503,0 -0.934,-0.178 -1.291,-0.534c-0.358,-0.356 -0.537,-0.784 -0.537,-1.284l0,-8.54c0,-0.501 0.179,-0.929 0.537,-1.285c0.358,-0.356 0.788,-0.534 1.291,-0.534l24.782,0l-0,-3.202l-24.782,-0c-1.397,-0 -2.588,0.495 -3.572,1.485c-0.983,0.978 -1.475,2.157 -1.475,3.536l-0,8.54c-0,1.39 0.492,2.574 1.475,3.553c0.984,0.979 2.175,1.468 3.572,1.468l19.735,-0c1.397,-0 2.588,-0.489 3.571,-1.468c0.995,-0.979 1.492,-2.163 1.492,-3.553l0,-6.238l-12.404,-0.001Z" style="fill-rule:nonzero;"/></g></g></svg>