<svg width="410" height="121" viewBox="0 0 410 121" fill="none" xmlns="http://www.w3.org/2000/svg">
<circle cx="58" cy="58.5" r="58" fill="#2F4A66"/>
<path d="M34.6322 57.0719L61.7072 24.2095C63.6414 21.862 67.425 23.6926 66.7846 26.6662L61.4828 51.2837C61.0751 53.1769 62.6005 54.9307 64.532 54.7894L78.2262 53.7874C80.8308 53.5968 82.3424 56.6745 80.5993 58.6192L50.2068 92.5277C48.1357 94.8384 44.3714 92.7244 45.2664 89.7533L53.2678 63.1927C53.8929 61.1174 52.1054 59.1139 49.9726 59.4994L37.3884 61.7736C34.7286 62.2543 32.9135 59.158 34.6322 57.0719Z" fill="#00FF84"/>
<path d="M174.128 28.3419C183.894 29.4665 190.701 31.9525 190.701 41.4227C190.701 48.2886 184.782 54.3259 173.655 54.3259C162.054 54.3259 156.608 46.8681 156.608 39.1735H164.421C164.54 42.3697 166.019 47.6968 173.655 47.6968C180.58 47.6968 182.651 44.2046 182.651 41.8962C182.651 39.0552 180.817 36.9835 173.655 36.0365C161.817 34.4976 158.029 30.6503 158.029 23.5476C158.029 17.0368 163.889 11.7098 173.773 11.7098C184.605 11.7098 189.044 18.2206 189.162 24.9682H181.527C181.527 22.2455 179.692 18.339 173.655 18.339C167.558 18.339 166.019 21.4168 166.019 23.1925C166.019 24.7906 166.789 27.5133 174.128 28.3419ZM207.986 22.1271C217.752 22.1271 223.612 29.3481 223.612 38.2265C223.612 47.1049 217.752 54.3259 207.986 54.3259C198.22 54.3259 192.36 47.1049 192.36 38.2265C192.36 29.3481 198.22 22.1271 207.986 22.1271ZM207.986 47.46C213.135 47.46 216.035 43.3168 216.035 38.2265C216.035 33.1362 213.135 28.993 207.986 28.993C202.836 28.993 199.936 33.1362 199.936 38.2265C199.936 43.3168 202.836 47.46 207.986 47.46ZM237.472 54.3259C230.725 54.3259 226.226 49.9459 226.226 41.0676V22.6006H233.802V38.4633C233.802 45.5068 235.637 47.46 239.603 47.46C243.983 47.46 248.008 42.5473 248.008 35.3262V22.6006H255.584V53.8524H248.008V51.8992C248.008 50.0051 248.422 48.8805 248.955 47.6376C249.192 47.1049 249.547 46.2762 248.777 46.0986C248.304 45.9803 248.126 46.3354 247.889 46.8089C246.35 49.8868 242.917 54.3259 237.472 54.3259ZM267.539 29.289C267.894 29.3481 268.19 28.8746 268.249 28.6971C270.144 24.3763 271.86 22.1271 279.495 22.1271V29.8217C270.676 29.2298 268.131 32.3668 268.131 40.2981V53.8524H260.555V22.6006H268.131V24.3171C268.131 25.6784 267.776 26.8622 267.243 27.9276C267.007 28.4603 266.829 29.1706 267.539 29.289ZM279.268 38.2265C279.268 28.9338 285.365 22.1271 295.072 22.1271C303.832 22.1271 309.04 28.046 309.573 34.4384H302.115C301.642 31.479 299.333 28.993 295.072 28.993C289.863 28.993 286.845 32.7811 286.845 38.2265C286.845 43.6719 289.863 47.46 295.072 47.46C299.333 47.46 301.642 44.9741 302.115 42.0146H309.573C309.04 48.407 303.891 54.3259 295.072 54.3259C285.542 54.3259 279.268 47.5192 279.268 38.2265ZM341.741 37.8122C341.741 38.6408 341.682 39.2327 341.563 40.1206H318.835C319.368 44.8557 322.445 47.6968 327.181 47.6968C330.791 47.6968 332.626 45.7435 333.514 42.9616H341.208C339.847 49.4132 335.467 54.3259 327.121 54.3259C317 54.3259 311.436 47.5192 311.436 38.2265C311.436 28.4603 317.474 22.1271 327.003 22.1271C334.224 22.1271 341.741 26.4479 341.741 37.8122ZM319.131 34.9119H334.165C333.869 31.1238 331.62 28.2827 327.24 28.2827C322.09 28.2827 319.9 31.183 319.131 34.9119ZM357.068 17.8655C353.872 17.8655 353.812 18.1022 353.812 21.5352V22.6006H362.336V29.2298H353.812V53.8524H346.236V29.2298H341.501V22.6006H346.236V20.8249C346.236 13.3079 349.196 11.2363 355.47 11.2363H362.336V17.8655H357.068ZM375.248 54.3259C368.501 54.3259 364.003 49.9459 364.003 41.0676V22.6006H371.579V38.4633C371.579 45.5068 373.414 47.46 377.379 47.46C381.759 47.46 385.784 42.5473 385.784 35.3262V22.6006H393.36V53.8524H385.784V51.8992C385.784 50.0051 386.198 48.8805 386.731 47.6376C386.968 47.1049 387.323 46.2762 386.554 46.0986C386.08 45.9803 385.903 46.3354 385.666 46.8089C384.127 49.8868 380.694 54.3259 375.248 54.3259ZM398.331 11.2363H405.907V53.8524H398.331V11.2363Z" fill="#2F4A66"/>
<path d="M187.702 73.5321H166.394V83.9494H183.914V90.5785H166.394V100.996H187.702V108.099H158.345V66.4294H187.702V73.5321ZM210.301 76.3732C217.048 76.3732 221.547 80.7532 221.547 89.6315V108.099H213.97V92.2358C213.97 85.1923 212.135 83.2391 208.17 83.2391C203.79 83.2391 199.765 88.1518 199.765 95.3729V108.099H192.189V76.8467H199.765V78.7999C199.765 80.694 199.41 81.8186 198.818 83.0615C198.581 83.5942 198.226 84.4229 198.995 84.6005C199.469 84.7188 199.647 84.3637 199.883 83.8902C201.304 80.7532 204.855 76.3732 210.301 76.3732ZM254.444 92.0583C254.444 92.8869 254.384 93.4788 254.266 94.3666H231.537C232.07 99.1018 235.148 101.943 239.883 101.943C243.494 101.943 245.328 99.9896 246.216 97.2077H253.911C252.55 103.659 248.17 108.572 239.824 108.572C229.703 108.572 224.139 101.765 224.139 92.4726C224.139 82.7064 230.176 76.3732 239.706 76.3732C246.927 76.3732 254.444 80.694 254.444 92.0583ZM231.833 89.158H246.867C246.571 85.3699 244.322 82.5288 239.942 82.5288C234.793 82.5288 232.603 85.4291 231.833 89.158ZM264.029 83.5351C264.384 83.5942 264.68 83.1207 264.739 82.9432C266.633 78.6224 268.35 76.3732 275.985 76.3732V84.0678C267.166 83.4759 264.621 86.6129 264.621 94.5442V108.099H257.045V76.8467H264.621V78.5632C264.621 79.9245 264.266 81.1083 263.733 82.1737C263.496 82.7064 263.319 83.4167 264.029 83.5351ZM276.221 91.7623C276.221 83.3575 281.725 76.3732 289.834 76.3732C294.688 76.3732 297.706 78.7999 299.719 82.0553C299.778 82.1737 300.133 82.9432 300.666 82.7064C301.258 82.4696 300.843 81.7002 300.547 81.1083C300.074 80.2205 299.896 79.3918 299.896 78.2672V76.8467H307.472V104.784C307.472 114.787 301.613 119.936 292.024 119.936C282.199 119.936 277.7 114.668 277.168 108.809H284.625C284.981 111.65 286.875 113.781 291.906 113.781C297.233 113.781 299.896 110.821 299.896 105.08C299.896 104.014 300.074 103.186 300.547 102.298C300.843 101.706 301.258 101.114 300.666 100.818C300.133 100.582 299.837 101.114 299.719 101.351C297.706 104.784 294.569 107.151 289.834 107.151C281.725 107.151 276.221 100.167 276.221 91.7623ZM291.61 100.286C296.582 100.286 299.896 96.3791 299.896 91.7623C299.896 87.1456 296.582 83.2391 291.61 83.2391C286.283 83.2391 283.797 87.1456 283.797 91.7623C283.797 96.3791 286.283 100.286 291.61 100.286ZM309.153 76.8467H317.203L324.187 97.0302C324.602 98.2731 324.661 99.3977 324.661 100.582C324.661 100.996 324.72 101.588 325.371 101.588C326.022 101.588 326.081 101.055 326.081 100.582C326.081 99.4569 326.2 98.2731 326.614 97.0302L333.302 76.8467H341.352L328.094 111.709C325.963 117.273 323.003 119.463 317.558 119.463H311.876V112.834H314.48C318.979 112.834 319.866 112.834 320.695 110.407L321.346 108.513L309.153 76.8467Z" fill="#2F4A66" fill-opacity="0.7"/>
</svg>
