<svg width="261" height="50" viewBox="0 0 261 50" fill="none" xmlns="http://www.w3.org/2000/svg">
<g clip-path="url(#clip0_1410_127)">
<path d="M16.82 2.51009C16.82 2.51009 11.93 0.590086 6.97998 4.57009C6.97998 4.57009 1.08998 8.52009 0.00997931 25.1701C0.00997931 25.1701 -0.320021 27.9401 2.12998 28.3501C2.12998 28.3501 4.58998 28.8301 4.91998 26.7501C5.23998 24.6701 5.17998 14.1701 9.83998 8.78009C9.83998 8.78009 10.29 8.10009 11.53 7.57009C12.56 6.93009 13.38 5.77009 13.99 4.85009C13.99 4.85009 14.9 3.64009 16.83 2.52009" fill="white"/>
<path d="M25.6499 2.12002C25.6499 2.12002 21.2999 0.740021 16.6199 4.31002C16.6199 4.31002 11.0599 7.71002 9.76987 21.2C9.76987 21.2 9.28987 24.53 9.54987 26.22C9.54987 26.22 9.75987 28.19 11.7999 28.37C11.7999 28.37 14.2499 28.56 14.3999 26.26C14.5499 23.97 14.6099 23.03 14.6099 23.03C14.6099 23.03 14.9999 14.06 18.6399 9.51002L19.5199 10.17C19.5199 10.17 20.7599 5.46002 25.6499 2.11002V2.12002Z" fill="white"/>
<path d="M34.47 2.12009C34.47 2.12009 28.65 0.760087 24.44 5.34009C24.44 5.34009 20.26 9.07009 19.03 18.3301C19.03 18.3301 18.51 23.3101 18.42 25.7301C18.42 25.7301 18.38 28.0801 20.63 28.3801C20.63 28.3801 22.96 28.5201 23.11 26.0601C23.11 26.0601 23.26 14.7201 27.46 9.53009L28.5 10.1801C28.5 10.1801 30.32 4.94009 34.47 2.13009V2.12009Z" fill="white"/>
<path d="M41.17 2.00006C41.17 2.00006 35.31 1.76006 31.87 7.67006C31.87 7.67006 27.9 13.4601 27.91 25.3201C27.91 25.3201 27.67 28.1301 29.87 28.3901C29.87 28.3901 32.48 28.5501 32.48 25.5701C32.48 25.5701 32.6 13.8701 37.06 9.14006C37.06 9.14006 41.01 13.8801 41.34 25.0501C41.34 25.0501 41.48 32.7001 42.9 36.9201C42.9 36.9201 44.19 32.1901 44.45 25.6301C44.45 25.6301 44.34 24.4301 45.38 23.5901C45.38 23.5901 46.06 23.2501 45.93 22.0601C45.93 22.0601 44.97 12.3201 41.73 6.80006C41.73 6.80006 48.61 6.35007 49.97 20.1101C49.97 20.1101 49.98 22.1201 51.1 23.3701C51.1 23.3701 51.92 23.9501 52 25.3601C52 25.3601 52.2 27.3101 51.62 33.6001C51.62 33.6001 51.48 34.9801 52.09 36.9401C52.09 36.9401 53.79 32.2401 53.34 27.6301C53.34 27.6301 53.12 23.8901 54.98 22.6301C54.98 22.6301 54.82 12.1901 50.67 6.48006C50.67 6.48006 47.38 1.74006 41.17 2.00006Z" fill="white"/>
<path d="M61.6596 49.2701C61.6596 49.2701 66.5496 51.1901 71.4996 47.2101C71.4996 47.2101 77.3796 43.2601 78.4596 26.6101C78.4596 26.6101 78.7896 23.8401 76.3396 23.4301C76.3396 23.4301 73.8797 22.9501 73.5497 25.0301C73.2297 27.1101 73.2896 37.6101 68.6296 42.9901C68.6296 42.9901 68.1797 43.6701 66.9397 44.2001C65.9097 44.8401 65.0897 46.0001 64.4797 46.9201C64.4797 46.9201 63.5696 48.1301 61.6396 49.2501" fill="white"/>
<path d="M52.8301 49.6601C52.8301 49.6601 57.1801 51.0401 61.8601 47.4601C61.8601 47.4601 67.4201 44.0601 68.7101 30.5701C68.7101 30.5701 69.1901 27.2401 68.9301 25.5501C68.9301 25.5501 68.7201 23.5801 66.6801 23.4001C66.6801 23.4001 64.2301 23.2101 64.0801 25.5001C63.9301 27.7901 63.8701 28.7301 63.8701 28.7301C63.8701 28.7301 63.4801 37.7001 59.8401 42.2501L58.9601 41.5901C58.9601 41.5901 57.7201 46.3001 52.8301 49.6501V49.6601Z" fill="white"/>
<path d="M44 49.66C44 49.66 49.82 51.02 54.03 46.44C54.03 46.44 58.21 42.71 59.44 33.45C59.44 33.45 59.96 28.47 60.05 26.05C60.05 26.05 60.09 23.7 57.84 23.4C57.84 23.4 55.51 23.26 55.36 25.72C55.36 25.72 55.21 37.06 51.01 42.25L49.97 41.6C49.97 41.6 48.15 46.84 44 49.65V49.66Z" fill="white"/>
<path d="M37.31 49.7901C37.31 49.7901 43.17 50.0301 46.61 44.1201C46.61 44.1201 50.58 38.3301 50.57 26.4701C50.57 26.4701 50.81 23.6601 48.61 23.4001C48.61 23.4001 46 23.2401 46 26.2201C46 26.2201 45.88 37.9201 41.42 42.6501C41.42 42.6501 37.47 37.9101 37.14 26.7401C37.14 26.7401 37 19.0901 35.58 14.8701C35.58 14.8701 34.29 19.6001 34.03 26.1601C34.03 26.1601 34.14 27.3601 33.1 28.2001C33.1 28.2001 32.41 28.5401 32.55 29.7301C32.55 29.7301 33.51 39.4701 36.75 44.9901C36.75 44.9901 29.87 45.4401 28.51 31.6801C28.51 31.6801 28.5 29.6701 27.38 28.4201C27.38 28.4201 26.56 27.8401 26.48 26.4301C26.48 26.4301 26.28 24.4801 26.86 18.1901C26.86 18.1901 27 16.8101 26.39 14.8501C26.39 14.8501 24.69 19.5501 25.14 24.1601C25.14 24.1601 25.36 27.9001 23.5 29.1601C23.5 29.1601 23.66 39.6001 27.81 45.3201C27.81 45.3201 31.1 50.0601 37.31 49.8001V49.7901Z" fill="white"/>
<path d="M86.4903 15.5001L88.9803 7.8601C89.4003 6.5401 90.8003 5.9601 92.0003 6.5701C93.0603 7.0701 93.5103 8.2501 93.0403 9.4301L88.8103 20.0401C88.1703 21.6101 87.1003 22.2001 85.6203 21.6601C84.9503 21.4401 84.5003 20.9601 84.1403 20.0401L79.9103 9.4301C79.4303 8.2501 79.8803 7.0801 80.9503 6.5701C82.1503 5.9501 83.5503 6.5701 83.9703 7.8601L86.4903 15.5001Z" fill="white"/>
<path d="M94.3595 8.50005C94.3595 7.91005 94.5795 7.35005 94.9995 6.96005C95.8395 6.09005 97.2095 6.12005 98.0495 6.96005C98.4395 7.38005 98.6695 7.94005 98.6695 8.50005V19.7001C98.6995 20.9001 97.7495 21.86 96.5395 21.88C95.3395 21.88 94.3595 20.9 94.3595 19.72V8.49005V8.50005ZM94.7495 0.72005C95.7295 -0.25995 97.2995 -0.22995 98.2795 0.75005C99.2295 1.73005 99.2295 3.27005 98.2795 4.25005C97.2995 5.23005 95.7295 5.23005 94.7795 4.28005C94.2995 3.80005 94.0195 3.16005 94.0195 2.49005C94.0195 1.82005 94.2995 1.20005 94.7495 0.73005V0.72005Z" fill="white"/>
<path d="M109.16 6.35003C112.38 6.71003 113.44 8.11003 113.08 9.54003C112.86 10.49 112.16 11.05 111.32 11.02C111.18 10.99 111.04 10.99 110.9 10.96L110.68 10.88L110.29 10.74L110.01 10.66L109.62 10.52C107.02 9.68003 104.92 11.22 104.94 14.16C105 17.1 107.12 18.53 109.9 17.6L110.38 17.43L110.58 17.35C111.84 16.9 112.96 17.52 113.16 18.83C113.33 19.92 112.6 20.93 110.58 21.57C110.08 21.74 109.54 21.85 108.98 21.91C104.16 22.36 100.52 19 100.58 14.04C100.64 9.06003 104.36 5.81003 109.18 6.34003L109.16 6.35003Z" fill="white"/>
<path d="M116.3 6.52L116.27 4.03C116.27 2.85 117.22 1.87 118.43 1.87C119.64 1.87 120.59 2.85 120.56 4.03V6.52H121.85C122.35 6.52 122.86 6.72 123.22 7.11C123.98 7.84 123.98 9.07 123.22 9.83C122.83 10.19 122.35 10.39 121.82 10.39H120.56V19.69C120.56 20.25 120.34 20.81 119.94 21.23C119.1 22.07 117.76 22.07 116.94 21.23C116.52 20.81 116.3 20.25 116.3 19.69L116.33 10.37H115.57C115.04 10.37 114.53 10.17 114.14 9.77999C113.38 9.04999 113.38 7.85 114.17 7.09C114.53 6.73 115.04 6.53 115.57 6.53H116.3V6.52Z" fill="white"/>
<path d="M124.61 8.42009C124.61 7.38009 125.48 6.43009 126.79 6.35009C128.13 6.24009 128.95 7.08009 128.89 7.89009L128.86 8.11009C128.97 7.97009 129.08 7.83009 129.22 7.72009C130.87 5.93009 132.75 5.96009 133.62 7.24009C134.38 8.36009 133.98 9.65009 132.86 10.1201L132.64 10.2301L132.05 10.4301C131.49 10.6301 131.1 10.8201 130.76 11.0201C129.39 11.8301 128.91 12.5601 128.91 13.2601V19.7001C128.91 20.8801 127.96 21.8601 126.75 21.8601C125.54 21.8601 124.59 20.9101 124.59 19.7301V8.42009H124.61Z" fill="white"/>
<path d="M134.93 9.9001C136.33 7.5801 138.71 6.2301 141.26 6.2301C145.32 6.2301 148.65 9.5901 148.68 14.0701C148.68 18.5801 145.35 21.9401 141.26 21.9401C137.17 21.9401 133.84 18.5801 133.84 14.0701C133.84 12.4501 134.2 11.0701 134.93 9.9001ZM138.18 14.7401C138.54 17.3201 140.05 18.4601 141.9 18.0401C143.13 17.7901 144.06 16.6701 144.28 14.7601C144.33 14.3101 144.33 13.8601 144.28 13.4201C144.03 11.5701 143.08 10.4801 141.9 10.2301C140.11 9.8401 138.51 10.9601 138.18 13.4501C138.15 13.6701 138.15 13.9001 138.15 14.1201C138.15 14.3401 138.15 14.5401 138.18 14.7401Z" fill="white"/>
<path d="M150.52 8.53005C150.52 7.47005 151.42 6.46005 152.68 6.35005C153.83 6.24005 154.61 6.97006 154.61 7.75006V7.92006C155.28 7.11006 156.21 6.58005 157.52 6.35005C158.22 6.21005 158.92 6.21006 159.59 6.32006C162.56 6.80006 164.18 8.76005 164.18 11.7001V19.7401C164.18 20.9401 163.23 21.9001 162.05 21.9201C160.85 21.9201 159.87 20.9701 159.87 19.7601V12.4201C159.87 11.7501 159.59 11.1001 159.11 10.6301C158.13 9.62005 156.53 9.62006 155.55 10.6001C155.08 11.1001 154.82 11.7201 154.82 12.3901V19.7301C154.82 20.9101 153.84 21.8901 152.63 21.8601C151.45 21.8601 150.5 20.8801 150.5 19.7001V8.53005H150.52Z" fill="white"/>
<path d="M178.24 15.4501C178.35 15.9801 178.6 16.5101 178.97 16.9601C180.12 18.3301 182.22 18.6701 184.6 17.4101C185.97 16.6501 186.36 16.6001 187.09 16.8801C187.51 17.0501 187.85 17.3801 188.01 17.8001C188.63 19.3101 186.75 21.9201 181.49 21.9401C176.14 21.9401 172.59 17.5201 173.82 12.2001C174.52 9.12008 176.84 6.91008 179.76 6.38008C183.12 5.76008 186.31 7.47008 187.71 10.6601C188.08 11.5301 188.3 12.4201 188.35 13.1001C188.52 14.8401 187.96 15.4501 186.53 15.4501H178.24ZM184.09 12.6801C184.06 12.6001 184.06 12.4801 184.03 12.4001C183.58 10.3601 182.13 9.40009 180.48 9.80009C179.44 10.0501 178.55 10.9501 178.18 12.3501C178.15 12.4601 178.15 12.5701 178.13 12.6901H184.09V12.6801Z" fill="white"/>
<path d="M189.94 8.53005C189.94 7.47005 190.84 6.46005 192.1 6.35005C193.25 6.24005 194.03 6.97006 194.03 7.75006V7.92006C194.7 7.11006 195.63 6.58005 196.94 6.35005C197.64 6.21005 198.34 6.21006 199.01 6.32006C201.98 6.80006 203.6 8.76005 203.6 11.7001V19.7401C203.6 20.9401 202.65 21.9001 201.47 21.9201C200.27 21.9201 199.29 20.9701 199.29 19.7601V12.4201C199.29 11.7501 199.01 11.1001 198.53 10.6301C197.55 9.62005 195.95 9.62006 194.97 10.6001C194.5 11.1001 194.24 11.7201 194.24 12.3901V19.7301C194.24 20.9101 193.26 21.8901 192.06 21.8601C190.88 21.8601 189.93 20.8801 189.93 19.7001V8.53005H189.94Z" fill="white"/>
<path d="M210.1 15.4501C210.21 15.9801 210.47 16.5101 210.83 16.9601C211.98 18.3301 214.08 18.6701 216.46 17.4101C217.83 16.6501 218.23 16.6001 218.95 16.8801C219.37 17.0501 219.71 17.3801 219.87 17.8001C220.49 19.3101 218.61 21.9201 213.35 21.9401C208 21.9401 204.45 17.5201 205.68 12.2001C206.38 9.12008 208.7 6.91008 211.62 6.38008C214.98 5.76008 218.17 7.47008 219.57 10.6601C219.93 11.5301 220.16 12.4201 220.21 13.1001C220.38 14.8401 219.82 15.4501 218.39 15.4501H210.1ZM215.95 12.6801C215.92 12.6001 215.92 12.4801 215.9 12.4001C215.45 10.3601 214 9.40009 212.34 9.80009C211.3 10.0501 210.41 10.9501 210.05 12.3501C210.02 12.4601 210.02 12.5701 209.99 12.6901H215.95V12.6801Z" fill="white"/>
<path d="M221.8 8.42009C221.8 7.38009 222.67 6.43009 223.98 6.35009C225.33 6.24009 226.14 7.08009 226.08 7.89009L226.05 8.11009C226.16 7.97009 226.27 7.83009 226.42 7.72009C228.07 5.93009 229.95 5.96009 230.81 7.24009C231.57 8.36009 231.18 9.65009 230.05 10.1201L229.83 10.2301L229.24 10.4301C228.68 10.6301 228.29 10.8201 227.95 11.0201C226.58 11.8301 226.1 12.5601 226.1 13.2601V19.7001C226.1 20.8801 225.15 21.8601 223.94 21.8601C222.73 21.8601 221.78 20.9101 221.78 19.7301V8.42009H221.8Z" fill="white"/>
<path d="M241.64 7.80009C241.67 6.99009 242.45 6.26008 243.6 6.37008C244.86 6.48008 245.76 7.49009 245.76 8.58009V19.8101C245.76 25.4101 242.46 28.4601 236.63 27.8501C235.45 27.7101 234.39 27.4301 233.38 26.9801C231.31 26.0301 230.94 24.5701 231.95 23.5101C232.51 22.8901 233.21 22.7501 234.16 23.0601L234.19 23.0901L235.06 23.4801C235.26 23.5601 235.45 23.6501 235.65 23.7001C239.32 25.0201 241.42 23.5001 241.5 20.7001C241.53 20.5001 241.5 20.3101 241.5 20.1101C239.9 22.3801 235.96 22.7701 233.24 20.0801C231.5 18.3401 230.64 15.4901 231.2 12.3801C231.4 11.2601 231.76 10.3101 232.26 9.50009C234.64 5.66009 239.46 5.30008 241.64 7.99008V7.79009V7.80009ZM236.21 16.9601C237.42 18.4201 239.63 18.3901 240.75 16.8801C241.25 16.2101 241.51 15.4001 241.53 14.2201C241.53 12.3201 240.83 11.1101 239.71 10.5501C237.84 9.63009 235.74 10.8601 235.4 13.4101C235.37 13.6601 235.34 13.9401 235.34 14.1901C235.34 15.3701 235.68 16.2901 236.21 16.9601Z" fill="white"/>
<path d="M248.16 6.54005C249.36 6.04005 250.6 6.60005 251.1 7.97005L253.79 15.1701L256.53 7.95005C257.06 6.58005 258.32 6.02005 259.5 6.58005C260.56 7.08005 261.01 8.29005 260.56 9.38005L253.59 26.4601C253 27.8901 251.83 28.4201 250.65 27.9401C249.53 27.4601 249.05 26.2601 249.53 25.1101L251.55 20.4601L246.99 9.29005C246.57 8.23005 247.07 6.99005 248.17 6.55005L248.16 6.54005Z" fill="white"/>
<path d="M109.81 28.49C110.46 28.49 110.78 28.74 110.78 29.25C110.78 29.82 110.43 30.11 109.72 30.11C109.49 30.11 109.29 30.11 109.14 30.09V28.52C109.34 28.5 109.56 28.49 109.81 28.49ZM111.33 32.95C111.68 32.66 111.86 32.28 111.86 31.8C111.86 31.39 111.76 31.06 111.56 30.82C111.36 30.58 111.05 30.41 110.61 30.3C110.84 30.25 111.05 30.12 111.24 29.91C111.43 29.7 111.52 29.47 111.52 29.22C111.52 28.79 111.37 28.45 111.08 28.22C110.79 27.99 110.37 27.87 109.83 27.87C109.54 27.87 109.06 27.89 108.39 27.92V33.38H109.95C110.52 33.38 110.98 33.24 111.33 32.95ZM110.77 30.9C110.97 31.07 111.08 31.33 111.08 31.69C111.08 32.07 110.97 32.35 110.76 32.53C110.54 32.71 110.2 32.79 109.74 32.79C109.6 32.79 109.41 32.78 109.15 32.75V30.67L109.75 30.65C110.23 30.65 110.57 30.73 110.78 30.9H110.77Z" fill="white"/>
<path d="M122.8 33.38H119.59V27.92H120.33V32.71H122.8V33.38Z" fill="white"/>
<path d="M130.33 31.72V27.92H131.07V31.66C131.07 31.99 131.18 32.27 131.39 32.48C131.6 32.69 131.88 32.8 132.23 32.8C132.6 32.8 132.89 32.7 133.1 32.49C133.31 32.28 133.42 32 133.42 31.64V27.92H134.16V31.72C134.16 32.27 133.99 32.7 133.64 33.01C133.3 33.32 132.83 33.47 132.23 33.47C131.63 33.47 131.15 33.32 130.82 33.01C130.49 32.71 130.33 32.27 130.33 31.7V31.72Z" fill="white"/>
<path d="M146.69 28.59H144.17V30.11H145.98V30.74H144.17V32.71H146.65V33.38H143.43V27.92H146.69V28.59Z" fill="white"/>
<path d="M164.72 28.55C165.71 28.55 166.2 28.88 166.2 29.55C166.2 30.28 165.74 30.64 164.81 30.64C164.79 30.64 164.62 30.63 164.31 30.6V28.58C164.48 28.56 164.62 28.54 164.72 28.54V28.55ZM164.86 31.31C166.26 31.31 166.96 30.7 166.96 29.47C166.96 28.41 166.17 27.88 164.58 27.88C164.46 27.88 164.12 27.89 163.56 27.92V33.38H164.31V31.28C164.59 31.3 164.78 31.32 164.86 31.32V31.31Z" fill="white"/>
<path d="M175.58 29.0601C175.82 28.6801 176.17 28.4901 176.64 28.4901C177.68 28.4901 178.21 29.1901 178.21 30.6001C178.21 31.3001 178.08 31.8401 177.81 32.2201C177.54 32.6001 177.16 32.8001 176.65 32.8001C176.2 32.8001 175.85 32.5901 175.6 32.1701C175.35 31.7501 175.23 31.2301 175.23 30.6001C175.23 29.9701 175.35 29.4301 175.59 29.0601H175.58ZM175.02 32.6701C175.41 33.2101 175.95 33.4801 176.64 33.4801C177.4 33.4801 177.98 33.2301 178.38 32.7201C178.79 32.2101 178.99 31.5101 178.99 30.6101C178.99 29.7101 178.79 29.0501 178.38 28.5601C177.98 28.0701 177.4 27.8201 176.64 27.8201C175.97 27.8201 175.43 28.0901 175.03 28.6201C174.63 29.1501 174.43 29.8101 174.43 30.6001C174.43 31.4401 174.63 32.1301 175.01 32.6701H175.02Z" fill="white"/>
<path d="M192.62 27.92L190.92 33.46H190.69L189.39 29.69L188.17 33.46H187.93L186.21 27.92H186.99L188.08 31.73L189.28 27.92H189.55L190.73 31.73L191.85 27.92H192.62Z" fill="white"/>
<path d="M203.37 28.59H200.85V30.11H202.66V30.74H200.85V32.71H203.33V33.38H200.1V27.92H203.37V28.59Z" fill="white"/>
<path d="M212.29 28.5501C212.76 28.5501 213.11 28.6201 213.33 28.7501C213.55 28.8801 213.66 29.1001 213.66 29.4101C213.66 29.7801 213.56 30.0401 213.35 30.1801C213.15 30.3201 212.82 30.4001 212.37 30.4001C212.2 30.4001 212.03 30.3901 211.85 30.3601V28.5801C212.07 28.5601 212.22 28.5401 212.29 28.5401V28.5501ZM213.37 30.8701C213.66 30.8001 213.91 30.6301 214.12 30.3601C214.33 30.0901 214.44 29.7801 214.44 29.4301C214.44 28.3901 213.78 27.8601 212.47 27.8601C212.31 27.8601 212.04 27.8601 211.68 27.8901C211.32 27.9101 211.13 27.9201 211.1 27.9201V33.3801H211.85V31.0001C212.21 31.0301 212.47 31.0401 212.64 31.0401L214.1 33.3901H214.95L213.37 30.8801V30.8701Z" fill="white"/>
</g>
<defs>
<clipPath id="clip0_1410_127">
<rect width="260.74" height="49.92" fill="white"/>
</clipPath>
</defs>
</svg>
