<?xml version="1.0" encoding="UTF-8" standalone="no"?>
<!DOCTYPE svg PUBLIC "-//W3C//DTD SVG 1.1//EN" "http://www.w3.org/Graphics/SVG/1.1/DTD/svg11.dtd">
<svg width="100%" height="100%" viewBox="0 0 170 76" version="1.1" xmlns="http://www.w3.org/2000/svg" xmlns:xlink="http://www.w3.org/1999/xlink" xml:space="preserve" xmlns:serif="http://www.serif.com/" style="fill-rule:evenodd;clip-rule:evenodd;stroke-linejoin:round;stroke-miterlimit:2;">
    <g>
        <g>
            <path d="M37.54,51.18C34.203,51.301 30.955,50.067 28.54,47.76C26.14,45.349 24.855,42.039 25,38.64L25,38C24.96,35.641 25.463,33.304 26.47,31.17C27.374,29.248 28.825,27.634 30.64,26.53C32.498,25.426 34.629,24.861 36.79,24.9C39.872,24.718 42.882,25.913 45,28.16C47,30.353 48,33.457 48,37.47L48,40.23L31.84,40.23C32,41.761 32.711,43.184 33.84,44.23C34.986,45.237 36.475,45.771 38,45.72C40.372,45.823 42.651,44.762 44.1,42.88L47.41,46.61C46.366,48.094 44.939,49.266 43.28,50C41.478,50.815 39.517,51.218 37.54,51.18ZM36.77,30.34C35.536,30.296 34.342,30.798 33.51,31.71C32.595,32.822 32.037,34.185 31.91,35.62L41.3,35.62L41.3,35.07C41.354,33.794 40.917,32.544 40.08,31.58C39.206,30.712 37.999,30.26 36.77,30.34Z" style="fill:white;fill-rule:nonzero;"/>
            <path d="M60.91,42.44L65.61,25.35L72.61,25.35L64.13,50.71L57.69,50.71L49.17,25.35L56.17,25.35L60.91,42.44Z" style="fill:white;fill-rule:nonzero;"/>
            <path d="M110,45.72C111.088,45.765 112.156,45.409 113,44.72C113.784,44.023 114.229,43.019 114.22,41.97L120.54,41.97C120.541,43.649 120.055,45.292 119.14,46.7C118.21,48.132 116.896,49.275 115.35,50C113.704,50.804 111.892,51.211 110.06,51.19C106.844,51.354 103.715,50.086 101.52,47.73C99.433,45.43 98.39,42.247 98.39,38.18L98.39,37.73C98.39,33.83 99.423,30.713 101.49,28.38C103.667,26.011 106.787,24.728 110,24.88C112.791,24.745 115.524,25.72 117.6,27.59C119.537,29.478 120.59,32.097 120.5,34.8L114.2,34.8C114.225,33.613 113.795,32.461 113,31.58C112.202,30.74 111.077,30.288 109.92,30.34C108.515,30.26 107.165,30.916 106.36,32.07C105.56,33.22 105.16,35.07 105.16,37.67L105.16,38.37C105.16,40.98 105.55,42.86 106.35,44C107.179,45.174 108.567,45.828 110,45.72Z" style="fill:white;fill-rule:nonzero;"/>
            <path d="M134.88,45.72C135.968,45.764 137.036,45.408 137.88,44.72C138.661,44.021 139.103,43.018 139.09,41.97L145.42,41.97C145.421,43.649 144.935,45.292 144.02,46.7C143.106,48.124 141.814,49.266 140.29,50C138.642,50.799 136.831,51.203 135,51.18C131.784,51.344 128.655,50.076 126.46,47.72C124.373,45.42 123.33,42.237 123.33,38.17L123.33,37.72C123.33,33.82 124.363,30.703 126.43,28.37C128.62,25.986 131.767,24.704 135,24.88C137.791,24.743 140.525,25.718 142.6,27.59C144.543,29.474 145.601,32.095 145.51,34.8L139.18,34.8C139.203,33.612 138.77,32.459 137.97,31.58C137.135,30.784 136.025,30.34 134.872,30.34C133.489,30.34 132.18,30.979 131.33,32.07C130.53,33.22 130.12,35.07 130.12,37.67L130.12,38.37C130.12,40.977 130.52,42.853 131.32,44C132.131,45.146 133.478,45.796 134.88,45.72Z" style="fill:white;fill-rule:nonzero;"/>
        </g>
        <path d="M82.92,22.86L92.14,22.86L86,35.16L92.15,35.16L80.62,56.67L82.92,41.31L75.24,41.31L82.92,22.86Z" style="fill:rgb(78,184,72);fill-rule:nonzero;"/>
    </g>
    <rect x="0" y="0" width="170" height="76" style="fill:none;"/>
</svg>
