<svg clip-rule="evenodd" fill-rule="evenodd" stroke-linejoin="round" stroke-miterlimit="2" viewBox="0 0 1000 400" xmlns="http://www.w3.org/2000/svg"><g fill-rule="nonzero" transform="matrix(7.2294994712 0 0 7.2294994712 -116.3305223894 -87.485443277)"><path d="m76.363 18.3c-1.14-.607-2.425-.937-3.753-.937h-7c-1.745 0-3.385.566-4.72 1.544-1.336-.979-2.976-1.544-4.72-1.544h-7c-1.491 0-2.929.416-4.167 1.173-2.605-1.179-5.478-1.75-8.395-1.624-3.51-.012-6.996.938-10.048 2.752-.023.013-.046.027-.069.041-3.154 1.918-5.675 4.722-7.247 8.062-1.523 3.231-2.286 6.767-2.23 10.338-.001-.046-.001.386-.001.386-.188 5.55 1.935 10.955 5.867 14.904.047.047.095.094.143.14 3.92 3.745 9.174 5.771 14.587 5.634l-.021-.001c3.085.03 6.141-.611 8.956-1.879 1.524-.678 2.938-1.562 4.207-2.621 1.401 2.457 4.032 4.029 6.938 4.029h6.44c3.435 0 6.485-2.196 7.575-5.454l1.415-4.233c.182.05.366.094.551.131l-.95 6.346c-.575 3.842 1.697 7.54 5.384 8.764 3.687 1.223 7.719-.384 9.554-3.808l5.631-10.503c.669 1.146 1.444 2.197 2.315 3.157.023.025.047.051.07.077 3.747 4.022 9.065 6.213 14.551 6.003 2.947.001 5.891-.674 8.576-1.974 1.311-.621 2.533-1.403 3.637-2.325 3.556 2.925 8.088 4.47 12.739 4.289 2.938.004 5.891-.67 8.583-1.974 2.847-1.372 5.259-3.504 6.969-6.161 1.749-2.7 2.679-5.85 2.677-9.068-.001-1.251-.29-2.436-.804-3.49.532-1.023.848-2.178.889-3.404.168-4.958-1.771-9.762-5.333-13.215-.068-.066-.138-.131-.208-.195-3.542-3.196-8.18-4.903-12.938-4.773-4.594-.152-9.079 1.398-12.598 4.308-3.474-2.899-7.894-4.434-12.424-4.307-3.73-.103-7.379.911-10.495 2.86-.158-.374-.346-.738-.563-1.089-1.456-2.354-4.026-3.786-6.793-3.786h-9.22c-2.649 0-5.085 1.309-6.557 3.427z" fill="#fff"/><path d="m37.54 51.18c-3.337.121-6.585-1.113-9-3.42-2.4-2.411-3.685-5.721-3.54-9.12v-.64c-.04-2.359.463-4.696 1.47-6.83.904-1.922 2.355-3.536 4.17-4.64 1.858-1.104 3.989-1.669 6.15-1.63 3.082-.182 6.092 1.013 8.21 3.26 2 2.193 3 5.297 3 9.31v2.76h-16.16c.16 1.531.871 2.954 2 4 1.146 1.007 2.635 1.541 4.16 1.49 2.372.103 4.651-.958 6.1-2.84l3.31 3.73c-1.044 1.484-2.471 2.656-4.13 3.39-1.802.815-3.763 1.218-5.74 1.18zm-.77-20.84c-1.234-.044-2.428.458-3.26 1.37-.915 1.112-1.473 2.475-1.6 3.91h9.39v-.55c.054-1.276-.383-2.526-1.22-3.49-.874-.868-2.081-1.32-3.31-1.24z" fill="#1c2445"/><path d="m60.91 42.44 4.7-17.09h7l-8.48 25.36h-6.44l-8.52-25.36h7z" fill="#1c2445"/><path d="m110 45.72c1.088.045 2.156-.311 3-1 .784-.697 1.229-1.701 1.22-2.75h6.32c.001 1.679-.485 3.322-1.4 4.73-.93 1.432-2.244 2.575-3.79 3.3-1.646.804-3.458 1.211-5.29 1.19-3.216.164-6.345-1.104-8.54-3.46-2.087-2.3-3.13-5.483-3.13-9.55v-.45c0-3.9 1.033-7.017 3.1-9.35 2.177-2.369 5.297-3.652 8.51-3.5 2.791-.135 5.524.84 7.6 2.71 1.937 1.888 2.99 4.507 2.9 7.21h-6.3c.025-1.187-.405-2.339-1.2-3.22-.798-.84-1.923-1.292-3.08-1.24-1.405-.08-2.755.576-3.56 1.73-.8 1.15-1.2 3-1.2 5.6v.7c0 2.61.39 4.49 1.19 5.63.829 1.174 2.217 1.828 3.65 1.72z" fill="#1c2445"/><path d="m134.88 45.72c1.088.044 2.156-.312 3-1 .781-.699 1.223-1.702 1.21-2.75h6.33c.001 1.679-.485 3.322-1.4 4.73-.914 1.424-2.206 2.566-3.73 3.3-1.648.799-3.459 1.203-5.29 1.18-3.216.164-6.345-1.104-8.54-3.46-2.087-2.3-3.13-5.483-3.13-9.55v-.45c0-3.9 1.033-7.017 3.1-9.35 2.19-2.384 5.337-3.666 8.57-3.49 2.791-.137 5.525.838 7.6 2.71 1.943 1.884 3.001 4.505 2.91 7.21h-6.33c.023-1.188-.41-2.341-1.21-3.22-.835-.796-1.945-1.24-3.098-1.24-1.383 0-2.692.639-3.542 1.73-.8 1.15-1.21 3-1.21 5.6v.7c0 2.607.4 4.483 1.2 5.63.811 1.146 2.158 1.796 3.56 1.72z" fill="#1c2445"/><path d="m82.92 22.86h9.22l-6.14 12.3h6.15l-11.53 21.51 2.3-15.36h-7.68z" fill="#0fdd42"/></g><path d="m77.189 22.276c-.033-.05-.068-.099-.103-.149-1.037-1.439-2.702-2.292-4.476-2.292h-7c-1.966 0-3.74 1.04-4.72 2.662-.98-1.622-2.754-2.662-4.72-2.662h-7c-1.472 0-2.869.587-3.894 1.61-2.591-1.469-5.57-2.2-8.602-2.061-3.1-.021-6.168.81-8.851 2.405-.016.009-.032.019-.048.028-2.74 1.666-4.929 4.102-6.294 7.003-1.36 2.884-2.043 6.041-1.996 9.228 0-.007 0 .486 0 .486-.175 4.887 1.689 9.644 5.147 13.117.032.033.065.065.098.097 3.454 3.299 8.086 5.08 12.856 4.948 2.738.031 5.451-.537 7.948-1.663 2.437-1.083 4.551-2.775 6.141-4.91l.787 2.343c.755 2.246 2.859 3.759 5.228 3.759h6.44c2.372 0 4.478-1.517 5.23-3.766l2.32-6.937c.983.831 2.24 1.303 3.56 1.303h1.278s-1.352 9.028-1.352 9.028c-.398 2.653 1.171 5.207 3.717 6.052 2.546.844 5.331-.265 6.598-2.629l8.104-15.119c.745 2.888 2.059 5.304 3.85 7.279.017.018.033.035.049.053 3.269 3.509 7.914 5.415 12.701 5.216 2.597.007 5.191-.586 7.554-1.734 1.782-.842 3.372-2.035 4.678-3.5l.007.008c3.265 3.506 7.904 5.411 12.685 5.217 2.613.008 5.211-.583 7.578-1.729 2.437-1.174 4.503-3.001 5.966-5.276 1.491-2.3 2.284-4.984 2.282-7.725-.001-1.342-.481-2.573-1.28-3.529.814-.925 1.322-2.127 1.367-3.451.144-4.26-1.522-8.389-4.584-11.356-.047-.046-.095-.091-.143-.134-3.086-2.786-7.133-4.266-11.281-4.136-4.768-.178-9.396 1.747-12.637 5.27-.293-.343-.602-.673-.928-.989-.051-.051-.104-.1-.157-.148-3.095-2.789-7.152-4.268-11.309-4.132-4.729-.152-9.329 1.777-12.554 5.287-.023.025-.045.05-.068.075l-.052.06c.59-1.585.423-3.367-.479-4.824-1.005-1.625-2.779-2.614-4.69-2.614h-9.22c-2.227 0-4.236 1.339-5.092 3.396z" fill="none" stroke="#000" stroke-width=".04" transform="matrix(7.22952 0 0 7.22952 -116.331 -87.4844)"/></svg>