<?xml version="1.0" encoding="UTF-8" standalone="no"?><!DOCTYPE svg PUBLIC "-//W3C//DTD SVG 1.1//EN" "http://www.w3.org/Graphics/SVG/1.1/DTD/svg11.dtd"><svg width="100%" height="100%" viewBox="0 0 1190 276" version="1.1" xmlns="http://www.w3.org/2000/svg" xmlns:xlink="http://www.w3.org/1999/xlink" xml:space="preserve" xmlns:serif="http://www.serif.com/" style="fill-rule:evenodd;clip-rule:evenodd;stroke-linejoin:round;stroke-miterlimit:2;"><g><path d="M470.798,182.251c1.006,-0 2.011,0.189 3.016,0.566c1.006,0.377 1.969,1.027 2.892,1.948l16.841,17.722c-7.375,9.636 -16.612,16.903 -27.713,21.805c-11.103,4.902 -24.237,7.352 -39.401,7.352c-13.91,0 -26.374,-2.366 -37.391,-7.1c-11.019,-4.733 -20.361,-11.269 -28.028,-19.606c-7.666,-8.337 -13.554,-18.224 -17.658,-29.662c-4.106,-11.437 -6.158,-23.858 -6.158,-37.265c-0,-13.656 2.345,-26.205 7.038,-37.642c4.691,-11.437 11.248,-21.303 19.669,-29.598c8.421,-8.295 18.495,-14.746 30.227,-19.355c11.73,-4.607 24.675,-6.912 38.836,-6.912c6.869,-0 13.342,0.608 19.418,1.822c6.074,1.215 11.751,2.891 17.029,5.027c5.279,2.137 10.138,4.693 14.58,7.667c4.44,2.975 8.377,6.264 11.814,9.866l-14.328,19.229c-0.923,1.175 -2.011,2.243 -3.268,3.205c-1.257,0.965 -3.016,1.446 -5.278,1.446c-1.508,0 -2.934,-0.334 -4.273,-1.006c-1.341,-0.67 -2.765,-1.486 -4.274,-2.451c-1.507,-0.962 -3.163,-2.011 -4.964,-3.142c-1.803,-1.131 -3.939,-2.178 -6.41,-3.142c-2.472,-0.962 -5.363,-1.779 -8.672,-2.451c-3.31,-0.669 -7.185,-1.005 -11.625,-1.005c-7.71,0 -14.748,1.363 -21.115,4.085c-6.369,2.723 -11.836,6.62 -16.402,11.688c-4.567,5.07 -8.128,11.207 -10.683,18.412c-2.556,7.207 -3.833,15.292 -3.833,24.257c-0,9.385 1.277,17.721 3.833,25.011c2.555,7.289 6.033,13.428 10.432,18.413c4.399,4.985 9.53,8.778 15.396,11.374c5.864,2.598 12.148,3.896 18.852,3.896c3.854,0 7.372,-0.188 10.558,-0.565c3.183,-0.378 6.137,-1.026 8.861,-1.949c2.721,-0.921 5.32,-2.115 7.792,-3.582c2.47,-1.465 4.964,-3.286 7.478,-5.466c1.006,-0.837 2.093,-1.528 3.268,-2.075c1.172,-0.543 2.388,-0.817 3.644,-0.817Z" style="fill:#231f20;fill-rule:nonzero;"/><path d="M590.9,196.076c5.697,-0 10.787,-0.942 15.27,-2.828c4.481,-1.885 8.274,-4.586 11.374,-8.105c3.099,-3.52 5.468,-7.812 7.102,-12.883c1.633,-5.069 2.451,-10.829 2.451,-17.282l-0,-108.464l42.48,0l0,108.464c0,11.229 -1.822,21.535 -5.466,30.918c-3.646,9.385 -8.862,17.471 -15.648,24.257c-6.788,6.787 -15.042,12.065 -24.76,15.835c-9.721,3.771 -20.655,5.656 -32.803,5.656c-12.234,0 -23.21,-1.885 -32.929,-5.656c-9.721,-3.77 -17.972,-9.048 -24.76,-15.835c-6.787,-6.786 -11.982,-14.872 -15.586,-24.257c-3.602,-9.383 -5.403,-19.689 -5.403,-30.918l-0,-108.464l42.481,0l0,108.338c0,6.453 0.817,12.213 2.451,17.282c1.633,5.07 4,9.386 7.101,12.945c3.099,3.563 6.891,6.284 11.374,8.169c4.482,1.886 9.571,2.828 15.271,2.828Z" style="fill:#231f20;fill-rule:nonzero;"/><path d="M745.088,151.962l0,45.623l29.911,-0c5.614,-0 10.202,-0.711 13.763,-2.137c3.56,-1.424 6.346,-3.268 8.359,-5.53c2.01,-2.262 3.392,-4.817 4.146,-7.667c0.754,-2.847 1.131,-5.738 1.131,-8.672c0,-3.35 -0.439,-6.366 -1.32,-9.049c-0.879,-2.68 -2.386,-4.943 -4.524,-6.787c-2.136,-1.842 -4.964,-3.267 -8.484,-4.273c-3.517,-1.005 -7.961,-1.508 -13.322,-1.508l-29.66,-0Zm0,-28.404l22.119,-0c4.691,-0 8.923,-0.334 12.694,-1.006c3.77,-0.67 6.976,-1.842 9.615,-3.519c2.639,-1.676 4.649,-3.979 6.034,-6.913c1.382,-2.932 2.072,-6.618 2.072,-11.06c0,-4.355 -0.545,-7.98 -1.633,-10.871c-1.09,-2.891 -2.766,-5.216 -5.027,-6.975c-2.263,-1.76 -5.133,-3.017 -8.609,-3.771c-3.478,-0.754 -7.605,-1.131 -12.382,-1.131l-24.883,-0l0,45.246Zm-42.481,106.076l-0,-183.12l67.364,0c12.652,0 23.419,1.175 32.302,3.52c8.879,2.346 16.128,5.655 21.742,9.928c5.614,4.273 9.699,9.47 12.254,15.585c2.555,6.117 3.834,12.946 3.834,20.487c0,4.106 -0.586,8.064 -1.76,11.876c-1.173,3.814 -3.017,7.395 -5.53,10.746c-2.514,3.352 -5.739,6.39 -9.677,9.112c-3.94,2.724 -8.672,5.09 -14.203,7.101c12.068,2.934 20.991,7.688 26.771,14.265c5.781,6.579 8.673,15.019 8.673,25.325c0,7.792 -1.51,15.041 -4.524,21.744c-3.017,6.703 -7.438,12.548 -13.261,17.531c-5.825,4.987 -13.007,8.883 -21.555,11.69c-8.545,2.808 -18.307,4.21 -29.282,4.21l-73.148,-0Z" style="fill:#231f20;fill-rule:nonzero;"/><path d="M1007.76,138.011c0,-9.049 -1.17,-17.197 -3.52,-24.446c-2.34,-7.246 -5.717,-13.385 -10.116,-18.411c-4.399,-5.028 -9.784,-8.881 -16.15,-11.564c-6.369,-2.68 -13.616,-4.021 -21.743,-4.021c-8.212,0 -15.522,1.341 -21.932,4.021c-6.409,2.683 -11.814,6.536 -16.213,11.564c-4.399,5.026 -7.772,11.165 -10.118,18.411c-2.346,7.249 -3.518,15.397 -3.518,24.446c0,9.134 1.172,17.324 3.518,24.571c2.346,7.248 5.719,13.385 10.118,18.412c4.399,5.028 9.804,8.862 16.213,11.501c6.41,2.639 13.72,3.959 21.932,3.959c8.127,0 15.374,-1.32 21.743,-3.959c6.366,-2.639 11.751,-6.473 16.15,-11.501c4.399,-5.027 7.776,-11.164 10.116,-18.412c2.35,-7.247 3.52,-15.437 3.52,-24.571Zm43.49,0c-0,13.24 -2.29,25.557 -6.85,36.951c-4.571,11.396 -11,21.303 -19.29,29.724c-8.3,8.42 -18.29,15.018 -29.98,19.795c-11.689,4.776 -24.655,7.163 -38.899,7.163c-14.246,0 -27.232,-2.387 -38.962,-7.163c-11.732,-4.777 -21.765,-11.375 -30.101,-19.795c-8.339,-8.421 -14.79,-18.328 -19.355,-29.724c-4.568,-11.394 -6.849,-23.711 -6.849,-36.951c-0,-13.238 2.281,-25.555 6.849,-36.951c4.565,-11.393 11.016,-21.281 19.355,-29.66c8.336,-8.378 18.369,-14.957 30.101,-19.733c11.73,-4.776 24.716,-7.163 38.962,-7.163c14.244,-0 27.21,2.409 38.899,7.226c11.69,4.819 21.68,11.417 29.98,19.795c8.29,8.38 14.719,18.267 19.29,29.661c4.56,11.396 6.85,23.671 6.85,36.825Z" style="fill:#231f20;fill-rule:nonzero;"/><path d="M1176.2,83.716c-1.26,2.011 -2.58,3.52 -3.96,4.525c-1.38,1.005 -3.16,1.508 -5.34,1.508c-1.93,-0 -4.01,-0.607 -6.22,-1.822c-2.22,-1.214 -4.74,-2.576 -7.55,-4.085c-2.8,-1.508 -6.01,-2.869 -9.61,-4.085c-3.6,-1.213 -7.71,-1.822 -12.32,-1.822c-7.96,-0 -13.89,1.697 -17.78,5.09c-3.9,3.393 -5.85,7.981 -5.85,13.762c-0,3.688 1.18,6.745 3.52,9.175c2.35,2.431 5.43,4.525 9.24,6.284c3.81,1.76 8.17,3.373 13.07,4.839c4.9,1.467 9.91,3.1 15.02,4.901c5.11,1.803 10.12,3.918 15.02,6.347c4.9,2.432 9.26,5.53 13.07,9.301c3.81,3.77 6.89,8.358 9.24,13.762c2.35,5.404 3.52,11.92 3.52,19.544c0,8.464 -1.47,16.383 -4.4,23.754c-2.93,7.374 -7.19,13.806 -12.76,19.292c-5.57,5.489 -12.44,9.803 -20.61,12.945c-8.17,3.142 -17.45,4.713 -27.84,4.713c-5.7,0 -11.5,-0.587 -17.4,-1.759c-5.91,-1.172 -11.63,-2.828 -17.16,-4.964c-5.53,-2.137 -10.73,-4.671 -15.58,-7.604c-4.87,-2.932 -9.1,-6.199 -12.7,-9.803l12.57,-19.858c0.92,-1.508 2.22,-2.722 3.9,-3.645c1.67,-0.92 3.47,-1.382 5.4,-1.382c2.51,-0 5.05,0.797 7.6,2.387c2.56,1.593 5.45,3.352 8.68,5.279c3.22,1.928 6.93,3.688 11.12,5.279c4.19,1.592 9.13,2.387 14.83,2.387c7.71,-0 13.7,-1.696 17.97,-5.09c4.27,-3.393 6.41,-8.775 6.41,-16.149c0,-4.274 -1.17,-7.75 -3.52,-10.432c-2.34,-2.681 -5.42,-4.902 -9.23,-6.662c-3.82,-1.759 -8.15,-3.309 -13.01,-4.65c-4.86,-1.339 -9.85,-2.828 -14.96,-4.462c-5.11,-1.634 -10.1,-3.645 -14.96,-6.032c-4.86,-2.388 -9.19,-5.53 -13,-9.427c-3.82,-3.896 -6.9,-8.754 -9.24,-14.579c-2.35,-5.823 -3.52,-13.008 -3.52,-21.554c-0,-6.87 1.38,-13.573 4.15,-20.109c2.76,-6.536 6.82,-12.359 12.19,-17.47c5.36,-5.11 11.94,-9.195 19.73,-12.254c7.79,-3.058 16.72,-4.587 26.77,-4.587c5.61,-0 11.08,0.439 16.4,1.319c5.32,0.88 10.37,2.18 15.15,3.896c4.77,1.719 9.23,3.771 13.38,6.159c4.15,2.387 7.86,5.09 11.12,8.106l-10.55,19.732Z" style="fill:#231f20;fill-rule:nonzero;"/><path d="M199.515,185.295l-0.018,0.013l0.01,0.005l-53.368,30.819l-23.411,13.524l-0.013,0.008l-0.002,0.015l-0.01,46.305l0.027,0.016l116.948,-67.515l-0.004,-135.038l-40.149,23.194l-0.01,88.654Z" style="fill:#f5821f;fill-rule:nonzero;"/><path d="M40.162,185.295l0.019,0.013l-0.009,0.005l53.366,30.819l23.412,13.524l0.012,0.008l0.003,0.015l0.01,46.305l-0.027,0.016l-116.948,-67.515l0,-135.042l40.16,23.187l0.002,88.665Z" style="fill:#faa619;fill-rule:nonzero;"/><path d="M119.824,46.514l76.812,44.347l40.148,-23.193l-116.948,-67.521l-116.947,67.517l40.161,23.187l76.774,-44.337Z" style="fill:#ffcb03;fill-rule:nonzero;"/><path d="M69.725,106.241l0.004,-0l50.107,28.941l0.01,0l50.107,-28.941l-50.107,-28.914l-0.033,0.016l-50.088,28.898Z" style="fill:#c5ced4;fill-rule:nonzero;"/><path d="M122.736,140.961l0,57.86l50.106,-28.923l-0,-57.878l-50.106,28.941Z" style="fill:#6b7b84;fill-rule:nonzero;"/><path d="M66.839,112.02l-0,57.878l50.107,28.923l-0,-57.86l-50.107,-28.941Z" style="fill:#94a2ab;fill-rule:nonzero;"/></g></svg>