<svg version="1.1" id="H2D2-logo" xmlns="http://www.w3.org/2000/svg" xmlns:xlink="http://www.w3.org/1999/xlink" x="0px" y="0px" width="70px" height="70px" viewBox="10 10 50 50" style="enable-background:new 0 0 70 70;" xml:space="preserve">
<style type="text/css">
  rect{fill:#ffffff;}
	.logo-fill{fill:#001CC3;}
</style>
<rect width="70" height="70" />
<g>
	<path class="logo-fill" d="M39.612,32.286h-0.717v5.434h0.703c1.562,0,2.463-1,2.463-2.717C42.061,33.285,41.16,32.286,39.612,32.286z"></path>
	<path class="logo-fill" d="M10,10v50h50V10H10z M25.233,40h-2.617v-4.026H19.66V40h-2.618v-9.993h2.618v3.687h2.956v-3.687h2.617V40z
		 M30.882,37.775h3.407v2.224h-6.996v-2.083c2.9-2.237,4.49-3.378,4.49-4.645c0-0.633-0.407-1.097-0.971-1.097
		c-0.676,0-1.126,0.676-1.267,1.886l-2.449-0.394c0.253-2.28,1.689-3.659,3.772-3.659c2.027,0,3.462,1.322,3.462,3.209
		c0.002,1.52-0.745,2.505-3.461,4.531L30.882,37.775z M39.557,40h-3.28v-9.993h3.28c3.124,0,5.109,1.928,5.109,4.982
		C44.666,38.057,42.681,40,39.557,40z M49.757,37.775h3.407v2.224h-6.996v-2.083c2.9-2.237,4.49-3.378,4.49-4.645
		c0-0.633-0.407-1.097-0.971-1.097c-0.676,0-1.126,0.676-1.267,1.886l-2.449-0.394c0.253-2.28,1.689-3.659,3.772-3.659
		c2.027,0,3.462,1.322,3.462,3.209c0.002,1.52-0.745,2.505-3.461,4.531L49.757,37.775z"></path>
</g>
</svg>