<?xml version="1.0" encoding="UTF-8" standalone="no"?><!DOCTYPE svg PUBLIC "-//W3C//DTD SVG 1.1//EN" "http://www.w3.org/Graphics/SVG/1.1/DTD/svg11.dtd"><svg width="100%" height="100%" viewBox="0 0 419 166" version="1.1" xmlns="http://www.w3.org/2000/svg" xmlns:xlink="http://www.w3.org/1999/xlink" xml:space="preserve" xmlns:serif="http://www.serif.com/" style="fill-rule:evenodd;clip-rule:evenodd;stroke-linejoin:round;stroke-miterlimit:2;"><g><path d="M185,10l199,0c13.807,0 25,11.193 25,25l0,96c0,13.807 -11.193,25 -25,25l-199,0l0,-146Z" style="fill:#f6d400;fill-rule:nonzero;"/></g><g><path d="M10,35c0,-13.807 11.193,-25 25,-25l174,0l0,146l-174,0c-13.807,0 -25,-11.193 -25,-25l0,-96Z" style="fill:#542c74;fill-rule:nonzero;"/></g><path d="M198,127.817l-20.57,-39.417l17.983,-28.858l-20.862,0l-15.271,29.625l17.837,38.65l20.883,-0Zm-40.139,-92.713l-18.129,-0l-0,92.713l18.129,-0l-0,-92.713Zm-34.235,58.482c0.349,-6.034 -0.415,-12.08 -2.253,-17.841c-1.359,-4.051 -3.62,-7.746 -6.613,-10.809c-2.538,-2.514 -5.674,-4.348 -9.117,-5.332c-3.199,-0.928 -6.513,-1.41 -9.847,-1.431c-3.53,0.002 -7.043,0.505 -10.431,1.494c-3.53,1.029 -6.753,2.902 -9.388,5.456c-3.05,3.06 -5.374,6.76 -6.801,10.829c-1.894,5.682 -2.77,11.651 -2.587,17.634c-0.247,6.419 0.766,12.825 2.984,18.858c1.587,4.14 4.19,7.82 7.573,10.705c2.961,2.398 6.473,4.03 10.222,4.751c6.231,1.236 12.626,1.432 18.922,0.581c2.259,-0.294 4.501,-0.703 6.718,-1.224c1.961,-0.457 4.047,-1.038 6.258,-1.743l0,-14.294c-2.691,0.706 -5.048,1.266 -7.072,1.743c-2.024,0.477 -4.277,0.892 -6.738,1.224c-2.377,0.344 -4.775,0.517 -7.177,0.518c-1.524,-0.003 -3.042,-0.177 -4.527,-0.518c-1.585,-0.359 -3.068,-1.068 -4.339,-2.075c-1.482,-1.227 -2.641,-2.793 -3.38,-4.564c-1.005,-2.565 -1.507,-5.297 -1.481,-8.049l38.845,-0l0.229,-5.913Zm-38.97,-5.414c0,-6.764 1.001,-11.514 2.712,-14.211c0.894,-1.367 2.139,-2.472 3.606,-3.202c1.467,-0.729 3.103,-1.056 4.739,-0.948c1.483,-0.03 2.958,0.231 4.339,0.768c1.318,0.588 2.409,1.585 3.109,2.842c0.944,1.747 1.579,3.641 1.877,5.602c0.481,2.999 0.739,6.029 0.772,9.066l-21.154,0.083Zm-34.527,-53.172l-18.129,-0l0,92.817l18.129,-0l0,-92.817Z" style="fill:url(#_Linear1);fill-rule:nonzero;"/><path d="M391,58.863c-2.524,-0.474 -5.085,-0.731 -7.653,-0.768c-1.919,-0.033 -3.816,0.41 -5.52,1.288c-1.446,0.765 -2.793,1.699 -4.015,2.783c-1.275,1.199 -2.386,2.561 -3.304,4.049l-2.509,-6.833l-14.532,0l-0,68.433l18.171,-0l-0,-50.634c0.426,-0.265 0.882,-0.481 1.359,-0.644c1.101,-0.444 2.225,-0.832 3.366,-1.163c1.353,-0.423 2.763,-0.64 4.182,-0.643c1.476,0.018 2.949,0.122 4.412,0.311c1.736,0.229 3.116,0.436 4.182,0.644c0.591,0.15 1.192,0.261 1.798,0.332l0.063,-17.155Zm-51.835,34.684c0.359,-6.041 -0.406,-12.096 -2.259,-17.861c-1.354,-4.06 -3.621,-7.76 -6.628,-10.821c-2.543,-2.516 -5.687,-4.353 -9.138,-5.337c-3.207,-0.93 -6.528,-1.412 -9.869,-1.433c-3.539,0.001 -7.059,0.505 -10.455,1.495c-3.534,1.026 -6.759,2.902 -9.388,5.462c-3.087,3.049 -5.433,6.757 -6.859,10.842c-1.917,5.684 -2.802,11.661 -2.613,17.653c-0.249,6.426 0.767,12.839 2.99,18.879c1.591,4.145 4.2,7.829 7.59,10.717c2.976,2.4 6.503,4.034 10.267,4.756c6.238,1.237 12.64,1.433 18.944,0.581c2.264,-0.294 4.511,-0.703 6.733,-1.225c1.965,-0.457 4.056,-1.039 6.273,-1.745l-0,-14.309c-2.698,0.706 -5.06,1.266 -7.089,1.744c-2.028,0.478 -4.286,0.893 -6.733,1.225c-2.389,0.344 -4.799,0.518 -7.213,0.52c-1.528,-0.003 -3.05,-0.178 -4.538,-0.52c-1.588,-0.359 -3.075,-1.069 -4.349,-2.076c-1.484,-1.225 -2.641,-2.794 -3.367,-4.57c-1.025,-2.563 -1.536,-5.3 -1.505,-8.058l38.976,0l0.23,-5.919Zm-39.06,-5.421c-0,-6.77 1.004,-11.526 2.719,-14.226c0.896,-1.369 2.143,-2.475 3.614,-3.205c1.47,-0.73 3.109,-1.058 4.749,-0.949c1.487,-0.033 2.966,0.228 4.35,0.769c1.325,0.582 2.42,1.582 3.115,2.845c0.946,1.748 1.583,3.645 1.882,5.607c0.492,3.002 0.751,6.036 0.774,9.076l-21.203,0.083Zm-21.704,39.689l-20.617,-39.46l18.024,-28.889l-20.91,-0l-15.306,29.657l17.816,38.692l20.993,0Zm-40.23,-92.815l-18.171,0l-0,92.815l18.171,0l-0,-92.815Z" style="fill:url(#_Linear2);fill-rule:nonzero;"/><defs><linearGradient id="_Linear1" x1="0" y1="0" x2="1" y2="0" gradientUnits="userSpaceOnUse" gradientTransform="matrix(5.75584e-15,94,-94,5.75584e-15,115,35)"><stop offset="0" style="stop-color:#ffe666;stop-opacity:1"/><stop offset="0.6" style="stop-color:#ffd500;stop-opacity:1"/><stop offset="1" style="stop-color:#ffd500;stop-opacity:1"/></linearGradient><linearGradient id="_Linear2" x1="0" y1="0" x2="1" y2="0" gradientUnits="userSpaceOnUse" gradientTransform="matrix(5.75584e-15,94,-94,5.75584e-15,305.5,35)"><stop offset="0" style="stop-color:#806297;stop-opacity:1"/><stop offset="0.63" style="stop-color:#411564;stop-opacity:1"/><stop offset="1" style="stop-color:#411564;stop-opacity:1"/></linearGradient></defs></svg>