<svg viewBox="0 0 149 35" xmlns="http://www.w3.org/2000/svg" xml:space="preserve" style="fill-rule:evenodd;clip-rule:evenodd;stroke-linejoin:round;stroke-miterlimit:2"><path d="M10.34.02 19.05 10l8.74-10 9.83 11.55.06.45-3.26 3.99-6.75-7.74-8.74 9.99-8.76-9.99-6.75 7.74-3.37-4-.05-.28L10.01.02h.33Z" style="fill:#72152c;fill-rule:nonzero"/><path d="M18.98 34.85 6.75 20.08l3.05-3.34.36-.12 8.64 9.99 8.87-10.24 3.2 3.43.1.35-11.99 14.7Z" style="fill:#72152c;fill-rule:nonzero"/><path d="M61.64 17.25c0 .1-.08.18-.17.18h-1.12c-.09 0-.17-.08-.17-.18V6.87l-4.29 7.18c-.1.16-.17.19-.31.19h-.84c-.15 0-.21-.04-.31-.19L50.1 6.87v10.38c0 .1-.08.18-.17.18h-1.12c-.09 0-.17-.08-.17-.18V4.36c0-.1.08-.2.17-.2h1.2c.15 0 .23.02.32.2l4.78 8.1 4.8-8.1c.11-.18.19-.2.34-.2h1.2c.09 0 .17.1.17.2v12.89h.02ZM73.42 17.62c-3.72 0-6.79-2.96-6.79-6.79S69.7 4 73.42 4s6.78 2.98 6.78 6.83-3.09 6.79-6.78 6.79Zm0-12.17c-2.92 0-5.18 2.43-5.18 5.37s2.27 5.35 5.18 5.35c2.91 0 5.17-2.41 5.17-5.35 0-2.94-2.25-5.37-5.17-5.37ZM84.64 16.36c-.11-.06-.15-.16-.1-.27l.48-.99c.04-.1.11-.14.25-.06.8.53 1.98 1.27 3.72 1.27.92 0 1.64-.23 2.13-.6.57-.45.86-1.11.86-1.87 0-1.01-.71-1.62-1.66-2.02-1.12-.51-2.4-.68-3.75-1.36-1.12-.56-1.94-1.4-1.94-2.88 0-1.05.38-1.93 1.12-2.55.78-.64 1.94-1.01 3.49-1.01 1.55 0 2.9.43 3.77.93.11.08.13.16.08.27l-.46.97c-.06.12-.15.16-.27.08-.95-.57-2.12-.92-3.2-.92s-1.85.25-2.33.7c-.4.37-.61.86-.61 1.46 0 .97.74 1.52 1.89 1.95 1.3.49 2.63.66 3.83 1.38.9.53 1.7 1.42 1.7 2.86 0 1.29-.51 2.28-1.37 2.96-.8.64-1.94.97-3.26.97-2.02 0-3.45-.66-4.36-1.27h-.01ZM97.6 16.36c-.11-.06-.15-.16-.1-.27l.48-.99c.04-.1.11-.14.25-.06.8.53 1.98 1.27 3.72 1.27.92 0 1.64-.23 2.13-.6.57-.45.86-1.11.86-1.87 0-1.01-.71-1.62-1.66-2.02-1.12-.51-2.4-.68-3.75-1.36-1.12-.56-1.94-1.4-1.94-2.88 0-1.05.38-1.93 1.12-2.55.78-.64 1.94-1.01 3.49-1.01 1.55 0 2.9.43 3.77.93.11.08.13.16.08.27l-.46.97c-.06.12-.15.16-.27.08-.95-.57-2.12-.92-3.2-.92s-1.85.25-2.33.7c-.4.37-.61.86-.61 1.46 0 .97.74 1.52 1.89 1.95 1.3.49 2.63.66 3.83 1.38.9.53 1.7 1.42 1.7 2.86 0 1.29-.51 2.28-1.37 2.96-.8.64-1.94.97-3.26.97-2.02 0-3.45-.66-4.36-1.27h-.01ZM112.76 4.17c.09 0 .19.1.19.2v11.68h6.61c.09 0 .17.1.17.2v1.01c0 .1-.08.18-.17.18h-7.97c-.09 0-.17-.08-.17-.18V4.36c0-.1.08-.2.17-.2h1.16l.01.01ZM133.36 4.17c.1 0 .17.1.17.2v.99c0 .12-.08.19-.17.19h-7.58v4.56h6.59c.1 0 .17.08.17.18v1.01c0 .1-.08.18-.17.18h-6.59v4.58h7.58c.1 0 .17.1.17.2v1.01c0 .1-.08.18-.17.18h-8.94c-.09 0-.17-.08-.17-.18V4.36c0-.1.08-.2.17-.2h8.94v.01ZM144.81 12.17l3.62 4.95c.1.16.12.31-.09.31h-1.3c-.17 0-.27-.04-.36-.2l-3.58-4.98h-3.26v5c0 .1-.1.18-.19.18h-1.16c-.09 0-.17-.08-.17-.18V4.36c0-.1.08-.2.17-.2h5.15c1.24 0 2.29.16 3.16.76.93.64 1.52 1.75 1.52 3.29 0 1.44-.57 2.49-1.5 3.17-.61.47-1.24.68-2 .78l-.01.01Zm-4.97-6.69v5.46h3.49c.95 0 1.7-.08 2.33-.45.67-.39 1.12-1.11 1.12-2.26 0-1.15-.44-1.87-1.09-2.28-.63-.39-1.37-.47-2.23-.47h-3.62ZM55.47 30.66c-.02.07-.06.09-.13.09h-.43c-.07 0-.11-.02-.13-.09l-3.19-7.37c-.04-.07-.01-.11.06-.11h.44c.06 0 .09.03.12.08l2.91 6.83h.02l2.93-6.83s.05-.08.12-.08h.43c.07 0 .09.04.06.11l-3.21 7.37ZM69.9 23.18s.08.03.08.08v.32s-.04.08-.08.08h-4.97v3.05h4.36s.08.04.08.08v.32s-.05.08-.08.08h-4.36v3.06h4.97s.08.03.08.08v.31s-.04.08-.08.08h-5.45s-.08-.03-.08-.08v-7.38s.04-.08.08-.08h5.45ZM82.36 23.26s.05-.08.08-.08h.39s.08.03.08.08v7.38s-.04.08-.08.08h-.4c-.07 0-.11-.01-.17-.08l-5.68-6.6v6.6s-.05.08-.08.08h-.39s-.08-.03-.08-.08v-7.38s.04-.08.08-.08h.39c.07 0 .11.02.15.09l5.7 6.62v-6.63h.01ZM94.92 23.18s.08.03.08.08v.32s-.04.08-.08.08h-2.85v6.98s-.04.08-.07.08h-.41s-.08-.03-.08-.08v-6.98h-2.84s-.08-.04-.08-.08v-.32s.04-.08.08-.08h6.26-.01ZM106.8 23.26s.04-.08.08-.08h.4s.08.03.08.08v4.48c0 .9-.27 1.65-.79 2.17-.58.59-1.45.92-2.57.92-1.12 0-1.99-.33-2.55-.92-.52-.52-.8-1.27-.8-2.17v-4.48s.05-.08.08-.08h.41s.07.03.07.08v4.4c0 .82.25 1.48.71 1.95.49.49 1.18.74 2.08.74.9 0 1.61-.25 2.08-.74.46-.46.71-1.13.71-1.95v-4.4h.01ZM117.46 27.61l2.53 2.98c.05.07.05.13-.05.13h-.45c-.09 0-.12-.01-.17-.08l-2.54-3.02h-2.29v3.02s-.04.08-.08.08h-.4s-.08-.03-.08-.08v-7.38s.04-.08.08-.08h3.06c.77 0 1.37.07 1.93.4.58.33.96.92.96 1.83s-.39 1.44-.96 1.79c-.46.29-.91.39-1.54.41Zm-2.97-3.98v3.53h2.42c.66 0 1.19-.03 1.64-.28.47-.27.82-.72.82-1.48s-.33-1.23-.79-1.48c-.46-.24-.98-.29-1.62-.29h-2.47ZM131.58 23.18s.08.03.08.08v.32s-.04.08-.08.08h-4.97v3.05h4.36s.08.04.08.08v.32s-.05.08-.08.08h-4.36v3.06h4.97s.08.03.08.08v.31s-.04.08-.08.08h-5.45s-.08-.03-.08-.08v-7.38s.04-.08.08-.08h5.45ZM137.37 30.09s-.07-.07-.05-.11l.17-.32s.06-.07.12-.02c.48.3 1.23.73 2.4.73.64 0 1.15-.14 1.5-.39.43-.3.64-.74.64-1.27 0-.64-.44-1.04-1.03-1.29-.73-.32-1.51-.4-2.45-.77-.75-.3-1.29-.79-1.29-1.6 0-.58.21-1.05.63-1.37.46-.39 1.17-.59 2.12-.59.85 0 1.67.2 2.22.52.06.02.07.07.04.11l-.15.31s-.06.06-.13.02c-.6-.33-1.36-.5-2-.5-.79 0-1.37.18-1.73.49-.27.24-.4.59-.4.98 0 .63.47 1 1.23 1.27.85.3 1.66.38 2.45.76.57.29 1.1.8 1.1 1.6 0 .73-.3 1.28-.82 1.65-.47.34-1.14.52-1.93.52-1.22 0-2.07-.39-2.64-.73Z" style="fill-rule:nonzero"/></svg>