<svg width="411" height="121" viewBox="0 0 411 121" fill="none" xmlns="http://www.w3.org/2000/svg">
<circle cx="58.2894" cy="58.5" r="58" fill="white"/>
<path d="M34.9215 57.0719L61.9965 24.2095C63.9307 21.862 67.7143 23.6926 67.0739 26.6662L61.7721 51.2837C61.3644 53.1769 62.8898 54.9307 64.8213 54.7894L78.5155 53.7874C81.1201 53.5968 82.6317 56.6745 80.8886 58.6192L50.4961 92.5277C48.425 94.8384 44.6607 92.7244 45.5557 89.7533L53.5571 63.1927C54.1822 61.1174 52.3947 59.1139 50.2619 59.4994L37.6777 61.7736C35.0179 62.2543 33.2028 59.158 34.9215 57.0719Z" fill="#2B2B2B"/>
<path d="M174.418 28.3419C184.184 29.4665 190.991 31.9525 190.991 41.4227C190.991 48.2886 185.072 54.3259 173.945 54.3259C162.344 54.3259 156.898 46.8681 156.898 39.1735H164.711C164.83 42.3697 166.309 47.6968 173.945 47.6968C180.87 47.6968 182.942 44.2046 182.942 41.8962C182.942 39.0552 181.107 36.9835 173.945 36.0365C162.107 34.4976 158.319 30.6503 158.319 23.5476C158.319 17.0368 164.179 11.7098 174.063 11.7098C184.895 11.7098 189.334 18.2206 189.452 24.9682H181.817C181.817 22.2455 179.982 18.339 173.945 18.339C167.848 18.339 166.309 21.4168 166.309 23.1925C166.309 24.7906 167.079 27.5133 174.418 28.3419ZM208.276 22.1271C218.042 22.1271 223.902 29.3481 223.902 38.2265C223.902 47.1049 218.042 54.3259 208.276 54.3259C198.51 54.3259 192.65 47.1049 192.65 38.2265C192.65 29.3481 198.51 22.1271 208.276 22.1271ZM208.276 47.46C213.425 47.46 216.326 43.3168 216.326 38.2265C216.326 33.1362 213.425 28.993 208.276 28.993C203.126 28.993 200.226 33.1362 200.226 38.2265C200.226 43.3168 203.126 47.46 208.276 47.46ZM237.762 54.3259C231.015 54.3259 226.516 49.9459 226.516 41.0676V22.6006H234.092V38.4633C234.092 45.5068 235.927 47.46 239.893 47.46C244.273 47.46 248.298 42.5473 248.298 35.3262V22.6006H255.874V53.8524H248.298V51.8992C248.298 50.0051 248.712 48.8805 249.245 47.6376C249.482 47.1049 249.837 46.2762 249.067 46.0986C248.594 45.9803 248.416 46.3354 248.179 46.8089C246.64 49.8868 243.208 54.3259 237.762 54.3259ZM267.829 29.289C268.184 29.3481 268.48 28.8746 268.54 28.6971C270.434 24.3763 272.15 22.1271 279.785 22.1271V29.8217C270.966 29.2298 268.421 32.3668 268.421 40.2981V53.8524H260.845V22.6006H268.421V24.3171C268.421 25.6784 268.066 26.8622 267.533 27.9276C267.297 28.4603 267.119 29.1706 267.829 29.289ZM279.558 38.2265C279.558 28.9338 285.655 22.1271 295.362 22.1271C304.122 22.1271 309.33 28.046 309.863 34.4384H302.405C301.932 31.479 299.623 28.993 295.362 28.993C290.153 28.993 287.135 32.7811 287.135 38.2265C287.135 43.6719 290.153 47.46 295.362 47.46C299.623 47.46 301.932 44.9741 302.405 42.0146H309.863C309.33 48.407 304.181 54.3259 295.362 54.3259C285.832 54.3259 279.558 47.5192 279.558 38.2265ZM342.031 37.8122C342.031 38.6408 341.972 39.2327 341.853 40.1206H319.125C319.658 44.8557 322.735 47.6968 327.471 47.6968C331.081 47.6968 332.916 45.7435 333.804 42.9616H341.498C340.137 49.4132 335.757 54.3259 327.411 54.3259C317.29 54.3259 311.726 47.5192 311.726 38.2265C311.726 28.4603 317.764 22.1271 327.293 22.1271C334.514 22.1271 342.031 26.4479 342.031 37.8122ZM319.421 34.9119H334.455C334.159 31.1238 331.91 28.2827 327.53 28.2827C322.38 28.2827 320.19 31.183 319.421 34.9119ZM357.358 17.8655C354.162 17.8655 354.102 18.1022 354.102 21.5352V22.6006H362.626V29.2298H354.102V53.8524H346.526V29.2298H341.791V22.6006H346.526V20.8249C346.526 13.3079 349.486 11.2363 355.76 11.2363H362.626V17.8655H357.358ZM375.539 54.3259C368.791 54.3259 364.293 49.9459 364.293 41.0676V22.6006H371.869V38.4633C371.869 45.5068 373.704 47.46 377.669 47.46C382.049 47.46 386.074 42.5473 386.074 35.3262V22.6006H393.65V53.8524H386.074V51.8992C386.074 50.0051 386.489 48.8805 387.021 47.6376C387.258 47.1049 387.613 46.2762 386.844 46.0986C386.37 45.9803 386.193 46.3354 385.956 46.8089C384.417 49.8868 380.984 54.3259 375.539 54.3259ZM398.621 11.2363H406.198V53.8524H398.621V11.2363Z" fill="white"/>
<path d="M187.992 73.5321H166.684V83.9494H184.204V90.5785H166.684V100.996H187.992V108.099H158.635V66.4294H187.992V73.5321ZM210.591 76.3732C217.338 76.3732 221.837 80.7532 221.837 89.6315V108.099H214.26V92.2358C214.26 85.1923 212.425 83.2391 208.46 83.2391C204.08 83.2391 200.055 88.1518 200.055 95.3729V108.099H192.479V76.8467H200.055V78.7999C200.055 80.694 199.7 81.8186 199.108 83.0615C198.871 83.5942 198.516 84.4229 199.286 84.6005C199.759 84.7188 199.937 84.3637 200.173 83.8902C201.594 80.7532 205.145 76.3732 210.591 76.3732ZM254.734 92.0583C254.734 92.8869 254.674 93.4788 254.556 94.3666H231.827C232.36 99.1018 235.438 101.943 240.173 101.943C243.784 101.943 245.619 99.9896 246.506 97.2077H254.201C252.84 103.659 248.46 108.572 240.114 108.572C229.993 108.572 224.429 101.765 224.429 92.4726C224.429 82.7064 230.466 76.3732 239.996 76.3732C247.217 76.3732 254.734 80.694 254.734 92.0583ZM232.123 89.158H247.157C246.861 85.3699 244.612 82.5288 240.232 82.5288C235.083 82.5288 232.893 85.4291 232.123 89.158ZM264.319 83.5351C264.674 83.5942 264.97 83.1207 265.029 82.9432C266.923 78.6224 268.64 76.3732 276.275 76.3732V84.0678C267.456 83.4759 264.911 86.6129 264.911 94.5442V108.099H257.335V76.8467H264.911V78.5632C264.911 79.9245 264.556 81.1083 264.023 82.1737C263.786 82.7064 263.609 83.4167 264.319 83.5351ZM276.511 91.7623C276.511 83.3575 282.015 76.3732 290.124 76.3732C294.978 76.3732 297.996 78.7999 300.009 82.0553C300.068 82.1737 300.423 82.9432 300.956 82.7064C301.548 82.4696 301.133 81.7002 300.837 81.1083C300.364 80.2205 300.186 79.3918 300.186 78.2672V76.8467H307.762V104.784C307.762 114.787 301.903 119.936 292.314 119.936C282.489 119.936 277.99 114.668 277.458 108.809H284.915C285.271 111.65 287.165 113.781 292.196 113.781C297.523 113.781 300.186 110.821 300.186 105.08C300.186 104.014 300.364 103.186 300.837 102.298C301.133 101.706 301.548 101.114 300.956 100.818C300.423 100.582 300.127 101.114 300.009 101.351C297.996 104.784 294.859 107.151 290.124 107.151C282.015 107.151 276.511 100.167 276.511 91.7623ZM291.9 100.286C296.872 100.286 300.186 96.3791 300.186 91.7623C300.186 87.1456 296.872 83.2391 291.9 83.2391C286.573 83.2391 284.087 87.1456 284.087 91.7623C284.087 96.3791 286.573 100.286 291.9 100.286ZM309.443 76.8467H317.493L324.477 97.0302C324.892 98.2731 324.951 99.3977 324.951 100.582C324.951 100.996 325.01 101.588 325.661 101.588C326.312 101.588 326.371 101.055 326.371 100.582C326.371 99.4569 326.49 98.2731 326.904 97.0302L333.592 76.8467H341.642L328.384 111.709C326.253 117.273 323.294 119.463 317.848 119.463H312.166V112.834H314.77C319.269 112.834 320.157 112.834 320.985 110.407L321.636 108.513L309.443 76.8467Z" fill="white" fill-opacity="0.7"/>
</svg>
