<?xml version="1.0" encoding="UTF-8" standalone="no"?><!DOCTYPE svg PUBLIC "-//W3C//DTD SVG 1.1//EN" "http://www.w3.org/Graphics/SVG/1.1/DTD/svg11.dtd"><svg width="100%" height="100%" viewBox="0 0 120 120" version="1.1" xmlns="http://www.w3.org/2000/svg" xmlns:xlink="http://www.w3.org/1999/xlink" xml:space="preserve" xmlns:serif="http://www.serif.com/" style="fill-rule:evenodd;clip-rule:evenodd;stroke-linecap:round;stroke-linejoin:round;stroke-miterlimit:1.5;"><g><path d="M60.189,95.876c-0.264,0.081 -14.114,-0.37 -18.36,-1.169c-4.233,-0.797 -5.638,-2.805 -6.25,-4.482c-0.613,-1.678 -0.544,-6.527 -0.544,-6.527c-0,0 -0.053,-4.192 -0.101,-9.894c-0.083,-9.943 -0.151,-24.476 0.101,-29.377c0.396,-7.712 1.218,-16.324 1.218,-16.324l5.897,-4.762c0,0 5.444,-0.528 17.72,-0.535c12.276,-0.008 -11.957,-0.008 0.319,-0c1.157,0 2.254,0.006 3.291,0.015c9.963,0.087 14.428,0.52 14.428,0.52l5.897,4.762c0,0 0.823,8.612 1.219,16.324c0.252,4.901 0.183,19.434 0.1,29.377c-0.047,5.702 -0.1,9.894 -0.1,9.894c-0,0 0.068,4.849 -0.544,6.527c-0.612,1.677 -2.018,3.685 -6.25,4.482c-4.246,0.799 -18.041,1.25 -18.041,1.169Z" style="fill:#4eb84b;stroke:#000;stroke-width:2px;"/><path d="M35.243,83.67l5.619,1.155l19.676,-0.572l18.281,0.572l6.163,-0.572l-0,4.829l-2.518,3.923l-4.899,2.486l-13.661,0.462l-13.616,0l-10.599,-1.779l-3.945,-3.81l-0.501,-6.694Z" style="fill:#fff;"/><path d="M84.825,83.646l-5.614,0.627l-19.496,0l0.609,0l-19.572,0l-5.5,-0.627" style="fill:#4eb84b;stroke:#000;stroke-width:2px;"/><path d="M79.114,84.327l0,-33.604c0,-0 -0.209,-11.749 -0.729,-17.481" style="fill:#4eb84b;stroke:#000;stroke-width:2px;"/><path d="M79.114,85.278l0,3.368c0,0 0.01,1.155 -0.623,1.905c-0.632,0.75 -1.008,1.223 -2.293,1.527c-1.285,0.304 -16.06,0.798 -16.06,0.798" style="fill:none;stroke:#000;stroke-width:2px;"/><path d="M40.862,84.327l0,-33.604c0,-0 0.209,-11.749 0.73,-17.481" style="fill:#4eb84b;stroke:#000;stroke-width:2px;"/><path d="M40.862,84.825l0,3.821c0,0 -0.01,1.155 0.623,1.905c0.633,0.75 1.008,1.223 2.293,1.527c1.286,0.304 16.06,0.798 16.06,0.798" style="fill:none;stroke:#000;stroke-width:2px;"/><rect x="45.144" y="72" width="10.776" height="8.448" style="fill:#fff;stroke:#000;stroke-width:2px;"/><path d="M60.189,95.876c-0.264,0.081 -14.114,-0.37 -18.36,-1.169c-4.233,-0.797 -5.638,-2.805 -6.25,-4.482c-0.613,-1.678 -0.544,-6.527 -0.544,-6.527c-0,0 -0.053,-4.192 -0.101,-9.894c-0.083,-9.943 -0.151,-24.476 0.101,-29.377c0.396,-7.712 1.218,-16.324 1.218,-16.324l5.897,-4.762l17.73,-0.535l0.309,-0l17.719,0.535l5.897,4.762c0,0 0.823,8.612 1.219,16.324c0.252,4.901 0.183,19.434 0.1,29.377c-0.047,5.702 -0.1,9.894 -0.1,9.894c-0,0 0.068,4.849 -0.544,6.527c-0.612,1.677 -2.018,3.685 -6.25,4.482c-4.246,0.799 -18.041,1.25 -18.041,1.169Z" style="fill:none;stroke:#000;stroke-width:2px;"/></g></svg>