<?xml version="1.0" encoding="utf-8"?>
<!-- Generator: Adobe Illustrator 25.4.1, SVG Export Plug-In . SVG Version: 6.00 Build 0)  -->
<svg version="1.1" id="Ebene_1" xmlns="http://www.w3.org/2000/svg" xmlns:xlink="http://www.w3.org/1999/xlink" x="0px" y="0px"
	 viewBox="0 0 140 140" style="enable-background:new 0 0 140 140;" xml:space="preserve">
<style type="text/css">
	.st0{fill:none;}
	.st1{fill:#000133;}
	.st2{fill:#00E206;}
	.st3{fill:#FFFFFF;}
</style>
<rect class="st0" width="140" height="140"/>
<g>
	<path class="st0" d="M85.783,49.29c4.377,0,7.938-3.561,7.938-7.938s-3.561-7.938-7.938-7.938c-4.376,0-7.938,3.561-7.938,7.938
		S81.407,49.29,85.783,49.29z M90.329,39.722c0.9,0,1.63,0.73,1.63,1.63s-0.73,1.63-1.63,1.63c-0.9,0-1.63-0.73-1.63-1.63
		S89.429,39.722,90.329,39.722z M81.066,39.722c0.9,0,1.63,0.73,1.63,1.63s-0.73,1.63-1.63,1.63c-0.9,0-1.63-0.73-1.63-1.63
		S80.166,39.722,81.066,39.722z"/>
	<path class="st0" d="M96.435,38.691v-7.905h-7.663C92.539,31.853,95.481,34.879,96.435,38.691z"/>
	<path class="st0" d="M43.565,52.931h52.869v-8.918c-1.194,4.776-5.51,8.329-10.651,8.329c-6.06,0-10.99-4.93-10.99-10.99
		c0-5.023,3.391-9.26,8.002-10.566H43.565V52.931z"/>
	<rect x="43.565" y="83.122" class="st0" width="52.869" height="26.092"/>
	<path class="st1" d="M40.513,27.733v84.534h58.975V27.733H40.513z M85.783,30.362c1.037,0,2.037,0.154,2.989,0.424h7.663v7.905
		c0.214,0.854,0.339,1.742,0.339,2.661s-0.126,1.807-0.339,2.661v8.918H43.565V30.786h39.229
		C83.746,30.516,84.746,30.362,85.783,30.362z M89.042,57.734v20.928H51.646V57.734H89.042z M43.565,109.214V83.122h52.869v26.092
		H43.565z"/>
	<rect x="51.646" y="57.734" class="st2" width="37.396" height="20.928"/>
	<path class="st3" d="M74.793,41.352c0,6.06,4.93,10.99,10.99,10.99c5.141,0,9.457-3.553,10.651-8.329
		c0.214-0.854,0.339-1.742,0.339-2.661s-0.126-1.807-0.339-2.661c-0.954-3.813-3.896-6.838-7.663-7.905
		c-0.952-0.27-1.952-0.424-2.989-0.424c-1.037,0-2.037,0.154-2.989,0.424C78.184,32.092,74.793,36.329,74.793,41.352z
		 M85.783,33.415c4.377,0,7.938,3.561,7.938,7.938s-3.561,7.938-7.938,7.938c-4.376,0-7.938-3.561-7.938-7.938
		S81.407,33.415,85.783,33.415z"/>
	<circle class="st3" cx="81.066" cy="41.352" r="1.63"/>
	<circle class="st3" cx="90.329" cy="41.352" r="1.63"/>
</g>
</svg>
