<?xml version="1.0" encoding="utf-8"?>
<!-- Generator: Adobe Illustrator 25.4.1, SVG Export Plug-In . SVG Version: 6.00 Build 0)  -->
<svg version="1.1" id="Ebene_1" xmlns="http://www.w3.org/2000/svg" xmlns:xlink="http://www.w3.org/1999/xlink" x="0px" y="0px"
	 viewBox="0 0 140 140" style="enable-background:new 0 0 140 140;" xml:space="preserve">
<style type="text/css">
	.st0{fill:none;}
	.st1{fill:#000133;}
	.st2{fill:#FFFFFF;}
	.st3{fill:#FFFEFF;}
</style>
<rect class="st0" width="140" height="140"/>
<g>
	<path class="st0" d="M128.813,72.311c-3.256-0.024-7.469-4.242-10.509-7.892c-8.441-2.52-16.83-2.62-16.961-2.621l-0.529-0.003
		l-0.411-0.335C86.936,50.46,73.076,46.94,61.618,46.176l0.331,0.858c0.377,0.977,0.86,2.341,1.385,4.043
		c4.153,0.455,8.263,1.27,12.282,2.451c7.068,2.128,13.72,5.447,19.67,9.814l-29.389-1.637c1.128,6.103,2.027,13.857,2.117,23.211
		h34.391c0.719-5.111,5.038-9.045,10.274-9.045s9.555,3.934,10.274,9.045h0.908c0.848-0.527,2.177-0.945,4.059-1.513
		c1.053-0.317,2.643-0.797,3.003-1.056c0.026-0.021,0.05-0.039,0.071-0.057c-0.076-0.154-0.184-0.35-0.277-0.52l-0.087-0.159
		c-0.535-0.982-0.632-1.839-0.287-2.548c0.166-0.339,0.408-0.585,0.666-0.754c-0.246-1.498-0.218-3.011,0.084-4.505l0.12-0.386
		c0.336-0.95,0.438-1.418,0.032-1.913c-0.654,0.506-1.463,0.806-2.321,0.806C128.886,72.313,128.85,72.312,128.813,72.311z"/>
	<path class="st0" d="M18.218,59.816c-0.152,0.167-3.509,3.822-7.858,5.361c-0.196,1.663-1.043,3.978-1.793,5.879
		c-0.027,0.07-0.052,0.132-0.073,0.186c0.092,1.633,1.062,4.552,2.635,7.906l0.057,0.121c0.465,1.01,1.718,2.875,2.268,3.095
		c1.25,0.465,2.194,1.688,2.733,2.552h0.826c0.719-5.111,5.038-9.045,10.274-9.045c5.236,0,9.555,3.934,10.274,9.045h27.183
		c-0.094-9.576-1.058-17.404-2.213-23.398l-14.057-0.783c0,0-17.713-0.499-23.313-4.832c5.56-1.955,11.619-3.757,16.219-4.294
		c4.552-0.599,9.136-0.919,13.727-0.959c1.568-0.011,3.133,0.037,4.695,0.13c-0.383-1.155-0.716-2.055-0.954-2.653l-0.815-2.053
		h1.737c-7.135-0.304-13.232,0.407-17.563,0.914C32.022,48.18,15.519,55.176,11.254,57.12c0.04,0.078,0.072,0.164,0.104,0.249
		l9.166-0.094L18.218,59.816z"/>
	<path class="st1" d="M134.014,78.084c-0.228-1.19-0.229-2.396-0.001-3.586l0.027-0.078c0.38-1.075,1.17-3.311-0.875-5.249
		c-9.329-9.365-27.813-10.275-31.271-10.363C78.239,39.754,52.77,42.732,41.859,44.009C29.983,45.398,9.997,54.232,8.693,55.035
		c-0.729,0.449-0.947,1.033-1.002,1.444c-0.103,0.774,0.288,1.333,0.607,1.698l0.191-0.778l2.869-0.03
		c-0.032-0.085-0.064-0.171-0.104-0.249c4.265-1.944,20.768-8.94,30.953-10.131c4.331-0.507,10.428-1.218,17.563-0.914h-1.737
		l0.815,2.053c0.237,0.598,0.571,1.498,0.954,2.653c0.796,2.4,1.815,5.997,2.729,10.738c1.155,5.994,2.118,13.822,2.213,23.398
		H37.561c-0.719-5.111-5.038-9.045-10.274-9.045c-5.236,0-9.555,3.934-10.274,9.045h-0.826c-0.539-0.864-1.483-2.087-2.733-2.552
		c-0.55-0.22-1.802-2.085-2.268-3.095l-0.057-0.121c-1.573-3.354-2.543-6.273-2.635-7.906c0.021-0.054,0.046-0.116,0.073-0.186
		c0.75-1.901,1.597-4.216,1.793-5.879c-0.357,0.126-0.718,0.243-1.087,0.338l-1.979,0.507l0.051-0.965
		c-0.159,1.014-0.681,2.649-1.569,4.898c-0.234,0.594-0.29,0.735-0.29,1.043c0,2.63,1.591,6.577,2.926,9.424l0.048,0.104
		c0.018,0.038,1.796,3.852,3.945,4.651c0.451,0.167,1.179,1.133,1.549,1.892l0.409,0.849h2.649
		c0.719,5.111,5.038,9.045,10.274,9.045c5.236,0,9.555-3.934,10.274-9.045h27.202h3.269h34.372
		c0.719,5.111,5.038,9.045,10.274,9.045s9.555-3.934,10.274-9.045h1.402l0.598,0.022l0.439-0.439
		c0.401-0.321,2.274-0.886,3.394-1.223c1.987-0.599,3.241-0.994,3.96-1.545c2.122-1.628,1.244-3.23,0.603-4.4l-0.022-0.04
		C133.979,79.607,134.232,78.809,134.014,78.084z M132.46,69.903c-0.256,0.651-0.686,1.194-1.216,1.603
		c0.406,0.495,0.304,0.963-0.032,1.913l-0.12,0.386c-0.302,1.494-0.33,3.007-0.084,4.505c-0.258,0.168-0.5,0.415-0.666,0.754
		c-0.345,0.709-0.249,1.566,0.287,2.548l0.087,0.159c0.093,0.17,0.201,0.366,0.277,0.52c-0.021,0.018-0.045,0.036-0.071,0.057
		c-0.36,0.258-1.951,0.738-3.003,1.056c-1.882,0.567-3.21,0.985-4.059,1.513h-0.908c-0.719-5.111-5.038-9.045-10.274-9.045
		s-9.555,3.934-10.274,9.045H68.013c-0.09-9.354-0.988-17.107-2.117-23.211c-0.815-4.411-1.741-7.963-2.563-10.628
		c-0.525-1.703-1.008-3.066-1.385-4.043l-0.331-0.858c11.458,0.763,25.318,4.284,38.785,15.284l0.411,0.335l0.529,0.003
		c0.131,0.001,8.52,0.101,16.961,2.621c-0.068-0.082-0.139-0.165-0.206-0.247l-3.029-3.673l4.588,1.273
		c4.551,1.263,8.709,3.424,12.36,6.421l0.844,0.692L132.46,69.903z"/>
	<path class="st2" d="M41.38,51.61c-4.6,0.537-10.659,2.339-16.219,4.294c5.6,4.333,23.313,4.832,23.313,4.832l14.057,0.783
		c-0.913-4.741-1.933-8.338-2.729-10.738c-1.562-0.093-3.128-0.141-4.695-0.13C50.516,50.691,45.932,51.011,41.38,51.61z"/>
	<path class="st2" d="M75.616,53.529c-4.018-1.181-8.129-1.996-12.282-2.451c0.822,2.666,1.747,6.217,2.563,10.628l29.389,1.637
		C89.336,58.976,82.684,55.657,75.616,53.529z"/>
	<path class="st3" d="M10.873,60.374c-0.096,0.48-0.179,0.964-0.248,1.449c0.884-0.431,1.708-0.951,2.433-1.472L10.873,60.374z"/>
	<path class="st2" d="M9.274,65.515c0.369-0.095,0.73-0.211,1.087-0.338c4.349-1.539,7.706-5.194,7.858-5.361l2.306-2.542
		l-9.166,0.094l-2.869,0.03l-0.191,0.778l-0.086,0.351c-0.439,1.785-0.711,3.621-0.809,5.456l-0.057,1.074l-0.051,0.965
		L9.274,65.515z M10.625,61.823c0.069-0.485,0.152-0.969,0.248-1.449l2.185-0.022C12.334,60.872,11.51,61.392,10.625,61.823z"/>
	<path class="st3" d="M128.496,69.272c-1.092-0.783-2.229-1.489-3.406-2.118C126.473,68.345,127.665,69.098,128.496,69.272z"/>
	<path class="st2" d="M119.656,61.774l-4.588-1.273l3.029,3.673c0.067,0.081,0.138,0.165,0.206,0.247
		c3.04,3.649,7.253,7.868,10.509,7.892c0.037,0.001,0.074,0.001,0.11,0.001c0.859,0,1.668-0.299,2.321-0.806
		c0.529-0.41,0.959-0.953,1.216-1.603l0.399-1.016l-0.844-0.692C128.365,65.197,124.206,63.037,119.656,61.774z M125.09,67.154
		c1.177,0.628,2.314,1.335,3.406,2.118C127.665,69.098,126.473,68.345,125.09,67.154z"/>
</g>
</svg>
