<svg version="1.1" id="Ebene_1" xmlns="http://www.w3.org/2000/svg" x="0" y="0" viewBox="0 0 900 450" xml:space="preserve"><style>.st0{fill:none}.st1{fill:#1d1d1b}.st2{fill:#0fdd42}.st3{fill:#003}.st5{fill:#000133}</style><path class="st0" d="M0 0h900v450H0z"/><path class="st0" d="M437.51 17.892c-.012-.565-.164-1.002-.457-1.311-.293-.31-.709-.464-1.248-.464-.504 0-.913.171-1.226.512-.313.342-.514.83-.602 1.466h3.533v-.203z"/><path class="st1" d="M68.413 397.485c-.729-.352-1.575-.527-2.536-.527h-4.992v12.797h2.637v-4.509h2.312c1.518 0 2.706-.361 3.564-1.085s1.288-1.713 1.288-2.967c0-.826-.196-1.562-.589-2.211-.393-.646-.955-1.146-1.684-1.498zm-.94 5.133c-.366.328-.898.492-1.595.492h-2.355v-4.017h2.417c.65.012 1.16.211 1.529.598s.554.894.554 1.521c-.001.609-.184 1.078-.55 1.406zM80.485 409.755v-6.091c-.029-2.396-1.075-3.595-3.138-3.595-1.02 0-1.866.404-2.54 1.213v-5.027h-2.54v13.5h2.54v-6.774c.334-.575.873-.863 1.617-.863.545 0 .935.131 1.169.392.234.262.352.666.352 1.212v6.034h2.54zM86.514 409.931c1.371 0 2.464-.44 3.278-1.322s1.222-2.053 1.222-3.512l-.018-.65c-.094-1.348-.546-2.414-1.358-3.199s-1.859-1.178-3.142-1.178c-.902 0-1.695.202-2.377.606s-1.206.976-1.569 1.714-.545 1.579-.545 2.522v.114c0 1.512.409 2.707 1.226 3.586s1.912 1.319 3.283 1.319zm-1.459-7.087c.34-.484.82-.727 1.441-.727.627 0 1.113.243 1.459.73s.519 1.174.519 2.06c0 1.039-.173 1.795-.519 2.267-.346.473-.826.709-1.441.709-.633 0-1.119-.239-1.459-.718-.34-.478-.51-1.169-.51-2.072 0-1.016.17-1.766.51-2.249zM97.342 409.702v-1.925a4.052 4.052 0 01-.747.062c-.381 0-.639-.076-.773-.229s-.202-.404-.202-.756v-4.746h1.626v-1.863H95.62v-2.338h-2.54v2.338h-1.389v1.863h1.389v5.124c.035 1.799.943 2.698 2.725 2.698a5.206 5.206 0 001.537-.228zM107.01 405.097l-.018-.65c-.094-1.348-.546-2.414-1.358-3.199s-1.859-1.178-3.142-1.178c-.902 0-1.695.202-2.377.606s-1.206.976-1.569 1.714-.545 1.579-.545 2.522v.114c0 1.512.409 2.707 1.226 3.586s1.912 1.318 3.283 1.318 2.464-.44 3.278-1.322 1.222-2.052 1.222-3.511zm-3.058 2.077c-.346.473-.826.709-1.441.709-.633 0-1.119-.239-1.459-.718-.34-.478-.51-1.169-.51-2.072 0-1.016.17-1.766.51-2.249.34-.484.82-.727 1.441-.727.627 0 1.113.243 1.459.73s.519 1.174.519 2.06c-.001 1.039-.174 1.795-.519 2.267zM113.769 400.245l-1.767 6.407-1.766-6.407h-2.655l3.208 9.51h2.426l3.208-9.51zM126.021 405.097l-.018-.65c-.094-1.348-.546-2.414-1.358-3.199s-1.859-1.178-3.142-1.178c-.902 0-1.695.202-2.377.606s-1.206.976-1.569 1.714-.545 1.579-.545 2.522v.114c0 1.512.409 2.707 1.226 3.586s1.912 1.318 3.283 1.318 2.464-.44 3.278-1.322 1.222-2.052 1.222-3.511zm-3.059 2.077c-.346.473-.826.709-1.441.709-.633 0-1.119-.239-1.459-.718-.34-.478-.51-1.169-.51-2.072 0-1.016.17-1.766.51-2.249.34-.484.82-.727 1.441-.727.627 0 1.113.243 1.459.73s.519 1.174.519 2.06c0 1.039-.173 1.795-.519 2.267zM127.717 396.255h2.549v13.5h-2.549zM132.859 407.232c.035 1.799.943 2.698 2.725 2.698.527 0 1.04-.076 1.538-.229v-1.925a4.052 4.052 0 01-.747.062c-.381 0-.639-.076-.773-.229s-.202-.404-.202-.756v-4.746h1.626v-1.863H135.4v-2.338h-2.54v2.338h-1.389v1.863h1.389v5.125zM146.139 403.436c0-1.066-.344-1.894-1.033-2.483-.688-.588-1.619-.883-2.791-.883-.773 0-1.471.134-2.092.4s-1.102.634-1.441 1.103-.51.979-.51 1.529h2.54c0-.357.122-.639.365-.844s.579-.308 1.006-.308c.486 0 .842.132 1.068.396s.338.615.338 1.055v.545h-1.169c-1.412.006-2.492.278-3.239.817s-1.121 1.312-1.121 2.32c0 .82.306 1.5.918 2.039s1.384.809 2.316.809c.984 0 1.784-.343 2.399-1.028.053.34.138.624.255.853h2.566v-.149c-.246-.463-.372-1.146-.378-2.048v-4.123zm-2.549 3.629a1.64 1.64 0 01-.703.672 2.175 2.175 0 01-1.037.251c-.387 0-.691-.103-.914-.308s-.334-.466-.334-.782l.009-.149c.082-.879.759-1.318 2.03-1.318h.949v1.634zM148.222 400.245h2.549v9.51h-2.549zM150.534 396.844c-.258-.246-.604-.369-1.037-.369-.439 0-.787.123-1.042.369s-.382.56-.382.94c0 .387.13.703.391.949s.605.369 1.033.369.772-.123 1.033-.369.391-.562.391-.949a1.25 1.25 0 00-.387-.94zM155.403 406.854l.914-.914 2.443 3.815h2.918l-3.735-5.546 3.436-3.964h-3.05l-2.434 2.857-.492.632v-7.479h-2.54v13.5h2.54zM162.469 403.251h4.948v2.048h-4.948zM180.539 409.755l-4.79-12.797h-2.443l-4.764 12.797h2.804l.879-2.637h4.623l.888 2.637h2.803zm-7.602-4.773l1.591-4.79 1.608 4.79h-3.199zM185.242 402.117c.545 0 .935.122 1.169.365.234.244.352.636.352 1.177v6.096h2.54v-6.144c-.012-1.178-.264-2.062-.756-2.654s-1.242-.888-2.25-.888c-1.143 0-2.054.425-2.733 1.274l-.079-1.099h-2.391v9.51h2.54v-6.722c.357-.609.893-.915 1.608-.915zM191.359 396.255h2.549v13.5h-2.549zM203.699 403.436c0-1.066-.344-1.894-1.033-2.483-.688-.588-1.619-.883-2.791-.883-.773 0-1.471.134-2.092.4s-1.102.634-1.441 1.103-.51.979-.51 1.529h2.54c0-.357.122-.639.365-.844s.579-.308 1.006-.308c.486 0 .842.132 1.068.396s.338.615.338 1.055v.545h-1.169c-1.412.006-2.492.278-3.239.817s-1.121 1.312-1.121 2.32c0 .82.306 1.5.918 2.039s1.384.809 2.316.809c.984 0 1.784-.343 2.399-1.028.053.34.138.624.255.853h2.566v-.149c-.246-.463-.372-1.146-.378-2.048v-4.123zm-2.549 3.629a1.64 1.64 0 01-.703.672 2.175 2.175 0 01-1.037.251c-.387 0-.691-.103-.914-.308s-.334-.466-.334-.782l.009-.149c.082-.879.759-1.318 2.03-1.318h.949v1.634zM211.565 401.142c-.58-.715-1.392-1.072-2.435-1.072-1.178 0-2.114.445-2.808 1.336s-1.042 2.065-1.042 3.524v.105c0 1.477.353 2.662 1.059 3.556s1.63 1.34 2.773 1.34c.955 0 1.726-.331 2.312-.993v.51c0 .662-.188 1.173-.562 1.534-.375.359-.899.54-1.573.54-.902 0-1.67-.354-2.303-1.063l-1.125 1.547c.34.439.841.798 1.503 1.076s1.342.418 2.039.418c.92 0 1.723-.161 2.408-.483s1.217-.791 1.595-1.406.567-1.339.567-2.171v-9.193h-2.303l-.105.895zm-.141 5.867c-.334.583-.888.874-1.661.874-.604 0-1.078-.246-1.424-.737s-.519-1.17-.519-2.035c0-.995.174-1.742.523-2.242.349-.501.828-.751 1.437-.751.756 0 1.304.291 1.644.874v4.017zM220.02 400.069c-.867 0-1.639.204-2.316.611s-1.2.987-1.569 1.74-.554 1.606-.554 2.562v.246c0 1.424.438 2.563 1.314 3.419s2.011 1.283 3.406 1.283c.791 0 1.512-.151 2.162-.453.65-.301 1.166-.722 1.547-1.261l-1.248-1.397c-.551.709-1.315 1.063-2.294 1.063-.633 0-1.156-.188-1.569-.562s-.661-.873-.743-1.494h6.056v-1.037c0-1.506-.374-2.669-1.121-3.489s-1.77-1.231-3.071-1.231zm1.696 4.026h-3.533c.088-.636.289-1.124.602-1.466.313-.341.722-.512 1.226-.512.539 0 .955.154 1.248.464.293.309.445.745.457 1.311v.203zM88.852 432.063l-2.101-9.105h-2.232l-2.109 9.088-1.732-9.088H78.05l2.839 12.797h2.654l2.083-8.561 2.083 8.561h2.655l2.839-12.797h-2.628zM98.283 426.069c-.867 0-1.639.204-2.316.611s-1.2.987-1.569 1.74-.554 1.606-.554 2.562v.246c0 1.424.438 2.563 1.314 3.419s2.011 1.283 3.406 1.283c.791 0 1.512-.151 2.162-.453.65-.301 1.166-.722 1.547-1.261l-1.248-1.397c-.551.709-1.315 1.063-2.294 1.063-.633 0-1.156-.188-1.569-.562s-.661-.873-.743-1.494h6.056v-1.037c0-1.506-.374-2.669-1.121-3.489s-1.771-1.231-3.071-1.231zm1.696 4.026h-3.533c.088-.636.289-1.124.602-1.466.313-.341.722-.512 1.226-.512.539 0 .955.154 1.248.464.293.309.445.745.457 1.311v.203zM106.514 428.764c.302-.431.749-.646 1.34-.646.48 0 .867.154 1.16.464s.445.711.457 1.206h2.382c-.012-1.125-.376-2.026-1.094-2.702-.718-.678-1.671-1.016-2.861-1.016-1.359 0-2.429.437-3.208 1.31s-1.169 2.042-1.169 3.507v.167c0 1.523.393 2.718 1.178 3.581.785.865 1.857 1.297 3.217 1.297.727 0 1.39-.148 1.991-.443a3.48 3.48 0 001.419-1.248 3.26 3.26 0 00.527-1.771h-2.382c-.012.428-.164.771-.457 1.028s-.674.387-1.143.387c-.609 0-1.063-.214-1.362-.643s-.448-1.133-.448-2.112v-.265c0-.969.151-1.67.453-2.101zM118.322 426.069c-1.02 0-1.866.404-2.54 1.213v-5.027h-2.54v13.5h2.54v-6.774c.334-.575.873-.863 1.617-.863.545 0 .935.131 1.169.392.234.262.352.666.352 1.212v6.034h2.54v-6.091c-.03-2.397-1.076-3.596-3.138-3.596zM128.983 430.464c-.434-.158-.967-.3-1.6-.426s-1.083-.275-1.349-.449c-.267-.172-.4-.399-.4-.681 0-.299.117-.545.352-.738s.565-.29.993-.29c.498 0 .864.119 1.099.355.234.238.352.538.352.901h2.54c0-.908-.362-1.646-1.085-2.215s-1.689-.853-2.896-.853c-1.131 0-2.046.283-2.747.848-.7.566-1.05 1.271-1.05 2.114 0 1.447 1.131 2.408 3.393 2.883.68.141 1.173.301 1.481.479s.461.423.461.733c0 .299-.125.54-.374.726-.249.184-.617.276-1.103.276-.521 0-.938-.12-1.248-.36s-.478-.586-.501-1.037h-2.408c0 .574.176 1.109.527 1.604.352.496.836.886 1.455 1.17.618.283 1.326.426 2.123.426 1.178 0 2.139-.268 2.883-.805.744-.535 1.116-1.237 1.116-2.104-.002-1.212-.672-2.065-2.014-2.557zM136.726 426.069c-.867 0-1.639.204-2.316.611s-1.2.987-1.569 1.74-.554 1.606-.554 2.562v.246c0 1.424.438 2.563 1.314 3.419s2.011 1.283 3.406 1.283c.791 0 1.512-.151 2.162-.453.65-.301 1.166-.722 1.547-1.261l-1.248-1.397c-.551.709-1.315 1.063-2.294 1.063-.633 0-1.156-.188-1.569-.562s-.661-.873-.743-1.494h6.056v-1.037c0-1.506-.374-2.669-1.121-3.489s-1.77-1.231-3.071-1.231zm1.696 4.026h-3.533c.088-.636.289-1.124.602-1.466.313-.341.722-.512 1.226-.512.539 0 .955.154 1.248.464.293.309.445.745.457 1.311v.203zM142.492 422.255h2.549v13.5h-2.549zM149.602 427.379l-.07-1.134h-2.399v9.51h2.54v-6.223c.299-.65.929-.976 1.89-.976.264 0 .568.023.914.07l.035-2.443a2.668 2.668 0 00-.791-.114c-.903 0-1.609.437-2.119 1.31zM155.104 422.475c-.439 0-.787.123-1.042.369s-.382.56-.382.94c0 .387.13.703.391.949s.605.369 1.033.369.772-.123 1.033-.369.391-.562.391-.949c0-.381-.129-.694-.387-.94s-.604-.369-1.037-.369zM153.829 426.245h2.549v9.51h-2.549zM161.067 428.764c.302-.431.749-.646 1.34-.646.48 0 .867.154 1.16.464s.445.711.457 1.206h2.382c-.012-1.125-.376-2.026-1.094-2.702-.718-.678-1.671-1.016-2.861-1.016-1.359 0-2.429.437-3.208 1.31s-1.169 2.042-1.169 3.507v.167c0 1.523.393 2.718 1.178 3.581.785.865 1.857 1.297 3.217 1.297.727 0 1.39-.148 1.991-.443a3.48 3.48 0 001.419-1.248 3.26 3.26 0 00.527-1.771h-2.382c-.012.428-.164.771-.457 1.028s-.674.387-1.143.387c-.609 0-1.063-.214-1.362-.643s-.448-1.133-.448-2.112v-.265c.001-.969.152-1.67.453-2.101zM172.875 426.069c-1.02 0-1.866.404-2.54 1.213v-5.027h-2.54v13.5h2.54v-6.774c.334-.575.873-.863 1.617-.863.545 0 .935.131 1.169.392.234.262.352.666.352 1.212v6.034h2.54v-6.091c-.029-2.397-1.075-3.596-3.138-3.596zM181.172 433.61c-.135-.152-.202-.404-.202-.756v-4.746h1.626v-1.863h-1.626v-2.338h-2.54v2.338h-1.389v1.863h1.389v5.124c.035 1.799.943 2.698 2.725 2.698.527 0 1.04-.076 1.538-.229v-1.925a4.052 4.052 0 01-.747.062c-.381.001-.639-.075-.774-.228zM188.107 426.069c-.867 0-1.639.204-2.316.611s-1.2.987-1.569 1.74-.554 1.606-.554 2.562v.246c0 1.424.438 2.563 1.314 3.419s2.011 1.283 3.406 1.283c.791 0 1.512-.151 2.162-.453.65-.301 1.166-.722 1.547-1.261l-1.248-1.397c-.551.709-1.315 1.063-2.294 1.063-.633 0-1.156-.188-1.569-.562s-.661-.873-.743-1.494h6.056v-1.037c0-1.506-.374-2.669-1.121-3.489s-1.77-1.231-3.071-1.231zm1.696 4.026h-3.533c.088-.636.289-1.124.602-1.466.313-.341.722-.512 1.226-.512.539 0 .955.154 1.248.464.293.309.445.745.457 1.311v.203zM196.21 427.379l-.07-1.134h-2.399v9.51h2.54v-6.223c.299-.65.929-.976 1.89-.976.264 0 .568.023.914.07l.035-2.443a2.668 2.668 0 00-.791-.114c-.903 0-1.609.437-2.119 1.31zM491.918 413.292c.357-.273.858-.409 1.503-.409.668 0 1.187.163 1.556.487.369.326.554.781.554 1.367h2.637c0-.768-.198-1.453-.594-2.057s-.95-1.07-1.665-1.402c-.715-.33-1.529-.496-2.443-.496-.908 0-1.728.152-2.457.457s-1.289.729-1.679 1.27a3.091 3.091 0 00-.584 1.851c0 1.33.727 2.388 2.18 3.173.533.287 1.257.579 2.171.875s1.547.577 1.898.844.527.648.527 1.146c0 .457-.176.812-.527 1.068-.352.254-.841.382-1.468.382-1.688 0-2.531-.706-2.531-2.118h-2.646c0 .826.212 1.553.637 2.18s1.042 1.121 1.851 1.48c.809.361 1.705.541 2.689.541 1.418 0 2.546-.314 3.384-.945.838-.629 1.257-1.498 1.257-2.605 0-.996-.343-1.828-1.028-2.496s-1.778-1.228-3.278-1.679c-.814-.246-1.432-.51-1.851-.791s-.628-.63-.628-1.046a1.282 1.282 0 01.535-1.077zM503.027 421.61c-.135-.152-.202-.404-.202-.756v-4.746h1.626v-1.863h-1.626v-2.338h-2.54v2.338h-1.389v1.863h1.389v5.124c.035 1.799.943 2.698 2.725 2.698.527 0 1.04-.076 1.538-.229v-1.925a4.052 4.052 0 01-.747.062c-.381.001-.639-.075-.774-.228zM509.962 414.069c-.867 0-1.64.204-2.316.611s-1.199.987-1.568 1.74-.554 1.606-.554 2.562v.246c0 1.424.438 2.563 1.313 3.419s2.012 1.283 3.406 1.283c.791 0 1.512-.151 2.162-.453.65-.301 1.166-.722 1.547-1.261l-1.248-1.397c-.551.709-1.315 1.063-2.294 1.063-.633 0-1.156-.188-1.569-.562s-.66-.873-.742-1.494h6.056v-1.037c0-1.506-.374-2.669-1.121-3.489s-1.771-1.231-3.072-1.231zm1.696 4.026h-3.533c.088-.636.288-1.124.602-1.466.313-.341.723-.512 1.227-.512.539 0 .955.154 1.248.464.293.309.445.745.457 1.311v.203zM521.203 420.985c-.322.599-.914.897-1.775.897-.902 0-1.354-.496-1.354-1.487v-6.15h-2.54v6.231c.012 1.131.285 1.989.821 2.575s1.314.879 2.334.879c1.107 0 1.975-.381 2.602-1.143l.07.967h2.391v-9.51h-2.549v6.741zM529.764 414.069c-.867 0-1.64.204-2.316.611s-1.199.987-1.568 1.74-.554 1.606-.554 2.562v.246c0 1.424.438 2.563 1.313 3.419s2.012 1.283 3.406 1.283c.791 0 1.512-.151 2.162-.453.65-.301 1.166-.722 1.547-1.261l-1.248-1.397c-.551.709-1.315 1.063-2.294 1.063-.633 0-1.156-.188-1.569-.562s-.66-.873-.742-1.494h6.056v-1.037c0-1.506-.374-2.669-1.121-3.489s-1.772-1.231-3.072-1.231zm1.696 4.026h-3.533c.088-.636.288-1.124.602-1.466.313-.341.723-.512 1.227-.512.539 0 .955.154 1.248.464.293.309.445.745.457 1.311v.203zM537.867 415.379l-.07-1.134h-2.399v9.51h2.54v-6.223c.299-.65.929-.976 1.89-.976.264 0 .568.023.914.07l.035-2.443a2.668 2.668 0 00-.791-.114c-.903 0-1.609.437-2.119 1.31zM546.814 414.069c-.955 0-1.726.343-2.312 1.028v-4.843h-2.54v13.5h2.285l.114-1.011c.615.791 1.438 1.187 2.47 1.187 1.166 0 2.074-.426 2.725-1.279.65-.852.976-2.04.976-3.563v-.141c0-1.547-.33-2.747-.989-3.599-.659-.853-1.569-1.279-2.729-1.279zm.993 6.597c-.258.812-.797 1.217-1.617 1.217-.814 0-1.377-.335-1.688-1.005v-3.765c.305-.664.861-.996 1.67-.996.604 0 1.058.222 1.362.666.305.443.457 1.147.457 2.111.001.794-.06 1.384-.184 1.772zM559.796 417.436c0-1.066-.345-1.894-1.033-2.483-.688-.588-1.618-.883-2.79-.883-.773 0-1.471.134-2.092.4s-1.102.634-1.441 1.103-.51.979-.51 1.529h2.54c0-.357.121-.639.364-.844s.579-.308 1.007-.308c.486 0 .842.132 1.067.396s.339.615.339 1.055v.545h-1.169c-1.412.006-2.492.278-3.239.817s-1.12 1.312-1.12 2.32c0 .82.306 1.5.918 2.039s1.385.809 2.316.809c.984 0 1.784-.343 2.399-1.028.053.34.138.624.255.853h2.566v-.149c-.246-.463-.372-1.146-.378-2.048v-4.123zm-2.549 3.629a1.64 1.64 0 01-.703.672 2.175 2.175 0 01-1.037.251c-.387 0-.691-.103-.914-.308s-.334-.466-.334-.782l.009-.149c.082-.879.759-1.318 2.03-1.318h.949v1.634zM564.217 415.379l-.07-1.134h-2.399v9.51h2.54v-6.223c.299-.65.929-.976 1.89-.976.264 0 .568.023.914.07l.035-2.443a2.668 2.668 0 00-.791-.114c-.904 0-1.61.437-2.119 1.31zM572.241 414.069c-.867 0-1.64.204-2.316.611s-1.199.987-1.568 1.74-.554 1.606-.554 2.562v.246c0 1.424.438 2.563 1.313 3.419s2.012 1.283 3.406 1.283c.791 0 1.512-.151 2.162-.453.65-.301 1.166-.722 1.547-1.261l-1.248-1.397c-.551.709-1.315 1.063-2.294 1.063-.633 0-1.156-.188-1.569-.562s-.66-.873-.742-1.494h6.056v-1.037c0-1.506-.374-2.669-1.121-3.489s-1.771-1.231-3.072-1.231zm1.696 4.026h-3.533c.088-.636.288-1.124.602-1.466.313-.341.723-.512 1.227-.512.539 0 .955.154 1.248.464.293.309.445.745.457 1.311v.203zM592.491 420.063l-2.1-9.105h-2.233l-2.109 9.088-1.732-9.088h-2.628l2.839 12.797h2.654l2.084-8.561 2.083 8.561h2.654l2.839-12.797h-2.628zM605.508 417.436c0-1.066-.345-1.894-1.033-2.483-.688-.588-1.618-.883-2.79-.883-.773 0-1.471.134-2.092.4s-1.102.634-1.441 1.103-.51.979-.51 1.529h2.54c0-.357.121-.639.364-.844s.579-.308 1.007-.308c.486 0 .842.132 1.067.396s.339.615.339 1.055v.545h-1.169c-1.412.006-2.492.278-3.239.817s-1.12 1.312-1.12 2.32c0 .82.306 1.5.918 2.039s1.385.809 2.316.809c.984 0 1.784-.343 2.399-1.028.053.34.138.624.255.853h2.566v-.149c-.246-.463-.372-1.146-.378-2.048v-4.123zm-2.549 3.629a1.64 1.64 0 01-.703.672 2.175 2.175 0 01-1.037.251c-.387 0-.691-.103-.914-.308s-.334-.466-.334-.782l.009-.149c.082-.879.759-1.318 2.03-1.318h.949v1.634zM607.591 410.255h2.549v13.5h-2.549zM612.363 410.255h2.549v13.5h-2.549zM621.855 414.069c-.955 0-1.726.343-2.312 1.028v-4.843h-2.54v13.5h2.285l.114-1.011c.615.791 1.438 1.187 2.47 1.187 1.166 0 2.074-.426 2.725-1.279.65-.852.976-2.04.976-3.563v-.141c0-1.547-.33-2.747-.989-3.599-.659-.853-1.568-1.279-2.729-1.279zm.994 6.597c-.258.812-.797 1.217-1.617 1.217-.814 0-1.377-.335-1.688-1.005v-3.765c.305-.664.861-.996 1.67-.996.604 0 1.058.222 1.362.666.305.443.457 1.147.457 2.111 0 .794-.061 1.384-.184 1.772zM634.375 415.247c-.812-.785-1.858-1.178-3.142-1.178-.902 0-1.695.202-2.378.606s-1.205.976-1.568 1.714-.545 1.579-.545 2.522v.114c0 1.512.408 2.707 1.226 3.586s1.912 1.318 3.283 1.318 2.464-.44 3.278-1.322 1.222-2.053 1.222-3.512l-.018-.65c-.093-1.346-.547-2.413-1.358-3.198zm-1.683 5.927c-.346.473-.826.709-1.441.709-.633 0-1.119-.239-1.459-.718-.34-.478-.51-1.169-.51-2.072 0-1.016.17-1.766.51-2.249.34-.484.82-.727 1.441-.727.627 0 1.113.243 1.459.73s.519 1.174.519 2.06c0 1.039-.173 1.795-.519 2.267zM645.067 414.245h-2.716l-1.599 2.839-1.565-2.839h-2.724l2.698 4.658-2.821 4.852h2.733l1.688-2.988 1.696 2.988h2.725l-2.822-4.852zM739.522 418.191h5.063v-2.047h-5.063v-3.05h5.924v-2.136h-8.56v12.797h8.578v-2.118h-5.942zM746.975 410.255h2.549v13.5h-2.549zM755.712 414.069c-.867 0-1.64.204-2.316.611s-1.199.987-1.568 1.74-.554 1.606-.554 2.562v.246c0 1.424.438 2.563 1.313 3.419s2.012 1.283 3.406 1.283c.791 0 1.512-.151 2.162-.453.65-.301 1.166-.722 1.547-1.261l-1.248-1.397c-.551.709-1.315 1.063-2.294 1.063-.633 0-1.156-.188-1.569-.562s-.66-.873-.742-1.494h6.056v-1.037c0-1.506-.374-2.669-1.121-3.489s-1.771-1.231-3.072-1.231zm1.696 4.026h-3.533c.088-.636.288-1.124.602-1.466.313-.341.723-.512 1.227-.512.539 0 .955.154 1.248.464.293.309.445.745.457 1.311v.203zM769.862 414.245h-3.05l-2.434 2.857-.492.632v-7.479h-2.54v13.5h2.54v-2.901l.914-.914 2.443 3.815h2.918l-3.735-5.546zM774.204 421.61c-.135-.152-.202-.404-.202-.756v-4.746h1.626v-1.863h-1.626v-2.338h-2.54v2.338h-1.389v1.863h1.389v5.124c.035 1.799.943 2.698 2.725 2.698.527 0 1.04-.076 1.538-.229v-1.925a4.052 4.052 0 01-.747.062c-.381.001-.639-.075-.774-.228zM779.513 415.379l-.07-1.134h-2.399v9.51h2.54v-6.223c.299-.65.929-.976 1.89-.976.264 0 .568.023.914.07l.035-2.443a2.668 2.668 0 00-.791-.114c-.904 0-1.61.437-2.119 1.31zM790.529 415.247c-.812-.785-1.858-1.178-3.142-1.178-.902 0-1.695.202-2.378.606s-1.205.976-1.568 1.714-.545 1.579-.545 2.522v.114c0 1.512.408 2.707 1.226 3.586s1.912 1.318 3.283 1.318 2.464-.44 3.278-1.322 1.222-2.053 1.222-3.512l-.018-.65c-.093-1.346-.546-2.413-1.358-3.198zm-1.682 5.927c-.346.473-.826.709-1.441.709-.633 0-1.119-.239-1.459-.718-.34-.478-.51-1.169-.51-2.072 0-1.016.17-1.766.51-2.249.34-.484.82-.727 1.441-.727.627 0 1.113.243 1.459.73s.519 1.174.519 2.06c-.001 1.039-.174 1.795-.519 2.267zM801.169 417.436c0-1.066-.345-1.894-1.033-2.483-.688-.588-1.618-.883-2.79-.883-.773 0-1.471.134-2.092.4s-1.102.634-1.441 1.103-.51.979-.51 1.529h2.54c0-.357.121-.639.364-.844s.579-.308 1.007-.308c.486 0 .842.132 1.067.396s.339.615.339 1.055v.545h-1.169c-1.412.006-2.492.278-3.239.817s-1.12 1.312-1.12 2.32c0 .82.306 1.5.918 2.039s1.385.809 2.316.809c.984 0 1.784-.343 2.399-1.028.053.34.138.624.255.853h2.566v-.149c-.246-.463-.372-1.146-.378-2.048v-4.123zm-2.549 3.629a1.64 1.64 0 01-.703.672 2.175 2.175 0 01-1.037.251c-.387 0-.691-.103-.914-.308s-.334-.466-.334-.782l.009-.149c.082-.879.759-1.318 2.03-1.318h.949v1.634zM808.727 420.985c-.322.599-.914.897-1.775.897-.902 0-1.354-.496-1.354-1.487v-6.15h-2.54v6.231c.012 1.131.285 1.989.821 2.575s1.314.879 2.334.879c1.107 0 1.975-.381 2.602-1.143l.07.967h2.391v-9.51h-2.549v6.741zM816.435 421.61c-.135-.152-.202-.404-.202-.756v-4.746h1.626v-1.863h-1.626v-2.338h-2.54v2.338h-1.389v1.863h1.389v5.124c.035 1.799.943 2.698 2.725 2.698.527 0 1.04-.076 1.538-.229v-1.925a4.052 4.052 0 01-.747.062c-.381.001-.639-.075-.774-.228zM826.248 415.247c-.812-.785-1.858-1.178-3.142-1.178-.902 0-1.695.202-2.378.606s-1.205.976-1.568 1.714-.545 1.579-.545 2.522v.114c0 1.512.408 2.707 1.226 3.586s1.912 1.318 3.283 1.318 2.464-.44 3.278-1.322 1.222-2.053 1.222-3.512l-.018-.65c-.093-1.346-.547-2.413-1.358-3.198zm-1.683 5.927c-.346.473-.826.709-1.441.709-.633 0-1.119-.239-1.459-.718-.34-.478-.51-1.169-.51-2.072 0-1.016.17-1.766.51-2.249.34-.484.82-.727 1.441-.727.627 0 1.113.243 1.459.73s.519 1.174.519 2.06c0 1.039-.173 1.795-.519 2.267zM308.663 419.396l-5.141-8.438h-2.637v12.797h2.637v-8.42l5.133 8.42h2.636v-12.797h-2.628zM317.523 414.069c-.867 0-1.639.204-2.316.611s-1.2.987-1.569 1.74-.554 1.606-.554 2.562v.246c0 1.424.438 2.563 1.314 3.419s2.011 1.283 3.406 1.283c.791 0 1.512-.151 2.162-.453.65-.301 1.166-.722 1.547-1.261l-1.248-1.397c-.551.709-1.315 1.063-2.294 1.063-.633 0-1.156-.188-1.569-.562s-.661-.873-.743-1.494h6.056v-1.037c0-1.506-.374-2.669-1.121-3.489s-1.77-1.231-3.071-1.231zm1.696 4.026h-3.533c.088-.636.289-1.124.602-1.466.313-.341.722-.512 1.226-.512.539 0 .955.154 1.248.464.293.309.445.745.457 1.311v.203zM326.4 421.61c-.135-.152-.202-.404-.202-.756v-4.746h1.626v-1.863h-1.626v-2.338h-2.54v2.338h-1.389v1.863h1.389v5.124c.035 1.799.943 2.698 2.725 2.698.527 0 1.04-.076 1.538-.229v-1.925a4.052 4.052 0 01-.747.062c-.382.001-.639-.075-.774-.228zM336.665 415.741v-1.496h-7.62v2.048h4.342l-4.474 5.915v1.547h7.893v-2.048h-4.649zM346.096 417.436c0-1.066-.344-1.894-1.033-2.483-.688-.588-1.619-.883-2.791-.883-.773 0-1.471.134-2.092.4s-1.102.634-1.441 1.103-.51.979-.51 1.529h2.54c0-.357.122-.639.365-.844s.579-.308 1.006-.308c.486 0 .842.132 1.068.396s.338.615.338 1.055v.545h-1.169c-1.412.006-2.492.278-3.239.817s-1.121 1.312-1.121 2.32c0 .82.306 1.5.918 2.039s1.384.809 2.316.809c.984 0 1.784-.343 2.399-1.028.053.34.138.624.255.853h2.566v-.149c-.246-.463-.372-1.146-.378-2.048v-4.123zm-2.549 3.629a1.64 1.64 0 01-.703.672 2.175 2.175 0 01-1.037.251c-.387 0-.691-.103-.914-.308s-.334-.466-.334-.782l.009-.149c.082-.879.759-1.318 2.03-1.318h.949v1.634zM353.198 414.069c-1.143 0-2.054.425-2.733 1.274l-.079-1.099h-2.391v9.51h2.54v-6.722c.357-.61.894-.916 1.608-.916.545 0 .935.122 1.169.365.234.244.352.636.352 1.177v6.096h2.54v-6.144c-.012-1.178-.264-2.062-.756-2.654s-1.243-.887-2.25-.887zM363.736 418.464c-.434-.158-.967-.3-1.6-.426s-1.083-.275-1.349-.449c-.267-.172-.4-.399-.4-.681 0-.299.117-.545.352-.738s.565-.29.993-.29c.498 0 .864.119 1.099.355.234.238.352.538.352.901h2.54c0-.908-.362-1.646-1.085-2.215s-1.689-.853-2.896-.853c-1.131 0-2.046.283-2.747.848-.7.566-1.05 1.271-1.05 2.114 0 1.447 1.131 2.408 3.393 2.883.68.141 1.173.301 1.481.479s.461.423.461.733c0 .299-.125.54-.374.726-.249.184-.617.276-1.103.276-.521 0-.938-.12-1.248-.36s-.478-.586-.501-1.037h-2.408c0 .574.176 1.109.527 1.604.352.496.836.886 1.455 1.17.618.283 1.326.426 2.123.426 1.178 0 2.139-.268 2.883-.805.744-.535 1.116-1.237 1.116-2.104-.002-1.212-.672-2.065-2.014-2.557zM369.98 416.764c.302-.431.749-.646 1.34-.646.48 0 .867.154 1.16.464s.445.711.457 1.206h2.382c-.012-1.125-.376-2.026-1.094-2.702-.718-.678-1.671-1.016-2.861-1.016-1.359 0-2.429.437-3.208 1.31s-1.169 2.042-1.169 3.507v.167c0 1.523.393 2.718 1.178 3.581.785.865 1.857 1.297 3.217 1.297.727 0 1.39-.148 1.991-.443a3.48 3.48 0 001.419-1.248 3.26 3.26 0 00.527-1.771h-2.382c-.012.428-.164.771-.457 1.028s-.674.387-1.143.387c-.609 0-1.063-.214-1.362-.643s-.448-1.133-.448-2.112v-.265c.001-.969.152-1.67.453-2.101zM381.788 414.069c-1.02 0-1.866.404-2.54 1.213v-5.027h-2.54v13.5h2.54v-6.774c.334-.575.873-.863 1.617-.863.545 0 .935.131 1.169.392.234.262.352.666.352 1.212v6.034h2.54v-6.091c-.029-2.397-1.075-3.596-3.138-3.596zM386.974 410.255h2.549v13.5h-2.549zM397.222 420.985c-.322.599-.914.897-1.775.897-.902 0-1.354-.496-1.354-1.487v-6.15h-2.54v6.231c.012 1.131.286 1.989.822 2.575s1.314.879 2.333.879c1.107 0 1.975-.381 2.602-1.143l.07.967h2.391v-9.51h-2.549v6.741zM407.294 418.464c-.434-.158-.967-.3-1.6-.426s-1.083-.275-1.349-.449c-.267-.172-.4-.399-.4-.681 0-.299.117-.545.352-.738s.565-.29.993-.29c.498 0 .864.119 1.099.355.234.238.352.538.352.901h2.54c0-.908-.362-1.646-1.085-2.215s-1.689-.853-2.896-.853c-1.131 0-2.046.283-2.747.848-.7.566-1.05 1.271-1.05 2.114 0 1.447 1.131 2.408 3.393 2.883.68.141 1.173.301 1.481.479s.461.423.461.733c0 .299-.125.54-.374.726-.249.184-.617.276-1.103.276-.521 0-.938-.12-1.248-.36s-.478-.586-.501-1.037h-2.408c0 .574.176 1.109.527 1.604.352.496.836.886 1.455 1.17.618.283 1.326.426 2.123.426 1.178 0 2.139-.268 2.883-.805.744-.535 1.116-1.237 1.116-2.104-.001-1.212-.672-2.065-2.014-2.557zM416.549 418.464c-.434-.158-.967-.3-1.6-.426s-1.083-.275-1.349-.449c-.267-.172-.4-.399-.4-.681 0-.299.117-.545.352-.738s.565-.29.993-.29c.498 0 .864.119 1.099.355.234.238.352.538.352.901h2.54c0-.908-.362-1.646-1.085-2.215s-1.689-.853-2.896-.853c-1.131 0-2.046.283-2.747.848-.7.566-1.05 1.271-1.05 2.114 0 1.447 1.131 2.408 3.393 2.883.68.141 1.173.301 1.481.479s.461.423.461.733c0 .299-.125.54-.374.726-.249.184-.617.276-1.103.276-.521 0-.938-.12-1.248-.36s-.478-.586-.501-1.037h-2.408c0 .574.176 1.109.527 1.604.352.496.836.886 1.455 1.17.618.283 1.326.426 2.123.426 1.178 0 2.139-.268 2.883-.805.744-.535 1.116-1.237 1.116-2.104-.001-1.212-.672-2.065-2.014-2.557zM436.095 23.931c.791 0 1.512-.151 2.162-.453.65-.301 1.166-.722 1.547-1.261l-1.248-1.397c-.551.709-1.315 1.063-2.294 1.063-.633 0-1.156-.188-1.569-.562s-.661-.873-.743-1.494h6.056V18.79c0-1.506-.374-2.669-1.121-3.489s-1.771-1.23-3.072-1.23c-.867 0-1.639.204-2.316.611s-1.2.987-1.569 1.74-.554 1.606-.554 2.562v.246c0 1.424.438 2.563 1.314 3.419s2.013 1.282 3.407 1.282zm-1.516-7.302c.313-.341.722-.512 1.226-.512.539 0 .955.154 1.248.464.293.309.445.745.457 1.311v.203h-3.533c.088-.636.289-1.124.602-1.466zM446.106 23.755l3.208-9.51h-2.654l-1.767 6.407-1.767-6.407h-2.654l3.208 9.51zM454.315 23.931c.727 0 1.39-.148 1.99-.443a3.49 3.49 0 001.42-1.248 3.26 3.26 0 00.527-1.771h-2.382c-.012.428-.164.771-.457 1.028s-.674.387-1.143.387c-.609 0-1.063-.214-1.362-.643s-.448-1.133-.448-2.112v-.265c0-.968.15-1.668.452-2.1.302-.431.749-.646 1.341-.646.48 0 .867.154 1.16.464s.445.711.457 1.206h2.382c-.012-1.125-.377-2.026-1.095-2.702-.718-.678-1.671-1.016-2.86-1.016-1.359 0-2.429.437-3.208 1.31-.78.873-1.169 2.042-1.169 3.507v.167c0 1.523.393 2.718 1.178 3.581.786.864 1.858 1.296 3.217 1.296zM463.702 23.931c.727 0 1.39-.148 1.99-.443a3.49 3.49 0 001.42-1.248 3.26 3.26 0 00.527-1.771h-2.382c-.012.428-.164.771-.457 1.028s-.674.387-1.143.387c-.609 0-1.063-.214-1.362-.643s-.448-1.133-.448-2.112v-.265c0-.968.15-1.668.452-2.1.302-.431.749-.646 1.341-.646.48 0 .867.154 1.16.464s.445.711.457 1.206h2.382c-.012-1.125-.377-2.026-1.095-2.702-.718-.678-1.671-1.016-2.86-1.016-1.359 0-2.429.437-3.208 1.31s-1.169 2.042-1.169 3.507v.167c0 1.523.393 2.718 1.178 3.581.785.864 1.858 1.296 3.217 1.296zM586.356 186.583l-4.586-3.213 6.13-8.746-2.159-1.513-7.346 10.48 6.746 4.727zM587.048 188.882c.192.793.67 1.457 1.433 1.992.807.565 1.658.744 2.556.536-.152.308-.246.59-.28.844l2.102 1.473.086-.122c.063-.521.353-1.152.866-1.895l2.365-3.376c.612-.874.806-1.749.579-2.626-.226-.877-.818-1.652-1.777-2.325-.635-.444-1.282-.735-1.943-.874-.662-.138-1.267-.113-1.813.076a2.55 2.55 0 00-1.295.96l2.08 1.458c.205-.292.466-.453.783-.481.316-.028.649.08 1 .326.398.279.614.591.647.937.033.345-.076.698-.328 1.059l-.312.446-.957-.671c-1.161-.807-2.201-1.203-3.122-1.19-.922.013-1.671.432-2.25 1.257a2.591 2.591 0 00-.42 2.196zm2.604-.89l.093-.118c.571-.672 1.378-.644 2.42.086l.777.545-.938 1.339a1.64 1.64 0 01-.961.147 2.186 2.186 0 01-.994-.39c-.317-.223-.507-.481-.572-.777a1.017 1.017 0 01.175-.832zM595.311 194.046c.048 1.11.53 1.987 1.447 2.63.816.572 1.709.715 2.682.431l-.479.898 1.879 1.317 7.749-11.057-2.087-1.463-2.785 3.974c-.097-.913-.525-1.635-1.283-2.166-.946-.663-1.942-.825-2.992-.487-1.05.338-2 1.114-2.851 2.328-.902 1.286-1.328 2.484-1.28 3.595zm3.256-1.989c1.146-1.634 2.22-2.101 3.223-1.396.639.447.896 1.034.774 1.76l-2.164 3.087c-.646.36-1.291.314-1.934-.136-.485-.34-.718-.794-.698-1.363.019-.569.286-1.22.799-1.952zM604.911 196.346l-.141.202c-.817 1.166-1.112 2.351-.887 3.555.227 1.204.911 2.205 2.054 3.006.647.454 1.323.744 2.03.87.705.126 1.369.078 1.99-.146l-.221-1.861c-.856.265-1.688.116-2.488-.445-.519-.363-.839-.817-.962-1.361-.124-.544-.041-1.095.249-1.65l4.96 3.476.596-.849c.864-1.233 1.226-2.4 1.084-3.501-.141-1.101-.743-2.023-1.809-2.771-.711-.498-1.46-.774-2.247-.829-.789-.055-1.551.12-2.284.525-.735.404-1.375.997-1.924 1.779zm3.975-.088c.453-.1.885-.005 1.299.285.441.309.693.674.756 1.096.062.421-.063.866-.379 1.336l-.116.166-2.894-2.028c.435-.471.881-.755 1.334-.855zM618.231 208.171c.695-.993.636-2.076-.181-3.25-.264-.378-.62-.801-1.065-1.268-.445-.466-.729-.847-.848-1.142-.119-.294-.099-.557.062-.788a.918.918 0 01.712-.403c.304-.024.63.087.981.333.407.286.64.593.695.922.056.329-.021.643-.229.94l2.08 1.457c.521-.744.648-1.556.382-2.437s-.894-1.667-1.882-2.36c-.927-.649-1.838-.943-2.735-.882-.899.062-1.591.437-2.075 1.128-.831 1.186-.456 2.622 1.124 4.309.477.505.789.919.938 1.242.149.323.135.612-.043.866a.862.862 0 01-.724.379c-.31.008-.662-.127-1.061-.406-.428-.3-.7-.637-.816-1.012s-.055-.754.185-1.137l-1.972-1.382a2.71 2.71 0 00-.489 1.616c.004.607.178 1.206.521 1.792.344.588.841 1.11 1.495 1.568.964.676 1.904 1.007 2.821.996.919-.009 1.626-.37 2.124-1.081zM619.859 209.57c-1.005 1.493-.776 2.751.683 3.774a5.24 5.24 0 001.391.696l1.104-1.577a4.073 4.073 0 01-.646-.378c-.312-.219-.48-.429-.503-.631-.023-.203.066-.448.269-.736l2.724-3.887 1.332.934 1.07-1.526-1.332-.934 1.342-1.915-2.08-1.458-1.342 1.915-1.138-.797-1.07 1.526 1.138.797-2.942 4.197zM626.665 209.295l2.08 1.458c.205-.293.466-.453.783-.482.316-.028.649.08 1 .326.398.279.614.591.647.937.033.346-.076.699-.328 1.059l-.312.446-.957-.671c-1.161-.806-2.201-1.202-3.122-1.189-.922.013-1.671.431-2.25 1.257a2.604 2.604 0 00-.418 2.197c.192.793.67 1.457 1.433 1.991.807.565 1.658.744 2.556.536-.152.309-.246.59-.28.844l2.102 1.473.086-.123c.063-.52.353-1.151.866-1.894l2.365-3.376c.612-.874.806-1.75.579-2.627-.226-.877-.818-1.652-1.777-2.324-.635-.445-1.282-.736-1.943-.874-.662-.138-1.267-.113-1.813.076-.55.189-.982.509-1.297.96zm2.079 6.299a1.64 1.64 0 01-.961.147 2.186 2.186 0 01-.994-.39c-.317-.222-.507-.481-.572-.777a1.02 1.02 0 01.176-.833l.093-.118c.571-.672 1.378-.644 2.42.086l.777.545-.939 1.34zM632.923 221.807l3.858-5.505c.643-.295 1.257-.237 1.843.173.446.313.695.637.747.971.053.334-.076.723-.387 1.165l-3.499 4.993 2.08 1.458 3.526-5.031c.666-.972.968-1.841.904-2.608-.062-.767-.507-1.44-1.332-2.018-.936-.656-1.927-.832-2.971-.526l.565-.945-1.957-1.372-5.459 7.789 2.082 1.456zM640.307 225.582c.049 1.111.53 1.987 1.448 2.63.815.572 1.709.715 2.682.431l-.479.898 1.878 1.316 7.749-11.056-2.087-1.463-2.785 3.973c-.097-.913-.524-1.634-1.283-2.166-.945-.663-1.942-.825-2.991-.487-1.05.338-2 1.114-2.851 2.328-.902 1.287-1.327 2.485-1.281 3.596zm3.257-1.99c1.146-1.634 2.219-2.1 3.223-1.396.638.447.896 1.034.773 1.76l-2.164 3.088c-.646.36-1.291.314-1.934-.136-.485-.34-.718-.794-.698-1.363.02-.569.287-1.22.8-1.953z"/><path class="st2" d="M512.089 172.102l-11.082 6.398 1.318 2.283 4.057-2.342 1.051 1.819-2.857 4.42 1.416 2.451.105-.062 3.145-5.013c.684.492 1.372.757 2.066.792.693.035 1.418-.165 2.174-.602 1.066-.615 1.686-1.446 1.859-2.494.174-1.047-.118-2.225-.874-3.534l-2.378-4.116zm.868 6.811c-.128.47-.453.855-.976 1.157-.513.296-1.006.371-1.479.225-.475-.146-.877-.506-1.207-1.08l-1.064-1.842 3.326-1.92 1.06 1.834c.355.614.468 1.156.34 1.626zM513.124 184.82c-.836.057-1.668.322-2.495.801l-.213.123c-1.233.711-2.001 1.66-2.304 2.848-.304 1.186-.105 2.383.592 3.59a5.061 5.061 0 001.473 1.646 3.81 3.81 0 001.865.709l.586-1.779c-.889-.123-1.578-.607-2.067-1.455-.316-.548-.416-1.094-.297-1.64.118-.546.425-1.009.923-1.39l3.027 5.244.898-.52c1.304-.752 2.124-1.657 2.461-2.715.337-1.057.18-2.148-.471-3.275-.434-.75-.996-1.317-1.687-1.699-.691-.382-1.454-.545-2.291-.488zm1.144 2.399c.452.101.805.369 1.057.806.27.467.344.904.223 1.313-.121.407-.423.758-.906 1.051l-.177.102-1.767-3.061c.595-.242 1.118-.313 1.57-.211zM521.66 194.901c-.589-1.021-1.442-1.608-2.561-1.765-1.119-.155-2.31.131-3.573.861l-.092.053c-1.278.738-2.129 1.637-2.55 2.695-.421 1.058-.345 2.081.227 3.07.478.828 1.149 1.329 2.016 1.506l-.441.254c-.573.332-1.109.425-1.61.281-.498-.146-.917-.51-1.254-1.094-.451-.781-.527-1.623-.23-2.525l-1.902-.201c-.211.515-.27 1.127-.18 1.84s.309 1.371.657 1.975c.46.797 1.001 1.412 1.622 1.844a3.646 3.646 0 002.016.68c.723.02 1.443-.18 2.164-.596l7.961-4.596-1.15-1.994-.83.356c.328-.859.232-1.74-.29-2.644zm-1.384 3.448l-3.479 2.009c-.672.002-1.201-.332-1.588-1.002-.302-.521-.326-1.057-.073-1.602s.754-1.033 1.503-1.467c.861-.497 1.596-.72 2.203-.668.608.052 1.064.342 1.369.869.379.655.401 1.276.065 1.861zM523.126 202.144c-.836.057-1.668.323-2.495.802l-.213.123c-1.233.711-2.001 1.66-2.304 2.847-.304 1.187-.105 2.384.592 3.591.395.686.887 1.234 1.473 1.646s1.208.648 1.865.709l.586-1.779c-.889-.123-1.578-.607-2.067-1.455-.316-.548-.416-1.095-.297-1.641.118-.545.425-1.008.923-1.39l3.027 5.245.898-.52c1.304-.752 2.124-1.658 2.461-2.715s.18-2.148-.471-3.275c-.434-.751-.996-1.317-1.687-1.7-.691-.382-1.454-.545-2.291-.488zm1.144 2.399c.452.101.805.369 1.057.805.27.467.344.904.223 1.313-.121.408-.423.759-.906 1.052l-.177.102-1.767-3.061c.595-.242 1.118-.313 1.57-.211z"/><path transform="rotate(-30 528.063 211.919)" class="st2" d="M521.333 210.622h13.5v2.548h-13.5z"/><path class="st2" d="M527.604 222.636l-.801.544 1.195 2.07 8.234-4.754-1.273-2.208-5.838 3.37c-.68.021-1.234-.343-1.664-1.089-.451-.781-.248-1.42.611-1.915l5.326-3.076-1.271-2.199-5.396 3.115c-.974.576-1.58 1.242-1.819 2-.239.757-.104 1.577.406 2.46.554.959 1.318 1.52 2.29 1.682zM538.36 224.18l-1.195-2.07-8.234 4.755 1.27 2.2 5.82-3.361c.708.004 1.24.315 1.598.935.273.472.361.87.269 1.195-.095.325-.374.622-.843.893l-5.279 3.048 1.27 2.199 5.32-3.071c1.015-.599 1.654-1.259 1.922-1.981.266-.723.146-1.52-.357-2.393-.57-.99-1.395-1.566-2.47-1.73l.909-.619zM537.899 232.961c-1.278.738-2.129 1.637-2.55 2.695-.421 1.058-.345 2.081.227 3.07.478.828 1.149 1.329 2.016 1.506l-.441.255c-.573.331-1.109.424-1.61.28-.498-.146-.917-.51-1.254-1.093-.451-.782-.527-1.624-.23-2.526l-1.902-.201c-.211.515-.27 1.127-.18 1.84s.309 1.371.657 1.975c.46.797 1.001 1.412 1.622 1.845a3.645 3.645 0 002.016.679c.723.02 1.443-.18 2.164-.596l7.961-4.596-1.15-1.994-.83.356c.33-.86.233-1.741-.288-2.645-.589-1.021-1.442-1.608-2.561-1.764-1.119-.156-2.31.13-3.573.86l-.094.054zm1.205 2.236c.861-.497 1.596-.719 2.203-.668.608.052 1.064.342 1.369.869.378.654.4 1.275.064 1.861l-3.479 2.008c-.672.002-1.201-.332-1.588-1.002-.302-.521-.326-1.057-.073-1.602s.755-1.032 1.504-1.466z"/><path class="st1" d="M236.662 230.759l-2.521-3.738 1.916-1.292c1.259-.849 2.042-1.812 2.349-2.893s.109-2.14-.592-3.179c-.462-.685-1.037-1.186-1.725-1.504-.688-.316-1.432-.417-2.232-.301-.802.117-1.601.443-2.397.98l-4.139 2.792 7.155 10.609 2.186-1.474zm-5.962-8.839l2.004-1.352c.546-.354 1.08-.474 1.602-.359.523.114.959.431 1.31.951.341.505.451.996.331 1.473-.119.477-.469.91-1.047 1.3l-1.953 1.317-2.247-3.33zM246.069 224.414l-3.48-5.159c-.115-.706.225-1.328 1.021-1.865.219-.147.484-.298.797-.453l-1.337-2.045c-.247.074-.487.19-.72.348-.748.505-1.09 1.261-1.023 2.27l-.693-.9-1.988 1.341 5.317 7.884 2.106-1.421zM246.108 218.546l.063.095c.845 1.253 1.853 2.016 3.021 2.288 1.169.271 2.321.023 3.458-.743s1.797-1.743 1.979-2.929c.183-1.187-.135-2.385-.95-3.595l-.378-.529c-.832-1.065-1.803-1.696-2.915-1.893s-2.2.063-3.264.781c-.748.505-1.292 1.115-1.632 1.832a3.993 3.993 0 00-.342 2.298c.113.814.433 1.613.96 2.395zm2.16-4.829c.52-.351 1.059-.421 1.617-.21.56.211 1.087.684 1.582 1.418.581.861.86 1.584.838 2.168-.023.585-.289 1.05-.799 1.394-.524.354-1.062.428-1.611.221-.549-.206-1.076-.684-1.581-1.433-.567-.842-.847-1.559-.835-2.15.012-.591.274-1.06.789-1.408zM257.454 215.351c1.055.353 2.045.216 2.973-.41.826-.557 1.279-1.34 1.362-2.35l.667.77 1.902-1.283-7.549-11.192-2.113 1.425 2.713 4.022c-.887-.236-1.715-.095-2.482.423-.957.646-1.465 1.519-1.525 2.619-.06 1.1.324 2.265 1.154 3.494.877 1.302 1.843 2.13 2.898 2.482zm-.843-7.261c.646-.436 1.286-.466 1.921-.092l2.107 3.125c.105.732-.168 1.317-.818 1.757-.491.331-.998.385-1.522.164-.524-.223-1.036-.704-1.536-1.445-1.117-1.655-1.167-2.824-.152-3.509zM266.227 209.969c.771.186 1.58-.006 2.426-.577.918-.619 1.424-1.42 1.518-2.402l.6.763 1.981-1.337-5.317-7.884-2.113 1.425 3.769 5.588c.067.677-.256 1.255-.97 1.737-.748.504-1.399.346-1.953-.476l-3.439-5.099-2.106 1.42 3.485 5.166c.64.931 1.347 1.49 2.119 1.676zM276.446 203.924l-1.622-2.404.247-1.27 4.158 1.797 2.419-1.632-6.198-2.509.633-5.208-2.528 1.705-.421 3.73-.055.8-4.182-6.201-2.105 1.42 7.549 11.192zM284.57 196.133c-.315.213-.571.294-.769.243s-.395-.222-.591-.514l-2.653-3.935 1.348-.909-1.043-1.545-1.348.909-1.307-1.938-2.105 1.42 1.307 1.938-1.151.776 1.042 1.545 1.151-.776 2.865 4.248c1.035 1.472 2.291 1.709 3.768.713a5.238 5.238 0 001.147-1.05l-1.076-1.596a3.828 3.828 0 01-.585.471z"/><path transform="rotate(-33.998 285.837 191.825)" class="st1" d="M284.587 187.083h2.549v9.51h-2.549z"/><path class="st1" d="M281.501 187.22c.354.058.707-.032 1.062-.271.354-.239.57-.534.649-.884.079-.349.01-.685-.206-1.005a1.244 1.244 0 00-.848-.563c-.351-.06-.706.031-1.066.274-.363.246-.582.542-.656.889s-.004.678.209.994c.217.319.501.508.856.566zM295.847 185.219l-.379-.529c-.831-1.065-1.803-1.696-2.914-1.893s-2.2.063-3.264.781c-.748.505-1.293 1.115-1.633 1.832a3.993 3.993 0 00-.342 2.298c.112.815.432 1.614.959 2.396l.064.095c.845 1.253 1.852 2.016 3.021 2.288 1.169.271 2.322.024 3.459-.743s1.796-1.743 1.979-2.929c.182-1.188-.135-2.386-.95-3.596zm-2.173 4.826c-.524.354-1.062.428-1.611.221-.549-.206-1.076-.684-1.581-1.433-.568-.842-.847-1.559-.836-2.15.012-.591.274-1.061.789-1.408.52-.351 1.06-.42 1.619-.21.559.21 1.086.683 1.58 1.417.582.861.861 1.584.838 2.169-.022.586-.288 1.051-.798 1.394zM301.809 186.816l-3.758-5.573c-.045-.706.229-1.259.82-1.659.452-.305.844-.422 1.174-.351.331.071.647.33.949.779l3.409 5.054 2.106-1.42-3.436-5.093c-.668-.97-1.373-1.562-2.111-1.778-.739-.215-1.526-.041-2.361.522-.947.639-1.466 1.5-1.555 2.585l-.68-.867-1.981 1.337 5.317 7.884 2.107-1.42zM360.045 244.545l-9.553-9.61-1.285 2.638 7.381 6.823-9.914-1.624-1.282 2.631 13.448 1.616zM361.447 230.328c-1.354-.659-2.562-.833-3.627-.521s-1.882 1.053-2.452 2.223c-.38.779-.534 1.563-.465 2.35.069.787.362 1.511.878 2.172.515.662 1.201 1.202 2.06 1.621l.222.107c1.279.623 2.496.729 3.648.315 1.153-.412 2.035-1.246 2.646-2.499.346-.712.525-1.426.539-2.143a3.81 3.81 0 00-.456-1.943l-1.803.51c.396.806.38 1.648-.049 2.527-.277.569-.675.957-1.192 1.165-.519.206-1.075.211-1.669.013l2.652-5.444-.932-.453zm-3.264 5.116c-.533-.357-.885-.752-1.054-1.184-.17-.431-.145-.873.076-1.326.236-.484.558-.791.964-.918.405-.128.865-.074 1.378.164l.184.089-1.548 3.175zM367.655 228.924l-5.594-2.726c-.454-.554-.471-1.262-.05-2.126.116-.237.271-.5.464-.791l-2.181-1.102a2.635 2.635 0 00-.449.661c-.396.811-.312 1.637.249 2.478l-1.05-.434-1.051 2.157 8.549 4.166 1.113-2.283zM358.394 217.108l-1.112 2.284 12.137 5.913 1.001-2.054-.859-.546c.981-.206 1.697-.773 2.149-1.7.511-1.049.525-2.052.043-3.01-.48-.958-1.407-1.771-2.776-2.438l-.126-.062c-1.391-.678-2.614-.908-3.669-.688-1.056.219-1.837.85-2.345 1.893-.419.858-.448 1.702-.089 2.528l-4.354-2.12zm6.002 1.067c.265-.542.662-.854 1.195-.933.532-.08 1.232.092 2.099.514.713.348 1.217.661 1.512.942.616.587.744 1.25.385 1.987-.356.732-.903 1.091-1.642 1.077l-3.385-1.649c-.463-.565-.518-1.211-.164-1.938zM369.376 211.186c-.454-.554-.471-1.262-.05-2.126.115-.237.27-.5.464-.791l-2.181-1.102a2.635 2.635 0 00-.449.661c-.396.812-.312 1.638.249 2.478l-1.05-.433-1.051 2.156 8.549 4.166 1.112-2.283-5.593-2.726zM370.562 207.766l1.113-2.283c-.321-.157-.521-.389-.599-.698s-.023-.655.164-1.04c.213-.437.487-.7.823-.787.336-.087.701-.034 1.097.158l.489.238-.512 1.051c-.613 1.272-.842 2.362-.684 3.27.157.908.688 1.583 1.595 2.024.737.359 1.483.382 2.235.067.753-.314 1.334-.891 1.742-1.728.431-.886.473-1.754.126-2.608.328.102.621.149.878.145l1.124-2.308-.134-.065c-.524.019-1.193-.167-2.007-.557l-3.706-1.806c-.959-.467-1.854-.52-2.685-.159-.83.361-1.503 1.068-2.016 2.122-.339.695-.524 1.381-.557 2.056-.032.675.087 1.268.36 1.779.276.511.66.887 1.154 1.129zm4.008-2.907l.416-.854 1.47.716c.186.26.285.569.296.926.012.358-.064.705-.229 1.042-.17.348-.396.577-.678.687-.281.11-.564.097-.85-.042l-.13-.073c-.753-.458-.851-1.259-.295-2.402zM384.417 194.521l-8.55-4.165-1.116 2.291 6.06 2.952c.396.552.406 1.215.029 1.989-.396.812-1.039 1-1.93.565l-5.529-2.693-1.113 2.283 5.603 2.729c1.021.485 1.914.615 2.675.389.762-.225 1.366-.796 1.812-1.713.485-.995.522-1.942.112-2.839l.899.36 1.048-2.148zM387.139 185.475a3.248 3.248 0 00-1.361-1.25l-1.043 2.141c.379.198.621.485.724.861.104.376.053.775-.153 1.196-.267.548-.657.863-1.174.944-.516.081-1.215-.093-2.096-.522l-.237-.116c-.87-.424-1.434-.866-1.689-1.326-.255-.46-.253-.957.006-1.488.211-.433.519-.712.925-.84.407-.128.835-.089 1.285.117l1.043-2.142c-1.017-.481-1.986-.549-2.908-.199-.924.348-1.646 1.058-2.166 2.127-.596 1.222-.672 2.375-.229 3.457.443 1.083 1.324 1.946 2.641 2.587l.15.073c1.37.667 2.615.837 3.735.509 1.122-.326 1.979-1.102 2.575-2.323a4.46 4.46 0 00.474-1.984 3.493 3.493 0 00-.502-1.822zM390.453 182.132l-6.091-2.967c-.37-.552-.394-1.163-.067-1.832.238-.49.527-.783.864-.879.338-.096.753-.024 1.243.215l5.425 2.643 1.112-2.284-5.475-2.667c-2.168-1.023-3.703-.608-4.606 1.246-.446.916-.454 1.854-.022 2.814l-4.52-2.202-1.112 2.283 12.136 5.913 1.113-2.283z"/><path class="st3" d="M763.603 327.192a214.951 214.951 0 0033.812 1.746c6.955-.19 13.48-.706 19.526-1.429a81.7 81.7 0 00-8.563-6.484 82.477 82.477 0 00-20.553-9.75 130.16 130.16 0 00-36.138-.306 84.717 84.717 0 0111.916 16.223zM814.87 355.421a70.738 70.738 0 01-20.871-1.138l-5.342 3.572 7.5 9.827a69.102 69.102 0 0018.669.647 69.045 69.045 0 0015.068-3.264l4.544-9.081-3.91-3.868a70.532 70.532 0 01-15.658 3.305z"/><path class="st3" d="M838.845 354.199l-.101-.892c-.044-.464-.075-.93-.128-1.392a35.256 35.256 0 00-.731-4.724c-.01-.055-.017-.115-.027-.169l-.185-1.028-.075.041c-.045-.173-.083-.348-.131-.521a31.502 31.502 0 00-2.055-5.186l.017-.01-.146-.249a31.366 31.366 0 00-3.047-4.803 26.792 26.792 0 00-1.534-1.925l-.358-.453-.038.038a26.605 26.605 0 00-5.041-4.321 25.288 25.288 0 00-6.354-2.944 69.543 69.543 0 00-11.298-9.036 60.28 60.28 0 00-12.159-6.202 61.936 61.936 0 00-13.188-3.201 90.137 90.137 0 00-16.966-.7c-7.92.376-13.642.647-19.403 2.664-11.251 3.94-18.397 13.214-22.435 20.372a11.044 11.044 0 00-4.931 6.587 10.19 10.19 0 00-.062 4.241c-.117.462-.235.958-.348 1.489a41.746 41.746 0 00-.789 5.872c-.024.345-.037.633-.048.857a43.288 43.288 0 00.018 4.368c.013.538.013 1.078.013 1.618a40.48 40.48 0 00-.25 4.389c-.01.399.003.797.012 1.195l-.044.88.073.005c.096 1.694.354 3.376.789 5.019.211.692.457 1.372.737 2.039.334.763.665 1.341 1.025 2.027a4.828 4.828 0 004.385 2.573l7.443-.168a3.178 3.178 0 002.659-1.547c.228-.381.432-.776.613-1.181.355-.874.609-1.779.768-2.701 2.244.404 4.5.745 6.756 1.005 3.823.439 7.714.674 11.562.699l.139.001c.17.597.352 1.191.552 1.78a35.959 35.959 0 002.141 4.941 5.868 5.868 0 005.328 3.126l9.045-.2a3.862 3.862 0 003.231-1.88c.276-.463.525-.942.745-1.435a15.871 15.871 0 001.015-3.843c8.827.598 17.303.903 24.679.903 5.746 0 10.827-.185 14.886-.559.873-.069 1.744-.173 2.615-.272.326.736.668 1.465 1.042 2.177a5.867 5.867 0 005.328 3.127l9.045-.2a3.862 3.862 0 003.231-1.88c.277-.463.526-.942.745-1.435a15.874 15.874 0 001.124-7.049l.216-.089.028-.47a78.946 78.946 0 00-.154-11.385l.021.017zm-1.338 10.809a73.232 73.232 0 01-7.493 2.567 76.341 76.341 0 01-14.538 2.588c-9.18.848-23.638.715-39.224-.338.243-2.908.321-7.673-.964-12.52l7.969-.041 5.076-4.568-15.92-2.122a19.998 19.998 0 00-1.925-2.604c-1.623-1.838-5.032-5.664-9.596-5.48-.304.02-.603.071-.902.119a21.834 21.834 0 01.863-10.027c.17-.49.364-.973.573-1.447a28.178 28.178 0 006.843 5.531l-1.736 1.62.229.494a13.507 13.507 0 004.892 5.627c2.356 1.486 4.6 1.79 7.213 2.144a48.926 48.926 0 007.435.305l.14-.005 5.327-2.275 22.362 3.803 11.327-5.853.117.016a14.392 14.392 0 004.853-.168 14.358 14.358 0 003.672-1.312 29.845 29.845 0 011.925 4.867c.078.282.144.568.215.853l-3.97 2.176 4.929 3.931a77.61 77.61 0 01.308 12.119zm-84.541 2.305c-.406-.006-.813-.023-1.219-.033a24.948 24.948 0 01-.057-13.608c.724-2.451 1.818-6.154 5.264-8.331a8.102 8.102 0 014.016-1.382c3.89-.121 6.83 3.19 8.419 4.989 5.756 6.529 5.786 16.133 5.396 20.772-.54-.038-1.078-.075-1.621-.115a50.191 50.191 0 00-.774-7.911c-.663-3.718-1.142-6.403-3.056-9.089-1.016-1.428-3.395-4.771-7.174-4.861a7.778 7.778 0 00-4.925 1.864c-.593.474-2.395 1.915-3.648 6.561a28.098 28.098 0 00-.621 11.144zm-15.262-.967zm-9.755-12.943c.889 3.62 1.572 7.323 2.056 11.024-.419-.1-.842-.19-1.259-.295a56.604 56.604 0 00-2.248-9.316c-2.143-6.389-3.793-7.36-5.008-7.493a3.108 3.108 0 00-2.113.582 2.55 2.55 0 00-.584.596 40.352 40.352 0 01.27-3.023c.551-.629 1.292-1.056 2.071-1.189a3.782 3.782 0 012.55.685c2.393 1.476 3.418 4.973 4.265 8.429zm-7.778 1.414c.512-1.504 1.22-2.417 1.895-2.442l.03-.001c.668 0 1.431.853 2.045 2.292.72 1.684 1.166 3.953 1.259 6.392s-.181 4.735-.77 6.469c-.511 1.504-1.22 2.417-1.895 2.442l-.03.001c-1.41-.001-3.113-3.686-3.303-8.684-.094-2.438.18-4.735.769-6.469zm11.398 9.976a103.228 103.228 0 00-2.163-11.747c-.919-3.758-2.058-7.574-4.897-9.326a5.306 5.306 0 00-3.571-.918 5.108 5.108 0 00-1.544.539c.068-.386.118-.776.198-1.158.121-.57.248-1.102.376-1.592l.045-.174-.038-.175a8.6 8.6 0 01.015-3.738 9.522 9.522 0 014.404-5.755l.179-.103.102-.181c3.892-6.955 10.819-16.047 21.72-19.865 5.555-1.943 11.186-2.211 18.982-2.581a88.805 88.805 0 0116.691.688l.006.001a60.431 60.431 0 0112.862 3.121 58.797 58.797 0 0111.857 6.052 68.087 68.087 0 0111.195 8.977l.134.133.182.054a23.898 23.898 0 016.144 2.817 25.07 25.07 0 014.8 4.127l-2.023 2.029a33.234 33.234 0 01-5.128 2.452 33.251 33.251 0 01-8.559 1.953c-5.403.256-10.875.256-16.267 0-4.284-.202-8.411-.562-12.267-1.073-7.691-1.017-11.242-1.542-14.825-3.35a26.805 26.805 0 01-8.806-7.238l-.281.223a68.679 68.679 0 00-7.628-12.321c-2.715-3.464-4.185-4.042-5.394-4.315-4.175-.944-8.199 2.615-11.611 5.632a36.698 36.698 0 00-8.116 10.4c2.06.158 4.141.303 6.232.442a59.545 59.545 0 00-1.125 5.39 64.643 64.643 0 003.257 31.586 105.919 105.919 0 01-5.138-1.006zm29.775-35.22zm66.753 7.696l2.113-2.12a52.538 52.538 0 011.55 2.133c.103.151.196.31.298.462a16.968 16.968 0 01-3.688 2.464 32.95 32.95 0 003.493-.952c.331-.108.633-.229.947-.344.181.286.374.564.55.853a12.874 12.874 0 01-6.653 1.379l1.39-3.875zm-58.435.148c3.914 1.935 7.932 2.469 15.145 3.422.46.061.937.113 1.404.169l3.696 2.728-3.798 1.622a47.27 47.27 0 01-7.058-.299c-2.523-.342-4.516-.611-6.588-1.918a12 12 0 01-4.101-4.513l1.3-1.211zm-24.741-8.985c.5-.1 1.488-.298 2.518-.298 1.122 0 2.292.235 2.929 1.092.484.625.62 1.44.364 2.188-.203.432-.643.778-1.306 1.028-1.896.715-5.099.443-7.454-.635-.421-.192-1.539-.702-1.562-1.053-.039-.54 2.011-1.821 4.511-2.322zm-9.988 6.007a57.698 57.698 0 011.161-5.519c1.205.077 2.414.152 3.629.223-.525.495-.857 1.065-.812 1.713.086 1.242 1.501 1.888 2.437 2.314 1.668.764 3.674 1.166 5.498 1.166.886 0 1.727-.098 2.469-.292l1.391 1.988 3.688-2.444-2.083-2.371a3.812 3.812 0 00-.063-1.464c2.704.108 5.389.202 8.045.277a20.622 20.622 0 00-.86 2.067 23.347 23.347 0 00-.909 10.855 9.492 9.492 0 00-2.376 1.156c-3.893 2.46-5.13 6.645-5.872 9.155a26.423 26.423 0 00-.063 13.971 106.455 106.455 0 01-7.757-.6 105.696 105.696 0 01-4.053-.555l.004-.001a63.124 63.124 0 01-3.474-31.639zM773.7 352.26l11.212 1.494-2.236 2.012-7.43.039a30.362 30.362 0 00-1.546-3.545zm-13.026-1.221l.05-.001c1.036 0 2.206 1.232 3.14 3.312 1.089 2.428 1.763 5.705 1.897 9.228.134 3.521-.289 6.841-1.191 9.345-.785 2.179-1.88 3.504-2.93 3.544l-.052.001c-2.166-.001-4.752-5.107-5.035-12.54-.285-7.492 1.943-12.806 4.121-12.889zm76.152-.973l.096.68-1.953-1.559 1.589-.87c.093.572.183 1.156.268 1.749z"/><path class="st3" d="M772.811 342.113a15.985 15.985 0 006.191 1.905c2.15.357 4.329.517 6.508.476l2.54-.952a38.469 38.469 0 01-18.255-3.969 12.648 12.648 0 003.016 2.54zM345.759 290.517l-.145-.187-.124.175-.497-.023.246.376-37.63 53.087 5.996-.444.154-.217h2.121v34.32h65.74v-.088l6.943-.143h23.501v-.486h.024l.74-31.07 8.202.014-36.374-53.547-38.897-1.767zm-.077 2.997l.62.799-33.724 47.364-1.092.081 34.196-48.244zm-27.867 48.8l11.617-16.9v20.94h16.375v-21.687h-15.861l18.371-26.725 17.098 26.725h-15.749v21.687h15.824v-21.57l13.237 20.689h.649l.171 21.342h-15.045v-13.218h-7.898v13.218H318.12c-.108 0-.204.036-.305.062v-24.563zm26.015.049h-5.579v-15.718h5.579v15.718zm-7.589 0h-4.832v-15.718h4.832v15.718zm15.401-.131v-15.587h4.62v15.587h-4.62zm6.747 0v-15.587h5.124v15.587h-5.124zm23.093 24.746l-.17-21.214 29.583.049-.504 21.165h-28.909zm.801-23.136l-33.618-51.268 34.944 1.586 33.789 49.74-35.115-.058z"/><path class="st3" d="M372.19 297.208l-7.839-.356 27.292 41.155 7.612.013zM389.881 338.004l-27.345-41.234-8.466-.385 27.282 41.605zM401.017 338.023l9.585.016-27.395-40.33-9.202-.418zM386.96 347.842h-1.283v16.538h1.283a4.038 4.038 0 004.038-4.038v-8.462a4.038 4.038 0 00-4.038-4.038zm2.284 12.512h-2.218v-9.349h2.218v9.349z"/><path class="st2" d="M387.026 351.006h2.218v9.349h-2.218z"/><path class="st3" d="M532.297 352.808v-43.254h5.502v43.254h-2.012a28.196 28.196 0 006.512 17.305c4.37-2.126 7.389-6.595 7.389-11.782v-50.308c0-7.24-5.869-13.109-13.109-13.109h-11.513v76.526h11.513c1.314 0 2.58-.198 3.777-.558a30.177 30.177 0 01-6.569-18.074h-1.49z"/><path class="st2" d="M599.591 336.98a61916.43 61916.43 0 00-8.97 15.532l1.674 2.344c-1.418 14.306-13.521 25.518-28.193 25.518-8.759 0-16.601-3.997-21.803-10.26a28.202 28.202 0 01-6.512-17.305h2.012v-43.254h-5.502v43.254h1.49a30.17 30.17 0 006.569 18.074c5.562 6.994 14.136 11.491 23.746 11.491 15.039 0 27.549-11.002 29.923-25.378l9.432-8.733c3.56 6.188 7.729 5.513 7.729 5.513l-.437-17.014-11.158.218z"/><path class="st3" d="M177.029 369.084l-35.409-52.127-.809 16.229 25.01 36.701 11.484.019zM136.278 329.908l-12.076-17.721-11.682-.532 22.928 34.902zM135.287 349.771l-25.109-38.222-11.389-.518 35.714 54.465zM137.133 312.774l-10.559-.48 9.861 14.471zM140.654 336.329l-.842 16.871 10.946 16.663 12.762.02zM139.652 356.415l-.67 13.428 9.501.016z"/><path d="M143.037 252.386h-.002c-3.263 0-6.33 1.271-8.638 3.577a12.136 12.136 0 00-3.579 8.639 12.118 12.118 0 002.099 6.852l.334.492-37.123 37.121 1.283 1.282 37.036-37.036.507.448a12.243 12.243 0 004.869 2.63l.558.152-4.683 93.873 1.81.09 4.674-93.689h.864a12.2 12.2 0 003.636-.553l.672-.21 31.764 94.735 2.169-.726-31.863-95.035.454-.307a12.183 12.183 0 005.375-10.123c-.001-6.734-5.481-12.212-12.216-12.212z" fill="#ffcf64"/><path transform="rotate(-63.934 411.632 172.736)" class="st5" d="M409.128 171.74h5v2h-5z"/><path transform="rotate(-63.922 407.22 181.721)" class="st5" d="M404.731 180.722h5v1.999h-5z"/><path transform="rotate(-63.922 416.032 163.755)" class="st5" d="M413.524 162.759h5v1.999h-5z"/><path transform="rotate(-63.917 402.824 190.693)" class="st5" d="M400.335 189.704h5v1.999h-5z"/><path transform="rotate(-63.922 367.674 262.556)" class="st5" d="M365.164 261.558h5v2h-5z"/><path transform="rotate(-63.922 363.277 271.538)" class="st5" d="M360.768 270.54h4.999v1.999h-4.999z"/><path transform="rotate(-63.922 372.07 253.575)" class="st5" d="M369.561 252.577h5v1.999h-5z"/><path transform="rotate(-63.922 420.429 154.773)" class="st5" d="M417.92 153.777h5v1.999h-5z"/><path transform="rotate(-63.922 359.284 279.699)" class="st5" d="M357.689 278.7h3.171v1.999h-3.171z"/><path transform="rotate(-63.934 424.821 145.79)" class="st5" d="M422.317 144.795h5v2h-5z"/><path transform="rotate(-63.934 385.255 226.628)" class="st5" d="M382.75 225.631h5v2h-5z"/><path transform="rotate(-63.922 376.466 244.592)" class="st5" d="M373.957 243.595h4.999v1.999h-4.999z"/><path transform="rotate(-63.922 398.447 199.683)" class="st5" d="M395.939 198.686h5v2h-5z"/><path transform="rotate(-63.922 389.655 217.647)" class="st5" d="M387.146 216.65h5v1.999h-5z"/><path transform="rotate(-63.917 394.032 208.657)" class="st5" d="M391.542 207.668h5v1.999h-5z"/><path transform="rotate(-63.922 380.863 235.61)" class="st5" d="M378.353 234.613h5v1.999h-5z"/><path class="st5" d="M431.383 141.545l.029-8.807-7.453 4.692z"/><path transform="rotate(-29.646 468.125 145.45)" class="st2" d="M467.12 142.932h2v5h-2z"/><path transform="rotate(-29.652 507.722 214.972)" class="st2" d="M506.692 212.46h2v5h-2z"/><path transform="rotate(-29.649 527.465 249.716)" class="st2" d="M526.478 247.223h2.001v5h-2.001z"/><path transform="rotate(-29.646 478.017 162.833)" class="st2" d="M477.013 160.314h2v5h-2z"/><path transform="rotate(-29.634 483.018 171.49)" class="st2" d="M481.96 169.005h2v5h-2z"/><path transform="rotate(-29.652 502.775 206.28)" class="st2" d="M501.745 203.769h2v5h-2z"/><path transform="rotate(-29.646 517.547 232.356)" class="st2" d="M516.585 229.842h2v4.999h-2z"/><path transform="rotate(-29.646 512.602 223.665)" class="st2" d="M511.639 221.151h2v4.999h-2z"/><path transform="rotate(-29.649 473.055 154.119)" class="st2" d="M472.067 151.623h2v5h-2z"/><path transform="rotate(-29.646 463.178 136.759)" class="st2" d="M462.174 134.242h2v5h-2z"/><path transform="rotate(-29.649 532.41 258.408)" class="st2" d="M531.424 255.915h2.001v5h-2.001z"/><path transform="rotate(-29.649 497.787 197.572)" class="st2" d="M496.799 195.078h2v5h-2z"/><path transform="rotate(-29.649 492.84 188.882)" class="st2" d="M491.853 186.387h2v5h-2z"/><path transform="rotate(-29.649 522.518 241.026)" class="st2" d="M521.531 238.533h2.001v5h-2.001z"/><path transform="rotate(-29.634 487.965 180.182)" class="st2" d="M486.906 177.696h2v5h-2z"/><path transform="rotate(-29.649 537.357 267.098)" class="st2" d="M536.37 264.605h2.001v5h-2.001z"/><path transform="rotate(-29.618 542.372 275.815)" class="st2" d="M541.318 273.297h2v5h-2z"/><path class="st2" d="M547.909 276.535l-7.56 3.852 7.282 4.946z"/><path transform="rotate(-55.471 618.998 226.679)" class="st5" d="M617.957 224.17h1.999v5h-1.999z"/><path transform="rotate(-55.482 495.353 141.643)" class="st5" d="M494.377 139.153h1.999v5h-1.999z"/><path transform="rotate(-55.487 610.722 220.998)" class="st5" d="M609.719 218.502h1.999v5h-1.999z"/><path transform="rotate(-55.48 700.91 283.09)" class="st5" d="M699.941 281.06h2v4.022h-2z"/><path transform="rotate(-55.471 503.648 147.326)" class="st5" d="M502.615 144.821h1.999v5h-1.999z"/><path transform="rotate(-55.471 536.606 169.998)" class="st5" d="M535.571 167.493h1.999v5h-1.999z"/><path transform="rotate(-55.471 594.28 209.675)" class="st5" d="M593.241 207.167h1.999v5h-1.999z"/><path transform="rotate(-55.471 635.477 238.015)" class="st5" d="M634.434 235.506h2v5h-2z"/><path transform="rotate(-55.471 511.887 152.994)" class="st5" d="M510.854 150.489h1.999v5h-1.999z"/><path transform="rotate(-55.471 627.237 232.347)" class="st5" d="M626.196 229.838h1.999v5h-1.999z"/><path transform="rotate(-55.471 602.52 215.343)" class="st5" d="M601.48 212.835h1.999v5h-1.999z"/><path transform="rotate(-55.471 643.716 243.683)" class="st5" d="M642.673 241.174h2v5h-2z"/><path transform="rotate(-55.471 693.152 277.692)" class="st5" d="M692.105 275.181h2v5h-2z"/><path transform="rotate(-55.471 676.673 266.355)" class="st5" d="M675.628 263.845h2v5h-2z"/><path transform="rotate(-55.471 651.956 249.352)" class="st5" d="M650.912 246.842h2v5h-2z"/><path transform="rotate(-55.487 668.398 260.672)" class="st5" d="M667.389 258.177h2v5h-2z"/><path transform="rotate(-55.471 660.194 255.02)" class="st5" d="M659.15 252.51h2v5h-2z"/><path transform="rotate(-55.471 684.912 272.024)" class="st5" d="M683.866 269.513h2v5h-2z"/><path transform="rotate(-55.48 553.043 181.341)" class="st5" d="M552.048 178.828h1.999v5.001h-1.999z"/><path transform="rotate(-55.48 585.977 204.016)" class="st5" d="M585.002 201.499h1.999v5h-1.999z"/><path transform="rotate(-55.471 544.845 175.666)" class="st5" d="M543.809 173.16h1.999v5h-1.999z"/><path transform="rotate(-55.48 520.072 158.673)" class="st5" d="M519.093 156.157h1.999v5h-1.999z"/><path transform="rotate(-55.471 528.366 164.33)" class="st5" d="M527.331 161.825h1.999v5h-1.999z"/><path transform="rotate(-55.471 561.323 187.003)" class="st5" d="M560.286 184.496h1.999v5h-1.999z"/><path transform="rotate(-55.471 577.802 198.339)" class="st5" d="M576.764 195.832h1.999v5h-1.999z"/><path transform="rotate(-55.471 569.562 192.67)" class="st5" d="M568.525 190.164h1.999v5h-1.999z"/><path class="st5" d="M480.415 130.759l3.747 7.966 1.73-2.382 2.739 1.884 1.133-1.648-2.696-1.855 2.081-2.864z"/><path transform="rotate(-33.328 240.206 242.845)" class="st5" d="M237.702 241.836h5v2.001h-5z"/><path transform="rotate(-33.311 231.831 248.316)" class="st5" d="M229.346 247.329h5v2.001h-5z"/><path transform="rotate(-33.328 248.562 237.35)" class="st5" d="M246.057 236.342h5v2.001h-5z"/><path transform="rotate(-33.328 256.918 231.856)" class="st5" d="M254.413 230.848h5v2h-5z"/><path transform="rotate(-33.328 206.783 264.82)" class="st5" d="M204.28 263.812h5v2.001h-5z"/><path transform="rotate(-33.325 290.333 209.867)" class="st5" d="M287.835 208.872h5v2h-5z"/><path transform="rotate(-33.325 265.267 226.35)" class="st5" d="M262.768 225.354h5v2h-5z"/><path transform="rotate(-33.328 298.697 204.385)" class="st5" d="M296.19 203.378h5v2h-5z"/><path transform="rotate(-33.311 198.41 270.291)" class="st5" d="M195.924 269.306h5v2.001h-5z"/><path transform="rotate(-33.311 181.7 281.279)" class="st5" d="M179.213 280.294h5v2.001h-5z"/><path transform="rotate(-33.311 223.476 253.81)" class="st5" d="M220.991 252.823h5v2.001h-5z"/><path transform="rotate(-33.311 215.121 259.303)" class="st5" d="M212.635 258.318h5v2.001h-5z"/><path transform="rotate(-33.311 190.056 275.785)" class="st5" d="M187.568 274.8h5v2.001h-5z"/><path transform="rotate(-33.325 323.755 187.891)" class="st5" d="M321.257 186.896h5v2h-5z"/><path transform="rotate(-33.325 365.532 160.42)" class="st5" d="M363.035 159.425h5v2h-5z"/><path transform="rotate(-33.325 357.176 165.915)" class="st5" d="M354.68 164.919h5v2h-5z"/><path transform="rotate(-33.325 382.242 149.433)" class="st5" d="M379.746 148.437h5v2h-5z"/><path transform="rotate(-33.325 348.82 171.409)" class="st5" d="M346.324 170.413h5v2h-5z"/><path transform="rotate(-33.325 390.598 143.939)" class="st5" d="M388.101 142.943h5v2h-5z"/><path transform="rotate(-33.325 398.953 138.444)" class="st5" d="M396.457 137.449h5v2h-5z"/><path transform="rotate(-33.325 373.887 154.927)" class="st5" d="M371.391 153.931h5v2h-5z"/><path transform="rotate(-33.328 273.63 220.868)" class="st5" d="M271.124 219.86h5v2h-5z"/><path transform="rotate(-33.325 315.4 193.385)" class="st5" d="M312.902 192.39h5v2h-5z"/><path transform="rotate(-33.328 307.053 198.89)" class="st5" d="M304.546 197.883h5v2h-5z"/><path transform="rotate(-33.325 281.977 215.361)" class="st5" d="M279.479 214.366h5v2h-5z"/><path transform="rotate(-33.325 332.11 182.397)" class="st5" d="M329.613 181.402h5v2h-5z"/><path transform="rotate(-33.325 340.465 176.903)" class="st5" d="M337.968 175.907h5v2h-5z"/><path class="st5" d="M409.37 130.995l-8.422 1.034 5.151 7.139zM277.743 339.755h-72v1h72v4l8-4.5-8-4.5zM512.743 340.255l-8-4.5v4h-72v1h72v4zM690.743 339.755h-72v1h72v4l8-4.5-8-4.5zM426.743 116.755h46c7.732 0 14-6.268 14-14v-46c0-7.732-6.268-14-14-14h-46c-7.732 0-14 6.268-14 14v46c0 7.732 6.268 14 14 14zm21.139-55.502h10.323l-6.883 13.764h6.883l-12.9 24.089 2.581-17.206h-8.6l8.596-20.647z"/><path class="st2" d="M445.305 99.106l12.9-24.089h-6.883l6.883-13.764h-10.323L439.286 81.9h8.6z"/></svg>