<?xml version="1.0" encoding="utf-8"?>
<!-- Generator: Adobe Illustrator 25.4.1, SVG Export Plug-In . SVG Version: 6.00 Build 0)  -->
<svg version="1.1" id="Ebene_1" xmlns="http://www.w3.org/2000/svg" xmlns:xlink="http://www.w3.org/1999/xlink" x="0px" y="0px"
	 viewBox="0 0 140 140" style="enable-background:new 0 0 140 140;" xml:space="preserve">
<style type="text/css">
	.st0{fill:none;}
	.st1{fill:#FFFFFF;}
	.st2{fill:#000133;}
</style>
<rect class="st0" width="140" height="140"/>
<g>
	<path class="st0" d="M66.865,97.31l0.686,0.404l5.252,0.116l1.307-0.695l13.827-64.651l-18.831,0.118l-16.613-0.119L66.865,97.31z
		 M68.801,53.504c0-0.814,0.66-1.474,1.474-1.474s1.474,0.66,1.474,1.474v17.977c0,0.814-0.66,1.474-1.474,1.474
		s-1.474-0.66-1.474-1.474V53.504z"/>
	<path class="st0" d="M77.233,96.63L96.84,86.046c0.077-1.459,0.117-2.945,0.106-4.437l0.391-43.693
		c0.046-0.862-0.208-1.638-0.712-2.252c-0.277-0.311-0.674-0.591-1.112-0.769c-1.443-0.643-3.002-1.284-4.665-1.921L77.233,96.63z"
		/>
	<path class="st0" d="M63.56,96.692c0.043-0.032,0.084-0.066,0.128-0.097L49.6,33.054c-1.609,0.57-3.179,1.255-4.685,2.05
		c-0.467,0.245-0.856,0.611-1.127,1.059c-0.2,0.371-0.319,0.856-0.312,1.344c-0.011,1.749,0.071,19.997,0.257,47.43L63.56,96.692z"
		/>
	<path class="st0" d="M77.484,101.667c-0.232-0.875-0.728-1.65-1.42-2.232l-2.558,1.359l-6.79-0.149L64.774,99.5
		c-0.896,0.853-1.495,1.99-1.68,3.227c-0.069,0.617-0.002,1.282,0.184,1.918l1.535,1.104v0.494c2.275,1.003,4.763,1.369,7.246,1.065
		c1.269-0.171,2.506-0.525,3.68-1.055v-0.664l0.647-0.438c0.273-0.185,0.553-0.379,0.828-0.566
		C77.62,103.667,77.728,102.647,77.484,101.667z"/>
	<path class="st1" d="M43.739,85.721l0,0.082l-0.009,0.082c-0.135,1.293,0.056,2.611,0.551,3.812c0.53,1.224,1.4,2.301,2.505,3.092
		l13.38,9.62c0.002-0.022,0.001-0.044,0.003-0.066c0.342-2.29,1.572-4.309,3.388-5.651L43.734,84.936
		C43.736,85.199,43.737,85.457,43.739,85.721z"/>
	<path class="st1" d="M77.229,96.646c1.535,1,2.637,2.504,3.111,4.287c0.112,0.45,0.181,0.904,0.21,1.358
		c0.917-0.636,1.836-1.274,2.754-1.92c3.575-2.516,7.087-5.062,10.438-7.566l0.211-0.131c0.959-0.491,1.74-1.25,2.257-2.196
		c0.225-0.43,0.436-1.04,0.608-3.908c0.01-0.173,0.013-0.351,0.022-0.524L77.233,96.63L77.229,96.646z"/>
	<path class="st2" d="M98.868,33.751c-0.614-0.693-1.393-1.243-2.203-1.569c-1.902-0.849-4.047-1.712-6.375-2.567l-0.25-0.092
		l-20.931,0.131l-18.148-0.13l-0.206,0.06c-2.494,0.722-4.921,1.702-7.212,2.911c-0.94,0.494-1.728,1.234-2.31,2.201
		c-0.476,0.875-0.719,1.864-0.703,2.826c-0.011,1.737,0.072,20.298,0.262,48.141c-0.169,1.751,0.096,3.533,0.777,5.182
		c0.752,1.739,1.965,3.24,3.502,4.339l16.796,12.076v0.806l0.796,0.413c2.396,1.242,5.02,1.88,7.696,1.88
		c0.69,0,1.384-0.042,2.079-0.128c1.919-0.258,3.759-0.85,5.469-1.76l0.782-0.416v-0.905c2.081-1.416,4.201-2.883,6.312-4.368
		c3.565-2.509,7.067-5.047,10.411-7.545c1.434-0.762,2.603-1.917,3.398-3.368c0.503-0.962,0.76-1.93,0.951-5.123
		c0.102-1.688,0.146-3.424,0.134-5.135l0.389-43.602C100.367,36.477,99.877,34.98,98.868,33.751z M96.625,35.664
		c0.504,0.614,0.758,1.39,0.712,2.252l-0.391,43.693c0.011,1.492-0.029,2.979-0.106,4.437c-0.009,0.174-0.012,0.352-0.022,0.524
		c-0.172,2.868-0.383,3.478-0.608,3.908c-0.518,0.945-1.298,1.705-2.257,2.196l-0.211,0.131c-3.351,2.504-6.863,5.05-10.438,7.566
		c-0.918,0.646-1.837,1.284-2.754,1.92c-0.029-0.454-0.098-0.908-0.21-1.358c-0.474-1.783-1.575-3.288-3.111-4.287l0.004-0.017
		l13.614-63.655c1.663,0.637,3.222,1.278,4.665,1.921C95.951,35.073,96.348,35.353,96.625,35.664z M87.937,32.485L74.11,97.135
		l-1.307,0.695l-5.252-0.116l-0.686-0.404L52.493,32.484l16.613,0.119L87.937,32.485z M43.477,37.506
		c-0.008-0.488,0.111-0.973,0.312-1.344c0.271-0.448,0.66-0.814,1.127-1.059c1.506-0.795,3.076-1.479,4.685-2.05l14.087,63.541
		c-0.044,0.031-0.085,0.065-0.128,0.097c-1.816,1.341-3.046,3.361-3.388,5.651c-0.002,0.022-0.001,0.044-0.003,0.066l-13.38-9.62
		c-1.105-0.791-1.975-1.868-2.505-3.092c-0.496-1.201-0.687-2.519-0.551-3.812l0.009-0.082l0-0.082
		c-0.002-0.264-0.004-0.522-0.005-0.784C43.547,57.504,43.466,39.256,43.477,37.506z M75.74,105.588v0.664
		c-1.173,0.529-2.411,0.884-3.68,1.055c-2.483,0.304-4.971-0.062-7.246-1.065v-0.494l-1.535-1.104
		c-0.186-0.637-0.253-1.301-0.184-1.918c0.185-1.237,0.784-2.374,1.68-3.227l1.943,1.145l6.79,0.149l2.558-1.359
		c0.692,0.582,1.188,1.357,1.42,2.232c0.244,0.98,0.136,2-0.27,2.916c-0.275,0.187-0.554,0.381-0.828,0.566L75.74,105.588z"/>
	<path class="st1" d="M70.275,72.955c0.814,0,1.474-0.66,1.474-1.474V53.504c0-0.814-0.66-1.474-1.474-1.474
		s-1.474,0.66-1.474,1.474v17.977C68.801,72.295,69.461,72.955,70.275,72.955z"/>
</g>
</svg>
