<?xml version="1.0" encoding="utf-8"?>
<!-- Generator: Adobe Illustrator 24.0.3, SVG Export Plug-In . SVG Version: 6.00 Build 0)  -->
<svg version="1.1" id="Ebene_1" xmlns="http://www.w3.org/2000/svg" xmlns:xlink="http://www.w3.org/1999/xlink" x="0px" y="0px"
	 width="600px" height="350px" viewBox="0 0 600 350" style="enable-background:new 0 0 600 350;" xml:space="preserve">
<style type="text/css">
	.st0{fill:none;stroke:#FF6666;stroke-width:2;stroke-miterlimit:10;}
	.st1{fill:#FF6666;}
	.st2{fill:none;}
	.st3{fill:none;stroke:#AAAAAA;stroke-width:1.5;stroke-miterlimit:10;}
	.st4{fill:#AAAAAA;}
	.st5{fill:none;stroke:#0FDD42;stroke-width:1.5;stroke-linecap:round;stroke-miterlimit:10;}
	.st6{fill:none;stroke:#0FDD42;stroke-width:1.5;stroke-linecap:round;stroke-miterlimit:10;stroke-dasharray:0.49,3.9204;}
	.st7{fill:#0FDD42;}
	.st8{fill:none;stroke:#AAAAAA;stroke-width:1.5;stroke-linecap:round;stroke-miterlimit:10;}
	.st9{fill:none;stroke:#AAAAAA;stroke-width:1.5;stroke-linecap:round;stroke-miterlimit:10;stroke-dasharray:0.4876,3.9008;}
	.st10{fill:#FFFFFF;}
	.st11{fill:#000066;}
	.st12{fill:#006600;}
	.st13{fill:#00E207;}
	.st14{fill:#000066;stroke:#FFFFFF;stroke-miterlimit:10;}
	.st15{fill:#FFFF00;}
	.st16{fill:#FFE000;}
	.st17{fill:none;stroke:#FFFFFF;stroke-linecap:round;stroke-miterlimit:10;}
	.st18{enable-background:new    ;}
	.st19{fill:none;stroke:#AAAAAA;stroke-width:1.5;stroke-linecap:round;stroke-miterlimit:10;stroke-dasharray:0.5,4;}
	.st20{fill:#FFFFFF;stroke:#AAAAAA;stroke-width:2;stroke-miterlimit:10;}
	.st21{fill:none;stroke:#00E207;stroke-width:6;stroke-linecap:round;stroke-miterlimit:10;}
</style>
<g>
	<path class="st0" d="M312.2,256v17.3c0,5.4-4.3,9.7-9.7,9.7l0,0c-5.4,0-9.7-4.3-9.7-9.7v-23.9l-0.7,16.8"/>
	<path class="st1" d="M300.5,243.5h7.9l6.1,13.5l-3.3,1.8l-5.2-7.3c-2.6,4-5.5,3.6-5.5,3.6L300.5,243.5L300.5,243.5z"/>
	<g>
		<line class="st2" x1="173" y1="253.3" x2="258.1" y2="253.3"/>
		<g>
			<line class="st3" x1="173" y1="253.3" x2="256.4" y2="253.3"/>
			<g>
				<polygon class="st4" points="253.4,255.9 256,253.3 253.4,250.8 255.6,250.8 258.1,253.3 255.6,255.9 				"/>
			</g>
		</g>
	</g>
	<g>
		<line class="st2" x1="124.4" y1="216.2" x2="124.4" y2="143.2"/>
		<g>
			<line class="st3" x1="124.4" y1="214.4" x2="124.4" y2="143.2"/>
			<g>
				<polygon class="st4" points="126.9,211.5 124.4,214 121.8,211.5 121.8,213.6 124.4,216.2 126.9,213.6 				"/>
			</g>
		</g>
	</g>
	<g>
		<g>
			<line class="st5" x1="297.7" y1="213.8" x2="297.7" y2="213.5"/>
			<line class="st6" x1="297.7" y1="209.6" x2="297.7" y2="145.4"/>
			<line class="st5" x1="297.7" y1="143.5" x2="297.7" y2="143.2"/>
			<g>
				<polygon class="st7" points="300.2,210.8 297.7,213.3 295.1,210.8 295.1,213 297.7,215.5 300.2,213 				"/>
			</g>
		</g>
	</g>
	<g>
		<g>
			<line class="st8" x1="256.4" y1="105.6" x2="256.2" y2="105.6"/>
			<line class="st9" x1="252.3" y1="105.6" x2="175.2" y2="105.6"/>
			<line class="st8" x1="173.3" y1="105.6" x2="173" y2="105.6"/>
			<g>
				<polygon class="st4" points="253.4,103 256,105.6 253.4,108.1 255.6,108.1 258.1,105.6 255.6,103 				"/>
			</g>
		</g>
	</g>
	<g>
		<line class="st2" x1="331.1" y1="253.3" x2="410.2" y2="253.3"/>
		<g>
			<line class="st3" x1="331.1" y1="253.3" x2="408.5" y2="253.3"/>
			<g>
				<polygon class="st4" points="405.5,255.9 408,253.3 405.5,250.8 407.6,250.8 410.2,253.3 407.6,255.9 				"/>
			</g>
		</g>
	</g>
	<path class="st7" d="M544.5,264.2c0,0-0.6,0.1,0,1.3s0.9,1.6-0.1,2.4c-1.1,0.8-6,1.7-6.9,2.7h-101c0,0-0.9-2-2.2-2.4
		c-1.3-0.5-2.7-3.1-2.9-3.6c-0.2-0.5-2.6-5.5-2.6-8.3c0-0.1,1.8-4.2,1.8-6c0-1.9,0.6-5.2,0.9-5.8s-1.4-1.2-0.4-1.7s19.2-8.7,30.2-10
		s33.6-3.7,55,13.7c0,0,19.4,0.1,28.5,9.2c1.4,1.3,0.7,2.7,0.4,3.6c-0.3,0.9-0.2,3.7,0,4C545.2,263.6,544.5,264.2,544.5,264.2z"/>
	<path class="st1" d="M438.1,245l-6.9,0.1c-0.3,1.1-0.7,3.3-0.7,4.8C434.7,248.8,438.1,245,438.1,245z"/>
	<path class="st1" d="M541.6,256.1c1.4,0,1.9-0.9,2.1-1.4c-3-2.7-7-4.5-10.9-5.7C533.9,250.5,538.7,256.1,541.6,256.1z"/>
	<g>
		<path class="st10" d="M474.2,236.2c-5.1,0-9.6,0.5-12.5,0.9c-3.8,0.4-8.7,1.9-13.5,3.5c6.4,3,19.8,3.4,19.8,3.4l40.5,2.3
			C498.5,239.5,487.2,236.2,474.2,236.2L474.2,236.2"/>
		<path class="st7" d="M474.2,231.8L474.2,231.8L474.2,231.8z"/>
	</g>
	<ellipse class="st11" cx="447.4" cy="265.5" rx="9.6" ry="9.8"/>
	<path class="st12" d="M508.2,247.5l-6.1-0.5c0,0-1-0.5-1-0.9s1-2.6,1-2.6s3.2-0.6,3.9,0.7c0.7,1.3,1.4,2.2,1.7,2.2
		C508,246.4,508.2,247.5,508.2,247.5z"/>
	<ellipse class="st11" cx="526.5" cy="265.5" rx="9.6" ry="9.8"/>
	<ellipse class="st10" cx="526.5" cy="265.5" rx="5.9" ry="6"/>
	<ellipse class="st10" cx="447.5" cy="265.5" rx="5.9" ry="6"/>
	<polygon class="st1" points="111.3,231.5 140.5,231.5 122.3,260.7 93.1,260.7 	"/>
	<polygon class="st13" points="140.5,231.5 122.3,260.7 93.1,260.7 93.1,275.3 122.3,275.3 158.8,275.3 158.8,260.7 	"/>
	<path class="st11" d="M294.7,275.3h-11.9v-43.8h11.9c5.5,0,10,4.5,10,10v23.8C304.7,270.8,300.2,275.3,294.7,275.3z"/>
	<polygon class="st14" points="129.6,95.3 158.8,95.3 140.5,124.5 111.3,124.5 	"/>
	<polygon class="st15" points="100.4,68.5 102.2,80.2 107.5,69.7 105.6,81.3 114,72.9 108.6,83.5 119.1,78.1 110.7,86.4 122.4,84.5 
		111.8,89.8 123.5,91.7 111.8,93.5 122.4,98.8 110.7,96.9 119.1,105.3 108.6,99.8 114,110.4 105.6,102 107.5,113.7 102.2,103.1 
		100.4,114.8 98.6,103.1 93.2,113.7 95.1,102 86.8,110.4 92.2,99.8 81.7,105.3 90.1,96.9 78.4,98.8 89,93.5 77.3,91.7 89,89.8 
		78.4,84.5 90.1,86.4 81.7,78.1 92.2,83.5 86.8,72.9 95.1,81.3 93.2,69.7 98.6,80.2 	"/>
	<circle class="st16" cx="100.4" cy="91.7" r="10.9"/>
	<line class="st17" x1="116.1" y1="117.2" x2="145.3" y2="117.2"/>
	<line class="st17" x1="120.5" y1="109.9" x2="149.6" y2="109.9"/>
	<line class="st17" x1="124.6" y1="102.6" x2="153.7" y2="102.6"/>
	<g class="st18">
		<path class="st7" d="M48.4,29.1v4H46V21.8h4.4c0.8,0,1.6,0.2,2.2,0.5c0.6,0.3,1.1,0.7,1.5,1.3c0.3,0.6,0.5,1.2,0.5,1.9
			c0,1.1-0.4,2-1.1,2.6c-0.8,0.6-1.8,1-3.1,1H48.4z M48.4,27.2h2.1c0.6,0,1.1-0.1,1.4-0.4c0.3-0.3,0.5-0.7,0.5-1.2
			c0-0.5-0.2-1-0.5-1.3s-0.8-0.5-1.3-0.5h-2.1V27.2z"/>
		<path class="st7" d="M58.3,25.6c0.6-0.7,1.3-1.1,2.2-1.1c1.8,0,2.7,1.1,2.8,3.2V33H61v-5.3c0-0.5-0.1-0.8-0.3-1.1
			c-0.2-0.2-0.5-0.3-1-0.3c-0.7,0-1.1,0.3-1.4,0.8v6H56V21.2h2.2V25.6z"/>
		<path class="st7" d="M64.6,28.8c0-0.8,0.2-1.6,0.5-2.2c0.3-0.6,0.8-1.2,1.4-1.5c0.6-0.4,1.3-0.5,2.1-0.5c1.1,0,2,0.3,2.8,1
			s1.1,1.6,1.2,2.8l0,0.6c0,1.3-0.4,2.3-1.1,3.1c-0.7,0.8-1.7,1.2-2.9,1.2s-2.2-0.4-2.9-1.2c-0.7-0.8-1.1-1.8-1.1-3.1V28.8z
			 M66.8,28.9c0,0.8,0.1,1.4,0.4,1.8c0.3,0.4,0.7,0.6,1.3,0.6c0.5,0,1-0.2,1.3-0.6c0.3-0.4,0.5-1.1,0.5-2c0-0.8-0.2-1.4-0.5-1.8
			c-0.3-0.4-0.7-0.6-1.3-0.6c-0.5,0-1,0.2-1.3,0.6C67,27.4,66.8,28,66.8,28.9z"/>
		<path class="st7" d="M76.5,22.6v2.1H78v1.6h-1.4v4.2c0,0.3,0.1,0.5,0.2,0.7c0.1,0.1,0.3,0.2,0.7,0.2c0.2,0,0.5,0,0.7-0.1V33
			c-0.4,0.1-0.9,0.2-1.4,0.2c-1.6,0-2.4-0.8-2.4-2.4v-4.5h-1.2v-1.6h1.2v-2.1H76.5z"/>
		<path class="st7" d="M78.6,28.8c0-0.8,0.2-1.6,0.5-2.2c0.3-0.6,0.8-1.2,1.4-1.5c0.6-0.4,1.3-0.5,2.1-0.5c1.1,0,2,0.3,2.8,1
			s1.1,1.6,1.2,2.8l0,0.6c0,1.3-0.4,2.3-1.1,3.1c-0.7,0.8-1.7,1.2-2.9,1.2s-2.2-0.4-2.9-1.2c-0.7-0.8-1.1-1.8-1.1-3.1V28.8z
			 M80.9,28.9c0,0.8,0.1,1.4,0.4,1.8c0.3,0.4,0.7,0.6,1.3,0.6c0.5,0,1-0.2,1.3-0.6c0.3-0.4,0.5-1.1,0.5-2c0-0.8-0.2-1.4-0.5-1.8
			c-0.3-0.4-0.7-0.6-1.3-0.6c-0.5,0-1,0.2-1.3,0.6C81,27.4,80.9,28,80.9,28.9z"/>
		<path class="st7" d="M90.9,30.3l1.6-5.6h2.3L92,33h-2.1l-2.8-8.4h2.3L90.9,30.3z"/>
		<path class="st7" d="M95.3,28.8c0-0.8,0.2-1.6,0.5-2.2c0.3-0.6,0.8-1.2,1.4-1.5c0.6-0.4,1.3-0.5,2.1-0.5c1.1,0,2,0.3,2.8,1
			s1.1,1.6,1.2,2.8l0,0.6c0,1.3-0.4,2.3-1.1,3.1c-0.7,0.8-1.7,1.2-2.9,1.2s-2.2-0.4-2.9-1.2c-0.7-0.8-1.1-1.8-1.1-3.1V28.8z
			 M97.6,28.9c0,0.8,0.1,1.4,0.4,1.8c0.3,0.4,0.7,0.6,1.3,0.6c0.5,0,1-0.2,1.3-0.6c0.3-0.4,0.5-1.1,0.5-2c0-0.8-0.2-1.4-0.5-1.8
			c-0.3-0.4-0.7-0.6-1.3-0.6c-0.5,0-1,0.2-1.3,0.6C97.7,27.4,97.6,28,97.6,28.9z"/>
		<path class="st7" d="M107,33h-2.2V21.2h2.2V33z"/>
		<path class="st7" d="M111.5,22.6v2.1h1.4v1.6h-1.4v4.2c0,0.3,0.1,0.5,0.2,0.7c0.1,0.1,0.3,0.2,0.7,0.2c0.2,0,0.5,0,0.7-0.1V33
			c-0.4,0.1-0.9,0.2-1.4,0.2c-1.6,0-2.4-0.8-2.4-2.4v-4.5H108v-1.6h1.2v-2.1H111.5z"/>
		<path class="st7" d="M119,33c-0.1-0.2-0.2-0.5-0.2-0.7c-0.5,0.6-1.2,0.9-2.1,0.9c-0.8,0-1.5-0.2-2-0.7s-0.8-1.1-0.8-1.8
			c0-0.9,0.3-1.6,1-2s1.6-0.7,2.8-0.7h1v-0.5c0-0.4-0.1-0.7-0.3-0.9c-0.2-0.2-0.5-0.3-0.9-0.3c-0.4,0-0.7,0.1-0.9,0.3
			c-0.2,0.2-0.3,0.4-0.3,0.7H114c0-0.5,0.1-0.9,0.4-1.3c0.3-0.4,0.7-0.7,1.3-1c0.5-0.2,1.2-0.4,1.8-0.4c1,0,1.8,0.3,2.5,0.8
			c0.6,0.5,0.9,1.2,0.9,2.2v3.6c0,0.8,0.1,1.4,0.3,1.8V33H119z M117.2,31.5c0.3,0,0.6-0.1,0.9-0.2c0.3-0.1,0.5-0.3,0.6-0.6v-1.4
			h-0.8c-1.1,0-1.7,0.4-1.8,1.2l0,0.1c0,0.3,0.1,0.5,0.3,0.7C116.5,31.4,116.8,31.5,117.2,31.5z"/>
		<path class="st7" d="M122.6,22.5c0-0.3,0.1-0.6,0.3-0.8c0.2-0.2,0.5-0.3,0.9-0.3c0.4,0,0.7,0.1,0.9,0.3c0.2,0.2,0.3,0.5,0.3,0.8
			c0,0.3-0.1,0.6-0.3,0.8c-0.2,0.2-0.5,0.3-0.9,0.3c-0.4,0-0.7-0.1-0.9-0.3C122.7,23.1,122.6,22.8,122.6,22.5z M125,33h-2.2v-8.4
			h2.2V33z"/>
		<path class="st7" d="M129.9,29.7l-0.8,0.8V33h-2.2V21.2h2.2v6.6l0.4-0.6l2.1-2.5h2.7l-3,3.5l3.3,4.9H132L129.9,29.7z"/>
		<path class="st7" d="M139.6,29.1h-4.3v-1.8h4.3V29.1z"/>
		<path class="st7" d="M147.9,30.7h-4.1l-0.8,2.3h-2.5l4.2-11.2h2.1l4.2,11.2h-2.5L147.9,30.7z M144.5,28.8h2.8l-1.4-4.2L144.5,28.8
			z"/>
		<path class="st7" d="M153.7,24.7l0.1,1c0.6-0.7,1.4-1.1,2.4-1.1c0.9,0,1.5,0.3,2,0.8c0.4,0.5,0.7,1.3,0.7,2.3V33h-2.2v-5.4
			c0-0.5-0.1-0.8-0.3-1c-0.2-0.2-0.5-0.3-1-0.3c-0.6,0-1.1,0.3-1.4,0.8V33h-2.2v-8.4H153.7z"/>
		<path class="st7" d="M162.9,33h-2.2V21.2h2.2V33z"/>
		<path class="st7" d="M169.6,33c-0.1-0.2-0.2-0.5-0.2-0.7c-0.5,0.6-1.2,0.9-2.1,0.9c-0.8,0-1.5-0.2-2-0.7s-0.8-1.1-0.8-1.8
			c0-0.9,0.3-1.6,1-2s1.6-0.7,2.8-0.7h1v-0.5c0-0.4-0.1-0.7-0.3-0.9c-0.2-0.2-0.5-0.3-0.9-0.3c-0.4,0-0.7,0.1-0.9,0.3
			c-0.2,0.2-0.3,0.4-0.3,0.7h-2.2c0-0.5,0.1-0.9,0.4-1.3c0.3-0.4,0.7-0.7,1.3-1c0.5-0.2,1.2-0.4,1.8-0.4c1,0,1.8,0.3,2.5,0.8
			c0.6,0.5,0.9,1.2,0.9,2.2v3.6c0,0.8,0.1,1.4,0.3,1.8V33H169.6z M167.7,31.5c0.3,0,0.6-0.1,0.9-0.2c0.3-0.1,0.5-0.3,0.6-0.6v-1.4
			h-0.8c-1.1,0-1.7,0.4-1.8,1.2l0,0.1c0,0.3,0.1,0.5,0.3,0.7C167.1,31.4,167.4,31.5,167.7,31.5z"/>
		<path class="st7" d="M172.9,28.8c0-1.3,0.3-2.3,0.9-3.1s1.4-1.2,2.5-1.2c0.9,0,1.6,0.3,2.1,0.9l0.1-0.8h2v8.1
			c0,0.7-0.2,1.4-0.5,1.9s-0.8,1-1.4,1.2c-0.6,0.3-1.3,0.4-2.1,0.4c-0.6,0-1.2-0.1-1.8-0.4s-1-0.6-1.3-0.9l1-1.4
			c0.6,0.6,1.2,0.9,2,0.9c0.6,0,1.1-0.2,1.4-0.5c0.3-0.3,0.5-0.8,0.5-1.3v-0.4c-0.5,0.6-1.2,0.9-2,0.9c-1,0-1.8-0.4-2.4-1.2
			C173.2,31.2,172.9,30.2,172.9,28.8L172.9,28.8z M175.1,28.9c0,0.8,0.2,1.4,0.5,1.8c0.3,0.4,0.7,0.6,1.3,0.6c0.7,0,1.2-0.3,1.5-0.8
			v-3.5c-0.3-0.5-0.8-0.8-1.4-0.8c-0.5,0-1,0.2-1.3,0.7C175.2,27.4,175.1,28.1,175.1,28.9z"/>
		<path class="st7" d="M186.1,33.2c-1.2,0-2.2-0.4-3-1.1c-0.8-0.8-1.2-1.8-1.2-3v-0.2c0-0.8,0.2-1.6,0.5-2.3
			c0.3-0.7,0.8-1.2,1.4-1.5c0.6-0.4,1.3-0.5,2-0.5c1.1,0,2,0.4,2.7,1.1c0.7,0.7,1,1.7,1,3.1v0.9h-5.3c0.1,0.5,0.3,1,0.7,1.3
			c0.4,0.3,0.8,0.5,1.4,0.5c0.9,0,1.5-0.3,2-0.9l1.1,1.2c-0.3,0.5-0.8,0.8-1.4,1.1S186.8,33.2,186.1,33.2z M185.8,26.3
			c-0.4,0-0.8,0.1-1.1,0.4s-0.5,0.7-0.5,1.3h3.1v-0.2c0-0.5-0.1-0.9-0.4-1.2C186.6,26.4,186.3,26.3,185.8,26.3z"/>
		<path class="st7" d="M195.4,34h-1.7l4.1-12.2h1.7L195.4,34z"/>
	</g>
	<g class="st18">
		<path class="st7" d="M79.6,48.8l1.5-8h2.3L80.9,52h-2.3l-1.8-7.5L74.9,52h-2.3l-2.5-11.2h2.3l1.5,8l1.9-8h2L79.6,48.8z"/>
		<path class="st7" d="M88.1,52.1c-1.2,0-2.2-0.4-3-1.1c-0.8-0.8-1.2-1.8-1.2-3v-0.2c0-0.8,0.2-1.6,0.5-2.3c0.3-0.7,0.8-1.2,1.4-1.5
			c0.6-0.4,1.3-0.5,2-0.5c1.1,0,2,0.4,2.7,1.1c0.7,0.7,1,1.7,1,3.1v0.9h-5.3c0.1,0.5,0.3,1,0.7,1.3c0.4,0.3,0.8,0.5,1.4,0.5
			c0.9,0,1.5-0.3,2-0.9l1.1,1.2c-0.3,0.5-0.8,0.8-1.4,1.1S88.8,52.1,88.1,52.1z M87.9,45.3c-0.4,0-0.8,0.1-1.1,0.4s-0.5,0.7-0.5,1.3
			h3.1v-0.2c0-0.5-0.1-0.9-0.4-1.2C88.7,45.4,88.4,45.3,87.9,45.3z"/>
		<path class="st7" d="M96.3,50.3c0.4,0,0.7-0.1,1-0.3c0.3-0.2,0.4-0.5,0.4-0.9h2.1c0,0.6-0.2,1.1-0.5,1.6c-0.3,0.5-0.7,0.8-1.2,1.1
			c-0.5,0.3-1.1,0.4-1.7,0.4c-1.2,0-2.1-0.4-2.8-1.1c-0.7-0.8-1-1.8-1-3.1v-0.1c0-1.3,0.3-2.3,1-3.1c0.7-0.8,1.6-1.2,2.8-1.2
			c1,0,1.9,0.3,2.5,0.9c0.6,0.6,1,1.4,1,2.4h-2.1c0-0.4-0.1-0.8-0.4-1.1c-0.3-0.3-0.6-0.4-1-0.4c-0.5,0-0.9,0.2-1.2,0.6
			c-0.3,0.4-0.4,1-0.4,1.8v0.2c0,0.9,0.1,1.5,0.4,1.9C95.4,50.2,95.8,50.3,96.3,50.3z"/>
		<path class="st7" d="M103.3,44.6c0.6-0.7,1.3-1.1,2.2-1.1c1.8,0,2.7,1.1,2.8,3.2V52H106v-5.3c0-0.5-0.1-0.8-0.3-1.1
			c-0.2-0.2-0.5-0.3-1-0.3c-0.7,0-1.1,0.3-1.4,0.8v6H101V40.1h2.2V44.6z"/>
		<path class="st7" d="M114.4,49.7c0-0.3-0.1-0.5-0.4-0.6c-0.3-0.2-0.7-0.3-1.3-0.4c-2-0.4-3-1.3-3-2.5c0-0.7,0.3-1.4,0.9-1.9
			c0.6-0.5,1.4-0.7,2.4-0.7c1.1,0,1.9,0.2,2.5,0.7c0.6,0.5,1,1.1,1,1.9h-2.2c0-0.3-0.1-0.6-0.3-0.8c-0.2-0.2-0.5-0.3-1-0.3
			c-0.4,0-0.7,0.1-0.9,0.3c-0.2,0.2-0.3,0.4-0.3,0.6c0,0.2,0.1,0.4,0.4,0.6c0.2,0.2,0.6,0.3,1.2,0.4s1,0.2,1.4,0.4
			c1.2,0.4,1.8,1.2,1.8,2.2c0,0.8-0.3,1.4-1,1.8s-1.5,0.7-2.5,0.7c-0.7,0-1.3-0.1-1.9-0.4c-0.5-0.2-1-0.6-1.3-1
			c-0.3-0.4-0.5-0.9-0.5-1.4h2.1c0,0.4,0.2,0.7,0.4,0.9c0.3,0.2,0.6,0.3,1.1,0.3c0.4,0,0.8-0.1,1-0.2
			C114.3,50.2,114.4,49.9,114.4,49.7z"/>
		<path class="st7" d="M121.9,52.1c-1.2,0-2.2-0.4-3-1.1c-0.8-0.8-1.2-1.8-1.2-3v-0.2c0-0.8,0.2-1.6,0.5-2.3
			c0.3-0.7,0.8-1.2,1.4-1.5c0.6-0.4,1.3-0.5,2-0.5c1.1,0,2,0.4,2.7,1.1c0.7,0.7,1,1.7,1,3.1v0.9H120c0.1,0.5,0.3,1,0.7,1.3
			c0.4,0.3,0.8,0.5,1.4,0.5c0.9,0,1.5-0.3,2-0.9l1.1,1.2c-0.3,0.5-0.8,0.8-1.4,1.1S122.6,52.1,121.9,52.1z M121.6,45.3
			c-0.4,0-0.8,0.1-1.1,0.4s-0.5,0.7-0.5,1.3h3.1v-0.2c0-0.5-0.1-0.9-0.4-1.2C122.5,45.4,122.1,45.3,121.6,45.3z"/>
		<path class="st7" d="M129,52h-2.2V40.1h2.2V52z"/>
		<path class="st7" d="M135.5,45.7c-0.3,0-0.6-0.1-0.8-0.1c-0.8,0-1.4,0.3-1.7,0.9V52h-2.2v-8.4h2.1l0.1,1c0.4-0.8,1.1-1.2,1.9-1.2
			c0.2,0,0.5,0,0.7,0.1L135.5,45.7z"/>
		<path class="st7" d="M136.5,41.5c0-0.3,0.1-0.6,0.3-0.8c0.2-0.2,0.5-0.3,0.9-0.3c0.4,0,0.7,0.1,0.9,0.3c0.2,0.2,0.3,0.5,0.3,0.8
			c0,0.3-0.1,0.6-0.3,0.8c-0.2,0.2-0.5,0.3-0.9,0.3c-0.4,0-0.7-0.1-0.9-0.3C136.7,42.1,136.5,41.8,136.5,41.5z M138.9,52h-2.2v-8.4
			h2.2V52z"/>
		<path class="st7" d="M144.2,50.3c0.4,0,0.7-0.1,1-0.3c0.3-0.2,0.4-0.5,0.4-0.9h2.1c0,0.6-0.2,1.1-0.5,1.6
			c-0.3,0.5-0.7,0.8-1.2,1.1c-0.5,0.3-1.1,0.4-1.7,0.4c-1.2,0-2.1-0.4-2.8-1.1c-0.7-0.8-1-1.8-1-3.1v-0.1c0-1.3,0.3-2.3,1-3.1
			c0.7-0.8,1.6-1.2,2.8-1.2c1,0,1.9,0.3,2.5,0.9c0.6,0.6,1,1.4,1,2.4h-2.1c0-0.4-0.1-0.8-0.4-1.1c-0.3-0.3-0.6-0.4-1-0.4
			c-0.5,0-0.9,0.2-1.2,0.6c-0.3,0.4-0.4,1-0.4,1.8v0.2c0,0.9,0.1,1.5,0.4,1.9C143.3,50.2,143.7,50.3,144.2,50.3z"/>
		<path class="st7" d="M151.2,44.6c0.6-0.7,1.3-1.1,2.2-1.1c1.8,0,2.7,1.1,2.8,3.2V52h-2.2v-5.3c0-0.5-0.1-0.8-0.3-1.1
			c-0.2-0.2-0.5-0.3-1-0.3c-0.7,0-1.1,0.3-1.4,0.8v6h-2.2V40.1h2.2V44.6z"/>
		<path class="st7" d="M160.5,41.6v2.1h1.4v1.6h-1.4v4.2c0,0.3,0.1,0.5,0.2,0.7c0.1,0.1,0.3,0.2,0.7,0.2c0.2,0,0.5,0,0.7-0.1v1.7
			c-0.4,0.1-0.9,0.2-1.4,0.2c-1.6,0-2.4-0.8-2.4-2.4v-4.5h-1.2v-1.6h1.2v-2.1H160.5z"/>
		<path class="st7" d="M167,52.1c-1.2,0-2.2-0.4-3-1.1c-0.8-0.8-1.2-1.8-1.2-3v-0.2c0-0.8,0.2-1.6,0.5-2.3c0.3-0.7,0.8-1.2,1.4-1.5
			c0.6-0.4,1.3-0.5,2-0.5c1.1,0,2,0.4,2.7,1.1c0.7,0.7,1,1.7,1,3.1v0.9h-5.3c0.1,0.5,0.3,1,0.7,1.3c0.4,0.3,0.8,0.5,1.4,0.5
			c0.9,0,1.5-0.3,2-0.9l1.1,1.2c-0.3,0.5-0.8,0.8-1.4,1.1S167.7,52.1,167,52.1z M166.8,45.3c-0.4,0-0.8,0.1-1.1,0.4
			s-0.5,0.7-0.5,1.3h3.1v-0.2c0-0.5-0.1-0.9-0.4-1.2C167.6,45.4,167.2,45.3,166.8,45.3z"/>
		<path class="st7" d="M176.4,45.7c-0.3,0-0.6-0.1-0.8-0.1c-0.8,0-1.4,0.3-1.7,0.9V52h-2.2v-8.4h2.1l0.1,1c0.4-0.8,1.1-1.2,1.9-1.2
			c0.2,0,0.5,0,0.7,0.1L176.4,45.7z"/>
	</g>
	<g class="st18">
		<path class="st7" d="M285.6,37.9c-1.2,0-2.2-0.4-3-1.1c-0.8-0.8-1.2-1.8-1.2-3v-0.2c0-0.8,0.2-1.6,0.5-2.3
			c0.3-0.7,0.8-1.2,1.4-1.5c0.6-0.4,1.3-0.5,2-0.5c1.1,0,2,0.4,2.7,1.1c0.7,0.7,1,1.7,1,3.1v0.9h-5.3c0.1,0.5,0.3,1,0.7,1.3
			c0.4,0.3,0.8,0.5,1.4,0.5c0.9,0,1.5-0.3,2-0.9l1.1,1.2c-0.3,0.5-0.8,0.8-1.4,1.1S286.3,37.9,285.6,37.9z M285.4,31.1
			c-0.4,0-0.8,0.1-1.1,0.4s-0.5,0.7-0.5,1.3h3.1v-0.2c0-0.5-0.1-0.9-0.4-1.2C286.2,31.2,285.9,31.1,285.4,31.1z"/>
		<path class="st7" d="M293.4,35l1.6-5.6h2.3l-2.8,8.4h-2.1l-2.8-8.4h2.3L293.4,35z"/>
		<path class="st7" d="M301.6,36.1c0.4,0,0.7-0.1,1-0.3c0.3-0.2,0.4-0.5,0.4-0.9h2.1c0,0.6-0.2,1.1-0.5,1.6
			c-0.3,0.5-0.7,0.8-1.2,1.1s-1.1,0.4-1.7,0.4c-1.2,0-2.1-0.4-2.8-1.1c-0.7-0.8-1-1.8-1-3.1v-0.1c0-1.3,0.3-2.3,1-3.1
			c0.7-0.8,1.6-1.2,2.8-1.2c1,0,1.9,0.3,2.5,0.9c0.6,0.6,1,1.4,1,2.4H303c0-0.4-0.1-0.8-0.4-1.1c-0.3-0.3-0.6-0.4-1-0.4
			c-0.5,0-0.9,0.2-1.2,0.6c-0.3,0.4-0.4,1-0.4,1.8v0.2c0,0.9,0.1,1.5,0.4,1.9C300.7,35.9,301.1,36.1,301.6,36.1z"/>
		<path class="st7" d="M309.9,36.1c0.4,0,0.7-0.1,1-0.3c0.3-0.2,0.4-0.5,0.4-0.9h2.1c0,0.6-0.2,1.1-0.5,1.6
			c-0.3,0.5-0.7,0.8-1.2,1.1s-1.1,0.4-1.7,0.4c-1.2,0-2.1-0.4-2.8-1.1c-0.7-0.8-1-1.8-1-3.1v-0.1c0-1.3,0.3-2.3,1-3.1
			c0.7-0.8,1.6-1.2,2.8-1.2c1,0,1.9,0.3,2.5,0.9c0.6,0.6,1,1.4,1,2.4h-2.1c0-0.4-0.1-0.8-0.4-1.1c-0.3-0.3-0.6-0.4-1-0.4
			c-0.5,0-0.9,0.2-1.2,0.6c-0.3,0.4-0.4,1-0.4,1.8v0.2c0,0.9,0.1,1.5,0.4,1.9C308.9,35.9,309.3,36.1,309.9,36.1z"/>
	</g>
	<g class="st18">
		<path class="st7" d="M84.3,326.2H82l-4.5-7.4v7.4h-2.3V315h2.3l4.5,7.4V315h2.3V326.2z"/>
		<path class="st7" d="M90.1,326.4c-1.2,0-2.2-0.4-3-1.1c-0.8-0.8-1.2-1.8-1.2-3V322c0-0.8,0.2-1.6,0.5-2.3c0.3-0.7,0.8-1.2,1.4-1.5
			c0.6-0.4,1.3-0.5,2-0.5c1.1,0,2,0.4,2.7,1.1c0.7,0.7,1,1.7,1,3.1v0.9h-5.3c0.1,0.5,0.3,1,0.7,1.3c0.4,0.3,0.8,0.5,1.4,0.5
			c0.9,0,1.5-0.3,2-0.9l1.1,1.2c-0.3,0.5-0.8,0.8-1.4,1.1S90.7,326.4,90.1,326.4z M89.8,319.5c-0.4,0-0.8,0.1-1.1,0.4
			s-0.5,0.7-0.5,1.3h3.1v-0.2c0-0.5-0.1-0.9-0.4-1.2C90.6,319.6,90.3,319.5,89.8,319.5z"/>
		<path class="st7" d="M97.4,315.8v2.1h1.4v1.6h-1.4v4.2c0,0.3,0.1,0.5,0.2,0.7c0.1,0.1,0.3,0.2,0.7,0.2c0.2,0,0.5,0,0.7-0.1v1.7
			c-0.4,0.1-0.9,0.2-1.4,0.2c-1.6,0-2.4-0.8-2.4-2.4v-4.5H94v-1.6h1.2v-2.1H97.4z"/>
		<path class="st7" d="M102.7,324.4h4.1v1.8h-6.9v-1.4l3.9-5.2h-3.8v-1.8h6.7v1.3L102.7,324.4z"/>
		<path class="st7" d="M113,326.2c-0.1-0.2-0.2-0.5-0.2-0.7c-0.5,0.6-1.2,0.9-2.1,0.9c-0.8,0-1.5-0.2-2-0.7s-0.8-1.1-0.8-1.8
			c0-0.9,0.3-1.6,1-2s1.6-0.7,2.8-0.7h1v-0.5c0-0.4-0.1-0.7-0.3-0.9c-0.2-0.2-0.5-0.3-0.9-0.3c-0.4,0-0.7,0.1-0.9,0.3
			c-0.2,0.2-0.3,0.4-0.3,0.7H108c0-0.5,0.1-0.9,0.4-1.3c0.3-0.4,0.7-0.7,1.3-1c0.5-0.2,1.2-0.4,1.8-0.4c1,0,1.8,0.3,2.5,0.8
			c0.6,0.5,0.9,1.2,0.9,2.2v3.6c0,0.8,0.1,1.4,0.3,1.8v0.1H113z M111.1,324.7c0.3,0,0.6-0.1,0.9-0.2c0.3-0.1,0.5-0.3,0.6-0.6v-1.4
			h-0.8c-1.1,0-1.7,0.4-1.8,1.2l0,0.1c0,0.3,0.1,0.5,0.3,0.7C110.5,324.6,110.8,324.7,111.1,324.7z"/>
		<path class="st7" d="M118.7,317.9l0.1,1c0.6-0.7,1.4-1.1,2.4-1.1c0.9,0,1.5,0.3,2,0.8c0.4,0.5,0.7,1.3,0.7,2.3v5.4h-2.2v-5.4
			c0-0.5-0.1-0.8-0.3-1c-0.2-0.2-0.5-0.3-1-0.3c-0.6,0-1.1,0.3-1.4,0.8v5.9h-2.2v-8.4H118.7z"/>
		<path class="st7" d="M130,323.9c0-0.3-0.1-0.5-0.4-0.6c-0.3-0.2-0.7-0.3-1.3-0.4c-2-0.4-3-1.3-3-2.5c0-0.7,0.3-1.4,0.9-1.9
			c0.6-0.5,1.4-0.7,2.4-0.7c1.1,0,1.9,0.2,2.5,0.7c0.6,0.5,1,1.1,1,1.9h-2.2c0-0.3-0.1-0.6-0.3-0.8c-0.2-0.2-0.5-0.3-1-0.3
			c-0.4,0-0.7,0.1-0.9,0.3c-0.2,0.2-0.3,0.4-0.3,0.6c0,0.2,0.1,0.4,0.4,0.6c0.2,0.2,0.6,0.3,1.2,0.4s1,0.2,1.4,0.4
			c1.2,0.4,1.8,1.2,1.8,2.2c0,0.8-0.3,1.4-1,1.8s-1.5,0.7-2.5,0.7c-0.7,0-1.3-0.1-1.9-0.4c-0.5-0.2-1-0.6-1.3-1
			c-0.3-0.4-0.5-0.9-0.5-1.4h2.1c0,0.4,0.2,0.7,0.4,0.9c0.3,0.2,0.6,0.3,1.1,0.3c0.4,0,0.8-0.1,1-0.2
			C129.9,324.4,130,324.2,130,323.9z"/>
		<path class="st7" d="M137.1,324.6c0.4,0,0.7-0.1,1-0.3c0.3-0.2,0.4-0.5,0.4-0.9h2.1c0,0.6-0.2,1.1-0.5,1.6
			c-0.3,0.5-0.7,0.8-1.2,1.1c-0.5,0.3-1.1,0.4-1.7,0.4c-1.2,0-2.1-0.4-2.8-1.1c-0.7-0.8-1-1.8-1-3.1v-0.1c0-1.3,0.3-2.3,1-3.1
			c0.7-0.8,1.6-1.2,2.8-1.2c1,0,1.9,0.3,2.5,0.9c0.6,0.6,1,1.4,1,2.4h-2.1c0-0.4-0.1-0.8-0.4-1.1c-0.3-0.3-0.6-0.4-1-0.4
			c-0.5,0-0.9,0.2-1.2,0.6c-0.3,0.4-0.4,1-0.4,1.8v0.2c0,0.9,0.1,1.5,0.4,1.9C136.1,324.4,136.5,324.6,137.1,324.6z"/>
		<path class="st7" d="M144,318.8c0.6-0.7,1.3-1.1,2.2-1.1c1.8,0,2.7,1.1,2.8,3.2v5.3h-2.2v-5.3c0-0.5-0.1-0.8-0.3-1.1
			c-0.2-0.2-0.5-0.3-1-0.3c-0.7,0-1.1,0.3-1.4,0.8v6h-2.2v-11.9h2.2V318.8z"/>
		<path class="st7" d="M153,326.2h-2.2v-11.9h2.2V326.2z"/>
		<path class="st7" d="M159.9,325.4c-0.6,0.7-1.3,1-2.3,1c-0.9,0-1.6-0.3-2-0.8c-0.5-0.5-0.7-1.3-0.7-2.3v-5.5h2.2v5.4
			c0,0.9,0.4,1.3,1.2,1.3c0.8,0,1.3-0.3,1.6-0.8v-5.9h2.2v8.4h-2.1L159.9,325.4z"/>
		<path class="st7" d="M166.1,326.2h-2.2v-8.5c0-1.1,0.3-2,1-2.6s1.5-0.9,2.7-0.9c1,0,1.8,0.3,2.4,0.8c0.6,0.5,0.9,1.2,0.9,2.1
			c0,0.6-0.1,1.1-0.4,1.5c-0.3,0.4-0.4,0.9-0.4,1.3c0,0.2,0.1,0.4,0.2,0.6c0.2,0.2,0.5,0.5,0.9,0.9c0.8,0.7,1.2,1.4,1.2,2.2
			c0,0.9-0.3,1.6-0.9,2.1c-0.6,0.5-1.4,0.8-2.5,0.8c-0.4,0-0.8,0-1.2-0.1c-0.4-0.1-0.7-0.2-0.9-0.3l0.4-1.8c0.5,0.3,1.1,0.4,1.7,0.4
			c0.4,0,0.7-0.1,0.9-0.3c0.2-0.2,0.3-0.4,0.3-0.8c0-0.2-0.1-0.5-0.3-0.7c-0.2-0.2-0.5-0.5-0.9-0.8c-0.8-0.6-1.2-1.3-1.2-2.1
			c0-0.5,0.1-1,0.4-1.4c0.3-0.5,0.4-0.9,0.4-1.3c0-0.4-0.1-0.6-0.3-0.9c-0.2-0.2-0.5-0.3-0.9-0.3c-0.8,0-1.2,0.5-1.3,1.6V326.2z"/>
	</g>
	<g class="st18">
		<path class="st7" d="M233.4,323.3c0-0.4-0.2-0.8-0.5-1s-0.9-0.5-1.7-0.7s-1.4-0.5-1.9-0.8c-1.3-0.7-1.9-1.6-1.9-2.8
			c0-0.6,0.2-1.1,0.5-1.6c0.3-0.5,0.8-0.8,1.5-1.1c0.6-0.3,1.4-0.4,2.2-0.4c0.8,0,1.5,0.1,2.1,0.4s1.1,0.7,1.5,1.2
			c0.3,0.5,0.5,1.1,0.5,1.8h-2.3c0-0.5-0.2-0.9-0.5-1.2c-0.3-0.3-0.8-0.4-1.4-0.4c-0.6,0-1,0.1-1.3,0.4c-0.3,0.2-0.5,0.6-0.5,0.9
			c0,0.4,0.2,0.7,0.6,0.9c0.4,0.2,0.9,0.5,1.6,0.7c1.3,0.4,2.3,0.9,2.9,1.5c0.6,0.6,0.9,1.3,0.9,2.2c0,1-0.4,1.7-1.1,2.3
			c-0.7,0.6-1.7,0.8-3,0.8c-0.9,0-1.7-0.2-2.4-0.5c-0.7-0.3-1.3-0.8-1.6-1.3s-0.6-1.2-0.6-1.9h2.3c0,1.2,0.7,1.9,2.2,1.9
			c0.6,0,1-0.1,1.3-0.3S233.4,323.7,233.4,323.3z"/>
		<path class="st7" d="M239.8,315.8v2.1h1.4v1.6h-1.4v4.2c0,0.3,0.1,0.5,0.2,0.7c0.1,0.1,0.3,0.2,0.7,0.2c0.2,0,0.5,0,0.7-0.1v1.7
			c-0.4,0.1-0.9,0.2-1.4,0.2c-1.6,0-2.4-0.8-2.4-2.4v-4.5h-1.2v-1.6h1.2v-2.1H239.8z"/>
		<path class="st7" d="M246.3,326.4c-1.2,0-2.2-0.4-3-1.1c-0.8-0.8-1.2-1.8-1.2-3V322c0-0.8,0.2-1.6,0.5-2.3
			c0.3-0.7,0.8-1.2,1.4-1.5c0.6-0.4,1.3-0.5,2-0.5c1.1,0,2,0.4,2.7,1.1c0.7,0.7,1,1.7,1,3.1v0.9h-5.3c0.1,0.5,0.3,1,0.7,1.3
			c0.4,0.3,0.8,0.5,1.4,0.5c0.9,0,1.5-0.3,2-0.9l1.1,1.2c-0.3,0.5-0.8,0.8-1.4,1.1S247,326.4,246.3,326.4z M246.1,319.5
			c-0.4,0-0.8,0.1-1.1,0.4s-0.5,0.7-0.5,1.3h3.1v-0.2c0-0.5-0.1-0.9-0.4-1.2C246.9,319.6,246.5,319.5,246.1,319.5z"/>
		<path class="st7" d="M256,325.4c-0.6,0.7-1.3,1-2.3,1c-0.9,0-1.6-0.3-2-0.8c-0.5-0.5-0.7-1.3-0.7-2.3v-5.5h2.2v5.4
			c0,0.9,0.4,1.3,1.2,1.3c0.8,0,1.3-0.3,1.6-0.8v-5.9h2.2v8.4h-2.1L256,325.4z"/>
		<path class="st7" d="M263.7,326.4c-1.2,0-2.2-0.4-3-1.1c-0.8-0.8-1.2-1.8-1.2-3V322c0-0.8,0.2-1.6,0.5-2.3
			c0.3-0.7,0.8-1.2,1.4-1.5c0.6-0.4,1.3-0.5,2-0.5c1.1,0,2,0.4,2.7,1.1c0.7,0.7,1,1.7,1,3.1v0.9h-5.3c0.1,0.5,0.3,1,0.7,1.3
			c0.4,0.3,0.8,0.5,1.4,0.5c0.9,0,1.5-0.3,2-0.9l1.1,1.2c-0.3,0.5-0.8,0.8-1.4,1.1S264.4,326.4,263.7,326.4z M263.5,319.5
			c-0.4,0-0.8,0.1-1.1,0.4s-0.5,0.7-0.5,1.3h3.1v-0.2c0-0.5-0.1-0.9-0.4-1.2C264.3,319.6,263.9,319.5,263.5,319.5z"/>
		<path class="st7" d="M273.1,320c-0.3,0-0.6-0.1-0.8-0.1c-0.8,0-1.4,0.3-1.7,0.9v5.5h-2.2v-8.4h2.1l0.1,1c0.4-0.8,1.1-1.2,1.9-1.2
			c0.2,0,0.5,0,0.7,0.1L273.1,320z"/>
		<path class="st7" d="M281.7,322.1c0,1.3-0.3,2.4-0.9,3.1c-0.6,0.7-1.4,1.1-2.4,1.1c-0.9,0-1.6-0.3-2.2-1l-0.1,0.9h-2v-11.9h2.2
			v4.3c0.5-0.6,1.2-0.9,2-0.9c1,0,1.8,0.4,2.4,1.1s0.9,1.8,0.9,3.2V322.1z M279.5,322c0-0.8-0.1-1.5-0.4-1.9
			c-0.3-0.4-0.7-0.6-1.2-0.6c-0.7,0-1.2,0.3-1.5,0.9v3.3c0.3,0.6,0.8,0.9,1.5,0.9c0.7,0,1.2-0.4,1.4-1.1
			C279.4,323.2,279.5,322.6,279.5,322z"/>
		<path class="st7" d="M287.9,326.2c-0.1-0.2-0.2-0.5-0.2-0.7c-0.5,0.6-1.2,0.9-2.1,0.9c-0.8,0-1.5-0.2-2-0.7s-0.8-1.1-0.8-1.8
			c0-0.9,0.3-1.6,1-2s1.6-0.7,2.8-0.7h1v-0.5c0-0.4-0.1-0.7-0.3-0.9c-0.2-0.2-0.5-0.3-0.9-0.3c-0.4,0-0.7,0.1-0.9,0.3
			c-0.2,0.2-0.3,0.4-0.3,0.7h-2.2c0-0.5,0.1-0.9,0.4-1.3c0.3-0.4,0.7-0.7,1.3-1c0.5-0.2,1.2-0.4,1.8-0.4c1,0,1.8,0.3,2.5,0.8
			c0.6,0.5,0.9,1.2,0.9,2.2v3.6c0,0.8,0.1,1.4,0.3,1.8v0.1H287.9z M286.1,324.7c0.3,0,0.6-0.1,0.9-0.2c0.3-0.1,0.5-0.3,0.6-0.6v-1.4
			h-0.8c-1.1,0-1.7,0.4-1.8,1.2l0,0.1c0,0.3,0.1,0.5,0.3,0.7C285.5,324.6,285.7,324.7,286.1,324.7z"/>
		<path class="st7" d="M296.3,320c-0.3,0-0.6-0.1-0.8-0.1c-0.8,0-1.4,0.3-1.7,0.9v5.5h-2.2v-8.4h2.1l0.1,1c0.4-0.8,1.1-1.2,1.9-1.2
			c0.2,0,0.5,0,0.7,0.1L296.3,320z"/>
		<path class="st7" d="M301,326.4c-1.2,0-2.2-0.4-3-1.1c-0.8-0.8-1.2-1.8-1.2-3V322c0-0.8,0.2-1.6,0.5-2.3c0.3-0.7,0.8-1.2,1.4-1.5
			c0.6-0.4,1.3-0.5,2-0.5c1.1,0,2,0.4,2.7,1.1c0.7,0.7,1,1.7,1,3.1v0.9h-5.3c0.1,0.5,0.3,1,0.7,1.3c0.4,0.3,0.8,0.5,1.4,0.5
			c0.9,0,1.5-0.3,2-0.9l1.1,1.2c-0.3,0.5-0.8,0.8-1.4,1.1S301.7,326.4,301,326.4z M300.8,319.5c-0.4,0-0.8,0.1-1.1,0.4
			s-0.5,0.7-0.5,1.3h3.1v-0.2c0-0.5-0.1-0.9-0.4-1.2C301.6,319.6,301.2,319.5,300.8,319.5z"/>
		<path class="st7" d="M318.6,323l1.5-8h2.3l-2.5,11.2h-2.3l-1.8-7.5l-1.8,7.5h-2.3l-2.5-11.2h2.3l1.5,8l1.9-8h2L318.6,323z"/>
		<path class="st7" d="M328.1,326.2c-0.1-0.2-0.2-0.5-0.2-0.7c-0.5,0.6-1.2,0.9-2.1,0.9c-0.8,0-1.5-0.2-2-0.7s-0.8-1.1-0.8-1.8
			c0-0.9,0.3-1.6,1-2s1.6-0.7,2.8-0.7h1v-0.5c0-0.4-0.1-0.7-0.3-0.9c-0.2-0.2-0.5-0.3-0.9-0.3c-0.4,0-0.7,0.1-0.9,0.3
			c-0.2,0.2-0.3,0.4-0.3,0.7h-2.2c0-0.5,0.1-0.9,0.4-1.3c0.3-0.4,0.7-0.7,1.3-1c0.5-0.2,1.2-0.4,1.8-0.4c1,0,1.8,0.3,2.5,0.8
			c0.6,0.5,0.9,1.2,0.9,2.2v3.6c0,0.8,0.1,1.4,0.3,1.8v0.1H328.1z M326.2,324.7c0.3,0,0.6-0.1,0.9-0.2c0.3-0.1,0.5-0.3,0.6-0.6v-1.4
			h-0.8c-1.1,0-1.7,0.4-1.8,1.2l0,0.1c0,0.3,0.1,0.5,0.3,0.7C325.6,324.6,325.9,324.7,326.2,324.7z"/>
		<path class="st7" d="M334.1,326.2h-2.2v-11.9h2.2V326.2z"/>
		<path class="st7" d="M338.3,326.2H336v-11.9h2.2V326.2z"/>
		<path class="st7" d="M347.6,322.1c0,1.3-0.3,2.4-0.9,3.1c-0.6,0.7-1.4,1.1-2.4,1.1c-0.9,0-1.6-0.3-2.2-1l-0.1,0.9h-2v-11.9h2.2
			v4.3c0.5-0.6,1.2-0.9,2-0.9c1,0,1.8,0.4,2.4,1.1c0.6,0.7,0.9,1.8,0.9,3.2V322.1z M345.4,322c0-0.8-0.1-1.5-0.4-1.9
			c-0.3-0.4-0.7-0.6-1.2-0.6c-0.7,0-1.2,0.3-1.5,0.9v3.3c0.3,0.6,0.8,0.9,1.5,0.9c0.7,0,1.2-0.4,1.4-1.1
			C345.3,323.2,345.4,322.6,345.4,322z"/>
		<path class="st7" d="M348.6,322c0-0.8,0.2-1.6,0.5-2.2s0.8-1.2,1.4-1.5c0.6-0.4,1.3-0.5,2.1-0.5c1.1,0,2,0.3,2.8,1
			s1.1,1.6,1.2,2.8l0,0.6c0,1.3-0.4,2.3-1.1,3.1c-0.7,0.8-1.7,1.2-2.9,1.2s-2.2-0.4-2.9-1.2c-0.7-0.8-1.1-1.8-1.1-3.1V322z
			 M350.9,322.1c0,0.8,0.1,1.4,0.4,1.8s0.7,0.6,1.3,0.6c0.5,0,1-0.2,1.3-0.6c0.3-0.4,0.5-1.1,0.5-2c0-0.8-0.2-1.4-0.5-1.8
			c-0.3-0.4-0.7-0.6-1.3-0.6c-0.5,0-1,0.2-1.3,0.6C351,320.6,350.9,321.2,350.9,322.1z"/>
		<path class="st7" d="M361,320.4l1.4-2.5h2.4l-2.4,4.1l2.5,4.3h-2.4l-1.5-2.6l-1.5,2.6h-2.4l2.5-4.3l-2.4-4.1h2.4L361,320.4z"/>
	</g>
	<g class="st18">
		<path class="st7" d="M455.3,321.3h-4.4v3h5.2v1.9h-7.5V315h7.5v1.9h-5.2v2.7h4.4V321.3z"/>
		<path class="st7" d="M459.7,326.2h-2.2v-11.9h2.2V326.2z"/>
		<path class="st7" d="M465.4,326.4c-1.2,0-2.2-0.4-3-1.1c-0.8-0.8-1.2-1.8-1.2-3V322c0-0.8,0.2-1.6,0.5-2.3
			c0.3-0.7,0.8-1.2,1.4-1.5c0.6-0.4,1.3-0.5,2-0.5c1.1,0,2,0.4,2.7,1.1c0.7,0.7,1,1.7,1,3.1v0.9h-5.3c0.1,0.5,0.3,1,0.7,1.3
			c0.4,0.3,0.8,0.5,1.4,0.5c0.9,0,1.5-0.3,2-0.9l1.1,1.2c-0.3,0.5-0.8,0.8-1.4,1.1S466.1,326.4,465.4,326.4z M465.1,319.5
			c-0.4,0-0.8,0.1-1.1,0.4s-0.5,0.7-0.5,1.3h3.1v-0.2c0-0.5-0.1-0.9-0.4-1.2C465.9,319.6,465.6,319.5,465.1,319.5z"/>
		<path class="st7" d="M473.1,322.9l-0.8,0.8v2.5h-2.2v-11.9h2.2v6.6l0.4-0.6l2.1-2.5h2.7l-3,3.5l3.3,4.9h-2.6L473.1,322.9z"/>
		<path class="st7" d="M481.2,315.8v2.1h1.4v1.6h-1.4v4.2c0,0.3,0.1,0.5,0.2,0.7c0.1,0.1,0.3,0.2,0.7,0.2c0.2,0,0.5,0,0.7-0.1v1.7
			c-0.4,0.1-0.9,0.2-1.4,0.2c-1.6,0-2.4-0.8-2.4-2.4v-4.5h-1.2v-1.6h1.2v-2.1H481.2z"/>
		<path class="st7" d="M488.5,320c-0.3,0-0.6-0.1-0.8-0.1c-0.8,0-1.4,0.3-1.7,0.9v5.5h-2.2v-8.4h2.1l0.1,1c0.4-0.8,1.1-1.2,1.9-1.2
			c0.2,0,0.5,0,0.7,0.1L488.5,320z"/>
		<path class="st7" d="M489,322c0-0.8,0.2-1.6,0.5-2.2c0.3-0.6,0.8-1.2,1.4-1.5c0.6-0.4,1.3-0.5,2.1-0.5c1.1,0,2,0.3,2.8,1
			s1.1,1.6,1.2,2.8l0,0.6c0,1.3-0.4,2.3-1.1,3.1c-0.7,0.8-1.7,1.2-2.9,1.2s-2.2-0.4-2.9-1.2c-0.7-0.8-1.1-1.8-1.1-3.1V322z
			 M491.2,322.1c0,0.8,0.1,1.4,0.4,1.8c0.3,0.4,0.7,0.6,1.3,0.6c0.5,0,1-0.2,1.3-0.6s0.5-1.1,0.5-2c0-0.8-0.2-1.4-0.5-1.8
			s-0.7-0.6-1.3-0.6c-0.5,0-1,0.2-1.3,0.6C491.4,320.6,491.2,321.2,491.2,322.1z"/>
		<path class="st7" d="M503.1,326.2c-0.1-0.2-0.2-0.5-0.2-0.7c-0.5,0.6-1.2,0.9-2.1,0.9c-0.8,0-1.5-0.2-2-0.7
			c-0.5-0.5-0.8-1.1-0.8-1.8c0-0.9,0.3-1.6,1-2s1.6-0.7,2.8-0.7h1v-0.5c0-0.4-0.1-0.7-0.3-0.9s-0.5-0.3-0.9-0.3
			c-0.4,0-0.7,0.1-0.9,0.3c-0.2,0.2-0.3,0.4-0.3,0.7h-2.2c0-0.5,0.1-0.9,0.4-1.3c0.3-0.4,0.7-0.7,1.3-1c0.5-0.2,1.2-0.4,1.8-0.4
			c1,0,1.8,0.3,2.5,0.8c0.6,0.5,0.9,1.2,0.9,2.2v3.6c0,0.8,0.1,1.4,0.3,1.8v0.1H503.1z M501.3,324.7c0.3,0,0.6-0.1,0.9-0.2
			s0.5-0.3,0.6-0.6v-1.4H502c-1.1,0-1.7,0.4-1.8,1.2l0,0.1c0,0.3,0.1,0.5,0.3,0.7C500.7,324.6,500.9,324.7,501.3,324.7z"/>
		<path class="st7" d="M511.8,325.4c-0.6,0.7-1.3,1-2.3,1c-0.9,0-1.6-0.3-2-0.8c-0.5-0.5-0.7-1.3-0.7-2.3v-5.5h2.2v5.4
			c0,0.9,0.4,1.3,1.2,1.3c0.8,0,1.3-0.3,1.6-0.8v-5.9h2.2v8.4h-2.1L511.8,325.4z"/>
		<path class="st7" d="M518.3,315.8v2.1h1.4v1.6h-1.4v4.2c0,0.3,0.1,0.5,0.2,0.7c0.1,0.1,0.3,0.2,0.7,0.2c0.2,0,0.5,0,0.7-0.1v1.7
			c-0.4,0.1-0.9,0.2-1.4,0.2c-1.6,0-2.4-0.8-2.4-2.4v-4.5h-1.2v-1.6h1.2v-2.1H518.3z"/>
		<path class="st7" d="M520.4,322c0-0.8,0.2-1.6,0.5-2.2s0.8-1.2,1.4-1.5c0.6-0.4,1.3-0.5,2.1-0.5c1.1,0,2,0.3,2.8,1
			s1.1,1.6,1.2,2.8l0,0.6c0,1.3-0.4,2.3-1.1,3.1c-0.7,0.8-1.7,1.2-2.9,1.2s-2.2-0.4-2.9-1.2c-0.7-0.8-1.1-1.8-1.1-3.1V322z
			 M522.6,322.1c0,0.8,0.1,1.4,0.4,1.8s0.7,0.6,1.3,0.6c0.5,0,1-0.2,1.3-0.6c0.3-0.4,0.5-1.1,0.5-2c0-0.8-0.2-1.4-0.5-1.8
			c-0.3-0.4-0.7-0.6-1.3-0.6c-0.5,0-1,0.2-1.3,0.6C522.7,320.6,522.6,321.2,522.6,322.1z"/>
	</g>
	<g class="st18">
		<path class="st4" d="M179.2,89.7v3.7h-1.3v-9.5h3.5c1,0,1.9,0.3,2.4,0.8c0.6,0.5,0.9,1.2,0.9,2.1c0,0.9-0.3,1.6-0.9,2.1
			c-0.6,0.5-1.4,0.7-2.5,0.7H179.2z M179.2,88.6h2.3c0.7,0,1.2-0.2,1.5-0.5c0.4-0.3,0.5-0.8,0.5-1.4c0-0.6-0.2-1-0.5-1.4
			c-0.4-0.3-0.8-0.5-1.5-0.5h-2.3V88.6z"/>
		<path class="st4" d="M189.6,87.4c-0.2,0-0.4,0-0.6,0c-0.8,0-1.3,0.3-1.6,1v5h-1.2v-7.1h1.2l0,0.8c0.4-0.6,1-0.9,1.7-0.9
			c0.2,0,0.4,0,0.5,0.1V87.4z"/>
		<path class="st4" d="M190.2,89.8c0-0.7,0.1-1.3,0.4-1.9c0.3-0.6,0.7-1,1.1-1.3c0.5-0.3,1-0.5,1.7-0.5c1,0,1.7,0.3,2.3,1
			c0.6,0.7,0.9,1.6,0.9,2.7v0.1c0,0.7-0.1,1.3-0.4,1.9c-0.3,0.5-0.6,1-1.1,1.3c-0.5,0.3-1.1,0.5-1.7,0.5c-1,0-1.7-0.3-2.3-1
			C190.5,91.8,190.2,91,190.2,89.8L190.2,89.8z M191.5,89.9c0,0.8,0.2,1.4,0.5,1.9c0.4,0.5,0.9,0.7,1.5,0.7c0.6,0,1.1-0.2,1.5-0.7
			c0.4-0.5,0.5-1.2,0.5-2c0-0.8-0.2-1.4-0.6-1.9c-0.4-0.5-0.9-0.7-1.5-0.7c-0.6,0-1.1,0.2-1.4,0.7S191.5,89,191.5,89.9z"/>
		<path class="st4" d="M197.9,89.8c0-1.1,0.3-2,0.8-2.6c0.5-0.7,1.2-1,2-1c0.8,0,1.5,0.3,2,0.8v-3.7h1.2v10h-1.1l-0.1-0.8
			c-0.5,0.6-1.2,0.9-2,0.9c-0.8,0-1.5-0.3-2-1C198.2,91.8,197.9,91,197.9,89.8L197.9,89.8z M199.1,89.9c0,0.8,0.2,1.4,0.5,1.9
			c0.3,0.5,0.8,0.7,1.4,0.7c0.8,0,1.3-0.3,1.7-1v-3.2c-0.4-0.7-0.9-1-1.7-1c-0.6,0-1.1,0.2-1.4,0.7C199.3,88.3,199.1,89,199.1,89.9z
			"/>
		<path class="st4" d="M210.1,92.7c-0.5,0.6-1.2,0.8-2.1,0.8c-0.8,0-1.3-0.2-1.7-0.7c-0.4-0.4-0.6-1.1-0.6-1.9v-4.6h1.2v4.6
			c0,1.1,0.4,1.6,1.3,1.6c0.9,0,1.5-0.3,1.8-1v-5.1h1.2v7.1h-1.1L210.1,92.7z"/>
		<path class="st4" d="M215.1,90.1l-0.8,0.8v2.5h-1.2v-10h1.2v6.1l0.6-0.8l2.2-2.3h1.5l-2.8,3l3.1,4.1h-1.4L215.1,90.1z"/>
		<path class="st4" d="M221.5,84.6v1.7h1.3v0.9h-1.3v4.4c0,0.3,0.1,0.5,0.2,0.6s0.3,0.2,0.6,0.2c0.1,0,0.3,0,0.6-0.1v1
			c-0.3,0.1-0.6,0.1-0.9,0.1c-0.5,0-0.9-0.2-1.2-0.5c-0.3-0.3-0.4-0.8-0.4-1.4v-4.4H219v-0.9h1.3v-1.7H221.5z"/>
		<path class="st4" d="M224.3,84.4c0-0.2,0.1-0.4,0.2-0.5s0.3-0.2,0.5-0.2c0.2,0,0.4,0.1,0.5,0.2c0.1,0.1,0.2,0.3,0.2,0.5
			s-0.1,0.4-0.2,0.5c-0.1,0.1-0.3,0.2-0.5,0.2c-0.2,0-0.4-0.1-0.5-0.2S224.3,84.6,224.3,84.4z M225.6,93.4h-1.2v-7.1h1.2V93.4z"/>
		<path class="st4" d="M227.2,89.8c0-0.7,0.1-1.3,0.4-1.9c0.3-0.6,0.7-1,1.1-1.3c0.5-0.3,1-0.5,1.7-0.5c1,0,1.7,0.3,2.3,1
			c0.6,0.7,0.9,1.6,0.9,2.7v0.1c0,0.7-0.1,1.3-0.4,1.9c-0.3,0.5-0.6,1-1.1,1.3c-0.5,0.3-1.1,0.5-1.7,0.5c-1,0-1.7-0.3-2.3-1
			C227.5,91.8,227.2,91,227.2,89.8L227.2,89.8z M228.4,89.9c0,0.8,0.2,1.4,0.5,1.9c0.4,0.5,0.9,0.7,1.5,0.7c0.6,0,1.1-0.2,1.5-0.7
			c0.4-0.5,0.5-1.2,0.5-2c0-0.8-0.2-1.4-0.6-1.9c-0.4-0.5-0.9-0.7-1.5-0.7c-0.6,0-1.1,0.2-1.4,0.7S228.4,89,228.4,89.9z"/>
		<path class="st4" d="M236.3,86.3l0,0.9c0.5-0.7,1.2-1,2.1-1c1.5,0,2.2,0.8,2.3,2.5v4.7h-1.2v-4.7c0-0.5-0.1-0.9-0.3-1.1
			c-0.2-0.2-0.6-0.4-1.1-0.4c-0.4,0-0.7,0.1-1,0.3c-0.3,0.2-0.5,0.5-0.7,0.8v5h-1.2v-7.1H236.3z"/>
	</g>
	<g class="st18">
		<path class="st7" d="M319.1,196.4h-2.2v3.8h-1.3v-9.5h3.1c1.1,0,1.9,0.2,2.5,0.7c0.6,0.5,0.9,1.2,0.9,2.1c0,0.6-0.2,1.1-0.5,1.5
			c-0.3,0.4-0.8,0.8-1.3,1l2.2,4v0.1h-1.3L319.1,196.4z M316.9,195.4h1.9c0.6,0,1.1-0.2,1.5-0.5c0.4-0.3,0.6-0.8,0.6-1.3
			c0-0.6-0.2-1-0.5-1.4c-0.4-0.3-0.9-0.5-1.5-0.5h-1.9V195.4z"/>
		<path class="st7" d="M326.6,200.4c-1,0-1.7-0.3-2.3-0.9c-0.6-0.6-0.9-1.5-0.9-2.5v-0.2c0-0.7,0.1-1.3,0.4-1.9
			c0.3-0.6,0.6-1,1.1-1.3c0.5-0.3,1-0.5,1.6-0.5c0.9,0,1.6,0.3,2.1,0.9c0.5,0.6,0.8,1.5,0.8,2.6v0.5h-4.8c0,0.7,0.2,1.3,0.6,1.7
			c0.4,0.4,0.9,0.6,1.5,0.6c0.4,0,0.8-0.1,1.1-0.3c0.3-0.2,0.6-0.4,0.8-0.7l0.7,0.6C328.7,200,327.8,200.4,326.6,200.4z
			 M326.5,194.1c-0.5,0-0.9,0.2-1.2,0.5c-0.3,0.4-0.5,0.9-0.6,1.5h3.5V196c0-0.6-0.2-1.1-0.5-1.4C327.4,194.3,327,194.1,326.5,194.1
			z"/>
		<path class="st7" d="M330.5,196.7c0-1.1,0.3-2,0.8-2.6s1.2-1,2-1c0.9,0,1.5,0.3,2,0.9l0.1-0.8h1.1v6.9c0,0.9-0.3,1.6-0.8,2.2
			c-0.5,0.5-1.3,0.8-2.2,0.8c-0.5,0-1-0.1-1.5-0.3s-0.9-0.5-1.1-0.9l0.6-0.7c0.5,0.6,1.2,1,1.9,1c0.6,0,1-0.2,1.4-0.5
			c0.3-0.3,0.5-0.8,0.5-1.4v-0.6c-0.5,0.6-1.1,0.8-2,0.8c-0.8,0-1.5-0.3-2-1C330.7,198.8,330.5,197.9,330.5,196.7z M331.7,196.8
			c0,0.8,0.2,1.4,0.5,1.9s0.8,0.7,1.4,0.7c0.8,0,1.3-0.3,1.7-1v-3.2c-0.4-0.7-0.9-1-1.7-1c-0.6,0-1,0.2-1.4,0.7
			C331.9,195.3,331.7,195.9,331.7,196.8z"/>
		<path class="st7" d="M341.2,200.4c-1,0-1.7-0.3-2.3-0.9c-0.6-0.6-0.9-1.5-0.9-2.5v-0.2c0-0.7,0.1-1.3,0.4-1.9
			c0.3-0.6,0.6-1,1.1-1.3c0.5-0.3,1-0.5,1.6-0.5c0.9,0,1.6,0.3,2.1,0.9s0.8,1.5,0.8,2.6v0.5h-4.8c0,0.7,0.2,1.3,0.6,1.7
			s0.9,0.6,1.5,0.6c0.4,0,0.8-0.1,1.1-0.3c0.3-0.2,0.6-0.4,0.8-0.7l0.7,0.6C343.3,200,342.4,200.4,341.2,200.4z M341.1,194.1
			c-0.5,0-0.9,0.2-1.2,0.5c-0.3,0.4-0.5,0.9-0.6,1.5h3.5V196c0-0.6-0.2-1.1-0.5-1.4C342,194.3,341.6,194.1,341.1,194.1z"/>
		<path class="st7" d="M346.7,200.3h-1.2v-10h1.2V200.3z"/>
		<path class="st7" d="M353,199.6c-0.5,0.6-1.2,0.8-2.1,0.8c-0.8,0-1.3-0.2-1.7-0.7c-0.4-0.4-0.6-1.1-0.6-1.9v-4.6h1.2v4.6
			c0,1.1,0.4,1.6,1.3,1.6c0.9,0,1.5-0.3,1.8-1v-5.1h1.2v7.1H353L353,199.6z"/>
		<path class="st7" d="M357.1,193.2l0,0.9c0.5-0.7,1.2-1,2.1-1c1.5,0,2.2,0.8,2.3,2.5v4.7h-1.2v-4.7c0-0.5-0.1-0.9-0.3-1.1
			c-0.2-0.2-0.6-0.4-1.1-0.4c-0.4,0-0.7,0.1-1,0.3c-0.3,0.2-0.5,0.5-0.7,0.8v5H356v-7.1H357.1z"/>
		<path class="st7" d="M363.1,196.7c0-1.1,0.3-2,0.8-2.6s1.2-1,2-1c0.9,0,1.5,0.3,2,0.9l0.1-0.8h1.1v6.9c0,0.9-0.3,1.6-0.8,2.2
			c-0.5,0.5-1.3,0.8-2.2,0.8c-0.5,0-1-0.1-1.5-0.3c-0.5-0.2-0.9-0.5-1.1-0.9l0.6-0.7c0.5,0.6,1.2,1,1.9,1c0.6,0,1-0.2,1.4-0.5
			s0.5-0.8,0.5-1.4v-0.6c-0.5,0.6-1.1,0.8-2,0.8c-0.8,0-1.5-0.3-2-1C363.3,198.8,363.1,197.9,363.1,196.7z M364.3,196.8
			c0,0.8,0.2,1.4,0.5,1.9c0.3,0.5,0.8,0.7,1.4,0.7c0.8,0,1.3-0.3,1.7-1v-3.2c-0.4-0.7-0.9-1-1.7-1c-0.6,0-1,0.2-1.4,0.7
			C364.5,195.3,364.3,195.9,364.3,196.8z"/>
	</g>
	<g class="st18">
		<path class="st4" d="M183.9,190l-3.6-7.5l1-1l4.2,9.2l-0.8,0.8l-9.2-4.2l1-1L183.9,190z"/>
		<path class="st4" d="M190.7,185.8c-0.7,0.7-1.5,1-2.3,1s-1.7-0.4-2.4-1.1l-0.2-0.2c-0.5-0.5-0.8-1-1-1.6c-0.2-0.6-0.2-1.1-0.1-1.7
			c0.1-0.6,0.4-1,0.8-1.4c0.6-0.6,1.4-0.9,2.2-0.9c0.8,0.1,1.6,0.5,2.4,1.3l0.4,0.4l-3.4,3.4c0.5,0.5,1,0.7,1.6,0.8s1.1-0.2,1.5-0.6
			c0.3-0.3,0.5-0.6,0.6-1c0.1-0.3,0.1-0.7,0.1-1l0.9-0.1C191.8,184,191.5,184.9,190.7,185.8z M186.1,181.4c-0.3,0.3-0.5,0.8-0.5,1.2
			c0,0.5,0.2,1,0.6,1.5l2.5-2.5l-0.1-0.1c-0.5-0.4-0.9-0.6-1.4-0.7C186.8,180.9,186.4,181.1,186.1,181.4z"/>
		<path class="st4" d="M191.7,176.1c-0.1,0.1-0.3,0.2-0.5,0.4c-0.6,0.6-0.7,1.2-0.4,1.9l3.5,3.5l-0.9,0.9l-5-5l0.8-0.8l0.6,0.6
			c-0.2-0.7,0-1.3,0.5-1.9c0.2-0.2,0.3-0.3,0.4-0.3L191.7,176.1z"/>
		<path class="st4" d="M198.5,172.9c0.8,0.8,1.2,1.6,1.3,2.4c0.1,0.8-0.1,1.5-0.7,2.1c-0.6,0.6-1.3,0.9-2.1,0.8l0.5,0.6l-0.8,0.8
			l-7.1-7.1l0.9-0.9l2.6,2.6c-0.1-0.8,0.2-1.5,0.8-2.1c0.6-0.6,1.3-0.9,2.1-0.7C196.8,171.6,197.6,172,198.5,172.9L198.5,172.9z
			 M197.5,173.6c-0.6-0.6-1.1-0.9-1.7-1s-1,0.1-1.4,0.5c-0.6,0.6-0.7,1.2-0.4,2l2.2,2.2c0.8,0.3,1.5,0.1,2-0.4
			c0.4-0.4,0.6-0.9,0.5-1.4S198.2,174.3,197.5,173.6z"/>
		<path class="st4" d="M200.2,167.6c-0.1,0.1-0.3,0.2-0.5,0.4c-0.6,0.6-0.7,1.2-0.4,1.9l3.5,3.5l-0.9,0.9l-5-5l0.8-0.8l0.6,0.6
			c-0.2-0.7,0-1.3,0.5-1.9c0.2-0.2,0.3-0.3,0.4-0.3L200.2,167.6z"/>
		<path class="st4" d="M208.1,168.1c-0.1,0-0.4-0.2-0.6-0.4c0,0.8-0.3,1.5-0.8,2c-0.5,0.5-1,0.8-1.6,0.8c-0.6,0-1.1-0.2-1.5-0.6
			c-0.5-0.5-0.7-1.1-0.6-1.8c0.1-0.7,0.5-1.4,1.2-2.1l0.8-0.8l-0.4-0.4c-0.3-0.3-0.6-0.4-1-0.4c-0.4,0-0.7,0.2-1.1,0.5
			c-0.3,0.3-0.5,0.6-0.5,1c-0.1,0.4,0,0.6,0.2,0.9l-0.9,0.9c-0.2-0.2-0.4-0.6-0.5-1c-0.1-0.4,0-0.8,0.2-1.3c0.2-0.4,0.4-0.8,0.8-1.2
			c0.6-0.6,1.2-0.9,1.8-0.9c0.6,0,1.2,0.2,1.7,0.7l2.3,2.3c0.5,0.5,0.9,0.8,1.3,0.9l0.1,0.1L208.1,168.1z M206.1,168.9
			c0.3-0.3,0.5-0.6,0.6-1s0.1-0.7,0-1.1l-1-1l-0.7,0.7c-1,1-1.3,1.9-0.7,2.5c0.3,0.3,0.6,0.4,0.9,0.4
			C205.5,169.3,205.8,169.2,206.1,168.9z"/>
		<path class="st4" d="M212.8,162.5c0.1,0.7-0.2,1.4-0.9,2.1c-0.5,0.5-1.1,0.8-1.7,0.8c-0.6,0-1.2-0.3-1.8-1l-3.3-3.3l0.9-0.9
			l3.2,3.2c0.8,0.8,1.4,0.8,2.1,0.2c0.7-0.7,0.8-1.3,0.6-2l-3.6-3.6l0.9-0.9l5,5l-0.8,0.8L212.8,162.5z"/>
		<path class="st4" d="M216.8,158.3c0.3-0.3,0.5-0.7,0.5-1.1c0-0.4-0.1-0.8-0.3-1.1l0.8-0.8c0.3,0.3,0.4,0.7,0.5,1.1s0,0.9-0.1,1.3
			c-0.2,0.5-0.4,0.9-0.7,1.2c-0.7,0.7-1.4,1-2.3,0.9c-0.9-0.1-1.7-0.5-2.5-1.3l-0.1-0.1c-0.5-0.5-0.8-1-1-1.6
			c-0.2-0.6-0.2-1.1-0.1-1.7c0.1-0.5,0.4-1,0.9-1.5c0.6-0.6,1.2-0.9,1.9-0.9s1.3,0.2,1.9,0.7l-0.8,0.8c-0.3-0.3-0.7-0.4-1.2-0.4
			c-0.4,0-0.8,0.2-1.1,0.5c-0.4,0.4-0.6,0.9-0.5,1.5c0.1,0.6,0.4,1.1,1,1.7l0.2,0.2c0.6,0.6,1.1,0.9,1.7,1
			C215.9,158.9,216.4,158.7,216.8,158.3z"/>
		<path class="st4" d="M216.8,150.7c-0.1-0.8,0.2-1.6,0.8-2.2c1.1-1.1,2.2-1,3.4,0.2l3.3,3.3l-0.9,0.9l-3.3-3.3
			c-0.4-0.4-0.7-0.5-1-0.6s-0.7,0.2-1,0.5c-0.3,0.3-0.4,0.6-0.5,1s0,0.7,0.1,1.1l3.6,3.6l-0.9,0.9l-7.1-7.1l0.9-0.9L216.8,150.7z"/>
	</g>
	<g>
		<g>
			<line class="st19" x1="180.1" y1="215.5" x2="256.9" y2="138.7"/>
			<g>
				<polygon class="st4" points="256.6,142.6 256.6,139 253,139 254.6,137.5 258.1,137.5 258.1,141.1 				"/>
			</g>
		</g>
	</g>
	<g class="st18">
		<path class="st4" d="M378,148.2l3.2,3.2l-0.7,0.7l-4.1-4.1l6.7-6.7l0.9,0.9L378,148.2z"/>
		<path class="st4" d="M384.4,156.1c0-0.1,0.2-0.4,0.4-0.6c-0.8,0-1.5-0.3-2-0.8c-0.5-0.5-0.8-1-0.8-1.6c0-0.6,0.2-1.1,0.6-1.5
			c0.5-0.5,1.1-0.7,1.8-0.6s1.4,0.5,2.1,1.2l0.8,0.8l0.4-0.4c0.3-0.3,0.4-0.6,0.4-1c0-0.4-0.2-0.7-0.5-1.1c-0.3-0.3-0.6-0.5-1-0.5
			s-0.7,0-0.9,0.2l-0.9-0.9c0.2-0.2,0.6-0.4,1-0.5c0.4-0.1,0.8,0,1.3,0.2c0.4,0.2,0.8,0.4,1.2,0.8c0.6,0.6,0.9,1.2,0.9,1.8
			s-0.2,1.2-0.7,1.7l-2.3,2.3c-0.5,0.5-0.8,0.9-0.9,1.3l-0.1,0.1L384.4,156.1z M383.7,154c0.3,0.3,0.6,0.5,1,0.6
			c0.4,0.1,0.7,0.1,1.1,0l1-1l-0.7-0.7c-1-1-1.9-1.3-2.5-0.7c-0.3,0.3-0.4,0.6-0.4,0.9C383.2,153.4,383.4,153.7,383.7,154z"/>
		<path class="st4" d="M388.8,155.4c0.8-0.8,1.6-1.2,2.4-1.3c0.8-0.1,1.5,0.1,2.1,0.7c0.6,0.6,0.8,1.2,0.8,2l2.6-2.6l0.9,0.9
			l-7.1,7.1l-0.8-0.8l0.5-0.6c-0.8,0.1-1.4-0.2-2.1-0.8c-0.6-0.6-0.8-1.3-0.7-2.1S388,156.2,388.8,155.4L388.8,155.4z M389.6,156.3
			c-0.6,0.6-0.9,1.1-1,1.7c-0.1,0.6,0.1,1,0.5,1.5c0.5,0.5,1.2,0.7,1.9,0.5l2.3-2.3c0.2-0.7,0.1-1.4-0.5-1.9
			c-0.4-0.4-0.9-0.6-1.5-0.5C390.8,155.3,390.2,155.7,389.6,156.3z"/>
		<path class="st4" d="M393.8,165.6c-0.7-0.7-1-1.5-1-2.3c0-0.9,0.4-1.7,1.1-2.4l0.2-0.2c0.5-0.5,1-0.8,1.6-1
			c0.6-0.2,1.1-0.2,1.7-0.1c0.6,0.1,1,0.4,1.4,0.8c0.7,0.7,0.9,1.4,0.9,2.2s-0.5,1.6-1.3,2.4l-0.4,0.4l-3.4-3.4
			c-0.5,0.5-0.7,1-0.8,1.6s0.2,1.1,0.6,1.5c0.3,0.3,0.6,0.5,1,0.6c0.3,0.1,0.7,0.1,1,0.1l0.1,0.9
			C395.6,166.8,394.6,166.5,393.8,165.6z M398.2,161c-0.3-0.3-0.8-0.5-1.2-0.5c-0.5,0-1,0.2-1.5,0.6l2.5,2.5l0.1-0.1
			c0.4-0.5,0.6-0.9,0.7-1.4C398.7,161.8,398.5,161.4,398.2,161z"/>
		<path class="st4" d="M401.1,170.1c0.2-0.2,0.3-0.5,0.3-0.8c0-0.3-0.2-0.7-0.6-1.2c-0.3-0.5-0.6-1-0.7-1.4c-0.1-0.4-0.2-0.7-0.1-1
			c0.1-0.3,0.2-0.6,0.5-0.8c0.4-0.4,0.9-0.6,1.6-0.5c0.6,0.1,1.2,0.4,1.8,0.9c0.6,0.6,0.9,1.2,0.9,1.8c0.1,0.6-0.1,1.2-0.6,1.7
			l-0.9-0.9c0.2-0.2,0.3-0.5,0.3-0.9s-0.2-0.7-0.5-1c-0.3-0.3-0.6-0.5-0.9-0.5c-0.3,0-0.6,0.1-0.8,0.3c-0.2,0.2-0.3,0.4-0.2,0.7
			c0.1,0.3,0.3,0.7,0.6,1.2c0.3,0.5,0.6,1,0.7,1.4c0.1,0.4,0.2,0.8,0.1,1.1c-0.1,0.3-0.2,0.6-0.5,0.9c-0.4,0.4-1,0.6-1.6,0.5
			c-0.6-0.1-1.2-0.4-1.8-1c-0.4-0.4-0.7-0.8-0.8-1.3c-0.2-0.4-0.2-0.9-0.1-1.3c0.1-0.4,0.3-0.8,0.6-1.1l0.9,0.9
			c-0.3,0.3-0.4,0.6-0.3,1c0,0.4,0.2,0.7,0.6,1.1c0.3,0.3,0.6,0.5,1,0.6C400.6,170.4,400.8,170.3,401.1,170.1z"/>
		<path class="st4" d="M409.1,168.3l-1.2,1.2l0.9,0.9l-0.7,0.7l-0.9-0.9l-3.1,3.1c-0.2,0.2-0.3,0.4-0.3,0.6c0,0.2,0.1,0.4,0.3,0.6
			c0.1,0.1,0.3,0.2,0.5,0.4l-0.7,0.7c-0.3-0.2-0.5-0.4-0.7-0.6c-0.4-0.4-0.6-0.8-0.5-1.2s0.3-0.8,0.7-1.3l3.1-3.1l-0.9-0.9l0.7-0.7
			l0.9,0.9l1.2-1.2L409.1,168.3z"/>
		<path class="st4" d="M407.9,179.5c0-0.1,0.2-0.4,0.4-0.6c-0.8,0-1.5-0.3-2-0.8c-0.5-0.5-0.8-1-0.8-1.6c0-0.6,0.2-1.1,0.6-1.5
			c0.5-0.5,1.1-0.7,1.8-0.6c0.7,0.1,1.4,0.5,2.1,1.2l0.8,0.8l0.4-0.4c0.3-0.3,0.4-0.6,0.4-1c0-0.4-0.2-0.7-0.5-1.1
			c-0.3-0.3-0.6-0.5-1-0.5c-0.4-0.1-0.6,0-0.9,0.2l-0.9-0.9c0.2-0.2,0.6-0.4,1-0.5c0.4-0.1,0.8,0,1.3,0.2c0.4,0.2,0.8,0.4,1.2,0.8
			c0.6,0.6,0.9,1.2,0.9,1.8c0,0.6-0.2,1.2-0.7,1.7l-2.3,2.3c-0.5,0.5-0.8,0.9-0.9,1.3l-0.1,0.1L407.9,179.5z M407.1,177.5
			c0.3,0.3,0.6,0.5,1,0.6c0.4,0.1,0.7,0.1,1.1,0l1-1l-0.7-0.7c-1-1-1.9-1.3-2.5-0.7c-0.3,0.3-0.4,0.6-0.4,0.9
			C406.7,176.9,406.8,177.2,407.1,177.5z"/>
		<path class="st4" d="M415.8,177.4l-0.6,0.7c0.9-0.1,1.6,0.2,2.2,0.8c1.1,1.1,1,2.2-0.2,3.4l-3.3,3.3l-0.9-0.9l3.3-3.3
			c0.4-0.4,0.5-0.7,0.6-1c0-0.3-0.2-0.7-0.5-1c-0.3-0.3-0.6-0.4-1-0.5c-0.4-0.1-0.7,0-1.1,0.1l-3.6,3.6l-0.9-0.9l5-5L415.8,177.4z"
			/>
		<path class="st4" d="M417.5,184.1c0.8-0.8,1.6-1.2,2.4-1.3c0.8-0.1,1.5,0.1,2.1,0.7c0.6,0.6,0.8,1.2,0.8,2l2.6-2.6l0.9,0.9
			l-7.1,7.1l-0.8-0.8l0.5-0.6c-0.8,0.1-1.4-0.2-2.1-0.8c-0.6-0.6-0.8-1.3-0.7-2.1S416.7,184.9,417.5,184.1L417.5,184.1z M418.3,185
			c-0.6,0.6-0.9,1.1-1,1.7c-0.1,0.6,0.1,1,0.5,1.5c0.5,0.5,1.2,0.7,1.9,0.5l2.3-2.3c0.2-0.7,0.1-1.4-0.5-1.9
			c-0.4-0.4-0.9-0.6-1.5-0.5C419.5,184,418.9,184.4,418.3,185z"/>
	</g>
	<g>
		<g>
			<line class="st19" x1="346.5" y1="137.5" x2="424.5" y2="215.5"/>
			<g>
				<polygon class="st4" points="346.8,141.4 346.8,137.8 350.4,137.8 348.9,136.3 345.3,136.3 345.3,139.9 				"/>
			</g>
		</g>
	</g>
	<path class="st20" d="M310.3,123.4h-25.8c-5,0-9-4-9-9V88.6c0-5,4-9,9-9h25.8c5,0,9,4,9,9v25.8
		C319.3,119.3,315.2,123.4,310.3,123.4z"/>
	<path class="st7" d="M296.9,90.9h5.8l-3.8,7.7h3.8l-7.2,13.5l1.4-9.6h-4.8L296.9,90.9z"/>
	<line class="st21" x1="293.7" y1="246.1" x2="293.7" y2="260.7"/>
</g>
</svg>
